<svg xmlns="http://www.w3.org/2000/svg" xmlns:xlink="http://www.w3.org/1999/xlink" width="300" height="300" viewBox="0 0 300 300">
  <defs>
    <path id="pattern-on-purple-a" d="M357.708818,18.7785999 C357.804199,19.7353972 357.22198,20.0469669 356.86111,20.6424429 C353.754883,25.7680664 344.028564,27.6335449 339.195877,32.8292456 C333.541592,38.9082591 334.293212,47.3709125 331.261116,47.0318037 C329.127165,46.7930842 327.526375,39.1917046 322.559464,38.7978248 C315.061493,38.2034618 313.415498,46.1336159 310.329766,47.0257509 C307.244033,47.9178858 307.691435,39.8762702 309.285248,36.3158501 C310.692571,33.1716022 313.217234,28.7637794 317.076108,29.7752003 C319.629552,30.4444122 316.664173,34.7946589 316.664173,34.7946589 C316.664173,34.7946589 322.064386,35.1501547 325.395041,30.1098801 C327.607047,26.762344 334.935389,15.3111874 342.280883,25.2164984 C342.280883,23.9807129 339.403153,16.9030939 341.269942,12.8591818 C342.801833,9.54087679 346.327263,9.60701554 349.535675,10.4510227 C352.166157,11.1429699 354.250542,10.6250799 355.503643,10.0952317 C355.748421,9.99174228 356.003954,9.96398762 356.246841,9.99956673 C356.86111,10.4510227 355.072812,10.2716509 354.661314,11.4782402 C354.0469,13.2796353 357.388456,11.8950029 358.10331,14.718596 C358.10331,14.718596 358.323232,19.0044755 354.83007,18.4780229 L354.966413,17.5485372 C354.966413,17.5485372 353.784912,18.7785999 354.645615,19.7353972 L354.774399,18.8577301 C355.478061,19.1143131 356.472868,19.239209 357.708818,18.7785999 Z"/>
    <path id="pattern-on-purple-b" d="M16.1212454,44.060133 C16.5169994,45.2976363 17.0634174,47.1304204 18.3357969,46.9926638 C19.6081765,46.8549072 20.9828612,43.4871592 21.7718765,41.3890425 C18.6130251,41.0076847 17.6193627,42.5422082 16.1212454,44.060133 Z"/>
    <path id="pattern-on-purple-c" d="M36.3760875,43.5678803 C37.1599763,45.3307373 37.8403568,46.938047 38.9979783,46.9584218 C41.3281337,46.9991716 39.0678686,39.6400564 42.0267186,33 C38.2753906,35.3493652 37.1261816,40.9225383 36.3760875,43.5678803 Z"/>
    <path id="pattern-on-purple-d" d="M2.33961478,3 L1.13677026,4.20284452 C0.954409914,4.38520486 0.954409914,4.6808694 1.13677026,4.86322974 L1.13677026,4.86322974 L1.13677026,4.86322974 C1.3191306,5.04559009 1.61479514,5.04559009 1.79715548,4.86322974 L1.79715548,4.86322974 L3,3.66038522 L4.20284452,4.86322974 C4.38520486,5.04559009 4.6808694,5.04559009 4.86322974,4.86322974 L4.86322974,4.86322974 L4.86322974,4.86322974 C5.04559009,4.6808694 5.04559009,4.38520486 4.86322974,4.20284452 L3.66038522,3 L4.86322974,1.79715548 C5.04559009,1.61479514 5.04559009,1.3191306 4.86322974,1.13677026 L4.86322974,1.13677026 L4.86322974,1.13677026 C4.6808694,0.954409914 4.38520486,0.954409914 4.20284452,1.13677026 L3,2.33961478 L1.79715548,1.13677026 C1.61479514,0.954409914 1.3191306,0.954409914 1.13677026,1.13677026 L1.13677026,1.13677026 L1.13677026,1.13677026 C0.954409914,1.3191306 0.954409914,1.61479514 1.13677026,1.79715548 L1.13677026,1.79715548 L2.33961478,3 Z"/>
  </defs>
  <g fill="none" fill-rule="evenodd" opacity=".184" transform="translate(-231 -143)">
    <g fill="#333" transform="translate(217 108)">
      <path d="M24.9110803,22.4499193 C23.0829603,22.4499193 21.2579603,23.1499193 19.8734803,24.5623993 L18.8359603,25.6248793 L17.7984403,24.5748793 C15.0296803,21.7498793 10.4796403,21.7498793 7.71084028,24.5748793 C4.94204028,27.3998793 4.94208028,31.9624793 7.71084028,34.7872793 C11.1342803,38.2794793 14.5624403,41.7824793 17.9860403,45.2748793 C18.2110403,45.5045673 18.5188403,45.6342553 18.8422803,45.6342553 C19.1641563,45.6342553 19.4719603,45.5045673 19.6969603,45.2748793 L29.9593603,34.7748793 C32.7234403,31.9483193 32.7281203,27.3872793 29.9593603,24.5624793 C28.5750003,23.1499993 26.7374803,22.4499993 24.9093603,22.4499993 L24.9110803,22.4499193 Z M24.9110803,24.8123993 C26.1079603,24.8123993 27.3032803,25.2967593 28.2360803,26.2499193 C30.1032803,28.1545993 30.1017203,31.1919193 28.2360803,33.0999193 L18.8360803,42.7123193 C15.7001603,39.5123193 12.5720803,36.3123193 9.43608028,33.1123193 C7.56888028,31.2076393 7.56888028,28.1543193 9.43608028,26.2499193 C11.3032803,24.3452393 14.2188803,24.3452393 16.0860803,26.2499193 L17.9736003,28.1874393 C18.1986003,28.4171273 18.5064003,28.5468153 18.8298403,28.5468153 C19.1517163,28.5468153 19.4595203,28.4171273 19.6860803,28.1874393 L21.5860803,26.2499193 C22.5188803,25.2967993 23.7142003,24.8123993 24.9110803,24.8123993 Z" transform="rotate(-20 25.634 25.634)"/>
      <path d="M24.9110803,22.4499193 C23.0829603,22.4499193 21.2579603,23.1499193 19.8734803,24.5623993 L18.8359603,25.6248793 L17.7984403,24.5748793 C15.0296803,21.7498793 10.4796403,21.7498793 7.71084028,24.5748793 C4.94204028,27.3998793 4.94208028,31.9624793 7.71084028,34.7872793 C11.1342803,38.2794793 14.5624403,41.7824793 17.9860403,45.2748793 C18.2110403,45.5045673 18.5188403,45.6342553 18.8422803,45.6342553 C19.1641563,45.6342553 19.4719603,45.5045673 19.6969603,45.2748793 L29.9593603,34.7748793 C32.7234403,31.9483193 32.7281203,27.3872793 29.9593603,24.5624793 C28.5750003,23.1499993 26.7374803,22.4499993 24.9093603,22.4499993 L24.9110803,22.4499193 Z M24.9110803,24.8123993 C26.1079603,24.8123993 27.3032803,25.2967593 28.2360803,26.2499193 C30.1032803,28.1545993 30.1017203,31.1919193 28.2360803,33.0999193 L18.8360803,42.7123193 C15.7001603,39.5123193 12.5720803,36.3123193 9.43608028,33.1123193 C7.56888028,31.2076393 7.56888028,28.1543193 9.43608028,26.2499193 C11.3032803,24.3452393 14.2188803,24.3452393 16.0860803,26.2499193 L17.9736003,28.1874393 C18.1986003,28.4171273 18.5064003,28.5468153 18.8298403,28.5468153 C19.1517163,28.5468153 19.4595203,28.4171273 19.6860803,28.1874393 L21.5860803,26.2499193 C22.5188803,25.2967993 23.7142003,24.8123993 24.9110803,24.8123993 Z" transform="rotate(-20 175.634 -825.058)"/>
      <path d="M24.9110803,22.4499193 C23.0829603,22.4499193 21.2579603,23.1499193 19.8734803,24.5623993 L18.8359603,25.6248793 L17.7984403,24.5748793 C15.0296803,21.7498793 10.4796403,21.7498793 7.71084028,24.5748793 C4.94204028,27.3998793 4.94208028,31.9624793 7.71084028,34.7872793 C11.1342803,38.2794793 14.5624403,41.7824793 17.9860403,45.2748793 C18.2110403,45.5045673 18.5188403,45.6342553 18.8422803,45.6342553 C19.1641563,45.6342553 19.4719603,45.5045673 19.6969603,45.2748793 L29.9593603,34.7748793 C32.7234403,31.9483193 32.7281203,27.3872793 29.9593603,24.5624793 C28.5750003,23.1499993 26.7374803,22.4499993 24.9093603,22.4499993 L24.9110803,22.4499193 Z M24.9110803,24.8123993 C26.1079603,24.8123993 27.3032803,25.2967593 28.2360803,26.2499193 C30.1032803,28.1545993 30.1017203,31.1919193 28.2360803,33.0999193 L18.8360803,42.7123193 C15.7001603,39.5123193 12.5720803,36.3123193 9.43608028,33.1123193 C7.56888028,31.2076393 7.56888028,28.1543193 9.43608028,26.2499193 C11.3032803,24.3452393 14.2188803,24.3452393 16.0860803,26.2499193 L17.9736003,28.1874393 C18.1986003,28.4171273 18.5064003,28.5468153 18.8298403,28.5468153 C19.1517163,28.5468153 19.4595203,28.4171273 19.6860803,28.1874393 L21.5860803,26.2499193 C22.5188803,25.2967993 23.7142003,24.8123993 24.9110803,24.8123993 Z" transform="rotate(-20 876.327 175.634)"/>
      <path d="M24.9110803,22.4499193 C23.0829603,22.4499193 21.2579603,23.1499193 19.8734803,24.5623993 L18.8359603,25.6248793 L17.7984403,24.5748793 C15.0296803,21.7498793 10.4796403,21.7498793 7.71084028,24.5748793 C4.94204028,27.3998793 4.94208028,31.9624793 7.71084028,34.7872793 C11.1342803,38.2794793 14.5624403,41.7824793 17.9860403,45.2748793 C18.2110403,45.5045673 18.5188403,45.6342553 18.8422803,45.6342553 C19.1641563,45.6342553 19.4719603,45.5045673 19.6969603,45.2748793 L29.9593603,34.7748793 C32.7234403,31.9483193 32.7281203,27.3872793 29.9593603,24.5624793 C28.5750003,23.1499993 26.7374803,22.4499993 24.9093603,22.4499993 L24.9110803,22.4499193 Z M24.9110803,24.8123993 C26.1079603,24.8123993 27.3032803,25.2967593 28.2360803,26.2499193 C30.1032803,28.1545993 30.1017203,31.1919193 28.2360803,33.0999193 L18.8360803,42.7123193 C15.7001603,39.5123193 12.5720803,36.3123193 9.43608028,33.1123193 C7.56888028,31.2076393 7.56888028,28.1543193 9.43608028,26.2499193 C11.3032803,24.3452393 14.2188803,24.3452393 16.0860803,26.2499193 L17.9736003,28.1874393 C18.1986003,28.4171273 18.5064003,28.5468153 18.8298403,28.5468153 C19.1517163,28.5468153 19.4595203,28.4171273 19.6860803,28.1874393 L21.5860803,26.2499193 C22.5188803,25.2967993 23.7142003,24.8123993 24.9110803,24.8123993 Z" transform="rotate(-20 1026.327 -675.058)"/>
    </g>
    <path fill="#333" fill-rule="nonzero" d="M3,2.26315789 C2.58578644,2.26315789 2.25,2.600908 2.25,3.01754386 L2.25,39.9824561 C2.25,40.399092 2.58578644,40.7368421 3,40.7368421 L24,40.7368421 C24.4142136,40.7368421 24.75,40.399092 24.75,39.9824561 L24.75,3.01754386 C24.75,2.600908 24.4142136,2.26315789 24,2.26315789 L21.7915649,2.26315789 L21.777043,3.05386 L21.777043,3.05386 C21.7620279,3.87141231 21.0949861,4.52631579 20.2772959,4.52631579 L6.77508523,4.52631579 L6.77508523,4.52631579 C5.9466581,4.52631579 5.27508523,3.85474291 5.27508523,3.02631579 C5.27508523,3.01802353 5.27515399,3.00973141 5.27529151,3.00144029 L5.28753662,2.26315789 L3,2.26315789 Z M3,0 L24,0 C25.6568542,0 27,1.3510004 27,3.01754386 L27,39.9824561 C27,41.6489996 25.6568542,43 24,43 L3,43 C1.34314575,43 0,41.6489996 0,39.9824561 L0,3.01754386 C0,1.3510004 1.34314575,0 3,0 Z M11.627193,2.26315789 C11.4188751,2.26315789 11.25,2.43203295 11.25,2.64035088 C11.25,2.84866881 11.4188751,3.01754386 11.627193,3.01754386 L15.372807,3.01754386 C15.5811249,3.01754386 15.75,2.84866881 15.75,2.64035088 L15.75,2.64035088 C15.75,2.43203295 15.5811249,2.26315789 15.372807,2.26315789 L15.372807,2.26315789 L11.627193,2.26315789 Z" transform="translate(273 157)"/>
    <g fill="#333" transform="translate(322 123)">
      <path d="M5.19831911,21.009819 L16.4278449,7.81339889 C17.2629536,6.86379798 17.1695988,5.43933396 16.2412027,4.58521945 C15.3128005,3.73104228 13.9201359,3.82652867 13.0850885,4.77612332 L0.556315435,19.4900503 C-0.185438478,20.3442275 -0.185438478,21.6732051 0.556315435,22.5273823 L13.0850885,37.2413092 C13.5492957,37.7161159 14.1068455,38 14.7553059,38 C15.3128373,38 15.8679674,37.8090961 16.241264,37.4297382 C16.7054712,37.0503803 16.9830179,36.4801373 16.9830179,35.8168703 C16.9830179,35.2466085 16.7963757,34.5833164 16.4254865,34.1085159 L5.19831911,21.009819 Z"/>
      <path d="M40.2189982,4.75689014 C39.8283773,4.2832103 39.2412042,4 38.5582451,4 C37.9710526,4 37.2880678,4.19045079 36.7991708,4.56890835 C35.8213768,5.42105826 35.7230554,6.84207902 36.6025991,7.78942619 L48.5276084,20.9526514 L36.7006623,34.1177518 C36.3100415,34.5914316 36.1134698,35.1603587 36.1134698,35.8220516 C36.1134698,36.39096 36.4058016,36.9574181 36.8946857,37.4310916 C37.2853065,37.8095492 37.8724797,38 38.459698,38 C39.1451731,38 39.8281322,37.7167647 40.2187724,37.2431099 L53.4140881,22.5641042 C54.195304,21.7119543 54.195304,20.3861308 53.4140881,19.5339809 L40.2189982,4.75689014 Z"/>
      <path d="M31.1341366,0.0543513606 C29.8986969,-0.227796235 28.6633199,0.621087448 28.3765482,1.84697741 L21.0547731,38.263644 C20.7704362,39.4895714 21.6259067,40.7154364 22.8613088,41 L23.3368414,41 C24.4766488,41 25.4277014,40.2459999 25.6189034,39.1125402 L32.9406786,2.69587354 C33.2250155,1.46994622 32.465146,0.336486503 31.1341429,0.0543513606 L31.1341366,0.0543513606 Z"/>
      <g transform="translate(0 300)">
        <path d="M5.19831911,21.009819 L16.4278449,7.81339889 C17.2629536,6.86379798 17.1695988,5.43933396 16.2412027,4.58521945 C15.3128005,3.73104228 13.9201359,3.82652867 13.0850885,4.77612332 L0.556315435,19.4900503 C-0.185438478,20.3442275 -0.185438478,21.6732051 0.556315435,22.5273823 L13.0850885,37.2413092 C13.5492957,37.7161159 14.1068455,38 14.7553059,38 C15.3128373,38 15.8679674,37.8090961 16.241264,37.4297382 C16.7054712,37.0503803 16.9830179,36.4801373 16.9830179,35.8168703 C16.9830179,35.2466085 16.7963757,34.5833164 16.4254865,34.1085159 L5.19831911,21.009819 Z"/>
        <path d="M40.2189982,4.75689014 C39.8283773,4.2832103 39.2412042,4 38.5582451,4 C37.9710526,4 37.2880678,4.19045079 36.7991708,4.56890835 C35.8213768,5.42105826 35.7230554,6.84207902 36.6025991,7.78942619 L48.5276084,20.9526514 L36.7006623,34.1177518 C36.3100415,34.5914316 36.1134698,35.1603587 36.1134698,35.8220516 C36.1134698,36.39096 36.4058016,36.9574181 36.8946857,37.4310916 C37.2853065,37.8095492 37.8724797,38 38.459698,38 C39.1451731,38 39.8281322,37.7167647 40.2187724,37.2431099 L53.4140881,22.5641042 C54.195304,21.7119543 54.195304,20.3861308 53.4140881,19.5339809 L40.2189982,4.75689014 Z"/>
        <path d="M31.1341366,0.0543513606 C29.8986969,-0.227796235 28.6633199,0.621087448 28.3765482,1.84697741 L21.0547731,38.263644 C20.7704362,39.4895714 21.6259067,40.7154364 22.8613088,41 L23.3368414,41 C24.4766488,41 25.4277014,40.2459999 25.6189034,39.1125402 L32.9406786,2.69587354 C33.2250155,1.46994622 32.465146,0.336486503 31.1341429,0.0543513606 L31.1341366,0.0543513606 Z"/>
      </g>
    </g>
    <g fill="#333" transform="translate(114 106)">
      <path d="M28.4006,27.4998 L1.5996,27.4998 C0.6992,27.4998 0,28.199 0,29.0994 L0,48.4004 C0,49.3008 0.6992,50 1.5996,50 L28.4006,50 C29.301,50 30.0002,49.3008 30.0002,48.4004 L30.0002,29.0994 C30.0002,28.199 29.301,27.4998 28.4006,27.4998 Z M28.1506,29.3494 L28.1506,34.2498 L1.9006,34.2498 L1.9006,29.4002 L28.1506,29.4002 L28.1506,29.3494 Z M1.9006,48.1504 L1.9006,36.1504 L28.1506,36.1504 L28.1506,48.1504 L1.9006,48.1504 Z M3.94945,31.9494 C3.94945,31.3498 4.44945,30.8498 5.04905,30.8498 C5.64865,30.8498 6.14865,31.3498 6.14865,31.9494 C6.14865,32.549 5.64865,33.049 5.04905,33.049 C4.44945,33.050955 3.94945,32.550955 3.94945,31.9494 Z M7.301,31.9494 C7.301,31.3498 7.801,30.8498 8.4006,30.8498 C9.0002,30.8498 9.5002,31.3498 9.5002,31.9494 C9.5002,32.549 9.0002,33.049 8.4006,33.049 C7.801,33.050955 7.301,32.550955 7.301,31.9494 Z M10.69945,31.9494 C10.69945,31.3498 11.19945,30.8498 11.79905,30.8498 C12.39865,30.8498 12.89865,31.3498 12.89865,31.9494 C12.89865,32.549 12.39865,33.049 11.79905,33.049 C11.19945,33.050955 10.69945,32.550955 10.69945,31.9494 Z" transform="translate(300)"/>
      <path d="M28.4006,27.4998 L1.5996,27.4998 C0.6992,27.4998 0,28.199 0,29.0994 L0,48.4004 C0,49.3008 0.6992,50 1.5996,50 L28.4006,50 C29.301,50 30.0002,49.3008 30.0002,48.4004 L30.0002,29.0994 C30.0002,28.199 29.301,27.4998 28.4006,27.4998 Z M28.1506,29.3494 L28.1506,34.2498 L1.9006,34.2498 L1.9006,29.4002 L28.1506,29.4002 L28.1506,29.3494 Z M1.9006,48.1504 L1.9006,36.1504 L28.1506,36.1504 L28.1506,48.1504 L1.9006,48.1504 Z M3.94945,31.9494 C3.94945,31.3498 4.44945,30.8498 5.04905,30.8498 C5.64865,30.8498 6.14865,31.3498 6.14865,31.9494 C6.14865,32.549 5.64865,33.049 5.04905,33.049 C4.44945,33.050955 3.94945,32.550955 3.94945,31.9494 Z M7.301,31.9494 C7.301,31.3498 7.801,30.8498 8.4006,30.8498 C9.0002,30.8498 9.5002,31.3498 9.5002,31.9494 C9.5002,32.549 9.0002,33.049 8.4006,33.049 C7.801,33.050955 7.301,32.550955 7.301,31.9494 Z M10.69945,31.9494 C10.69945,31.3498 11.19945,30.8498 11.79905,30.8498 C12.39865,30.8498 12.89865,31.3498 12.89865,31.9494 C12.89865,32.549 12.39865,33.049 11.79905,33.049 C11.19945,33.050955 10.69945,32.550955 10.69945,31.9494 Z" transform="translate(300 300)"/>
    </g>
    <g transform="translate(156 157)">
      <use fill="#333" fill-opacity="0" xlink:href="#pattern-on-purple-a"/>
      <path stroke="#333" stroke-width="2" d="M318.451325,33.6423626 C318.472261,33.6383841 318.493299,33.6343197 318.514436,33.6301681 C319.633558,33.4103568 320.740022,32.9940663 321.770943,32.3360516 C322.839859,31.6537848 323.780318,30.739582 324.560733,29.558581 C325.84115,27.6208638 326.458037,26.7419402 327.507011,25.4814678 C329.680992,22.8691614 331.913323,21.1011746 334.294977,20.4913395 C336.421523,19.9468263 338.494021,20.3857544 340.44969,21.8737305 C340.085013,20.3816403 339.839789,19.0747025 339.718788,17.8099733 C339.516262,15.6931192 339.690772,13.8941263 340.36202,12.440041 C341.956956,8.9851729 345.339853,8.3132449 349.79007,9.48392243 C351.800464,10.0127557 353.590212,9.81856786 355.114227,9.1741698 C355.522522,9.0015465 355.962249,8.94720669 356.391779,9.01012586 L356.638294,9.04623635 L356.839051,9.19378303 C357.203844,9.46188667 357.440264,9.79183304 357.362493,10.3188066 C357.291862,10.7974058 357.037584,11.0195759 356.673536,11.1978541 C356.574385,11.246409 356.051512,11.4432993 355.929846,11.5051869 C355.841857,11.5499443 355.775038,11.5926801 355.724838,11.6361192 C355.750323,11.6433799 355.777644,11.6510135 355.806831,11.6589686 C355.810207,11.6598886 356.132273,11.7458519 356.23588,11.774969 C356.42654,11.8285511 356.591246,11.8801829 356.753491,11.9393127 C357.92988,12.3680449 358.735195,13.1399636 359.072725,14.4731676 L359.101996,14.6673504 C359.102887,14.6855407 359.102887,14.6855407 359.104314,14.7299421 C359.121768,15.3698938 359.046287,16.1512505 358.788314,16.9337993 C358.727879,17.1171247 358.659204,17.2927739 358.582332,17.460061 L358.703886,18.6794033 C358.79105,19.5537758 358.557147,20.097996 358.005225,20.7791484 C357.96681,20.8264378 357.96681,20.8264378 357.931099,20.8703602 C357.819491,21.0079302 357.762622,21.0843205 357.716323,21.1607189 C356.277441,23.5350356 354.041358,25.0775989 349.242001,27.5430334 C349.001191,27.6667377 347.887615,28.2358795 347.58335,28.3923721 C343.662446,30.4090152 341.572918,31.7419398 339.9281,33.51031 C338.869674,34.648241 337.992301,35.9349622 337.244496,37.3893675 C336.643834,38.5575957 336.147663,39.7836032 335.648222,41.2584925 C335.452093,41.8376761 334.724149,44.142703 334.539401,44.6712894 C333.691175,47.0981729 332.824231,48.2128567 331.149942,48.0256047 C330.619519,47.9662676 330.153195,47.7022232 329.712967,47.2793594 C329.298262,46.8810125 328.912114,46.3562693 328.396884,45.5425194 C328.337746,45.4491172 327.395393,43.9169563 327.094617,43.4573121 C325.556628,41.1069673 324.199616,39.9310294 322.480442,39.7946976 C319.366039,39.5478194 317.330758,40.7706711 315.086796,43.5629321 C315.079042,43.5725803 313.291084,45.9132732 312.783422,46.4686404 C312.060112,47.2599179 311.382616,47.7623102 310.607507,47.9864068 C308.271156,48.6618835 307.155412,46.5826466 307.053184,43.3723361 C306.973998,40.8856311 307.509765,37.8345899 308.372504,35.9073182 C310.705143,30.6957241 313.443529,27.7893134 317.329628,28.8078701 C319.06525,29.2627457 319.427845,30.7566992 318.881937,32.535358 C318.771267,32.8959391 318.625439,33.2661877 318.451325,33.6423626 Z"/>
      <g transform="translate(300)">
        <use fill="#333" fill-opacity="0" xlink:href="#pattern-on-purple-b"/>
        <path stroke="#333" stroke-width="2" d="M15.4095101,43.3576852 C15.4277574,43.3391783 15.4277574,43.3391783 15.4459829,43.3206223 C15.6095148,43.1539706 16.1575383,42.5760009 16.2145218,42.5168887 C17.9203961,40.7472913 19.34055,40.0882552 21.8917329,40.3962513 L23.1561902,40.5489051 L22.7078794,41.7410346 C21.1921316,45.7716487 20.1004617,47.8074528 18.4434348,47.9868539 C16.957112,48.1477735 16.1378003,47.1260147 15.487628,45.3251054 C15.3897111,45.0538857 15.3642974,44.9761532 15.1687661,44.3647362 L14.9844443,43.7883711 L15.4095101,43.3576852 Z"/>
        <path fill="#333" fill-rule="nonzero" d="M56.3256676,9.46706531 C57.20962,9.46706531 57.9770487,10.0480975 58.235522,10.9127375 C58.5737602,12.0440491 58.9807212,13.7902654 58.9993185,15.6841538 C59.0202404,17.7956879 58.5593763,19.6200487 57.6296572,21.1068729 C56.229633,23.3459584 53.7819192,25.0101295 50.9827355,26.5815817 C50.065353,27.0965971 49.1102197,27.6016537 48.1418433,28.1137254 C46.4566093,29.0048097 44.7395565,29.9129789 43.1830505,30.909989 C37.8859863,36.0270996 35.1049984,43.1288975 34.9504084,42.8185482 C34.8972318,42.9968245 34.8453628,43.1719809 34.7948014,43.3431261 C34.0333296,45.9150588 33.4319688,47.9466657 31.7208729,47.9466657 C31.644595,47.9466657 31.5661377,47.9422088 31.4875351,47.933295 C30.3680655,47.807313 29.5660574,46.4917826 28.5507616,44.8262363 C27.2036205,42.6165017 25.5271039,39.8664413 22.7139734,39.6437445 C20.8056641,39.2225668 16.4413112,40.9879478 15.4542019,43.1086928 C14.9956625,43.6539211 14.5695231,44.2183142 14.1561693,44.7662166 C13.0352467,46.2522981 12.0671707,47.5358874 10.7880259,47.9080391 C10.5789517,47.9690988 10.3732192,48 10.1763494,48 C10.0127514,48 9.82430854,47.9775669 9.62351594,47.9191814 C5.59284411,46.718342 5.38493223,39.2225668 5.38493223,39.2225668 C3.44703659,39.6918791 1.44593923,40.9879478 1.44593923,40.9879478 C4.36324366,34.3101636 6.70940791,30.5928058 6.70940791,30.5928058 C3.71335558,31.0074467 0,31.1473936 0,31.1473936 C5.78259457,24.4418281 9.01895875,21.5173541 9.01895875,21.5173541 C6.33571863,20.6417204 2.61408145,20.4530446 2.61408145,20.4530446 C9.67669256,16.2553808 15.5906305,13.8651414 15.5906305,13.8651414 C14.1728778,12.5040019 10.6600242,9.69332764 10.6600242,9.69332764 C15.396376,9.4565173 21.6138275,8.52101246 21.6138275,8.52101246 C19.9178419,7.06716931 16.4413112,5.26702446 16.4413112,5.26702446 C23.3002239,5.66799755 29.1237906,6.07134766 29.1237906,6.07134766 C27.93153,4.40520715 23.0904232,1.63791342 23.0904232,1.63791342 C29.5987479,3.07927724 34.0497475,3.86473286 34.0497475,3.86473286 C33.9339503,2.91942283 32.5355214,0 32.5355214,0 C36.2780805,2.49363962 41.899547,5.7391595 41.899547,5.7391595 C41.2117379,2.97305428 40.7136793,1.49246968 40.7136793,1.49246968 C44.2688126,3.98358372 50.2609172,8.42370332 52.732032,10.2617319 C53.9546585,10.2036435 54.9327597,9.89121432 55.559837,9.62424558 C55.8047982,9.51995395 56.0623997,9.46706531 56.3256676,9.46706531 Z M57.7088178,18.7785999 C56.4728678,19.239209 55.478061,19.1143131 54.7743995,18.8577301 L54.6456153,19.7353972 C53.8418045,18.2832974 54.9664129,17.5485372 54.9664129,17.5485372 L54.8300703,18.4780229 C58.3232316,19.0044755 58.1033101,14.718596 58.1033101,14.718596 C57.3884563,11.8950029 54.0468998,13.2796353 54.6613136,11.4782402 C55.0728124,10.2716509 55.7841778,10.0220067 56.2468414,9.99956673 C56.0039539,9.96398762 55.7484205,9.99174228 55.5036434,10.0952317 C54.2505416,10.6250799 52.1661569,11.1429699 49.5356751,10.4510227 C46.3272634,9.60701554 42.8018334,9.54087679 41.2699415,12.8591818 C39.4031526,16.9030939 42.2808826,25.2164984 42.2808826,25.2164984 C34.9353889,15.3111874 27.607047,26.762344 25.395041,30.1098801 C22.0643862,35.1501547 16.6641728,34.7946589 16.6641728,34.7946589 C16.6641728,34.7946589 19.6295516,30.4444122 17.0761077,29.7752003 C13.2172343,28.7637794 10.6925706,33.1716022 9.28524757,36.3158501 C7.6914346,39.8762702 7.2440332,47.9178858 10.3297656,47.0257509 C13.415498,46.1336159 15.0614932,38.2034618 22.5594639,38.7978248 C27.5263753,39.1917046 29.1271652,46.7930842 31.2611158,47.0318037 C34.2932124,47.3709125 33.239101,38.7471873 39.195877,32.8292456 C44.0511561,28.0056935 53.6391802,25.7608144 56.8611098,20.6424429 C57.2335083,20.050885 57.509682,19.4234527 57.7088178,18.7785999 Z M56.6083453,11.1407333 C56.3772107,11.3701137 56.2601008,11.6368095 56.3467441,11.7361345 C56.4333875,11.8355967 56.6910036,11.7300982 56.9220097,11.5007178 C57.1531443,11.2713375 57.2701257,11.0047788 57.1836109,10.9053167 C57.0969675,10.8059917 56.8393514,10.911353 56.6083453,11.1407333 Z M32.1818182,6.33962264 L37.0616081,9.96226415 L40.2272727,9.66114325 L32.1818182,6.33962264 Z M23.2424242,10.8679245 L31.3347999,12.6792453 L34.8636364,11.6543234 L23.2424242,10.8679245 Z M39.3333333,13.5849057 L33.0757576,14.3627991 L37.716433,14.490566 L39.3333333,13.5849057 Z M25.9242424,14.490566 L16.0909091,15.5882468 L23.3169181,16.3018868 L25.9242424,14.490566 Z M36.6515152,18.1132075 L26.8181818,18.7612524 L34.0066866,19.0188679 L36.6515152,18.1132075 Z M27.7121212,20.8301887 L16.0909091,26.2641509 L25.7767383,23.9443576 L27.7121212,20.8301887 Z M8.93939394,26.2641509 L16.2220779,23.0943396 L17.8787879,19.9245283 L8.93939394,26.2641509 Z M11.6212121,27.1698113 L7.15151515,35.3207547 L11.3337105,30.2629382 L11.6212121,27.1698113 Z"/>
        <g fill-rule="nonzero">
          <use fill="#FFF" fill-opacity="0" fill-rule="evenodd" xlink:href="#pattern-on-purple-c"/>
          <path stroke="#333" stroke-width="2" d="M35.4140162,43.2950823 C35.4613686,43.1280855 35.8888185,41.5402658 36.0482797,40.9875984 C36.3569318,39.9178593 36.6674407,38.9852624 37.0284251,38.0902834 C38.1123077,35.4030419 39.5299549,33.383738 41.4959425,32.1524879 L44.2746157,30.4122726 L42.9401359,33.4070244 C42.7010666,33.943528 42.4919079,34.4995288 42.3103729,35.0759267 C41.584581,37.3804136 41.3951512,39.1780225 41.2581295,43.0219209 C41.1981022,44.7058773 41.1435312,45.4224536 40.9773846,46.110443 C40.7015592,47.252597 40.0637286,47.9772126 38.9803804,47.958267 C37.5948028,47.9338799 36.8376973,46.9844687 35.8803603,44.9058792 C35.8162283,44.7666343 35.749689,44.6194503 35.6705673,44.442336 C35.6212818,44.3320103 35.5664438,44.208585 35.4623523,43.9741905 L35.3152537,43.6433861 L35.4140162,43.2950823 Z"/>
        </g>
        <path fill="#333" d="M49.6553071,12.7959624 C51.1112914,13.148458 52.0729234,14.1930381 51.8031344,15.1289154 C51.5331889,16.0647927 50.134167,16.5377506 48.6780262,16.1851116 C47.2220419,15.832616 46.26041,14.7881792 46.530199,13.8521585 C46.8001445,12.9162813 48.1991663,12.4434668 49.6553071,12.7959624 Z M48.2726727,14.0470494 C48.2764928,13.79698 48.0794433,13.5901759 47.8326428,13.5850007 C47.5858422,13.5799289 47.3826627,13.778556 47.3788425,14.0286254 C47.3750223,14.2785913 47.5720719,14.4854989 47.8188724,14.4904672 C48.0656729,14.4956424 48.2688525,14.2970153 48.2726727,14.0470494 Z"/>
      </g>
    </g>
    <g fill="#333" transform="translate(247 219)">
      <path d="M20.9379951,1.09019714 C20.9302571,0.508753466 20.4092888,0.0351657137 19.7748519,0.032824934 L12.2415239,0 C10.4877968,0 10.4903717,2.38909581 12.2441054,2.39143659 L15.5169106,2.39378337 C16.0636678,2.39378337 16.1951742,2.67747387 15.8031836,3.03383657 L10.3846014,7.95967737 C9.87137117,8.42623678 9.87137117,9.18120426 10.3871764,9.65008044 C10.9004066,10.1166399 11.7334699,10.1166399 12.2466737,9.65008044 L17.6652559,4.72423964 C18.0521164,4.3725585 18.36676,4.48509599 18.36676,4.98448033 L18.3693415,7.96201215 C18.3719164,9.55392241 21.002573,9.55626319 20.9999981,7.96435293 L20.9379951,1.09019714 Z"/>
      <path d="M0.0563681289,19.9120212 C0.0634026763,20.4935326 0.537010181,20.9671755 1.11377104,20.9695166 L7.96225103,20.9999983 C9.55654837,21.0023453 9.55420752,18.6106243 7.95990418,18.6106243 L4.98462677,18.6082772 C4.48757477,18.6082772 4.36802348,18.3245537 4.72437852,17.9681495 L9.65036234,13.0417352 C10.1169353,12.5751214 10.1169353,11.817731 9.64802149,11.3511353 C9.18144853,10.8845216 8.42411829,10.8821745 7.95756934,11.3487942 L3.03158552,16.2775496 C2.67989417,16.6292717 2.39385459,16.5143741 2.39385459,16.0172786 L2.39150774,13.0394001 C2.38916089,11.4473045 -0.00233913035,11.4449635 1.71733016e-06,13.0370531 L0.0563681289,19.9120212 Z"/>
    </g>
    <path fill="#333" d="M4.45171944,8.19690879 C4.85958593,7.98237741 5.52197482,7.98237741 5.92902687,8.19690879 L7.29131057,8.91313413 C7.69917706,9.12685108 7.96675134,8.93189545 7.88925441,8.47834941 L7.62903095,6.9618863 C7.55071959,6.50751329 7.75547145,5.87776458 8.08503284,5.55635384 L9.18709307,4.48202627 C9.51746263,4.16061553 9.41467635,3.84574118 8.95950979,3.77966727 L7.43569585,3.55859949 C6.97969397,3.49252349 6.44456628,3.10259761 6.24062259,2.68982361 L5.55948074,1.3095805 C5.35554541,0.896806499 5.02435305,0.896806499 4.8212238,1.3095805 L4.14008196,2.68982361 C3.93614662,3.10341205 3.40019614,3.49252558 2.9450087,3.55859949 L1.42119475,3.77966727 C0.965192871,3.84574327 0.864035465,4.16142997 1.19361147,4.48202627 L2.29567171,5.55635384 C2.62522683,5.87857902 2.82998496,6.50832773 2.75167359,6.9618863 L2.49145013,8.47834941 C2.41395529,8.93272242 2.68233357,9.12687196 3.08939398,8.91313413 L4.45171944,8.19690879 Z" transform="rotate(-20 721.283 -1052.303)"/>
    <path fill="#333" d="M4.45171944,8.19690879 C4.85958593,7.98237741 5.52197482,7.98237741 5.92902687,8.19690879 L7.29131057,8.91313413 C7.69917706,9.12685108 7.96675134,8.93189545 7.88925441,8.47834941 L7.62903095,6.9618863 C7.55071959,6.50751329 7.75547145,5.87776458 8.08503284,5.55635384 L9.18709307,4.48202627 C9.51746263,4.16061553 9.41467635,3.84574118 8.95950979,3.77966727 L7.43569585,3.55859949 C6.97969397,3.49252349 6.44456628,3.10259761 6.24062259,2.68982361 L5.55948074,1.3095805 C5.35554541,0.896806499 5.02435305,0.896806499 4.8212238,1.3095805 L4.14008196,2.68982361 C3.93614662,3.10341205 3.40019614,3.49252558 2.9450087,3.55859949 L1.42119475,3.77966727 C0.965192871,3.84574327 0.864035465,4.16142997 1.19361147,4.48202627 L2.29567171,5.55635384 C2.62522683,5.87857902 2.82998496,6.50832773 2.75167359,6.9618863 L2.49145013,8.47834941 C2.41395529,8.93272242 2.68233357,9.12687196 3.08939398,8.91313413 L4.45171944,8.19690879 Z" transform="rotate(-20 1124.245 -1215.154)"/>
    <path fill="#333" d="M4.45171944,8.19690879 C4.85958593,7.98237741 5.52197482,7.98237741 5.92902687,8.19690879 L7.29131057,8.91313413 C7.69917706,9.12685108 7.96675134,8.93189545 7.88925441,8.47834941 L7.62903095,6.9618863 C7.55071959,6.50751329 7.75547145,5.87776458 8.08503284,5.55635384 L9.18709307,4.48202627 C9.51746263,4.16061553 9.41467635,3.84574118 8.95950979,3.77966727 L7.43569585,3.55859949 C6.97969397,3.49252349 6.44456628,3.10259761 6.24062259,2.68982361 L5.55948074,1.3095805 C5.35554541,0.896806499 5.02435305,0.896806499 4.8212238,1.3095805 L4.14008196,2.68982361 C3.93614662,3.10341205 3.40019614,3.49252558 2.9450087,3.55859949 L1.42119475,3.77966727 C0.965192871,3.84574327 0.864035465,4.16142997 1.19361147,4.48202627 L2.29567171,5.55635384 C2.62522683,5.87857902 2.82998496,6.50832773 2.75167359,6.9618863 L2.49145013,8.47834941 C2.41395529,8.93272242 2.68233357,9.12687196 3.08939398,8.91313413 L4.45171944,8.19690879 Z" transform="rotate(-20 1273.214 -733.466)"/>
    <rect width="10.656" height="1.888" x="1.672" y="6.056" fill="#333" rx=".944" transform="rotate(35 -130.16 677.887)"/>
    <path fill="#333" d="M18.4843742,5.41357696e-05 C17.6935226,0.00695585925 16.9846556,0.65421557 17.0002527,1.35322495 L17.0002527,6.65544529 C16.9885348,7.3561779 17.70717,8 18.4999713,8 C19.2927725,8 20.0113877,7.35622208 19.9996899,6.65544529 L19.9996899,1.35322495 C20.0172666,0.645555277 19.284974,-0.00683875067 18.4843742,5.41357696e-05 Z M3.2234555,2.00146291 C2.74091134,2.02515504 2.28350237,2.37325853 2.09584631,2.85984759 C1.90819025,3.34465437 2.00201828,3.94423592 2.3253915,4.33428353 L5.7568166,8.53336063 C6.1991273,9.09468393 7.07542748,9.1603295 7.58477965,8.67187419 C8.09413181,8.18160861 8.14272937,7.23028436 7.68698464,6.68169827 L4.25555954,2.48262116 C4.00256057,2.16368259 3.61049451,1.98143798 3.22347265,2.00150024 L3.2234555,2.00146291 Z M33.6013296,2.00537948 C33.2730024,2.03816542 32.9580721,2.21485322 32.7436529,2.48623366 L29.3129464,6.6829827 C28.8573056,7.23126464 28.9058845,8.18206145 29.41513,8.67205522 C29.9243755,9.16023039 30.8004922,9.09464453 31.2427102,8.53361846 L34.6734168,4.33686942 C35.0184987,3.92156846 35.1005784,3.27313343 34.8694088,2.77218149 C34.6399117,2.27309477 34.1139243,1.95432836 33.6013339,2.00534218 L33.6013296,2.00537948 Z M7.79953767,11.0000089 C7.34130449,11.0213316 6.90299045,11.2807285 6.66934846,11.6680704 L0.178006211,22.5841084 C-0.133522622,23.1099885 -0.0266612029,23.8419998 0.424329501,24.2613121 L18.0436886,40.635369 C18.4983006,41.0599984 19.2626238,41.1221789 19.7824413,40.777505 C19.851268,40.7401944 19.900171,40.6815621 19.9563165,40.635369 L37.5756766,24.2613121 C38.0266673,23.8420089 38.1335148,23.110034 37.8219999,22.5841084 L31.3306567,11.6680704 C31.0843334,11.261207 30.609793,10.9982351 30.1279963,11.0000089 L18.9999794,11.0000089 L7.79963041,11.0000089 L7.79953767,11.0000089 Z M10,13 L17,13 L12.3385189,20 L10,13 Z M21,13 L28,13 L25.6615796,20 L21,13 Z M19,15 L24,22 L14,22 L19,15 Z M7.81680792,15 L10,22 L4,22 L7.81680792,15 Z M30.1831921,15 L34,22 L28,22 L30.1831921,15 Z M4,24 L10.3675685,24 L15,34 L4,24 Z M14,24 L24,24 L19,37 L14,24 Z M27.6324905,24 L34,24 L23,34 L27.6324905,24 Z" transform="translate(298 222)"/>
    <g transform="rotate(45 -59.135 638.263)">
      <use fill="#333" xlink:href="#pattern-on-purple-d"/>
      <path stroke="#333" stroke-width="1.1" d="M4.474321,1.525679 C4.44189298,1.49325098 4.44189298,1.44067477 4.474321,1.40824675 L3,2.88256775 L1.525679,1.40824675 C1.55810702,1.44067477 1.55810702,1.49325098 1.525679,1.525679 C1.49325098,1.55810702 1.44067477,1.55810702 1.40824675,1.525679 L2.88256775,3 L1.40824675,4.474321 C1.44067477,4.44189298 1.49325098,4.44189298 1.525679,4.474321 C1.55810702,4.50674902 1.55810702,4.55932523 1.525679,4.59175325 L3.11743225,3 L3,2.88256775 L2.88256775,3 Z M4.474321,4.59175325 C4.44189298,4.55932523 4.44189298,4.50674902 4.474321,4.474321 C4.50674902,4.44189298 4.55932523,4.44189298 4.59175325,4.474321 L3.11743225,3 L4.59175325,1.525679 C4.55932523,1.55810702 4.50674902,1.55810702 4.474321,1.525679 C4.44189298,1.49325098 4.44189298,1.44067477 4.474321,1.40824675 L3,2.88256775 L1.525679,1.40824675 C1.55810702,1.44067477 1.55810702,1.49325098 1.525679,1.525679 C1.49325098,1.55810702 1.44067477,1.55810702 1.40824675,1.525679 L2.88256775,3 L1.40824675,4.474321 C1.44067477,4.44189298 1.49325098,4.44189298 1.525679,4.474321 C1.55810702,4.50674902 1.55810702,4.55932523 1.525679,4.59175325 L3.11743225,3 Z M3,1.5617973 L3.38890874,1.95070604 L2.61109126,1.95070604 L3,1.5617973 Z M1.5617973,3 L0.74786152,2.18606422 C0.350712811,1.78891551 0.350712811,1.14501023 0.74786152,0.74786152 C1.14501023,0.350712811 1.78891551,0.350712811 2.18606422,0.74786152 L3,1.5617973 L3.81393578,0.74786152 C4.21108449,0.350712811 4.85498977,0.350712811 5.25213848,0.74786152 C5.64928719,1.14501023 5.64928719,1.78891551 5.25213848,2.18606422 L4.4382027,3 L5.25213848,3.81393578 C5.64928719,4.21108449 5.64928719,4.85498977 5.25213848,5.25213848 C4.85498977,5.64928719 4.21108449,5.64928719 3.81393578,5.25213848 L3,4.4382027 L2.18606422,5.25213848 C1.78891551,5.64928719 1.14501023,5.64928719 0.74786152,5.25213848 C0.350712811,4.85498977 0.350712811,4.21108449 0.74786152,3.81393578 L1.5617973,3 Z"/>
    </g>
    <path fill="#333" fill-rule="nonzero" d="M8.80722559,40.4010784 L11.0479626,39.9535874 L9.83470378,23.2829447 L2.22494793,21.9992272 L2.50794487,41.6590894 L7.06680633,40.7486525 L6.19338293,32.8225714 C6.13990616,32.3372842 6.48995768,31.9005297 6.97524487,31.847053 C7.46053206,31.7935762 7.89728654,32.1436277 7.95076331,32.6289149 L8.80722559,40.4010784 Z M10.9076731,21.773315 C11.8988504,19.5121961 14.7380912,17.2309647 18.264144,15.6484375 C20.733601,14.5401208 21.5459554,8.17337597 20.9331766,2.67463332 C20.6706761,0.319096717 23.2685508,-0.278478602 25.8383102,0.778270376 C28.4626589,1.85746784 30.3479732,4.2320985 30.4000006,7.2535407 C30.4628703,10.9046368 30.4676575,14.5489668 30.4143613,18.1865271 C36.7974522,18.1865271 36.952655,18.1865271 40.564884,18.1865271 C43.7966348,18.1865271 46.4368947,21.8883439 46.4368947,25.4120897 C46.4368947,26.9078783 45.793467,28.5100652 44.8162945,29.8167441 C45.5662002,31.0821547 45.7915179,33.2047791 45.2873884,35.0210259 C44.8402466,36.6319612 43.8947844,37.8963368 42.4905757,38.6586875 C42.9687609,41.6258549 40.6540598,45.8120418 37.1564008,45.8120418 L30.6617709,45.8120418 C28.657438,45.8120418 27.1585749,43.9131498 27.1585749,41.9913309 C27.1585749,40.7560659 27.852754,39.3399621 28.8492212,38.4997532 C28.1379044,37.8014139 27.7361725,36.7472883 27.7669214,35.4116184 C27.8081081,33.6225467 28.5275075,32.0349418 29.6309295,31.2083601 C28.9729081,30.4430275 28.6321134,29.3950338 28.6321134,28.1733498 C28.6321134,25.8953982 30.2122542,24.232853 32.4863391,24.232853 C33.7165526,24.232853 35.8253629,24.3319732 38.8256102,24.5299999 C39.312775,24.5621544 39.6816336,24.9831459 39.6494791,25.4703107 C39.6173245,25.9574755 39.196333,26.3263341 38.7091682,26.2941796 C35.7455341,26.0985694 33.6669776,26.0008712 32.4863391,26.0008712 C31.2093705,26.0008712 30.4001316,26.8523119 30.4001316,28.1733498 C30.4001316,29.7222902 31.0965475,30.6374428 32.5693926,30.7764328 C34.6512409,30.9728935 38.1699186,30.9728935 40.4900183,30.7756985 C42.3735904,30.6156059 44.6688765,27.7403807 44.6688765,25.4120897 C44.6688765,22.7613652 42.6669584,19.9545454 40.564884,19.9545454 L28.6166976,19.9545454 L28.6322455,19.0552549 C28.6999461,15.1394462 28.6999461,11.2156895 28.6322444,7.28398041 C28.5933184,5.02339185 27.1781382,3.24091425 25.1658924,2.41342876 C23.6206291,1.77797805 22.6374198,2.00414047 22.6903177,2.47881787 C23.3966475,8.81703651 22.5215408,15.6755967 18.9880794,17.261449 C15.1466384,18.9855256 12.2705053,21.6424296 12.2971276,23.469581 C12.3063451,24.102194 12.3533308,24.8855304 12.4470308,26.0564795 C12.4799695,26.4681068 12.6832831,28.8655937 12.7449292,29.6397878 C12.9360796,32.0403849 13.0635531,34.1394839 13.1367238,36.3822683 C13.2861036,40.9609695 15.7398632,42.7010321 23.16466,42.7010321 C23.6528848,42.7010321 24.0486691,43.0968165 24.0486691,43.5850412 C24.0486691,44.073266 23.6528848,44.4690504 23.16466,44.4690504 C17.5634027,44.4690504 14.2279676,43.4929776 12.5982359,41.0309716 C12.3971548,41.3294636 12.082904,41.5498327 11.7065344,41.6249964 L2.42898868,43.477788 C1.66686385,43.6299897 0.925655738,43.1355493 0.773454014,42.3734245 C0.756657307,42.2893178 0.747585087,42.2038516 0.746350621,42.1180929 L0.45087955,21.5916499 C0.439693555,20.8145563 1.06058436,20.1755294 1.83767797,20.1643434 C1.92286964,20.1631171 2.00799666,20.1696304 2.09201013,20.1838029 L10.4080912,21.586673 C10.589308,21.6172431 10.7579551,21.6817872 10.9076731,21.773315 Z M40.7835464,39.282647 C40.2842869,39.3915476 39.7480922,39.4540365 39.1759105,39.4663888 C35.6004513,39.5435759 33.9845947,39.5435759 32.6642715,39.4967818 C32.4329876,39.4883168 32.4329876,39.4883168 32.2219273,39.480778 C31.9346749,39.4710162 31.7066867,39.4665947 31.4232996,39.4665947 C31.2891342,39.4665947 31.1575987,39.461021 31.0288791,39.4499862 C30.9170666,39.5010964 30.7927451,39.5295797 30.6617709,39.5295797 C29.9371633,39.5295797 28.9265932,40.9614822 28.9265932,41.9913309 C28.9265932,43.0162322 29.7378655,44.0440235 30.6617709,44.0440235 L37.1564008,44.0440235 C39.2725072,44.0440235 40.8863824,41.2596978 40.7835464,39.282647 Z M31.4982133,32.3704639 C31.4680144,32.3729953 31.4373951,32.3740035 31.4064344,32.3734127 C30.4934168,32.355991 29.5755327,33.6686865 29.5344713,35.4523097 C29.4990462,36.9911069 30.1962407,37.6985765 31.4232996,37.6985765 C31.7283012,37.6985765 31.9758981,37.7033782 32.2819763,37.7137798 C32.4994853,37.7215474 32.4994853,37.7215474 32.7268931,37.7298729 C34.0087618,37.775304 35.5931137,37.775304 39.1377514,37.6987824 C41.6160369,37.6452811 43.0496238,36.4725803 43.5837784,34.5481607 C43.9037431,33.3954113 43.8239337,32.0639885 43.5225175,31.200964 C42.6360908,31.9524542 41.6327547,32.4529655 40.6397497,32.5373651 C38.2171289,32.7432738 34.5930327,32.7432738 32.4032856,32.5366308 C32.0819617,32.506308 31.7801371,32.4503001 31.4982133,32.3704639 Z M18.1536461,3.59315194 C18.5763285,3.83749402 18.7209018,4.37822416 18.4765597,4.80090652 C18.2322177,5.22358887 17.6914875,5.36816222 17.2688052,5.12382014 L12.8177166,2.55075735 C12.3950343,2.30641527 12.2504609,1.76568513 12.494803,1.34300277 C12.7391451,0.920320422 13.2798752,0.775747067 13.7025576,1.02008915 L18.1536461,3.59315194 Z M33.0421649,4.09235489 C32.5921751,4.28175552 32.0738467,4.07050625 31.8844461,3.62051644 C31.6950454,3.17052664 31.9062947,2.65219828 32.3562845,2.46279765 L35.9014346,0.970644629 C36.3514244,0.781244001 36.8697527,0.992493267 37.0591534,1.44248307 C37.248554,1.89247288 37.0373047,2.41080124 36.5873149,2.60020187 L33.0421649,4.09235489 Z M33.4189789,10.6083478 C32.9402351,10.512599 32.6297563,10.0468808 32.725505,9.56813705 C32.8212538,9.08939328 33.286972,8.77891447 33.7657158,8.87466323 L38.1857615,9.75867237 C38.6645052,9.85442112 38.9749841,10.3201393 38.8792353,10.7988831 C38.7834865,11.2776269 38.3177683,11.5881057 37.8390246,11.4923569 L33.4189789,10.6083478 Z M17.0694757,8.15570082 C17.5230086,7.97494856 18.0371982,8.19608093 18.2179505,8.64961377 C18.3987027,9.10314662 18.1775704,9.61733629 17.7240375,9.79808855 L13.587418,11.4467085 C13.1338852,11.6274608 12.6196955,11.4063284 12.4389432,10.9527956 C12.258191,10.4992627 12.4793233,9.98507304 12.9328562,9.80432078 L17.0694757,8.15570082 Z M6.55080271,30.9577249 C6.0575447,30.9577249 5.65768008,30.5619405 5.65768008,30.0737157 C5.65768008,29.585491 6.0575447,29.1897066 6.55080271,29.1897066 C7.04406073,29.1897066 7.44392535,29.585491 7.44392535,30.0737157 C7.44392535,30.5619405 7.04406073,30.9577249 6.55080271,30.9577249 Z" transform="rotate(-5 3007.218 -3941.87)"/>
    <g fill="#333" transform="translate(220 266)">
      <path d="M32.3856535,15.500015 C32.3856535,14.173865 31.8519499,12.902365 30.9031547,11.964865 C29.9543595,11.027365 28.6675402,10.500015 27.3254125,10.500015 L7.08444867,10.500015 C4.2894767,10.500015 2.02420923,12.738315 2.02420923,15.500015 L2.02420923,45.500015 C2.02420923,46.826165 2.55791284,48.097665 3.50670802,49.035165 C4.4555027,49.972665 5.74232096,50.500015 7.08444867,50.500015 L27.3254125,50.500015 C28.6675402,50.500015 29.9543595,49.972665 30.9031547,49.035165 C31.8519499,48.097665 32.3856535,46.826165 32.3856535,45.500015 L32.3856535,15.500015 Z M27.3253012,48 L7.08433735,48 C5.6868506,48 4.55421687,46.88085 4.55421687,45.5 L4.55421687,15.5 C4.55421687,14.11915 5.6868506,13 7.08433735,13 L27.3253012,13 C27.9953783,13 28.6398,13.26367 29.1141976,13.7324 C29.5885952,14.20113 29.8554217,14.83785 29.8554217,15.5 L29.8554217,45.5 C29.8554217,46.1621 29.5885749,46.79885 29.1141976,47.2676 C28.6398202,47.73635 27.9954289,48 27.3253012,48 Z" transform="rotate(-5 17.205 30.5)"/>
      <path d="M13.6144578,7.3865 C13.6144578,6.69705 14.1817614,6.1365 14.8795333,6.136515 C15.2155333,6.136515 15.5377441,6.26935 15.7749429,6.5037 C16.0121417,6.73805 16.1445783,7.05642 16.1445783,7.3865 L16.1445783,12.3865 C16.1445783,13.0779 15.5772747,13.6365 14.8795181,13.6365 C14.1817614,13.6365 13.6144578,13.0779 13.6144578,12.3865 L13.6144578,7.3865 Z M13.6144578,17.3865 C13.6144578,16.69705 14.1817614,16.1365 14.8795333,16.136515 C15.2155333,16.136515 15.5377441,16.26935 15.7749429,16.5037 C16.0121417,16.73805 16.1445783,17.05642 16.1445783,17.3865 L16.1445783,22.3865 C16.1445783,23.0779 15.5772747,23.6365 14.8795181,23.6365 C14.1817614,23.6365 13.6144578,23.0779 13.6144578,22.3865 L13.6144578,17.3865 Z M38.9157639,4 L37.1071224,4.00005 C36.4073923,4.00005 35.8420622,3.4395 35.8420622,2.75005 C35.8420622,2.0606 36.4073923,1.50005 37.1071224,1.50005 L38.9157537,1.50005 C40.3725465,1.50785 41.7562188,2.13675 42.7109345,3.22465 C43.0667301,3.7461 42.9758027,4.44924 42.497453,4.8633 C42.0191084,5.279315 41.3035448,5.279315 40.8251952,4.8633 C40.3448771,4.314455 39.649094,4 38.9157639,4 Z M18.6748,1.5 L21.9264096,1.49999 C22.6241663,1.49999 23.1914699,2.06054 23.1914699,2.74999 C23.1914699,3.43944 22.6241663,3.99999 21.9264096,3.99999 L18.6748,3.99999 C18.2735735,4.003895 17.878227,4.103505 17.5244048,4.2871 C16.9017422,4.60545 16.1367906,4.36525 15.8165735,3.75 C15.494388,3.13475 15.7374819,2.38086 16.3601446,2.0625 C17.0756627,1.69531 17.8682988,1.501955 18.6748,1.5 Z M16.2196723,37.0879 C16.4944434,38.20705 17.5084651,38.998047 18.6746786,39.00003 C19.3724352,39.00003 19.9397388,39.56058 19.9397388,40.25003 C19.9397388,40.93948 19.3724352,41.50003 18.6746786,41.50003 C16.3422111,41.4961301 14.3141677,39.91608 13.7666496,37.67583 C13.663861,37.34573 13.7014181,36.98831 13.8753639,36.68753 C14.0473108,36.38871 14.3378851,36.17191 14.6778675,36.08988 C15.015841,36.0098 15.3736354,36.070345 15.6661831,36.2598 C15.9587511,36.4473 16.1603713,36.748055 16.2196723,37.0879 Z M28.7951807,39 C29.4929373,39 30.060241,39.56055 30.060241,40.25 C30.060241,40.93945 29.4929373,41.5 28.7951807,41.5 L23.7349398,41.5 C23.0371831,41.5 22.4698795,40.93945 22.4698795,40.25 C22.4698795,39.56055 23.0371831,39 23.7349398,39 L28.7951807,39 Z M32.0843373,1.5 C32.782094,1.5 33.3493976,2.06055 33.3493976,2.75 C33.3493976,3.43945 32.782094,4 32.0843373,4 L27.0240964,4 C26.3263398,4 25.7590361,3.43945 25.7590361,2.75 C25.7590361,2.06055 26.3263398,1.5 27.0240964,1.5 L32.0843373,1.5 Z M41.4457831,18.824 C41.4457831,18.13455 42.0130867,17.574 42.7108586,17.574015 C43.0468586,17.574015 43.3690694,17.70685 43.6062682,17.9412 C43.843467,18.17555 43.9759036,18.49392 43.9759036,18.824 L43.9759036,23.824 C43.9759036,24.5154 43.4086,25.074 42.7108434,25.074 C42.0130867,25.074 41.4457831,24.5154 41.4457831,23.824 L41.4457831,18.824 Z M41.4457831,8.824 C41.4457831,8.13455 42.0130867,7.574 42.7108586,7.574015 C43.0468586,7.574015 43.3690694,7.70685 43.6062682,7.9412 C43.843467,8.17555 43.9759036,8.49392 43.9759036,8.824 L43.9759036,13.824 C43.9759036,14.5154 43.4086,15.074 42.7108434,15.074 C42.0130867,15.074 41.4457831,14.5154 41.4457831,13.824 L41.4457831,8.824 Z M38.9155614,38.9998015 C39.7339036,38.9998015 40.5028072,38.6091515 40.9771846,37.949021 C41.3824087,37.386521 42.1730713,37.255651 42.7423484,37.656051 C43.3116255,38.056451 43.4440622,38.837701 43.0388482,39.400201 C42.090053,40.7185515 40.5522458,41.4998013 38.9155614,41.4998013 L33.8553205,41.4998013 C33.1575639,41.4998013 32.5902602,40.9392515 32.5902602,40.2498015 C32.5902602,39.5603515 33.1575639,38.9998015 33.8553205,38.9998015 L38.9155614,38.9998015 Z M41.4457831,28.824 C41.4457831,28.13455 42.0130867,27.574 42.7108586,27.574015 C43.0468586,27.574015 43.3690694,27.70685 43.6062682,27.9412 C43.843467,28.17555 43.9759036,28.49392 43.9759036,28.824 L43.9759036,33.824 C43.9759036,34.5154 43.4086,35.074 42.7108434,35.074 C42.0130867,35.074 41.4457831,34.5154 41.4457831,33.824 L41.4457831,28.824 Z M13.6144578,27.3865 C13.6144578,26.69705 14.1817614,26.1365 14.8795333,26.136515 C15.2155333,26.136515 15.5377441,26.26935 15.7749429,26.5037 C16.0121417,26.73805 16.1445783,27.05642 16.1445783,27.3865 L16.1445783,32.3865 C16.1445783,33.0779 15.5772747,33.6365 14.8795181,33.6365 C14.1817614,33.6365 13.6144578,33.0779 13.6144578,32.3865 L13.6144578,27.3865 Z" transform="rotate(5 28.795 21.5)"/>
      <g transform="translate(300)">
        <path d="M32.3856535,15.500015 C32.3856535,14.173865 31.8519499,12.902365 30.9031547,11.964865 C29.9543595,11.027365 28.6675402,10.500015 27.3254125,10.500015 L7.08444867,10.500015 C4.2894767,10.500015 2.02420923,12.738315 2.02420923,15.500015 L2.02420923,45.500015 C2.02420923,46.826165 2.55791284,48.097665 3.50670802,49.035165 C4.4555027,49.972665 5.74232096,50.500015 7.08444867,50.500015 L27.3254125,50.500015 C28.6675402,50.500015 29.9543595,49.972665 30.9031547,49.035165 C31.8519499,48.097665 32.3856535,46.826165 32.3856535,45.500015 L32.3856535,15.500015 Z M27.3253012,48 L7.08433735,48 C5.6868506,48 4.55421687,46.88085 4.55421687,45.5 L4.55421687,15.5 C4.55421687,14.11915 5.6868506,13 7.08433735,13 L27.3253012,13 C27.9953783,13 28.6398,13.26367 29.1141976,13.7324 C29.5885952,14.20113 29.8554217,14.83785 29.8554217,15.5 L29.8554217,45.5 C29.8554217,46.1621 29.5885749,46.79885 29.1141976,47.2676 C28.6398202,47.73635 27.9954289,48 27.3253012,48 Z" transform="rotate(-5 17.205 30.5)"/>
      </g>
    </g>
    <path fill="#333" d="M5.26909218,3.85487862 L1.70710678,0.292893219 L1.70710678,0.292893219 C1.31658249,-0.0976310729 0.683417511,-0.0976310729 0.292893219,0.292893219 L0.292893219,0.292893219 L0.292893219,0.292893219 C-0.0976310729,0.683417511 -0.0976310729,1.31658249 0.292893219,1.70710678 L4.53553391,5.94974747 C4.73752395,6.15173751 5.00442637,6.24925268 5.26909218,6.24229297 C5.53375799,6.24925268 5.80066041,6.15173751 6.00265045,5.94974747 L10.2452911,1.70710678 C10.6358154,1.31658249 10.6358154,0.683417511 10.2452911,0.292893219 C9.85476685,-0.0976310729 9.22160187,-0.0976310729 8.83107758,0.292893219 L5.26909218,3.85487862 Z" transform="translate(300 291)"/>
    <g fill="#333" transform="translate(161 181)">
      <path d="M54.248,45.5972 C50.6464,41.898 45.748,39.898 40.646,39.898 C35.4468,39.898 30.646,41.898 26.947,45.5972 C23.248,49.2964 21.2478,54.0972 21.2478,59.2962 C21.2478,63.097 22.3494,66.6946 24.3494,69.8982 L19.7478,74.4998 C18.3494,73.60136 16.5486,73.80058 15.2478,74.9998 L1.0488,89.2968 C-0.3496,90.6952 -0.3496,92.996 1.0488,94.3984 L5.5488,98.8984 C6.24802,99.59762 7.1504,100 8.0488,100 C8.94724,100 9.8496,99.60156 10.5488,98.8984 L24.9468,84.5004 C25.64602,83.80118 26.0484,82.8988 26.0484,82.0004 C26.0484,81.30118 25.84918,80.6996 25.5484,80.102 L30.15,75.5004 C33.2516,77.5004 36.9508,78.602 40.752,78.602 C45.9512,78.602 50.752,76.602 54.451,72.9028 C57.9471,69.2973 59.9471,64.3989 59.9471,59.1998 C59.9471,54.0982 57.9471,49.1998 54.2479,45.5978 L54.248,45.5972 Z M23.248,82.7962 L8.846,97.1982 C8.346,97.6982 7.6468,97.6982 7.1468,97.1982 L2.6468,92.6982 C2.1468,92.1982 2.1468,91.499 2.6468,90.999 L17.0448,76.601 C17.24402,76.40178 17.5448,76.20256 17.84558,76.20256 C18.14636,76.20256 18.44714,76.30412 18.64636,76.601 L23.14636,81.101 C23.34558,81.30022 23.5448,81.601 23.5448,81.90178 C23.64636,82.29631 23.44715,82.59709 23.24792,82.79631 L23.248,82.7962 Z M23.84566,78.2962 L21.54486,75.9954 L25.74406,71.7962 L28.04486,74.097 L23.84566,78.2962 Z M52.54866,71.1985 C49.34946,74.3977 45.04866,76.1985 40.54866,76.1985 C36.04866,76.1985 31.74786,74.3977 28.54866,71.1985 C25.34946,67.9993 23.54866,63.6985 23.54866,59.1985 C23.54866,54.6985 25.34946,50.3977 28.54866,47.1985 C31.74786,43.9993 36.04866,42.1985 40.54866,42.1985 C45.04866,42.1985 49.34946,43.9993 52.54866,47.1985 C59.14636,53.8977 59.14636,64.5965 52.54866,71.1985 Z M50.34556,68.9993 C50.14634,69.19852 49.84556,69.39774 49.54478,69.39774 C49.244,69.39774 48.94322,69.29618 48.744,68.9993 C48.244,68.4993 48.244,67.8001 48.744,67.3001 C53.1424,62.9017 53.1424,55.6981 48.744,51.1981 C48.244,50.6981 48.244,49.9989 48.744,49.4989 C49.244,48.9989 49.9432,48.9989 50.4432,49.4989 C55.7479,54.8973 55.7479,63.5969 50.34555,68.9989 L50.34556,68.9993 Z"/>
      <path d="M54.248,45.5972 C50.6464,41.898 45.748,39.898 40.646,39.898 C35.4468,39.898 30.646,41.898 26.947,45.5972 C23.248,49.2964 21.2478,54.0972 21.2478,59.2962 C21.2478,63.097 22.3494,66.6946 24.3494,69.8982 L19.7478,74.4998 C18.3494,73.60136 16.5486,73.80058 15.2478,74.9998 L1.0488,89.2968 C-0.3496,90.6952 -0.3496,92.996 1.0488,94.3984 L5.5488,98.8984 C6.24802,99.59762 7.1504,100 8.0488,100 C8.94724,100 9.8496,99.60156 10.5488,98.8984 L24.9468,84.5004 C25.64602,83.80118 26.0484,82.8988 26.0484,82.0004 C26.0484,81.30118 25.84918,80.6996 25.5484,80.102 L30.15,75.5004 C33.2516,77.5004 36.9508,78.602 40.752,78.602 C45.9512,78.602 50.752,76.602 54.451,72.9028 C57.9471,69.2973 59.9471,64.3989 59.9471,59.1998 C59.9471,54.0982 57.9471,49.1998 54.2479,45.5978 L54.248,45.5972 Z M23.248,82.7962 L8.846,97.1982 C8.346,97.6982 7.6468,97.6982 7.1468,97.1982 L2.6468,92.6982 C2.1468,92.1982 2.1468,91.499 2.6468,90.999 L17.0448,76.601 C17.24402,76.40178 17.5448,76.20256 17.84558,76.20256 C18.14636,76.20256 18.44714,76.30412 18.64636,76.601 L23.14636,81.101 C23.34558,81.30022 23.5448,81.601 23.5448,81.90178 C23.64636,82.29631 23.44715,82.59709 23.24792,82.79631 L23.248,82.7962 Z M23.84566,78.2962 L21.54486,75.9954 L25.74406,71.7962 L28.04486,74.097 L23.84566,78.2962 Z M52.54866,71.1985 C49.34946,74.3977 45.04866,76.1985 40.54866,76.1985 C36.04866,76.1985 31.74786,74.3977 28.54866,71.1985 C25.34946,67.9993 23.54866,63.6985 23.54866,59.1985 C23.54866,54.6985 25.34946,50.3977 28.54866,47.1985 C31.74786,43.9993 36.04866,42.1985 40.54866,42.1985 C45.04866,42.1985 49.34946,43.9993 52.54866,47.1985 C59.14636,53.8977 59.14636,64.5965 52.54866,71.1985 Z M50.34556,68.9993 C50.14634,69.19852 49.84556,69.39774 49.54478,69.39774 C49.244,69.39774 48.94322,69.29618 48.744,68.9993 C48.244,68.4993 48.244,67.8001 48.744,67.3001 C53.1424,62.9017 53.1424,55.6981 48.744,51.1981 C48.244,50.6981 48.244,49.9989 48.744,49.4989 C49.244,48.9989 49.9432,48.9989 50.4432,49.4989 C55.7479,54.8973 55.7479,63.5969 50.34555,68.9989 L50.34556,68.9993 Z" transform="translate(300)"/>
    </g>
    <path fill="#333" fill-rule="nonzero" d="M52.2880461,27.4774098 C51.0795997,29.5864856 49.653545,30.7623301 48.0098822,31.0049431 C44.0477069,31.5897804 43.8281621,26.4323082 44.7448042,22.6047404 C45.6614463,18.7771725 46.3636101,17.1909794 44.267432,16.3321629 C43.5292023,17.7706746 42.1902999,24.222646 39.0881862,29.1197242 C37.706766,31.4104323 34.7110738,35.4886677 30.8919139,35.4886677 C27.7295338,35.4886677 25.9029089,33.8071976 24.9425788,31.8632559 C24.2902144,30.5427116 24.0376153,29.1010457 24.0376153,27.9830852 C24.0376153,23.0375463 28.2899988,16.3368259 31.882195,16.3368259 C33.4355771,16.3368259 37.5908742,16.7538027 37.5908742,20.4193198 C37.5908742,24.0848369 32.6502714,26.6684794 29.9598846,27.6031923 C27.2694978,28.5379052 23.2105891,27.603609 22.7264899,26.7118892 C22.2423907,25.8201695 24.7212209,26.0630524 27.5035991,26.0630524 C32.8732669,26.0630524 35.3190529,19.0520237 33.8821744,19.0520237 C29.5035786,19.0520237 24.7560545,33.209841 29.9598846,33.209841 C33.9781144,33.209841 37.2433147,27.7000774 38.8984259,23.8573439 C39.2695826,22.9568109 39.5967734,22.0610049 39.8833534,21.2058361 C39.8965418,21.1611199 39.909075,21.1176981 39.9209474,21.0756189 L39.9209474,21.09319 C40.8478381,18.3043797 41.3407146,15.9684008 41.5174417,15.3467523 C39.8167447,14.9073844 38.16169,11.6639053 39.9068965,10.2862303 C41.6521031,8.90855531 46.2365929,9.84519345 45.1568735,13.2638304 C46.5052001,13.7272249 51.2846109,14.4863977 49.8441883,18.6631389 C48.4037657,22.8398802 47.5197158,29.1443171 49.6441838,27.6156925 C50.6720661,26.8760974 51.2542323,25.8639566 51.6525851,24.7042348 C51.6511087,24.637538 51.6503627,24.5700668 51.6503627,24.5018137 C51.6503627,20.21568 54.8056701,10.8676417 60.0483348,10.8676417 C64.0968369,10.8676417 66.0968164,14.4458846 64.0968369,17.1998709 C63.155099,18.4895899 61.7958896,17.1610824 62.1745265,16.6762257 C63.0968471,15.4931752 63.0968471,13.3791997 62.0288969,13.3791997 C57.7765134,13.3791997 53.2425794,27.3624685 56.9318619,27.3624685 C60.0386261,27.3624685 66.9705938,14.6592216 66.9705938,14.6592216 C66.9705938,14.6592216 66.9705032,14.6684465 66.9701552,14.6864611 C67.7336289,12.6285673 68.5573956,10.6155568 69.2327065,8.947609 C69.7666816,7.63849577 73.6015937,9.31610013 73.0579099,10.5088477 C71.9899597,12.8555544 66.5337051,24.9672761 68.2035908,24.9672761 C69.6684661,24.9672761 75.0183267,12.2739485 76.309844,9.15724883 C76.392992,8.94692236 76.4770822,8.74273071 76.5621714,8.54508625 C76.5817305,8.49730491 76.5918542,8.47244938 76.5918542,8.47244938 L76.5915755,8.47713953 C76.6843066,8.26396978 76.7782254,8.05859009 76.8734048,7.86152987 C77.5433008,6.37786821 81.0772451,8.55002646 80.5141441,9.56822565 C76.0967137,17.5974535 74.9802203,40.4923894 68.0676699,40.4923894 C60.6793962,40.4923894 61.0289072,31.3285968 63.019178,29.3406841 C65.0191575,27.3430742 69.0288251,28.0121766 67.2230184,29.8158437 C65.4172117,31.6195108 65.5240067,37.5735517 66.6405001,37.5735517 C69.2773316,37.5735517 70.9883679,30.3846645 72.7021653,22.7558882 C71.3831176,25.3705571 69.9942915,27.6242912 69.1259115,27.6242912 C67.2812702,27.6242912 64.6211033,25.9563839 64.6211033,23.8714999 C64.6211033,23.5905819 64.6375227,23.2914042 64.6686495,22.9764286 C62.7357101,26.208747 59.5311486,29.9903921 56.6406027,29.9903921 C55.1807129,29.9903921 53.2671898,29.3796979 52.2880461,27.4774098 Z M19.6675611,3.75013283 C25.5637609,3.77920677 28.0278656,7.1730501 28.0278656,11.672504 C28.0278656,18.348558 20.5135214,27.1074327 12.8984885,30.4721779 C11.75879,40.2334113 12.726884,47.3205672 13.2176533,49.3464923 C14.0532154,52.7957425 9.18359569,51.9683886 8.05154388,45.7107963 C7.53581981,41.5073158 7.70050693,36.711223 8.29889623,31.7932627 C7.85670974,31.8449688 7.41962153,31.8716363 6.98924662,31.8716363 C0.668923151,31.8716363 0.503876302,24.2012025 1.94075476,25.6363785 C3.37763321,27.0715545 4.80480302,27.401257 5.73683229,27.401257 C6.72237706,27.401257 7.84614958,27.1789614 9.0459044,26.77642 C10.1975206,20.1808841 11.9717585,13.6519263 13.7837832,8.30546809 C8.58704938,10.5476757 4.29348806,14.5918053 1.94075476,17.1901738 C0.931056383,18.3053443 -0.77766394,15.2313525 0.397081282,13.6313252 C3.17213352,10.859561 9.53956116,6.41138045 15.1236693,4.57941289 C15.7039943,3.06164506 16.2731812,1.696258 16.8114686,0.520958449 C17.5029647,-0.996812677 19.3507991,1.02102352 19.6675611,3.75013283 Z M19.3142632,6.77582982 C16.5868389,13.0368842 14.8694389,19.0411315 13.8243943,24.476761 C19.6608218,20.9073571 25.4453678,14.7439136 25.4453678,9.8591397 C25.4453678,7.78395279 23.4939316,6.66878226 21.1541498,6.66878226 C20.5353912,6.66878226 19.9216745,6.70578298 19.3142632,6.77582982 Z M20.6290971,48.0779812 C19.603989,49.0452712 19.0022114,45.1656613 20.8336644,43.3648603 C25.3879827,39.1402438 48.974311,33.2807102 56.0708329,34.255478 C58.7605144,35.0542325 58.4927541,36.3233869 57.3885625,36.1387761 C47.081745,35.5439335 26.0078121,42.9804111 20.6290971,48.0779812 Z M42.0974363,12.4324317 C42.4950259,11.4114389 42.0444302,11.139654 41.6204155,11.2734631 C41.1964008,11.4072722 41.2968055,12.2909994 42.0974363,12.4324317 Z" transform="translate(325 309)"/>
    <g fill="#333" transform="translate(376 372)">
      <path d="M11,0 C4.93366667,0 0,4.93366667 0,11 C0,17.0663333 4.93366667,22 11,22 C17.0663333,22 22,17.0663333 22,11 C22,4.93366667 17.0663333,0 11,0 Z M11,20 C6.034,20 2,15.966 2,11 C2,6.034 6.034,2 11,2 C15.966,2 20,6.034 20,11 C20,15.966 15.966,20 11,20 Z"/>
      <path d="M9.64682804,12.5595592 L6.74226152,9.67833914 C6.33247844,9.27184984 5.68240228,9.27184984 5.30733731,9.67833914 C4.89755423,10.0848284 4.89755423,10.7296794 5.30733731,11.1017296 L8.93018605,14.6954584 C9.13574735,14.8993675 9.4080385,15 9.64833158,15 C9.88726464,15 10.1609021,14.8980455 10.3664771,14.728562 L16.6881807,8.76206372 C17.0979638,8.3886576 17.0979638,7.74516253 16.7228852,7.33867323 C16.3104367,6.89906684 15.6603606,6.89906684 15.2505775,7.27114421 L9.64682804,12.5595592 Z"/>
    </g>
    <path fill="#333" d="M3.01413324,4.5 L0.307733081,7.20640016 L0.307733081,7.20640016 C-0.102577694,7.61671094 -0.102577694,8.28195614 0.307733081,8.69226692 L0.307733081,8.69226692 L0.307733081,8.69226692 C0.718043856,9.10257769 1.38328906,9.10257769 1.79359984,8.69226692 L4.5,5.98586676 L7.20640016,8.69226692 C7.61671094,9.10257769 8.28195614,9.10257769 8.69226692,8.69226692 C9.10257769,8.28195614 9.10257769,7.61671094 8.69226692,7.20640016 L5.98586676,4.5 L8.69226692,1.79359984 C9.10257769,1.38328906 9.10257769,0.718043856 8.69226692,0.307733081 C8.28195614,-0.102577694 7.61671094,-0.102577694 7.20640016,0.307733081 L4.5,3.01413324 L1.79359984,0.307733081 L1.79359984,0.307733081 C1.38328906,-0.102577694 0.718043856,-0.102577694 0.307733081,0.307733081 L0.307733081,0.307733081 L0.307733081,0.307733081 C-0.102577694,0.718043856 -0.102577694,1.38328906 0.307733081,1.79359984 L3.01413324,4.5 Z" transform="translate(433 300)"/>
    <g fill="#333" transform="rotate(-10 2094.204 -1337.096)">
      <path d="M11.4986555,79 C6.53106045,79 2.49305068,74.8809441 2.49305068,69.8131048 L2.49305068,27.9166067 L0,27.9166067 L0,20 L23,20 L23,27.9166067 L20.5069493,27.9166067 L20.5069493,69.8098777 C20.503857,74.8774733 16.463008,78.9999984 11.498181,78.9999984 L11.4986555,79 Z M2.2154563,25.6543733 L4.70850698,25.6543733 L4.70850698,69.8098777 C4.70850698,73.6295329 7.75769548,76.7368775 11.4988137,76.7368775 C15.2430954,76.7368775 18.2891204,73.6294531 18.2891204,69.8098777 L18.2891204,25.6543733 L20.7821711,25.6543733 L20.7821711,22.2602164 L2.21498178,22.2602164 L2.2154563,25.6543733 Z"/>
      <polygon points="3 44 18 44 18 42 3 42"/>
      <polygon points="13 67 15 67 15 65 13 65"/>
      <polygon points="13 61 15 61 15 48 13 48"/>
      <polygon points="2 28 9 28 9 26 2 26"/>
      <path d="M12,19 C10.3471131,19 9,17.6536582 9,15.9984585 C9,14.3464209 10.347034,13 12,13 C13.652966,13 15,14.3463418 15,15.9984585 C15,17.6536582 13.652966,19 12,19 Z M12,15.2141003 C11.5674558,15.2141003 11.2152465,15.5630456 11.2152465,15.9984506 C11.2152465,16.4307725 11.5643712,16.7828008 12,16.7828008 C12.4325442,16.7828008 12.7847535,16.4307725 12.7847535,15.9984506 C12.7847535,15.5661287 12.4325442,15.2141003 12,15.2141003 Z"/>
      <path d="M19,12 C15.6950287,12 13,9.30497132 13,6 C13,2.69192161 15.6950287,0 19,0 C22.3111855,0 25,2.69192161 25,6 C25,9.30807839 22.3111855,12 19,12 Z M19,2.23103888 C16.9242352,2.23103888 15.2312779,3.9208891 15.2312779,5.99976099 C15.2312779,8.07863289 16.9242352,9.76848311 19,9.76848311 C21.0788719,9.76848311 22.7687221,8.07863289 22.7687221,5.99976099 C22.7687221,3.9208891 21.0788719,2.23103888 19,2.23103888 Z"/>
    </g>
    <g fill="#333" transform="translate(431 403)">
      <path d="M22.124,9.168 C21.424,9.168 20.78,8.93 20.22,8.286 L20.22,11.576 L17.7,11.576 L17.7,2.238 L20.22,2.238 L20.22,2.952 C20.766,2.308 21.424,2.07 22.124,2.07 C23.804,2.07 25.092,3.302 25.092,5.612 C25.092,7.936 23.804,9.168 22.124,9.168 Z M21.256,6.942 C21.928,6.942 22.516,6.466 22.516,5.612 C22.516,4.772 21.928,4.296 21.256,4.296 C20.934,4.296 20.458,4.464 20.22,4.758 L20.22,6.48 C20.444,6.76 20.934,6.942 21.256,6.942 Z M32.792,9 L30.566,5.528 L32.638,2.238 L29.88,2.238 L28.97,3.82 L28.06,2.238 L25.302,2.238 L27.374,5.528 L25.162,9 L27.906,9 L28.984,7.208 L30.034,9 L32.792,9 Z"/>
      <path d="M47.8845338,4.88453384 L39.057106,4.88453384 L39.057106,4.88453384 C38.476839,4.88453384 38.0064396,5.35493323 38.0064396,5.9352003 C38.0064396,6.51546736 38.476839,6.98586676 39.057106,6.98586676 L47.8845338,6.98586676 L47.8845338,10.8132946 C47.8845338,11.3935616 48.3549332,11.863961 48.9352003,11.863961 C49.5154674,11.863961 49.9858668,11.3935616 49.9858668,10.8132946 L49.9858668,1.05710602 C49.9858668,0.47683896 49.5154674,0.00643956314 48.9352003,0.00643956314 C48.3549332,0.00643956314 47.8845338,0.47683896 47.8845338,1.05710602 L47.8845338,4.88453384 Z"/>
      <path d="M9.88453384,4.88453384 L1.05710602,4.88453384 L1.05710602,4.88453384 C0.47683896,4.88453384 0.00643956314,5.35493323 0.00643956314,5.9352003 C0.00643956314,6.51546736 0.47683896,6.98586676 1.05710602,6.98586676 L9.88453384,6.98586676 L9.88453384,10.8132946 C9.88453384,11.3935616 10.3549332,11.863961 10.9352003,11.863961 C11.5154674,11.863961 11.9858668,11.3935616 11.9858668,10.8132946 L11.9858668,1.05710602 C11.9858668,0.47683896 11.5154674,0.00643956314 10.9352003,0.00643956314 C10.3549332,0.00643956314 9.88453384,0.47683896 9.88453384,1.05710602 L9.88453384,4.88453384 Z" transform="rotate(-180 5.996 5.935)"/>
    </g>
    <g fill="#333" transform="translate(428 337)">
      <path d="M16,2.19716749 C16,1.54626749 15.7660233,1.01604061 15.3012863,0.609624364 C14.836541,0.203208121 14.2083665,0 13.4166562,0 C12.1570087,0 11.0096071,0.21908274 9.96796933,0.650899998 C8.9295315,1.05731624 8.09622124,1.64158023 7.46795651,2.40035936 C6.94552119,3.07666037 6.57696438,3.86093805 6.35895479,4.75627303 C6.11216171,5.6516893 5.99036516,7.2233822 5.99036516,9.47135172 L5.99036516,12.0717654 C5.99036516,14.618207 5.01920917,16.0692756 3.0768972,16.4217197 L1.84613176,16.7043091 C1.21793266,16.8662416 0.753212041,17.1393045 0.451920661,17.5171416 C0.150637485,17.8695776 0,18.3712659 0,19.0221822 C0,19.7270624 0.176278432,20.2667913 0.532051696,20.6478472 C0.862175809,21.0256842 1.38144395,21.2828726 2.09290843,21.419404 C2.17303947,21.419404 2.25637049,21.4321005 2.33970152,21.4606797 C4.77235044,21.8385167 5.99031593,23.356205 5.99031593,26.0106721 L5.99031593,28.5317533 C5.99031593,30.9702508 6.14095341,32.6784995 6.44223659,33.6532482 C6.74031157,34.6566086 7.23389774,35.4694411 7.91661154,36.0917457 C8.54801883,36.6886736 9.35250456,37.1617584 10.3396605,37.5142025 C11.2948165,37.8380675 12.2947724,38 13.3332103,38 C14.1537206,38 14.8107852,37.7967919 15.3011222,37.3903756 C15.7658674,36.9839594 15.9998359,36.4441573 15.9998359,35.7647107 C15.9998359,34.3835457 15.1665256,33.5707132 13.4966231,33.3262132 L12.7594438,33.2055564 C12.1023956,33.0690249 11.6504421,32.8118366 11.4037147,32.4339995 C11.1601216,32.0529843 11.035125,31.1449285 11.035125,29.7097101 L11.035125,26.4170883 C11.035125,24.089705 10.8171811,22.4481898 10.3780768,21.5019715 C9.94218069,20.5525832 9.16331129,19.7270705 8.04150962,19.0221822 C9.13442933,18.342703 9.9132577,17.4917812 10.3780768,16.4598904 C10.8171811,15.4311696 11.035125,13.8181848 11.035125,11.6241873 L11.035125,8.37285738 C11.035125,6.90910864 11.1729461,5.97565182 11.4453802,5.56923557 C11.7210224,5.13424014 12.224225,4.86435537 12.964637,4.75640309 C13.09925,4.7278239 13.2242547,4.70242288 13.3332267,4.67385182 C15.1122079,4.40390202 16,3.57833245 16,2.19716749 Z"/>
      <path d="M45,2.19716749 C45,1.54626749 44.7660233,1.01604061 44.3012863,0.609624364 C43.836541,0.203208121 43.2083665,0 42.4166562,0 C41.1570087,0 40.0096071,0.21908274 38.9679693,0.650899998 C37.9295315,1.05731624 37.0962212,1.64158023 36.4679565,2.40035936 C35.9455212,3.07666037 35.5769644,3.86093805 35.3589548,4.75627303 C35.1121617,5.6516893 34.9903652,7.2233822 34.9903652,9.47135172 L34.9903652,12.0717654 C34.9903652,14.618207 34.0192092,16.0692756 32.0768972,16.4217197 L30.8461318,16.7043091 C30.2179327,16.8662416 29.753212,17.1393045 29.4519207,17.5171416 C29.1506375,17.8695776 29,18.3712659 29,19.0221822 C29,19.7270624 29.1762784,20.2667913 29.5320517,20.6478472 C29.8621758,21.0256842 30.381444,21.2828726 31.0929084,21.419404 C31.1730395,21.419404 31.2563705,21.4321005 31.3397015,21.4606797 C33.7723504,21.8385167 34.9903159,23.356205 34.9903159,26.0106721 L34.9903159,28.5317533 C34.9903159,30.9702508 35.1409534,32.6784995 35.4422366,33.6532482 C35.7403116,34.6566086 36.2338977,35.4694411 36.9166115,36.0917457 C37.5480188,36.6886736 38.3525046,37.1617584 39.3396605,37.5142025 C40.2948165,37.8380675 41.2947724,38 42.3332103,38 C43.1537206,38 43.8107852,37.7967919 44.3011222,37.3903756 C44.7658674,36.9839594 44.9998359,36.4441573 44.9998359,35.7647107 C44.9998359,34.3835457 44.1665256,33.5707132 42.4966231,33.3262132 L41.7594438,33.2055564 C41.1023956,33.0690249 40.6504421,32.8118366 40.4037147,32.4339995 C40.1601216,32.0529843 40.035125,31.1449285 40.035125,29.7097101 L40.035125,26.4170883 C40.035125,24.089705 39.8171811,22.4481898 39.3780768,21.5019715 C38.9421807,20.5525832 38.1633113,19.7270705 37.0415096,19.0221822 C38.1344293,18.342703 38.9132577,17.4917812 39.3780768,16.4598904 C39.8171811,15.4311696 40.035125,13.8181848 40.035125,11.6241873 L40.035125,8.37285738 C40.035125,6.90910864 40.1729461,5.97565182 40.4453802,5.56923557 C40.7210224,5.13424014 41.224225,4.86435537 41.964637,4.75640309 C42.09925,4.7278239 42.2242547,4.70242288 42.3332267,4.67385182 C44.1122079,4.40390202 45,3.57833245 45,2.19716749 Z" transform="rotate(-180 37 19)"/>
    </g>
    <g fill="#333" transform="translate(202 38)">
      <path d="M32.3727549,21.8815941 L29.7369439,21.8815941 L29.7369439,18.681202 C29.7369439,17.7530664 28.9943078,17 28.0790274,17 L1.65791655,17 C0.742636087,17 0,17.7530664 0,18.681202 L0,41.7147898 C0,45.7382984 3.2165239,49 7.18430506,49 L22.5482177,49 C26.5159989,49 29.7325228,45.7382984 29.7325228,41.7147898 L29.7325228,39.7971548 L32.3683338,39.7971548 C36.0295662,39.7971548 39,36.7871868 39,33.0723469 L39,28.5891416 C38.989207,24.8852295 36.0274109,21.8861894 32.3727549,21.8817062 L32.3727549,21.8815941 Z M26.4208345,41.7147337 C26.4208345,42.7545572 26.0128323,43.7527428 25.2874827,44.4882687 C24.5621332,45.2237945 23.5777287,45.6375383 22.5523625,45.6375383 L7.18402874,45.6375383 C5.04686377,45.6375383 3.31555678,43.8819152 3.31555678,41.7147337 L3.31555678,20.3623479 L26.4164134,20.3623479 L26.4208345,41.7147337 Z M35.688588,33.0722348 C35.688588,34.9307475 34.2055264,36.4346387 32.3727549,36.4346387 L29.7369439,36.4346387 L29.7369439,25.2266256 L32.3727549,25.2266256 C34.2055264,25.2266256 35.688588,26.7327024 35.688588,28.5890295 L35.688588,33.0722348 Z" transform="translate(0 300)"/>
      <g transform="translate(300 300)">
        <path d="M32.3727549,21.8815941 L29.7369439,21.8815941 L29.7369439,18.681202 C29.7369439,17.7530664 28.9943078,17 28.0790274,17 L1.65791655,17 C0.742636087,17 0,17.7530664 0,18.681202 L0,41.7147898 C0,45.7382984 3.2165239,49 7.18430506,49 L22.5482177,49 C26.5159989,49 29.7325228,45.7382984 29.7325228,41.7147898 L29.7325228,39.7971548 L32.3683338,39.7971548 C36.0295662,39.7971548 39,36.7871868 39,33.0723469 L39,28.5891416 C38.989207,24.8852295 36.0274109,21.8861894 32.3727549,21.8817062 L32.3727549,21.8815941 Z M26.4208345,41.7147337 C26.4208345,42.7545572 26.0128323,43.7527428 25.2874827,44.4882687 C24.5621332,45.2237945 23.5777287,45.6375383 22.5523625,45.6375383 L7.18402874,45.6375383 C5.04686377,45.6375383 3.31555678,43.8819152 3.31555678,41.7147337 L3.31555678,20.3623479 L26.4164134,20.3623479 L26.4208345,41.7147337 Z M35.688588,33.0722348 C35.688588,34.9307475 34.2055264,36.4346387 32.3727549,36.4346387 L29.7369439,36.4346387 L29.7369439,25.2266256 L32.3727549,25.2266256 C34.2055264,25.2266256 35.688588,26.7327024 35.688588,28.5890295 L35.688588,33.0722348 Z"/>
        <path d="M16,9.28393136 L16,1.71606864 C16,0.768684347 15.3281,0 14.5,0 C13.6719,0 13,0.768684347 13,1.71606864 L13,9.28393136 C13,10.2313157 13.6719,11 14.5,11 C15.3281,11 16,10.2313157 16,9.28393136 Z"/>
        <path d="M10,14.2839314 L10,6.71606864 C10,5.76868435 9.3281,5 8.5,5 C7.6719,5 7,5.76868435 7,6.71606864 L7,14.2839314 C7,15.2313157 7.6719,16 8.5,16 C9.3281,16 10,15.2313157 10,14.2839314 Z"/>
        <path d="M23,12.2839314 L23,4.71606864 C23,3.76868435 22.3281,3 21.5,3 C20.6719,3 20,3.76868435 20,4.71606864 L20,12.2839314 C20,13.2313157 20.6719,14 21.5,14 C22.3281,14 23,13.2313157 23,12.2839314 Z"/>
      </g>
    </g>
  </g>
</svg>
