<?xml version="1.0" encoding="utf-8"?>
<!-- Generator: Adobe Illustrator 19.1.0, SVG Export Plug-In . SVG Version: 6.00 Build 0)  -->
<svg version="1.1" id="Layer_1" xmlns="http://www.w3.org/2000/svg" xmlns:xlink="http://www.w3.org/1999/xlink" x="0px" y="0px"
	 viewBox="-393.4 226.8 106.2 106.2" style="enable-background:new -393.4 226.8 106.2 106.2;" xml:space="preserve">
<style type="text/css">
	.st0{fill:#582A64;}
	.st1{fill:#1F0924;}
	.st2{fill:#EDDDC2;}
	.st3{fill:#B157B5;}
	.st4{fill:#FFFAF3;}
</style>
<circle class="st0" cx="-340.3" cy="279.9" r="53.1"/>
<g>
	<g>
		<polyline class="st1" points="-359.4,299 -380.7,302 -361.1,293.1 -382.4,290.2 -361.1,287.2 -380.7,278.4 -359.4,281.5 
			-375.7,267.5 -356.2,276.5 -367.9,258.5 -351.7,272.5 -357.8,251.9 -346.2,270 -346.3,248.6 -340.3,269.1 -334.3,248.6 
			-334.4,270 -322.8,251.9 -328.9,272.5 -312.8,258.4 -324.4,276.5 -304.9,267.5 -321.2,281.5 -299.9,278.4 -319.5,287.1 
			-298.2,290.1 -319.5,293.1 -299.9,302 -321.2,299 		"/>
		<polyline class="st2" points="-357.5,295 -375.8,295 -358.2,290 -375.8,284.9 -357.5,284.9 -372.9,275 -355.4,280.2 -352,276.4 
			-359.7,259.8 -347.7,273.6 -350.4,255.6 -342.9,272.1 -340.3,254.1 -337.7,272.1 -330.2,255.6 -332.9,273.6 -320.9,259.8 
			-328.6,276.4 -325.2,280.2 -307.7,275 -323.1,284.9 -304.8,284.9 -322.4,290 -304.8,295 -323.1,295 		"/>
	</g>
	<polygon class="st2" points="-327.9,271.2 -313.9,267.8 -317.4,281.6 	"/>
	<polygon class="st1" points="-324.7,272.8 -317.1,270.9 -319,278.5 -324.7,278.5 	"/>
	<polygon class="st2" points="-352.7,271.2 -366.7,267.8 -363.2,281.6 	"/>
	<polygon class="st1" points="-355.9,272.8 -363.5,270.9 -361.6,278.5 -355.9,278.5 	"/>
	<polyline class="st3" points="-365.2,300.9 -315.4,300.9 -296.6,294 -315.5,287.5 -302.5,272.2 -322.1,276 -318.5,256.2 
		-333.7,269.2 -340.3,250.4 -346.9,269.2 -362.1,256.2 -358.5,276 -378.1,272.2 -365.1,287.5 -384,294 	"/>
	<circle class="st4" cx="-352.9" cy="288.9" r="6.5"/>
	<circle class="st1" cx="-352.9" cy="288.9" r="5.1"/>
	<circle class="st4" cx="-354.6" cy="287.1" r="2.2"/>
	<circle class="st4" cx="-327.7" cy="288.9" r="6.5"/>
	<circle class="st1" cx="-327.7" cy="288.9" r="5.1"/>
	<circle class="st4" cx="-329.4" cy="287.1" r="2.2"/>
	<path class="st2" d="M-352.1,299c0-6.5,5.3-11.8,11.8-11.8s11.8,5.3,11.8,11.8S-352.1,305.5-352.1,299z"/>
	<path class="st1" d="M-337.8,298.4c-1.1,0-2-0.5-2.5-1.4c-0.6,0.8-1.5,1.4-2.5,1.4c-1.7,0-3.1-1.4-3.1-3.1c0-0.3,0.2-0.5,0.5-0.5
		s0.5,0.2,0.5,0.5c0,1.1,0.9,2,2,2s2-0.9,2-2h1.1c0,1.1,0.9,2,2,2s2-0.9,2-2c0-0.3,0.2-0.5,0.5-0.5c0.3,0,0.5,0.2,0.5,0.5
		C-334.7,297-336.1,298.4-337.8,298.4z"/>
	<path class="st1" d="M-336.1,291.5c0,2.3-1.9,4.2-4.2,4.2c-2.3,0-4.2-1.9-4.2-4.2C-344.5,289.1-336.1,289.1-336.1,291.5z"/>
	<path class="st2" d="M-360.6,301c0-2.1,1.7-3.9,3.9-3.9c2.1,0,3.9,1.7,3.9,3.9C-352.8,303-360.6,303-360.6,301z"/>
	<path class="st2" d="M-327.8,301c0-2.1,1.7-3.9,3.9-3.9s3.9,1.7,3.9,3.9C-320,303-327.8,303-327.8,301z"/>
</g>
</svg>
