<?xml version="1.0" encoding="UTF-8"?>
<svg width="390px" height="318px" viewBox="0 0 390 318" version="1.1" xmlns="http://www.w3.org/2000/svg" xmlns:xlink="http://www.w3.org/1999/xlink">
    <!-- Generator: Sketch 45.2 (43514) - http://www.bohemiancoding.com/sketch -->
    <title>social-silhouette-light-borderless-white-background</title>
    <desc>Created with Sketch.</desc>
    <defs>
        <polygon id="path-1" points="387.983249 308.951082 0.048907563 308.951082 0.048907563 0.238068602 194.016078 0.238068602 387.983249 0.238068602"></polygon>
    </defs>
    <g id="Icon" stroke="none" stroke-width="1" fill="none" fill-rule="evenodd">
        <g id="social-silhouette-light-borderless-white-background">
            <g id="Percy_silhouette" transform="translate(4.000000, 4.000000)" fill="#FFFFFF">
                <path d="M364.974342,61.4095389 C363.271676,61.4095389 359.426182,62.9266105 357.842158,63.5863535 C353.787504,65.2745899 349.85467,66.0454691 341.947374,66.4134181 C325.966044,54.7889563 287.019095,25.2984342 264.028297,9.54316403 C264.028297,9.54316403 268.990528,21.0064978 273.439585,38.5021105 C273.439585,38.5021105 235.341104,15.8744515 211.138238,0.103148715 C211.138238,0.103148715 222.284351,21.3398513 223.032274,27.3176192 C223.032274,27.3176192 192.145979,19.5787917 150.054702,10.4626356 C150.054702,10.4626356 181.363231,27.9646613 189.074126,38.5021105 C189.074126,38.5021105 151.412666,35.9521199 107.054374,33.4149555 C107.054374,33.4149555 129.537739,44.800531 140.505665,53.9960487 C140.505665,53.9960487 100.296618,59.9120909 69.6662697,61.4095389 C69.6662697,61.4095389 92.3845131,79.1873259 101.552775,87.7952475 C101.552775,87.7952475 63.3069251,102.91322 17.6323537,129.462462 C17.6323537,129.462462 41.700545,130.65529 59.0542688,136.193764 C59.0542688,136.193764 38.1236642,154.689813 0.726742073,197.100941 C0.726742073,197.100941 24.741224,196.215138 44.1174647,193.592199 C44.1174647,193.592199 28.9433775,217.104058 10.0777763,259.339629 C10.0777763,259.339629 23.0185174,251.141341 35.5512279,248.172899 C35.5512279,248.172899 34.5129597,297.335653 60.5796188,304.92951 C61.8790639,305.299864 65.4809504,303.6875 66.5383027,303.6875 C67.8112939,303.6875 69.1420025,303.492703 70.4943553,303.107119 C78.7663932,300.752726 85.027137,292.634602 92.2762928,283.234668 C94.9497346,279.770016 97.7057445,276.200349 100.67098,272.75173 C101.495058,275.327372 102.563633,278.400829 103.847045,281.503945 C108.601523,293.00736 113.695091,298.59794 119.41794,298.59794 C119.854829,298.59794 120.295727,298.56347 120.728608,298.495331 C128.033878,297.348196 131.470888,284.544534 137.132812,270.916795 C140.018687,263.970656 143.334097,256.274856 145.060812,251.360052 C163.253043,252.768519 176.656049,269.638994 185.368183,283.615443 C191.934349,294.148884 197.120906,302.46902 204.360442,303.266643 C204.868677,303.322758 205.376911,303.350815 205.869915,303.350815 C216.935639,303.350815 220.824355,290.502261 225.748778,274.234748 C226.076646,273.151744 226.411728,272.043889 226.756429,270.916795 C227.755263,272.879189 228.843077,274.932168 230.003038,276.994766 C238.094709,291.384858 245.258892,298.432804 251.903617,298.540223 C257.602417,298.541826 261.237817,294.857526 262.896393,287.59314 C264.135716,282.166894 264.399453,274.710918 264.705676,266.077344 C265.41031,246.161605 266.382689,218.968653 279.996801,195.599485 C290.062891,189.29385 301.167094,183.549357 312.066079,177.913084 C337.438525,164.792777 361.404107,152.400352 373.425377,133.597278 C379.437615,124.194138 382.41728,112.654649 382.282606,99.3002662 C382.162361,87.3222848 379.530604,76.2782044 377.342951,69.1236411 C375.671549,63.6541078 370.689976,61.4095389 364.974342,61.4095389 Z" id="Path"></path>
            </g>
            <g id="Percy_silhouette-01" transform="translate(0.000000, 2.000000)">
                <g id="Percy_silhouette">
                    <mask id="mask-2" fill="white">
                        <use xlink:href="#path-1"></use>
                    </mask>
                    <g id="Clip-2"></g>
                    <path d="M319.659017,95.4394195 C317.004151,95.3929472 314.886454,93.4835066 314.926395,91.1745673 C314.967151,88.865628 317.152504,87.0320106 319.80737,87.0801135 C322.460605,87.1265858 324.579933,89.0360264 324.539176,91.3449657 C324.49842,93.653905 322.313067,95.4867071 319.659017,95.4394195 Z M326.710672,84.311343 C317.820908,81.9616385 309.279202,85.1127863 307.631017,91.3490422 C305.984462,97.5861135 311.855,104.546359 320.744765,106.895248 C329.634529,109.244953 338.17705,106.093805 339.823605,99.8567335 C341.47179,93.6204776 335.600437,86.6602322 326.710672,84.311343 L326.710672,84.311343 Z" id="Fill-1" fill="#5C007B" mask="url(#mask-2)"></path>
                    <path d="M375.751916,133.950277 C354.574126,167.082578 291.551025,181.613731 259.636395,212.836591 C220.481815,251.144438 227.410387,306.968264 207.479739,304.771836 C193.453866,303.227652 182.931403,254.022459 150.28316,251.473005 C100.998193,247.625588 90.1790252,298.957908 69.8954286,304.732702 C49.6126471,310.507496 52.5536218,258.454449 63.0296218,235.405821 C72.2804874,215.052586 88.8756387,186.520227 114.239916,193.067929 C131.024176,197.399636 111.532882,225.560216 111.532882,225.560216 C111.532882,225.560216 147.028361,227.861003 168.921832,195.23419 C183.46205,173.565055 231.631924,99.4392982 279.915101,163.558836 C279.915101,163.558836 260.999286,109.743918 273.270193,83.566971 C283.33863,62.0869868 306.511849,62.5158364 327.601605,67.9783694 C344.892059,72.4568311 358.593513,69.105934 366.829546,65.6759525 C368.438605,65.0057731 370.117765,64.8264063 371.714597,65.0563219 C368.674176,65.2014459 363.997798,66.8173773 361.292395,74.6279842 C357.254261,86.2884538 379.217832,77.3258232 383.917849,95.6032955 C383.917849,95.6032955 385.363067,123.346441 362.401782,119.939288 L363.29842,113.921533 C363.29842,113.921533 355.906042,118.678013 361.189689,128.077646 L362.03579,122.397427 C366.66163,124.058201 373.200571,124.866166 381.324118,121.883786 C380.01584,126.058955 378.199739,130.121612 375.751916,133.950277 Z M376.329025,69.5665805 C376.972975,70.2587731 376.10242,72.115219 374.385765,73.714029 C372.667479,75.3120237 370.753563,76.0457968 370.109613,75.3536042 C369.465664,74.6614116 370.335403,72.8041504 372.052874,71.2061557 C373.77116,69.6081609 375.685076,68.8735726 376.329025,69.5665805 Z M370.397353,61.9508311 C368.666025,61.9508311 366.971378,62.2908127 365.360689,62.9618074 C361.237782,64.6788364 354.805622,66.6877441 346.765218,67.0619683 C330.514866,55.2392533 291.111672,26.6783588 267.733857,10.6543852 C267.733857,10.6543852 271.007403,20.1771293 275.531353,37.9711266 C275.531353,37.9711266 238.563756,17.0936517 213.953471,1.05337203 C213.953471,1.05337203 223.149723,19.8330712 223.910235,25.9127889 C223.910235,25.9127889 194.641504,20.8611689 151.841681,11.5895383 C151.841681,11.5895383 183.677244,29.390058 191.517941,40.1072216 C191.517941,40.1072216 153.222504,37.5137414 108.117504,34.9333061 C108.117504,34.9333061 130.979345,46.5130607 142.131899,55.8654063 C142.131899,55.8654063 101.245992,61.8823456 70.1000252,63.4053325 C70.1000252,63.4053325 93.2006975,81.4863166 102.523294,90.2410449 C102.523294,90.2410449 63.6336303,105.616852 17.1901933,132.618887 C17.1901933,132.618887 41.6635378,133.832058 59.3093866,139.464989 C59.3093866,139.464989 38.0264454,158.276485 0,201.410929 C0,201.410929 24.4187311,200.510018 44.1211429,197.842346 C44.1211429,197.842346 28.6916218,221.755195 9.50844538,264.711087 C9.50844538,264.711087 22.6670252,256.372979 35.4107059,253.35391 C35.4107059,253.35391 36.9803146,300.756467 63.4857684,308.479836 C64.8070877,308.856507 66.0460793,309 67.1212306,309 C68.4156508,309 69.76876,308.801881 71.1438776,308.40972 C79.5551634,306.015174 85.7194706,298.5739 93.0906555,289.013652 C95.8091008,285.48991 98.6115042,281.859364 101.626655,278.351929 C102.464605,280.971499 103.551168,284.097372 104.856185,287.253412 C109.690697,298.953016 114.870008,304.638942 120.689193,304.638942 C121.133437,304.638942 121.581756,304.603884 122.021924,304.534583 C129.450168,303.367884 136.337168,289.040557 142.094403,275.180398 C145.028857,268.115794 147.611176,261.061789 149.366958,256.063164 C167.865429,257.495652 178.890824,275.186106 187.749613,289.400921 C194.426311,300.114008 201.927455,308.918465 208.328715,308.918465 C218.126735,308.918465 223.802639,296.405193 228.809958,279.86024 C229.143345,278.758765 229.484067,277.632016 229.834571,276.485699 C230.850218,278.481562 231.956345,280.569554 233.135832,282.66733 C241.363714,297.302842 248.648496,304.470989 255.405076,304.58024 C261.199807,304.581871 264.896403,300.834736 266.582899,293.446456 C267.843084,287.927668 268.111261,280.34453 268.422639,271.563712 C269.139134,251.308314 270.127882,223.651591 283.971168,199.883865 C294.206706,193.470689 305.497832,187.628224 316.580286,181.895826 C342.37984,168.551755 366.748849,155.947979 378.972479,136.824222 C385.085924,127.260712 388.115748,115.52442 387.978807,101.94228 C387.856538,89.7600158 385.180479,78.5275805 382.956,71.2509974 C381.256462,65.6881821 376.209202,61.9508311 370.397353,61.9508311 Z" id="Fill-3" fill="#5C007B" mask="url(#mask-2)"></path>
                </g>
            </g>
        </g>
    </g>
</svg>