<?xml version="1.0" encoding="UTF-8"?>
<svg width="349px" height="378px" viewBox="0 0 349 378" version="1.1" xmlns="http://www.w3.org/2000/svg" xmlns:xlink="http://www.w3.org/1999/xlink">
    <!-- Generator: Sketch 44.1 (41455) - http://www.bohemiancoding.com/sketch -->
    <title>Percy_Poses_lightBG-03</title>
    <desc>Created with Sketch.</desc>
    <defs></defs>
    <g id="Symbols" stroke="none" stroke-width="1" fill="none" fill-rule="evenodd">
        <g id="Percy_Poses_lightBG-03" fill-rule="nonzero">
            <g>
                <path d="M339.719,107.57 C332.759,105.121 319.048,97.62 305.425,74.915 C303.159,71.14 300.636,67.785 297.898,64.854 L297.902,64.844 L297.744,64.681 C297.634,64.564 297.519,64.452 297.408,64.335 C283.501,49.92 236.639,12.645 204.3,2.24 C204.3,2.24 221.514,10.245 227.941,29.525 C227.941,29.525 173.249,23.374 107.683,35.963 C107.683,35.963 133.988,36.499 146.452,45.697 C146.452,45.697 111.766,59.728 33.881,99.908 C33.881,99.908 66.055,94.249 87.776,99.869 C87.776,99.869 59.69,113.665 5.543,156.677 C5.543,156.677 34.969,147.845 53.207,152.039 C53.207,152.039 22.62,184.74 7.906,234.614 C7.906,234.614 24.318,215.951 36.143,217.927 C36.143,217.927 17.575,268.007 16.867,311.643 C16.867,311.643 25.217,286.267 39.336,274.033 C39.336,274.033 40.586,282.889 57.354,353.737 C57.354,353.737 58.51,332.249 70.092,313.198 C70.092,313.198 76.828,339.313 114.127,374.631 C114.127,374.631 109.635,347.49 112.662,339.313 L158.5,376.063 C158.5,376.063 160.992,352.182 165.896,346.055 C165.896,346.055 198.775,366.433 238.228,358.646 C256.492,355.603 271.132,346.31 280.565,331.773 C290.988,315.714 293.869,294.593 288.471,273.824 C283.499,254.699 277.274,245.145 272.272,237.469 C267.822,230.638 264.308,225.242 262.571,215.03 C259.038,194.251 265.453,191.029 300.114,177.409 C318.645,170.128 332.129,160.131 340.19,147.695 C347.134,136.985 348.557,126.721 348.527,119.996 C348.503,114.41 344.963,109.416 339.719,107.57" id="Fill-1" fill="#2B023F"></path>
                <path d="M208.618,370.038 C191.019,370.038 174.409,368.884 159.766,366.796 C160.966,359.383 163.015,349.654 165.896,346.055 C165.896,346.055 189.077,360.418 219.859,360.42 C225.743,360.42 231.898,359.896 238.228,358.646 C256.492,355.603 271.132,346.31 280.565,331.773 C283.069,327.916 285.137,323.766 286.76,319.4 C301.476,323.773 309.981,329.932 309.981,337.894 C309.981,355.646 267.691,370.038 208.618,370.038 M143.3,363.876 C129.881,360.972 118.995,357.155 111.721,352.666 C111.468,347.22 111.617,342.136 112.662,339.313 L143.3,363.876" id="Fill-2" fill="#BFB3C5"></path>
                <path d="M159.766,366.796 C153.946,365.966 148.439,364.988 143.3,363.876 L112.662,339.313 C111.617,342.136 111.468,347.22 111.721,352.666 C105.265,348.681 101.656,344.166 101.656,339.294 C101.656,321.542 149.545,311.35 208.618,311.35 C241.194,311.35 268.669,314.024 286.76,319.4 C285.137,323.766 283.069,327.916 280.565,331.773 C271.132,346.31 256.492,355.603 238.228,358.646 C231.898,359.896 225.743,360.42 219.859,360.42 C189.077,360.418 165.896,346.055 165.896,346.055 C163.015,349.654 160.966,359.383 159.766,366.796" id="Fill-3" fill="#2B023F"></path>
                <path d="M36.142,217.927 C32.088,229.668 15.832,273.5 16.699,313.303 C16.718,313.262 20.58,300.396 27.153,289.364 C32.021,253.114 39.391,216.411 36.142,217.927 Z M39.336,274.033 C40.143,283.923 45.676,313.604 57.638,355.99 C57.638,355.99 57.802,345.442 60.916,334.595 C48.733,282.513 43.885,274.812 39.336,274.033 Z M125.519,342.694 C121.215,341.747 117.471,340.693 112.661,339.313 L159.634,377.859 C159.634,377.859 158.702,374.124 159.104,371.215 L125.519,342.694 Z M81.081,322.575 C75.505,317.285 73.033,315.927 70.092,313.198 C74.783,329.223 91.495,353.786 115.021,376.063 C115.021,376.063 113.568,371.247 112.978,366.516 C84.58,333.946 81.081,322.575 81.081,322.575 Z M96.174,101.268 C93.023,100.453 89.65,99.881 86.19,99.489 C86.724,99.611 87.255,99.734 87.776,99.869 C87.776,99.869 55.101,114.94 0.954,157.952 C0.954,157.952 11.686,154.836 20.088,153.234 C70.202,114.034 96.174,101.268 96.174,101.268 Z M52.906,152.367 C49.765,155.831 20.778,189.639 6.902,236.674 C6.902,236.674 13.494,228.267 20.495,223.366 C36.13,180.689 55.962,152.489 52.906,152.367 Z M236.339,30.925 C232.93,20.698 226.486,13.645 221.186,9.274 C215.292,6.364 205.543,1.843 200.253,0.141 C200.253,0.141 221.514,10.245 227.941,29.526 C227.941,29.526 168.342,22.893 102.775,35.481 C102.775,35.481 112.377,36.061 118.732,36.863 C183.114,24.941 236.339,30.925 236.339,30.925 Z M48.511,98.102 C39.913,98.849 31.081,101.307 31.081,101.307 C108.966,61.127 146.452,45.697 146.452,45.697 C141.468,42.019 134.271,39.728 127.428,38.3 C136.098,39.417 147.729,41.842 154.85,47.096 C154.85,47.096 122.006,60.385 48.511,98.102 L48.511,98.102 Z" id="Fill-4" fill="#9E66BF"></path>
                <polyline id="Fill-5" fill="#5C007B" points="157.348 70.539 198.038 67.909 214.957 53.26 157.348 70.539"></polyline>
                <path d="M214.957,53.26 L157.348,70.539 L186.12,65.267 C196.428,63.379 206.215,59.315 214.83,53.348 L214.957,53.26" id="Fill-6" fill="#9E66BF"></path>
                <polyline id="Fill-7" fill="#5C007B" points="97.322 128.377 149.446 107.384 163.974 87.027 97.322 128.377"></polyline>
                <path d="M163.974,87.027 L97.322,128.377 L140.812,106.402 C146.793,103.248 152.312,99.286 157.213,94.628 L163.974,87.027" id="Fill-8" fill="#9E66BF"></path>
                <polyline id="Fill-9" fill="#5C007B" points="211.272 84.99 207.07 98.922 179.431 117.63 211.272 84.99"></polyline>
                <path d="M211.272,84.99 L179.431,117.63 L193.865,106.366 C198.838,102.485 203.111,97.785 206.504,92.467 L211.272,84.99" id="Fill-10" fill="#9E66BF"></path>
                <polyline id="Fill-11" fill="#5C007B" points="189.937 256.49 204.407 258.022 227.938 281.694 189.937 256.49"></polyline>
                <path d="M189.937,256.49 L227.938,281.694 L214.181,269.61 C209.441,265.448 204.027,262.124 198.171,259.782 L189.937,256.49" id="Fill-12" fill="#9E66BF"></path>
                <polyline id="Fill-13" fill="#5C007B" points="166.054 293.062 176.636 303.05 181.008 336.139 166.054 293.062"></polyline>
                <path d="M166.054,293.062 L181.008,336.139 L177.388,318.19 C176.141,312.008 173.849,306.082 170.608,300.671 L166.054,293.062" id="Fill-14" fill="#9E66BF"></path>
                <polyline id="Fill-15" fill="#5C007B" points="208.457 132.348 210.084 146.808 192.049 174.893 208.457 132.348"></polyline>
                <path d="M208.457,132.348 L192.049,174.893 L200.878,158.853 C203.92,153.327 205.997,147.323 207.02,141.099 L208.457,132.348" id="Fill-16" fill="#9E66BF"></path>
                <polyline id="Fill-17" fill="#5C007B" points="118.797 139.044 111.103 160.064 66.564 186.617 118.797 139.044"></polyline>
                <path d="M118.797,139.044 L66.564,186.617 L97.831,162.94 C105.154,157.396 111.433,150.591 116.372,142.847 L118.797,139.044" id="Fill-18" fill="#9E66BF"></path>
                <polyline id="Fill-19" fill="#5C007B" points="178.214 128.12 169.181 147.765 125.981 175.692 178.214 128.12"></polyline>
                <path d="M178.214,128.12 L125.981,175.692 L157.772,151.619 C164.749,146.336 170.729,139.855 175.435,132.478 L178.214,128.12" id="Fill-20" fill="#9E66BF"></path>
                <polyline id="Fill-21" fill="#5C007B" points="166.286 221.663 178.338 239.615 179.637 291.04 166.286 221.663"></polyline>
                <path d="M166.286,221.663 L179.637,291.04 L175.677,251.358 C174.808,242.651 172.396,234.169 168.555,226.307 L166.286,221.663" id="Fill-22" fill="#9E66BF"></path>
                <polyline id="Fill-23" fill="#5C007B" points="144.494 173.687 151.803 197.84 119.926 257.715 144.494 173.687"></polyline>
                <path d="M119.926,257.715 L144.494,173.687 L143.732,186.631 C143.281,194.303 141.634,201.856 138.851,209.02 L119.926,257.715" id="Fill-24" fill="#9E66BF"></path>
                <polyline id="Fill-25" fill="#5C007B" points="64.71 263.055 92.681 214.885 88.848 190.004 64.71 263.055"></polyline>
                <path d="M64.71,263.055 L88.848,190.004 L88.862,190.318 C89.424,202.046 87.177,213.738 82.31,224.423 L64.71,263.055" id="Fill-26" fill="#9E66BF"></path>
                <polyline id="Fill-27" fill="#5C007B" points="147.234 335.93 153.063 280.534 139.391 259.396 147.234 335.93"></polyline>
                <path d="M147.234,335.93 L139.391,259.396 L139.532,259.676 C144.84,270.148 147.571,281.737 147.498,293.479 L147.234,335.93" id="Fill-28" fill="#9E66BF"></path>
                <polyline id="Fill-29" fill="#5C007B" points="95.222 250.917 106.8 270.137 104.753 316.93 95.222 250.917"></polyline>
                <path d="M104.753,316.93 L95.222,250.917 C99.9,260.187 102.57,270.339 103.057,280.71 L104.753,316.93" id="Fill-30" fill="#9E66BF"></path>
                <path d="M333.707,117.975 C334.008,119.084 336.482,119.379 339.234,118.633 C341.446,118.034 343.142,116.947 343.574,115.966 C343.305,115.418 342.979,114.902 342.609,114.419 C341.574,114.093 339.924,114.135 338.146,114.617 C335.395,115.362 333.406,116.866 333.707,117.975" id="Fill-31" fill="#D6B5E5"></path>
                <path d="M268.918,90.264 C272.754,85.588 281.183,87.682 287.746,94.941 C294.309,102.2 296.52,111.876 292.684,116.552 C288.849,121.229 280.419,119.135 273.855,111.875 C267.293,104.616 265.082,94.94 268.918,90.264 Z M298.651,173.687 C300.742,172.865 302.718,172.013 304.627,171.144 C297.1,167.83 294.814,163.675 292.295,159.178 L287.124,163.842 C289.43,150.942 300.039,152.194 300.039,152.194 L294.544,157.15 C303.453,167.021 312.622,166.211 319.829,162.596 C326.084,158.233 330.805,153.623 334.339,149.035 C341.566,129.637 316.117,121.36 328.515,113.789 C331.746,111.815 334.342,110.881 336.432,110.59 C328.449,107.282 315.074,98.772 301.994,76.973 C279.325,39.191 236.105,54.893 227.938,84.99 C215.154,132.093 248.26,176.585 248.26,176.585 C235.07,171.456 202.398,177.375 189.209,193.495 C176.02,209.615 180.774,234.171 211.925,251.383 C248.72,271.713 234.641,300.477 234.641,300.477 C234.641,300.477 235.373,282.891 212.345,290.219 C189.316,297.546 198.002,361.295 237.571,354.7 C277.14,348.105 293.994,310.971 284.6,274.83 C275.456,239.658 262.583,238.962 258.628,215.7 C254.545,191.688 264.051,187.282 298.651,173.687 L298.651,173.687 Z" id="Fill-32" fill="#D6B5E5"></path>
                <path d="M300.691,172.864 C273.213,184.588 252.412,189.151 258.628,215.7 C264.007,238.675 275.456,239.658 284.6,274.83 C293.994,310.971 277.14,348.105 237.571,354.7 L236.105,354.7 C265.063,337.152 273.447,295.796 254.107,262.164 C244.107,244.773 234.337,219.616 244.107,200.32 C256.55,175.747 300.691,172.864 300.691,172.864" id="Fill-33" fill="#C393DB"></path>
                <path d="M283.156,100.034 C282.215,102.094 279.655,102.485 277.439,100.908 C275.223,99.332 274.188,96.383 275.129,94.323 C276.07,92.264 278.629,91.872 280.846,93.449 C283.063,95.026 284.097,97.974 283.156,100.034" id="Fill-34" fill="#FFFFFF"></path>
            </g>
        </g>
    </g>
</svg>