<svg xmlns="http://www.w3.org/2000/svg" width="816" height="669" viewBox="0 0 816 669">
  <defs>
    <linearGradient id="percy-santa-a" x1="44.918%" x2="72.204%" y1="90.261%" y2="0%">
      <stop offset="0%" stop-color="#E74E3E"/>
      <stop offset="100%" stop-color="#F36C5E"/>
    </linearGradient>
  </defs>
  <g fill="none" fill-rule="evenodd" transform="translate(0 5)">
    <g fill-rule="nonzero">
      <path fill="#390156" d="M357.244,663.638 C177.358,663.638 31.534,653.704 31.534,641.45 C31.534,629.194 177.358,619.26 357.244,619.26 C537.13,619.26 682.956,629.194 682.956,641.45 C682.956,653.704 537.13,663.638 357.244,663.638"/>
      <path fill="#2B023F" d="M805.28,150.172 C801.722,138.532 791.158,130.71 778.99,130.71 C775.366,130.71 771.82,131.422 768.448,132.826 C759.816,136.42 746.352,140.626 729.522,141.408 C695.506,116.664 613.022,56.89 564.084,23.354 C564.084,23.354 570.94,43.286 580.408,80.524 C580.408,80.524 503.026,36.832 451.508,3.262 C451.508,3.262 470.758,42.564 472.352,55.29 C472.352,55.29 411.082,44.716 321.492,25.312 C321.492,25.312 388.132,62.566 404.544,84.996 C404.544,84.996 324.38,79.566 229.964,74.168 C229.964,74.168 277.82,98.402 301.166,117.974 C301.166,117.974 215.58,130.568 150.382,133.756 C150.382,133.756 198.738,171.594 218.254,189.918 C218.254,189.918 136.846,222.096 39.626,278.606 C39.626,278.606 90.856,281.146 127.792,292.934 C127.792,292.934 83.242,332.304 3.642,422.576 C3.642,422.576 54.758,420.692 96,415.11 C96,415.11 63.704,465.154 23.546,555.052 C23.546,555.052 51.092,537.604 77.768,531.286 C77.768,531.286 80.63,632.196 136.114,648.362 L136.16,648.292 C138.878,649.148 141.472,649.45 143.724,649.45 C146.434,649.45 149.266,649.034 152.144,648.212 C169.752,643.202 183.078,625.922 198.508,605.916 C204.198,598.54 210.064,590.942 216.376,583.602 C218.13,589.084 220.406,595.626 223.136,602.23 C233.256,626.714 244.098,638.616 256.28,638.616 C257.208,638.616 258.148,638.542 259.07,638.398 C274.62,635.956 289.036,605.972 301.086,576.964 C307.23,562.18 312.634,547.416 316.31,536.956 C316.744,536.984 317.172,536.998 317.606,537.032 C355.034,539.954 378.112,576.976 396.656,606.724 C410.632,629.146 421.672,646.856 437.082,648.552 C438.164,648.672 439.244,648.732 440.294,648.732 C463.848,648.732 472.126,621.382 482.608,586.758 C483.304,584.454 484.018,582.096 484.75,579.696 C486.878,583.874 489.194,588.242 491.662,592.632 C508.886,623.264 524.134,638.264 538.278,638.492 L538.678,638.496 C550.41,638.496 558.146,630.654 561.676,615.192 C564.314,603.642 564.876,587.772 565.528,569.394 C567.03,527.004 569.098,469.124 598.076,419.38 C619.502,405.958 643.138,393.732 666.336,381.736 C720.34,353.808 771.352,327.43 796.94,287.408 C809.738,267.392 816.082,242.832 815.794,214.406 C815.538,188.91 809.936,165.402 805.28,150.172"/>
      <path fill="#9E66BF" d="M307.378,536.626 C268.572,536.626 243.026,554.674 222.592,576.64 C227.99,594.548 241.554,633.05 257.828,630.494 C273.688,628.002 297.182,566.998 307.944,536.636 C307.758,536.634 307.564,536.626 307.378,536.626"/>
      <path fill="#9E66BF" d="M552.73,453.914 C516.582,489.274 499.632,532.726 488.196,568.63 C500.076,593.202 520.862,630.21 538.406,630.494 C573.72,631.062 539.31,521.07 584.152,428.516 C572.616,436.468 561.974,444.874 552.73,453.914"/>
      <path fill="#D6B5E5" d="M782.458,151.786 C778.862,155.13 777.04,159.018 778.388,160.466 C779.736,161.916 783.744,160.378 787.338,157.034 C790.934,153.69 792.754,149.804 791.408,148.354 C790.06,146.906 786.052,148.442 782.458,151.786 Z M687.542,179.212 C668.932,174.296 651.052,180.89 647.602,193.942 C644.154,206.996 656.444,221.562 675.052,226.478 C693.662,231.396 711.542,224.8 714.992,211.748 C718.44,198.696 706.15,184.128 687.542,179.212 Z M801.864,257.848 C799.124,266.584 795.324,275.084 790.2,283.098 C745.868,352.438 613.942,382.85 547.136,448.196 C465.174,528.368 479.678,645.196 437.958,640.602 C408.596,637.368 386.57,534.39 318.228,529.054 C215.06,521.002 192.412,628.434 149.954,640.52 C107.496,652.606 113.652,543.664 135.582,495.43 C154.946,452.834 189.684,393.12 242.78,406.822 C277.914,415.888 237.112,474.822 237.112,474.822 C237.112,474.822 311.416,479.638 357.244,411.356 C387.68,366.006 488.514,210.874 589.584,345.064 C589.584,345.064 549.988,232.44 575.674,177.656 C596.752,132.702 645.26,133.598 689.406,145.032 C725.6,154.406 754.28,147.39 771.522,140.212 C774.89,138.81 778.406,138.434 781.748,138.916 C775.382,139.22 765.594,142.602 759.932,158.948 C751.478,183.352 797.456,164.594 807.292,202.846 C807.292,202.846 810.318,260.908 762.254,253.776 L764.13,241.184 C764.13,241.184 748.656,251.138 759.716,270.81 L761.488,258.92 C771.17,262.396 784.858,264.088 801.864,257.848 Z M807.294,202.846 L807.292,202.846 L807.292,202.844 L807.294,202.846 Z"/>
      <path fill="#5C007B" d="M552.73,453.914 C516.272,489.576 499.344,533.466 487.906,569.546 C494.306,582.61 507.638,603.526 507.638,603.526 C506.94,531.122 567.542,447.082 578.438,432.562 C569.1,439.312 560.424,446.388 552.73,453.914"/>
      <path fill="#5C007B" d="M221.678,577.626 C225.236,588.062 232.398,603.526 232.398,603.526 C232.398,603.526 254.084,546.774 306.78,536.636 C267.736,536.828 242.158,555.332 221.678,577.626"/>
      <path fill="#C393DB" d="M149.954,640.52 C192.412,628.434 215.06,521.002 318.228,529.054 C386.57,534.39 408.596,637.368 437.958,640.602 C437.958,640.602 422.132,608.276 409.382,567.474 C396.632,526.674 353.184,485.874 313.708,485.874 C274.23,485.874 229.498,507.126 204.53,560.384 C166.92,640.602 149.954,640.52 149.954,640.52"/>
      <path fill="#9E66BF" d="M301.166,117.974 C272.048,121.864 192.212,129.706 146.286,131.952 C146.286,131.952 156.736,138.73 165.752,145.928 C226.978,141.538 306.454,121.582 301.166,117.974 Z M218.252,189.918 C191.002,201.518 114.408,231.81 35.51,279.834 C35.51,279.834 45.932,278.92 55.694,279.834 C143.144,230.936 221.444,192.706 218.252,189.918 Z M404.544,84.996 C374.898,83.052 291.698,76.566 225.898,72.802 C225.898,72.802 242.724,80.632 258.274,89.572 C337.308,94.25 410.892,90.24 404.544,84.996 Z M127.792,292.934 C96.752,316.796 51.93,363.852 0.196,424.748 C0.196,424.748 6.138,422.484 10.462,422.282 C82.388,341.762 130.126,293.584 127.792,292.934 Z M728.114,140.362 C728.114,140.362 624.33,64.564 561.542,21.536 C561.542,21.536 566.658,30.844 570.814,45.152 C629.346,85.784 728.114,140.362 728.114,140.362 Z M96,415.11 C75.958,439.398 49.112,493.78 23.546,555.052 C23.546,555.052 23.9,554.83 24.534,554.442 C61.682,473.412 97.018,414.976 96,415.11 Z M580.408,80.524 C557.542,67.438 489.324,26.42 449.334,0.362 C449.334,0.362 457.09,14.664 462.492,27.17 C512.546,58.684 581.998,86.356 580.408,80.524 Z M358.326,47.698 C339.03,35.122 317.446,23.604 317.446,23.604 C385.77,38.4 451.584,51.536 472.352,55.29 C474.704,61.458 424.382,61.38 358.326,47.698 Z"/>
      <polyline fill="#5C007B" points="459.564 83.816 527.58 127.174 571.704 123.57 459.564 83.816"/>
      <path fill="#9E66BF" d="M571.704,123.57 L459.564,83.816 L511.646,109.03 C530.304,118.064 550.674,123.018 571.398,123.562 L571.704,123.57"/>
      <polyline fill="#5C007B" points="340.566 146.956 448.292 174.37 495.268 158.858 340.566 146.956"/>
      <path fill="#9E66BF" d="M495.268,158.858 L340.566,146.956 L435.658,162.71 C448.89,164.666 462.33,164.794 475.596,163.088 L495.268,158.858"/>
      <polyline fill="#5C007B" points="555.632 183.352 532.644 200.676 466.666 198.232 555.632 183.352"/>
      <path fill="#9E66BF" d="M555.632,183.352 L466.666,198.232 L502.87,197.124 C515.34,196.742 527.656,194.234 539.284,189.71 L555.632,183.352"/>
      <polyline fill="#5C007B" points="380.202 200.676 343.356 225.23 241.24 215.556 380.202 200.676"/>
      <path fill="#9E66BF" d="M380.202,200.676 L241.24,215.556 L318.812,214.312 C336.982,214.02 354.952,210.498 371.886,203.91 L380.202,200.676"/>
      <polyline fill="#5C007B" points="532.644 241.236 495.268 262.034 393.682 256.118 532.644 241.236"/>
      <path fill="#9E66BF" d="M532.644,241.236 L393.682,256.118 L472.558,254.852 C489.866,254.574 506.984,251.218 523.116,244.944 L532.644,241.236"/>
      <polyline fill="#5C007B" points="392.32 285.122 366.268 327.704 235.888 359.424 392.32 285.122"/>
      <path fill="#9E66BF" d="M235.888,359.424 L392.32,285.122 L372.202,301.034 C360.278,310.464 346.954,317.972 332.71,323.288 L235.888,359.424"/>
      <polyline fill="#5C007B" points="128.488 355.528 229.426 311.338 252.388 267.148 128.488 355.528"/>
      <path fill="#9E66BF" d="M128.488,355.528 L252.388,267.148 L252.044,267.666 C239.234,287.04 221.984,303.076 201.726,314.44 L128.488,355.528"/>
      <polyline fill="#5C007B" points="174.218 364.328 170.234 408.536 112.28 480.824 174.218 364.328"/>
      <path fill="#9E66BF" d="M112.28,480.824 L174.218,364.328 C170.854,384.59 163.25,403.914 151.902,421.036 L112.28,480.824"/>
      <path fill="#FFF" d="M682.996,193.934 C682.91,198.764 678.336,202.602 672.78,202.502 C667.224,202.406 662.788,198.408 662.874,193.578 C662.96,188.746 667.534,184.908 673.09,185.006 C678.646,185.106 683.082,189.102 682.996,193.934"/>
    </g>
    <path fill="url(#percy-santa-a)" stroke="#2B023F" stroke-width="9" d="M663.929687,51.1953125 C552.5,-8.109375 506.441406,-24.484375 392.648438,51.1953125 C453.356771,68.2942708 491.28776,107.731771 506.441406,169.507812 C685.720052,130.169271 738.216146,90.7317708 663.929687,51.1953125 Z"/>
    <circle cx="408" cy="58" r="38" fill="#FFF" stroke="#2B023F" stroke-width="9"/>
    <path fill="#FFF" stroke="#2B023F" stroke-width="9" d="M579.83177,234.582893 C594.05052,208.973518 636.159895,147.270393 702.027082,137.887581 C767.89427,128.504768 723.52058,39.4170846 684.480207,43.5203932 C645.439835,47.6237017 499.683332,148.965706 495.667707,195.809456 C491.652082,242.653206 565.61302,260.192268 579.83177,234.582893 Z" transform="rotate(6 615.614 144.878)"/>
  </g>
</svg>
