<?xml version="1.0" encoding="UTF-8"?>
<svg width="371px" height="294px" viewBox="0 0 371 294" version="1.1" xmlns="http://www.w3.org/2000/svg" xmlns:xlink="http://www.w3.org/1999/xlink">
    <!-- Generator: Sketch 44.1 (41455) - http://www.bohemiancoding.com/sketch -->
    <title>Percy_silhouette-01-Default-Logo</title>
    <desc>Created with Sketch.</desc>
    <defs>
        <polygon id="path-1" points="370.983983 294.953298 0.0467647059 294.953298 0.0467647059 0.227282322 185.515374 0.227282322 370.983983 0.227282322"></polygon>
    </defs>
    <g id="Silhouettes" stroke="none" stroke-width="1" fill="none" fill-rule="evenodd">
        <g id="Percy_silhouette-01" transform="translate(0.000000, -1.000000)">
            <g id="Percy_silhouette">
                <mask id="mask-2" fill="white">
                    <use xlink:href="#path-1"></use>
                </mask>
                <g id="Clip-2"></g>
                <path d="M305.653338,91.1153034 C303.114794,91.0709367 301.089882,89.2480079 301.128074,87.0436807 C301.167044,84.8393536 303.256647,83.0888127 305.795191,83.1347361 C308.332176,83.1791029 310.358647,85.0020317 310.319676,87.2063588 C310.280706,89.410686 308.191103,91.1604485 305.653338,91.1153034 Z M312.396029,80.4914116 C303.895765,78.2481662 295.728309,81.2565435 294.152338,87.2102507 C292.577926,93.1647361 298.19125,99.8096306 306.691515,102.052098 C315.191779,104.295343 323.360015,101.286966 324.934426,95.3324802 C326.510397,89.3787731 320.896294,82.7338786 312.396029,80.4914116 L312.396029,80.4914116 Z" id="Fill-1" fill="#BFBFBF" mask="url(#mask-2)"></path>
                <path d="M359.288559,127.881332 C339.038662,159.512493 278.776882,173.385277 248.260574,203.193509 C210.821529,239.765726 217.446529,293.060317 198.389132,290.963404 C184.977794,289.489182 174.916368,242.513351 143.698588,240.079406 C96.5730147,236.406306 86.2278824,285.412889 66.833,290.926042 C47.4388971,296.439195 50.2510147,246.744538 60.2680147,224.740185 C69.1135588,205.309103 84.9816029,178.069472 109.234559,184.320515 C125.283426,188.455963 106.646132,215.34066 106.646132,215.34066 C106.646132,215.34066 140.586397,217.537203 161.520618,186.388628 C175.423765,165.701266 221.483103,94.9339578 267.650779,156.148404 C267.650779,156.148404 249.56375,104.771702 261.297015,79.7807652 C270.924309,59.2739842 293.082206,59.6834037 313.247926,64.8984433 C329.780809,69.1739974 342.881941,65.9749208 350.757118,62.700343 C352.295676,62.0605277 353.901265,61.8892876 355.428132,62.1087863 C352.520926,62.2473351 348.049441,63.7900528 345.462574,71.246781 C341.601368,82.3789446 362.602618,73.8223879 367.096706,91.2717546 C367.096706,91.2717546 368.478603,117.757929 346.523353,114.505145 L347.380706,108.76004 C347.380706,108.76004 340.312221,113.301016 345.364368,122.274776 L346.173397,116.851913 C350.596559,118.437441 356.849,119.208799 364.616618,116.361544 C363.365662,120.347546 361.629132,124.226135 359.288559,127.881332 Z M359.840382,66.4146966 C360.456118,67.0755277 359.623706,68.8478628 357.982265,70.3742348 C356.339265,71.8998285 354.509206,72.6003562 353.893471,71.9395251 C353.277735,71.2786939 354.109368,69.5055805 355.751588,67.9799868 C357.394588,66.4543931 359.224647,65.7530871 359.840382,66.4146966 Z M366.177,68.0227968 C364.551926,62.7120185 359.725809,59.1439974 354.168603,59.1439974 C352.513132,59.1439974 350.892735,59.4685752 349.352618,60.1091689 C345.410353,61.7484037 339.260015,63.6662929 331.571897,64.023562 C316.033544,52.736504 278.356779,25.4696306 256.00325,10.1716623 C256.00325,10.1716623 259.133368,19.2629551 263.459103,36.250752 C263.459103,36.250752 228.111221,16.3191821 204.579221,1.00564644 C204.579221,1.00564644 213.372544,18.9344855 214.099735,24.7387467 C214.099735,24.7387467 186.113397,19.9160026 145.188824,11.0644459 C145.188824,11.0644459 175.629529,28.0584697 183.126691,38.290066 C183.126691,38.290066 146.509147,35.8140897 103.380397,33.3505673 C103.380397,33.3505673 125.240559,44.4056728 135.904471,53.3342876 C135.904471,53.3342876 96.8099559,59.0786148 67.0286324,60.5325989 C67.0286324,60.5325989 89.1171618,77.7943799 98.0312941,86.1524538 C98.0312941,86.1524538 60.8455588,100.831623 16.4370147,126.610264 C16.4370147,126.610264 39.8380735,127.76847 56.7107794,133.146187 C56.7107794,133.146187 36.3603382,151.105383 0,192.285515 C0,192.285515 23.3488382,191.425422 42.188,188.878615 C42.188,188.878615 27.4345147,211.708034 9.09183824,252.717704 C9.09183824,252.717704 21.6738824,244.757375 33.8592059,241.875092 C33.8592059,241.875092 35.1670588,287.908325 60.5111912,295.281768 L60.5322353,295.249855 C61.7746176,295.641372 62.9593235,295.778364 63.9873676,295.778364 C65.2250735,295.778364 66.5188971,295.589222 67.8337647,295.214828 C75.8765147,292.928773 81.9637206,285.04628 89.0119412,275.919182 C91.6112794,272.555092 94.2908971,269.089037 97.1739412,265.740515 C97.9751765,268.241398 99.0141324,271.225646 100.261971,274.238694 C104.884662,285.408219 109.837044,290.83653 115.401265,290.83653 C115.826044,290.83653 116.254721,290.803061 116.675603,290.7369 C123.778382,289.623061 130.363632,275.944868 135.868618,262.712678 C138.6745,255.968153 141.143676,249.233747 142.822529,244.461596 C143.0205,244.475607 143.216132,244.481055 143.414103,244.496623 C160.5105,245.829182 171.052824,262.718127 179.523471,276.288905 C185.907632,286.516609 190.950426,294.595251 197.989294,295.369723 C198.483441,295.424208 198.977588,295.451451 199.456926,295.451451 C210.215926,295.451451 213.996853,282.975831 218.784779,267.180488 C219.103559,266.128918 219.429353,265.053219 219.7645,263.958839 C220.735647,265.864274 221.793309,267.857665 222.921118,269.860396 C230.7885,283.83281 237.754103,290.676187 244.214647,290.780488 L244.397029,290.782045 C249.755485,290.782045 253.290118,287.204683 254.902721,280.151148 C256.107691,274.882401 256.364118,267.642836 256.661853,259.259855 C257.346956,239.922177 258.292382,213.518509 271.529132,190.827639 C281.316206,184.705026 292.112618,179.127269 302.7095,173.654591 C327.378662,160.915106 350.679956,148.882375 362.368015,130.625066 C368.213603,121.494855 371.110676,110.290303 370.979735,97.3235356 C370.862824,85.693219 368.304015,74.9696966 366.177,68.0227968 L366.177,68.0227968 Z" id="Fill-3" fill="#BFBFBF" mask="url(#mask-2)"></path>
            </g>
        </g>
    </g>
</svg>
