<?xml version="1.0" encoding="UTF-8"?>
<svg width="408px" height="332px" viewBox="0 0 408 332" version="1.1" xmlns="http://www.w3.org/2000/svg" xmlns:xlink="http://www.w3.org/1999/xlink">
    <!-- Generator: Sketch 44.1 (41455) - http://www.bohemiancoding.com/sketch -->
    <title>Percy_Poses_lightBG-01-Default-Logo</title>
    <desc>Created with Sketch.</desc>
    <defs></defs>
    <g id="Symbols" stroke="none" stroke-width="1" fill="none" fill-rule="evenodd">
        <g id="Percy_Poses_lightBG-01-Default-Logo" fill-rule="nonzero">
            <g id="Percy_Poses_lightBG-01">
                <path d="M178.622,331.819 C88.679,331.819 15.767,326.851 15.767,320.724 C15.767,314.597 88.679,309.63 178.622,309.63 C268.565,309.63 341.478,314.597 341.478,320.724 C341.478,326.851 268.565,331.819 178.622,331.819" id="Fill-1" fill="#BFB3C5"></path>
                <path d="M402.64,75.086 C400.861,69.266 395.579,65.355 389.495,65.355 C387.683,65.355 385.91,65.711 384.224,66.413 C379.908,68.21 373.176,70.313 364.761,70.704 C347.753,58.332 306.511,28.445 282.042,11.677 C282.042,11.677 285.47,21.643 290.204,40.262 C290.204,40.262 251.513,18.416 225.754,1.631 C225.754,1.631 235.379,21.282 236.176,27.645 C236.176,27.645 205.541,22.358 160.746,12.656 C160.746,12.656 194.066,31.283 202.272,42.498 C202.272,42.498 162.19,39.783 114.982,37.084 C114.982,37.084 138.91,49.201 150.583,58.987 C150.583,58.987 107.79,65.284 75.191,66.878 C75.191,66.878 99.369,85.797 109.127,94.959 C109.127,94.959 68.423,111.048 19.813,139.303 C19.813,139.303 45.428,140.573 63.896,146.467 C63.896,146.467 41.621,166.152 1.821,211.288 C1.821,211.288 27.379,210.346 48,207.555 C48,207.555 31.852,232.577 11.773,277.526 C11.773,277.526 25.546,268.802 38.884,265.643 C38.884,265.643 40.315,316.098 68.057,324.181 L68.08,324.146 C69.439,324.574 70.736,324.725 71.862,324.725 C73.217,324.725 74.633,324.517 76.072,324.106 C84.876,321.601 91.539,312.961 99.254,302.958 C102.099,299.27 105.032,295.471 108.188,291.801 C109.065,294.542 110.203,297.813 111.568,301.115 C116.628,313.357 122.049,319.308 128.14,319.308 C128.604,319.308 129.074,319.271 129.535,319.199 C137.31,317.978 144.518,302.986 150.543,288.482 C153.615,281.09 156.317,273.708 158.155,268.478 C158.372,268.492 158.586,268.499 158.803,268.516 C177.517,269.977 189.056,288.488 198.328,303.362 C205.316,314.573 210.836,323.428 218.541,324.276 C219.082,324.336 219.622,324.366 220.147,324.366 C231.924,324.366 236.063,310.691 241.304,293.379 C241.652,292.227 242.009,291.048 242.375,289.848 C243.439,291.937 244.597,294.121 245.831,296.316 C254.443,311.632 262.067,319.132 269.139,319.246 L269.339,319.248 C275.205,319.248 279.073,315.327 280.838,307.596 C282.157,301.821 282.438,293.886 282.764,284.697 C283.515,263.502 284.549,234.562 299.038,209.69 C309.751,202.979 321.569,196.866 333.168,190.868 C360.17,176.904 385.676,163.715 398.47,143.704 C404.869,133.696 408.041,121.416 407.897,107.203 C407.769,94.455 404.968,82.701 402.64,75.086" id="Fill-2" fill="#2B023F"></path>
                <path d="M153.689,268.313 C134.286,268.313 121.513,277.337 111.296,288.32 C113.995,297.274 120.777,316.525 128.914,315.247 C136.844,314.001 148.591,283.499 153.972,268.318 C153.879,268.317 153.782,268.313 153.689,268.313" id="Fill-3" fill="#9E66BF"></path>
                <path d="M276.365,226.957 C258.291,244.637 249.816,266.363 244.098,284.315 C250.038,296.601 260.431,315.105 269.203,315.247 C286.86,315.531 269.655,260.535 292.076,214.258 C286.308,218.234 280.987,222.437 276.365,226.957" id="Fill-4" fill="#9E66BF"></path>
                <path d="M391.229,75.893 C389.431,77.565 388.52,79.509 389.194,80.233 C389.868,80.958 391.872,80.189 393.669,78.517 C395.467,76.845 396.377,74.902 395.704,74.177 C395.03,73.453 393.026,74.221 391.229,75.893 Z M343.771,89.606 C334.466,87.148 325.526,90.445 323.801,96.971 C322.077,103.498 328.222,110.781 337.526,113.239 C346.831,115.698 355.771,112.4 357.496,105.874 C359.22,99.348 353.075,92.064 343.771,89.606 Z M400.932,128.924 C399.562,133.292 397.662,137.542 395.1,141.549 C372.934,176.219 306.971,191.425 273.568,224.098 C232.587,264.184 239.839,322.598 218.979,320.301 C204.298,318.684 193.285,267.195 159.114,264.527 C107.53,260.501 96.206,314.217 74.977,320.26 C53.748,326.303 56.826,271.832 67.791,247.715 C77.473,226.417 94.842,196.56 121.39,203.411 C138.957,207.944 118.556,237.411 118.556,237.411 C118.556,237.411 155.708,239.819 178.622,205.678 C193.84,183.003 244.257,105.437 294.792,172.532 C294.792,172.532 274.994,116.22 287.837,88.828 C298.376,66.351 322.63,66.799 344.703,72.516 C362.8,77.203 377.14,73.695 385.761,70.106 C387.445,69.405 389.203,69.217 390.874,69.458 C387.691,69.61 382.797,71.301 379.966,79.474 C375.739,91.676 398.728,82.297 403.646,101.423 C403.646,101.423 405.159,130.454 381.127,126.888 L382.065,120.592 C382.065,120.592 374.328,125.569 379.858,135.405 L380.744,129.46 C385.585,131.198 392.429,132.044 400.932,128.924 Z M403.647,101.423 L403.646,101.423 L403.646,101.422 L403.647,101.423 L403.647,101.423 Z" id="Fill-5" fill="#D6B5E5"></path>
                <path d="M276.365,226.957 C258.136,244.788 249.672,266.733 243.953,284.773 C247.153,291.305 253.819,301.763 253.819,301.763 C253.47,265.561 283.771,223.541 289.219,216.281 C284.55,219.656 280.212,223.194 276.365,226.957" id="Fill-6" fill="#5C007B"></path>
                <path d="M110.839,288.813 C112.618,294.031 116.199,301.763 116.199,301.763 C116.199,301.763 127.042,273.387 153.39,268.318 C133.868,268.414 121.079,277.666 110.839,288.813" id="Fill-7" fill="#5C007B"></path>
                <path d="M74.977,320.26 C96.206,314.217 107.53,260.501 159.114,264.527 C193.285,267.195 204.298,318.684 218.979,320.301 C218.979,320.301 211.066,304.138 204.691,283.737 C198.316,263.337 176.592,242.937 156.854,242.937 C137.115,242.937 114.749,253.563 102.265,280.192 C83.46,320.301 74.977,320.26 74.977,320.26" id="Fill-8" fill="#C393DB"></path>
                <path d="M150.583,58.987 C136.024,60.932 96.106,64.853 73.143,65.976 C73.143,65.976 78.368,69.365 82.876,72.964 C113.489,70.769 153.227,60.791 150.583,58.987 Z M109.126,94.959 C95.501,100.759 57.204,115.905 17.755,139.917 C17.755,139.917 22.966,139.46 27.847,139.917 C71.572,115.468 110.722,96.353 109.126,94.959 Z M202.272,42.498 C187.449,41.526 145.849,38.283 112.949,36.401 C112.949,36.401 121.362,40.316 129.137,44.786 C168.654,47.125 205.446,45.12 202.272,42.498 Z M63.896,146.467 C48.376,158.398 25.965,181.926 0.098,212.374 C0.098,212.374 3.069,211.242 5.231,211.141 C41.194,170.881 65.063,146.792 63.896,146.467 Z M364.057,70.181 C364.057,70.181 312.165,32.282 280.771,10.768 C280.771,10.768 283.329,15.422 285.407,22.576 C314.673,42.892 364.057,70.181 364.057,70.181 Z M48,207.555 C37.979,219.699 24.556,246.89 11.773,277.526 C11.773,277.526 11.95,277.415 12.267,277.221 C30.841,236.706 48.509,207.488 48,207.555 Z M290.204,40.262 C278.771,33.719 244.662,13.21 224.667,0.181 C224.667,0.181 228.545,7.332 231.246,13.585 C256.273,29.342 290.999,43.178 290.204,40.262 Z M179.163,23.849 C169.515,17.561 158.723,11.802 158.723,11.802 C192.885,19.2 225.792,25.768 236.176,27.645 C237.352,30.729 212.191,30.69 179.163,23.849 L179.163,23.849 Z" id="Fill-9" fill="#9E66BF"></path>
                <polyline id="Fill-10" fill="#5C007B" points="229.782 41.908 263.79 63.587 285.852 61.785 229.782 41.908"></polyline>
                <path d="M285.852,61.785 L229.782,41.908 L255.823,54.515 C265.152,59.032 275.337,61.509 285.699,61.781 L285.852,61.785" id="Fill-11" fill="#9E66BF"></path>
                <polyline id="Fill-12" fill="#5C007B" points="170.283 73.478 224.146 87.185 247.634 79.429 170.283 73.478"></polyline>
                <path d="M247.634,79.429 L170.283,73.478 L217.829,81.355 C224.445,82.333 231.165,82.397 237.798,81.544 L247.634,79.429" id="Fill-13" fill="#9E66BF"></path>
                <polyline id="Fill-14" fill="#5C007B" points="277.816 91.676 266.322 100.338 233.333 99.116 277.816 91.676"></polyline>
                <path d="M277.816,91.676 L233.333,99.116 L251.435,98.562 C257.67,98.371 263.828,97.117 269.642,94.855 L277.816,91.676" id="Fill-15" fill="#9E66BF"></path>
                <polyline id="Fill-16" fill="#5C007B" points="190.101 100.338 171.678 112.615 120.62 107.778 190.101 100.338"></polyline>
                <path d="M190.101,100.338 L120.62,107.778 L159.406,107.156 C168.491,107.01 177.476,105.249 185.943,101.955 L190.101,100.338" id="Fill-17" fill="#9E66BF"></path>
                <polyline id="Fill-18" fill="#5C007B" points="266.322 120.618 247.634 131.017 196.841 128.059 266.322 120.618"></polyline>
                <path d="M266.322,120.618 L196.841,128.059 L236.279,127.426 C244.933,127.287 253.492,125.609 261.558,122.472 L266.322,120.618" id="Fill-19" fill="#9E66BF"></path>
                <polyline id="Fill-20" fill="#5C007B" points="196.16 142.561 183.134 163.852 117.944 179.712 196.16 142.561"></polyline>
                <path d="M117.944,179.712 L196.16,142.561 L186.101,150.517 C180.139,155.232 173.477,158.986 166.355,161.644 L117.944,179.712" id="Fill-21" fill="#9E66BF"></path>
                <polyline id="Fill-22" fill="#5C007B" points="64.244 177.764 114.713 155.669 126.194 133.574 64.244 177.764"></polyline>
                <path d="M64.244,177.764 L126.194,133.574 L126.022,133.833 C119.617,143.52 110.992,151.538 100.863,157.22 L64.244,177.764" id="Fill-23" fill="#9E66BF"></path>
                <polyline id="Fill-24" fill="#5C007B" points="87.109 182.164 85.117 204.268 56.14 240.412 87.109 182.164"></polyline>
                <path d="M56.14,240.412 L87.109,182.164 C85.427,192.295 81.625,201.957 75.951,210.518 L56.14,240.412" id="Fill-25" fill="#9E66BF"></path>
                <path d="M341.498,96.967 C341.455,99.382 339.168,101.301 336.39,101.251 C333.612,101.203 331.394,99.204 331.437,96.789 C331.48,94.373 333.767,92.454 336.545,92.503 C339.323,92.553 341.541,94.551 341.498,96.967" id="Fill-26" fill="#FFFFFF"></path>
            </g>
        </g>
    </g>
</svg>