<svg xmlns="http://www.w3.org/2000/svg" width="254" height="252" viewBox="0 0 254 252">
  <g fill="none" fill-rule="evenodd">
    <g fill-rule="nonzero" transform="translate(38)">
      <path fill="#390156" d="M78.4657598,141.922584 C38.9552525,141.922584 6.92618846,139.797717 6.92618846,137.177133 C6.92618846,134.556548 38.9552525,132.432108 78.4657598,132.432108 C117.976267,132.432108 150.00577,134.556548 150.00577,137.177133 C150.00577,139.797717 117.976267,141.922584 78.4657598,141.922584"/>
      <path fill="#2B023F" d="M176.873249,32.1150964 C176.091763,29.6258193 173.771466,27.9530422 171.098863,27.9530422 C170.302881,27.9530422 169.52403,28.1053072 168.783398,28.4055602 C166.887449,29.1741566 163.93019,30.0736325 160.233616,30.2408675 C152.762277,24.9492289 134.645332,12.1662349 123.896496,4.99437952 C123.896496,4.99437952 125.402361,9.25694578 127.48193,17.220494 C127.48193,17.220494 110.485599,7.87672289 99.1700862,0.697596386 C99.1700862,0.697596386 103.398193,9.10254217 103.748302,11.8240663 C103.748302,11.8240663 90.2908417,9.56275904 70.6131217,5.41310843 C70.6131217,5.41310843 85.2500596,13.3800783 88.8548228,18.1768554 C88.8548228,18.1768554 71.2474476,17.0156205 50.5097356,15.8612289 C50.5097356,15.8612289 61.0209196,21.0438012 66.1486799,25.2293795 C66.1486799,25.2293795 47.3504062,27.9226747 33.0301919,28.6044458 C33.0301919,28.6044458 43.6511969,36.6963072 47.9377287,40.614994 C47.9377287,40.614994 30.0571188,47.4964337 8.70353091,59.5814036 C8.70353091,59.5814036 19.9557867,60.1245964 28.0684809,62.6455241 C28.0684809,62.6455241 18.2834331,71.065012 0.79993589,90.3701687 C0.79993589,90.3701687 12.0271525,89.9672651 21.0856248,88.7735241 C21.0856248,88.7735241 13.9920692,99.4757048 5.17168876,118.70088 C5.17168876,118.70088 11.2219452,114.96953 17.0811132,113.618392 C17.0811132,113.618392 17.7097284,135.198542 29.896341,138.655729 L29.9064445,138.640759 C30.5034312,138.823819 31.0731824,138.888404 31.567816,138.888404 C32.1630456,138.888404 32.7850715,138.79944 33.417201,138.623651 C37.284656,137.552235 40.2116043,133.856813 43.6006792,129.578422 C44.8504418,128.001024 46.1388613,126.376151 47.5252411,124.806452 C47.9104931,125.978807 48.4103981,127.377849 49.0100205,128.790151 C51.2327968,134.026187 53.6141546,136.571494 56.2898325,136.571494 C56.4936602,136.571494 56.7001236,136.555669 56.9026335,136.524873 C60.3180654,136.002639 63.4844234,129.590398 66.1311086,123.38688 C67.4805886,120.225241 68.6675335,117.06788 69.4749372,114.830952 C69.5702618,114.83694 69.6642686,114.839934 69.7595932,114.847205 C77.9803511,115.47209 83.0492475,123.389446 87.1222873,129.751217 C90.1920029,134.546283 92.6168497,138.333663 96.0015318,138.696361 C96.2391843,138.722024 96.4763976,138.734855 96.7070216,138.734855 C101.880468,138.734855 103.698663,132.88591 106.00095,125.48138 C106.153821,124.988657 106.310645,124.484386 106.471423,123.971133 C106.938821,124.86462 107.447512,125.798741 107.989588,126.737566 C111.772701,133.288386 115.121801,136.496217 118.228416,136.544976 L118.316273,136.545831 C120.893112,136.545831 122.592262,134.868777 123.367598,131.562145 C123.947013,129.092114 124.070452,125.698229 124.213658,121.767994 C124.543561,112.702663 124.99778,100.324711 131.362564,89.6866867 C136.068612,86.8163193 141.260068,84.2017229 146.355322,81.6363133 C158.216864,75.663759 169.421238,70.0226807 175.041436,61.463759 C177.852413,57.1832289 179.245821,51.9309398 179.182564,45.8518855 C179.126336,40.3994277 177.895902,35.3721145 176.873249,32.1150964"/>
      <path fill="#9E66BF" d="M67.5130956 114.76038C58.989671 114.76038 53.3786984 118.620042 48.8905353 123.31759 50.0761624 127.147313 53.0553855 135.381175 56.6298382 134.83456 60.1133591 134.301633 65.2736265 121.255596 67.6374129 114.762518 67.5965595 114.76209 67.553949 114.76038 67.5130956 114.76038M121.402681 97.0719699C113.463065 104.633898 109.740134 113.926343 107.228309 121.604608 109.837655 126.859464 114.403132 134.773825 118.25653 134.83456 126.012965 134.95603 118.455086 111.433645 128.30427 91.6404699 125.77048 93.3410482 123.433051 95.1387169 121.402681 97.0719699"/>
      <path fill="#D6B5E5" d="M151.013048,38.3254578 C146.925512,37.2741446 142.998314,38.6843072 142.24055,41.4755482 C141.483224,44.2672169 144.182624,47.3822349 148.269721,48.4335482 C152.357257,49.4852892 156.284454,48.0746988 157.042219,45.2834578 C157.799544,42.4922169 155.100145,39.3767711 151.013048,38.3254578 Z M176.122952,55.1421928 C175.521134,57.0104337 174.686494,58.8282048 173.561049,60.5420422 C163.823883,75.3707771 134.847403,81.8745482 120.174004,95.8491446 C102.171713,112.994361 105.357399,137.978663 96.1939381,136.996211 C89.7448119,136.304602 84.9069789,114.282199 69.8962105,113.141066 C47.2361924,111.419102 42.261742,134.394018 32.9361852,136.978675 C23.6106284,139.563331 24.962744,116.265494 29.7794915,105.950392 C34.0326377,96.841006 41.6625589,84.0708434 53.3246665,87.0010904 C61.0415659,88.9399036 52.0797361,101.543259 52.0797361,101.543259 C52.0797361,101.543259 68.4000097,102.573187 78.4657598,87.9707108 C85.1507814,78.2723675 107.298155,45.0965482 129.497365,73.7938072 C129.497365,73.7938072 120.800423,49.7085542 126.442145,37.9926988 C131.071758,28.3790422 141.726148,28.5706566 151.422461,31.0158795 C159.372181,33.0205602 165.671511,31.5201506 169.458577,29.9850964 C170.198331,29.6852711 170.970592,29.6048614 171.704635,29.7079398 C170.306395,29.7729518 168.15654,30.4962108 166.912927,33.9918916 C165.056074,39.2108193 175.154771,35.1993193 177.315169,43.3797169 C177.315169,43.3797169 177.979805,55.7965904 167.422936,54.2713735 L167.834984,51.578506 C167.834984,51.578506 164.436245,53.7072229 166.865485,57.9141867 L167.25469,55.3714458 C169.381263,56.1148072 172.387722,56.4766506 176.122952,55.1421928 Z M177.315608,43.3797169 L177.315169,43.3797169 L177.315169,43.3792892 L177.315608,43.3797169 Z"/>
      <path fill="#5C007B" d="M121.402681 97.0719699C113.394976 104.698482 109.676877 114.084596 107.164613 121.8005 108.570321 124.594307 111.498587 129.067307 111.498587 129.067307 111.345277 113.583319 124.656017 95.6109096 127.049236 92.5057289 124.998219 93.949253 123.092606 95.462494 121.402681 97.0719699M48.6897826 123.528452C49.4712686 125.760247 51.044344 129.067307 51.044344 129.067307 51.044344 129.067307 55.8074988 116.930584 67.3817497 114.762518 58.8060504 114.803578 53.1880492 118.760759 48.6897826 123.528452"/>
      <path fill="#C393DB" d="M32.9361852,136.978675 C42.261742,134.394018 47.2361924,111.419102 69.8962105,113.141066 C84.9069789,114.282199 89.7448119,136.304602 96.1939381,136.996211 C96.1939381,136.996211 92.717885,130.08312 89.9174505,121.357392 C87.1170159,112.63209 77.5740136,103.906789 68.903429,103.906789 C60.232405,103.906789 50.4073825,108.451645 44.9233629,119.841157 C36.6626301,136.996211 32.9361852,136.978675 32.9361852,136.978675"/>
      <path fill="#9E66BF" d="M66.1486799,25.2293795 C59.7531464,26.0612771 42.2178137,27.7383313 32.1305386,28.2186506 C32.1305386,28.2186506 34.4257967,29.6681627 36.4060883,31.207494 C49.8538848,30.2686687 67.3101464,26.0009699 66.1486799,25.2293795 Z M47.9372894,40.614994 C41.9520469,43.0957169 25.1287933,49.5738253 7.79948475,59.8440181 C7.79948475,59.8440181 10.0885929,59.6485542 12.2327374,59.8440181 C31.4404237,49.3869157 48.6383864,41.2112229 47.9372894,40.614994 Z M88.8548228,18.1768554 C82.3433183,17.7611205 64.0691102,16.3740542 49.6166715,15.5691024 C49.6166715,15.5691024 53.3123666,17.2435904 56.7277985,19.1554578 C74.0869784,20.1558735 90.2491098,19.2983133 88.8548228,18.1768554 Z M28.0684809,62.6455241 C21.2507955,67.7485422 11.4060052,77.8117229 0.0430498173,90.8346627 C0.0430498173,90.8346627 1.34816213,90.350494 2.29789382,90.3072952 C18.0958589,73.0876566 28.5811251,62.7845301 28.0684809,62.6455241 Z M159.92436,30.0171747 C159.92436,30.0171747 137.129043,13.8073614 123.338166,4.60559036 C123.338166,4.60559036 124.461854,6.59615663 125.374686,9.656 C138.230767,18.3453735 159.92436,30.0171747 159.92436,30.0171747 Z M21.0856248,88.7735241 C16.6835613,93.9676446 10.7870542,105.59753 5.17168876,118.70088 C5.17168876,118.70088 5.249442,118.653404 5.38869498,118.570428 C13.5479532,101.241723 21.3092203,88.7448675 21.0856248,88.7735241 Z M127.48193,17.220494 C122.459598,14.4219819 107.476065,5.65006024 98.6925846,0.0774156627 C98.6925846,0.0774156627 100.396127,3.1359759 101.582633,5.81045181 C112.57659,12.5498916 127.831161,18.4676988 127.48193,17.220494 Z M78.7034124,10.2004759 C74.4652018,7.51103012 69.7244505,5.04784337 69.7244505,5.04784337 C84.7312653,8.21204819 99.186779,11.021253 103.748302,11.8240663 C104.2649,13.1431265 93.2120793,13.1264458 78.7034124,10.2004759 Z"/>
      <polyline fill="#5C007B" points="100.94 17.925 115.879 27.197 125.57 26.426 100.94 17.925"/>
      <path fill="#9E66BF" d="M125.570167,26.4261145 L100.939522,17.924506 L112.378912,23.3166566 C116.476991,25.2486265 120.951097,26.3080663 125.502957,26.4244036 L125.570167,26.4261145"/>
      <polyline fill="#5C007B" points="74.803 31.427 98.464 37.29 108.782 33.973 74.803 31.427"/>
      <path fill="#9E66BF" d="M108.781617,33.9726446 L74.8025718,31.4273373 L95.6887617,34.7964157 C98.5950636,35.2147169 101.547051,35.2420904 104.460821,34.877253 L108.781617,33.9726446"/>
      <polyline fill="#5C007B" points="122.04 39.211 116.991 42.916 102.499 42.393 122.04 39.211"/>
      <path fill="#9E66BF" d="M122.040082,39.2108193 L102.499418,42.392988 L110.451335,42.1560361 C113.19027,42.0743434 115.895379,41.537994 118.449376,40.570512 L122.040082,39.2108193"/>
      <polyline fill="#5C007B" points="83.508 42.916 75.415 48.167 52.986 46.098 83.508 42.916"/>
      <path fill="#9E66BF" d="M83.5082991,42.9156506 L52.9864179,46.0978193 L70.0244813,45.8317831 C74.0153751,45.7693373 77.9623405,45.0161386 81.6817569,43.607259 L83.5082991,42.9156506"/>
      <polyline fill="#5C007B" points="116.991 51.59 108.782 56.037 86.469 54.772 116.991 51.59"/>
      <path fill="#9E66BF" d="M116.990953,51.5896265 L86.4690722,54.7722229 L103.793549,54.5014819 C107.595111,54.4420301 111.354942,53.7243313 114.898205,52.3826024 L116.990953,51.5896265"/>
      <polyline fill="#5C007B" points="86.17 60.975 80.448 70.081 51.811 76.865 86.17 60.975"/>
      <path fill="#9E66BF" d="M51.8108944,76.8647711 L86.1699199,60.9748855 L81.7511637,64.377753 C79.1321534,66.3944096 76.2056444,68.0000361 73.0770648,69.1368916 L51.8108944,76.8647711"/>
      <polyline fill="#5C007B" points="28.221 76.032 50.392 66.581 55.435 57.131 28.221 76.032"/>
      <path fill="#9E66BF" d="M28.2213516,76.0315904 L55.4349861,57.1310482 L55.3594293,57.2418253 C52.5458162,61.3850602 48.756993,64.8144458 44.3074869,67.2446988 L28.2213516,76.0315904"/>
      <polyline fill="#5C007B" points="38.266 77.914 37.391 87.368 24.661 102.827 38.266 77.914"/>
      <path fill="#9E66BF" d="M24.6613953,102.826819 L38.2655769,77.9135181 C37.5267014,82.2466566 35.8565442,86.3791988 33.3640477,90.0408313 L24.6613953,102.826819"/>
      <path fill="#FFF" d="M150.014556,41.4738373 C149.995667,42.506759 148.991025,43.3275361 147.770694,43.3061506 C146.550364,43.2856205 145.576032,42.4306265 145.594921,41.3977048 C145.61381,40.3643554 146.618453,39.5435783 147.838783,39.5645361 C149.059114,39.5859217 150.033445,40.440488 150.014556,41.4738373"/>
    </g>
    <path fill="#FFF" d="M233.277257,243.011624 L231.09012,250.092928 C230.846525,250.87974 230.450522,251.43221 229.906017,251.742483 L229.903412,251.743792 L229.879965,251.756884 L229.878662,251.756884 L229.852609,251.771285 L229.826556,251.784376 L229.826556,251.785686 L229.800503,251.797468 L229.799201,251.798777 L229.77445,251.81056 L229.771845,251.811869 L229.748398,251.822342 L229.74449,251.824961 L229.722345,251.834125 L229.717134,251.836743 L229.696292,251.845907 C229.156998,252.068466 228.525216,252.033119 227.781407,251.847217 C225.379334,251.24238 214.241739,249.964629 218.696777,236.688329 L221.338536,228.812358 L220.739321,227.281938 L217.843546,220.256928 L199.704246,177.246743 C199.305637,176.353889 199.450231,175.540894 199.807155,174.987115 C200.175803,174.40977 200.827124,174.117825 201.74679,174.100806 L212.067628,174.100806 C212.774963,174.100806 213.376784,174.295873 213.83792,174.659822 C214.300358,175.025081 214.639045,175.582787 214.925626,176.270102 L228.24124,208.059385 L237.792216,176.359126 C237.996731,175.599807 238.358866,175.023771 238.847357,174.641494 C239.325427,174.267071 239.936366,174.081169 240.650214,174.081169 L251.671874,174.081169 C252.607172,174.081169 253.27152,174.352167 253.662313,174.857507 C254.053105,175.382484 254.105211,176.141803 253.816024,177.118445 L238.994556,224.591592 L239.029727,224.603375 L233.277257,243.011624 Z M198.89791,207.358978 C200.639544,207.358978 201.663421,208.491411 201.048573,210.241772 C197.87273,220.949479 187.833263,228.363313 175.846345,228.363313 C160.274554,228.363313 148.699271,216.521864 148.699271,201.181002 C148.699271,185.84014 160.274554,174 175.846345,174 C187.833263,174 197.87273,181.412524 201.048573,192.120232 C201.663421,193.870593 200.639544,195.004335 198.89791,195.004335 L187.628748,195.004335 C186.296145,195.004335 185.373874,194.386406 184.554511,193.253973 C182.711272,190.680144 179.535429,189.237438 175.846345,189.237438 C169.188538,189.237438 164.065244,194.077442 164.065244,201.181002 C164.065244,208.285871 169.188538,213.124566 175.846345,213.124566 C179.535429,213.124566 182.711272,211.683169 184.554511,209.212764 C185.373874,207.976907 186.193236,207.358978 187.628748,207.358978 L198.89791,207.358978 Z M132.440987,179.465788 C133.714972,177.195686 136.62247,173.972507 144.210364,174.075932 C144.760079,174.082478 145.202978,174.293254 145.528638,174.633639 C146.006708,175.132433 146.235973,175.806656 146.235973,176.678563 L146.235973,189.262312 C146.235973,190.115891 146.058814,190.756076 145.687561,191.182865 C145.333242,191.608346 144.803066,191.82305 144.113968,191.82305 C142.610719,191.769374 141.177812,191.929093 139.780076,192.302206 C138.400578,192.674011 137.14483,193.315504 136.048005,194.186103 C134.952482,195.07503 134.071896,196.268993 133.430996,197.723482 C132.780977,199.200227 132.451408,200.99379 132.440987,203.127739 L132.369342,216.548047 C132.293788,230.564029 121.659013,228.440554 119.176176,228.296545 C118.329459,228.248106 117.671624,228.066131 117.213094,227.603994 C116.753261,227.141857 116.522693,226.483344 116.522693,225.631074 L116.522693,176.783297 C116.522693,175.931027 116.753261,175.272514 117.213094,174.810377 C117.672927,174.348239 118.328156,174.117825 119.176176,174.117825 L129.787504,174.117825 C130.635524,174.117825 131.292056,174.348239 131.750586,174.810377 C132.211722,175.272514 132.440987,175.929718 132.440987,176.783297 L132.440987,179.465788 Z M86.4655152,174.024874 C90.210613,174.041893 93.6482872,174.725281 96.7811429,176.077654 C99.9113933,177.428718 102.618285,179.327016 104.934384,181.756836 C107.230943,184.203676 109.018169,187.058978 110.277824,190.343687 C111.53748,193.628396 112.184893,197.220761 112.201827,201.12078 C112.201827,201.788457 112.184893,202.437806 112.132787,203.054425 C112.098919,203.686755 112.048115,204.303374 111.997312,204.918684 C111.895706,205.739534 111.588283,206.337825 111.112818,206.714866 C110.636051,207.091907 110.005572,207.279119 109.239618,207.279119 L75.1299184,207.279119 C75.7760292,209.29786 76.6787606,210.93956 77.869376,212.205528 C79.0612941,213.454477 80.4577271,214.361732 82.022201,214.943004 C83.6062145,215.524276 85.2905315,215.797893 87.07906,215.797893 C88.5249934,215.780873 89.9201237,215.558314 91.2488193,215.097486 C92.5592779,214.635349 93.6990902,214.01873 94.6356903,213.231918 C95.1293919,212.822148 95.6230935,212.496164 96.0998607,212.256586 C96.5935623,212.018317 97.1550013,211.897873 97.8011121,211.897873 L107.606104,211.795758 C108.542704,211.812777 109.222683,212.086394 109.631713,212.616608 C110.022506,213.146822 110.03944,213.831518 109.648648,214.669387 C108.30432,217.646442 106.515792,220.14303 104.28697,222.144752 C102.056846,224.163493 99.4697974,225.66773 96.5245223,226.695429 C93.5805497,227.703491 90.3643249,228.217995 86.8745451,228.217995 C82.6188113,228.199667 78.7890418,227.49926 75.3852363,226.129868 C71.9644966,224.761784 69.0530901,222.863487 66.6366879,220.399628 C64.2020487,217.954097 62.3470854,215.079158 61.0535612,211.812777 C59.760037,208.528068 59.1126236,204.969742 59.0956892,201.12078 C59.1126236,197.271818 59.7769714,193.713492 61.1043643,190.430092 C62.4317572,187.162402 64.3036548,184.288772 66.738294,181.841932 C69.1559989,179.379382 72.0491684,177.479776 75.3852363,176.111692 C78.7213043,174.743609 82.4142964,174.041893 86.4655152,174.024874 Z M14.8110476,179.617651 C16.9017892,177.856817 19.2230985,176.488733 21.6772774,175.551367 C24.2330624,174.577344 26.936046,174.069386 29.6755036,174.069386 C36.4557589,174.069386 43.0849077,177.115826 47.5295246,182.039617 C51.9676283,186.956862 54.7135992,193.74884 54.7135992,201.245151 C54.7135992,208.741463 51.9676283,215.532131 47.5295246,220.449376 C43.0849077,225.371858 36.4557589,228.419607 29.6755036,228.419607 C24.7098296,228.419607 19.4992587,226.849912 15.8687935,223.351807 L15.8792147,240.021478 C15.8883331,254.037459 5.16888628,251.912675 2.68604927,251.769976 C1.84193679,251.721536 1.18149694,251.536943 0.722966705,251.076115 C0.26443647,250.615287 0.0338687105,249.954156 0.0338687105,249.103195 L0,176.85661 C0,175.987321 0.235778331,175.302625 0.708637635,174.828705 C1.1801943,174.353476 1.85756851,174.116516 2.72643119,174.116516 L12.0494451,174.116516 C12.9183078,174.116516 13.595682,174.353476 14.0672386,174.828705 C14.5400979,175.302625 14.7654551,175.980775 14.7758763,176.85661 L14.8110476,179.617651 Z M29.4801072,189.130086 C22.9434461,189.130086 17.6455982,194.48983 17.6455982,201.101142 C17.6455982,207.713764 22.9434461,213.073508 29.4801072,213.073508 C36.0154657,213.073508 41.3133136,207.713764 41.3133136,201.101142 C41.3133136,194.48983 36.0154657,189.130086 29.4801072,189.130086 Z M75.0791153,195.57906 L96.9504864,195.57906 C96.4059818,193.645415 95.5892248,192.088811 94.4989128,190.926268 C93.4281405,189.779434 92.168485,188.941565 90.7551177,188.42837 C89.3417504,187.915175 87.8788826,187.658578 86.3639091,187.675597 C83.4863714,187.692616 81.0699691,188.360293 79.1642029,189.711357 C77.2401996,191.045402 75.8789379,193.013086 75.0791153,195.57906 Z"/>
  </g>
</svg>
