<svg xmlns="http://www.w3.org/2000/svg" width="54" height="42" viewBox="0 0 54 42">
  <g fill="none">
    <path fill="#2B023F" d="M53.2905882,9.6190697 C53.0551324,8.87348483 52.3560441,8.37245692 51.5508088,8.37245692 C51.3109853,8.37245692 51.0763235,8.41806314 50.8531765,8.50799451 C50.2819412,8.73820345 49.3909412,9.00761324 48.2771912,9.05770322 C46.0261324,7.47275888 40.5676324,3.64401403 37.3290882,1.49590971 C37.3290882,1.49590971 37.7827941,2.77262773 38.4093529,5.15785878 C38.4093529,5.15785878 33.2884853,2.35922526 29.8792059,0.208943114 C29.8792059,0.208943114 31.1531029,2.72638097 31.2585882,3.54152814 C31.2585882,3.54152814 27.2039559,2.86422449 21.2752059,1.62132683 C21.2752059,1.62132683 25.6852059,4.00758274 26.7712941,5.44430685 C26.7712941,5.44430685 21.4663235,5.09649535 15.2182059,4.75073357 C15.2182059,4.75073357 18.3851471,6.30301052 19.9301029,7.55666921 C19.9301029,7.55666921 14.2663235,8.36336129 9.95175,8.56756443 C9.95175,8.56756443 13.1517794,10.9912277 14.4432794,12.1649474 C14.4432794,12.1649474 9.05598529,14.2260668 2.62230882,17.8457404 C2.62230882,17.8457404 6.01252941,18.0084368 8.45682353,18.7635016 C8.45682353,18.7635016 5.50866176,21.2852951 0.241014706,27.0675492 C0.241014706,27.0675492 3.62369118,26.946872 6.35294118,26.5893244 C6.35294118,26.5893244 4.21570588,29.7948269 1.55819118,35.5531249 C1.55819118,35.5531249 3.38108824,34.4355162 5.14641176,34.0308251 C5.14641176,34.0308251 5.33580882,40.4944822 9.00754412,41.5299741 L9.01058824,41.5254903 C9.19045588,41.5803203 9.36211765,41.5996645 9.51114706,41.5996645 C9.69048529,41.5996645 9.87789706,41.5730181 10.0683529,41.520366 C11.2335882,41.1994571 12.1154559,40.0926094 13.1365588,38.8111514 C13.5131029,38.3386915 13.9012941,37.8520116 14.319,37.3818576 C14.4350735,37.7329998 14.5856912,38.152039 14.7663529,38.5750496 C15.4360588,40.1433399 16.1535441,40.9057069 16.9597059,40.9057069 C17.0211176,40.9057069 17.0833235,40.9009669 17.1443382,40.8917432 C18.1733824,40.7353241 19.1273824,38.8147384 19.9248088,36.9566692 C20.3313971,36.0096996 20.6890147,35.064011 20.9322794,34.3940095 C20.961,34.395803 20.9893235,34.3966997 21.0180441,34.3988775 C23.4948971,34.5860424 25.0221176,36.9574379 26.2492941,38.8629068 C27.1741765,40.2991185 27.9047647,41.4335092 28.9245441,41.5421443 C28.9961471,41.5498307 29.0676176,41.5536739 29.1371029,41.5536739 C30.6958235,41.5536739 31.2436324,39.8018057 31.9372941,37.584011 C31.9833529,37.4364313 32.0306029,37.2853927 32.0790441,37.1316639 C32.2198676,37.3992802 32.3731324,37.6790666 32.5364559,37.9602623 C33.6762794,39.9223547 34.6853382,40.88316 35.6213382,40.8977642 L35.6478088,40.8980204 C36.4241912,40.8980204 36.9361324,40.3957115 37.1697353,39.4053134 C37.3443088,38.6654934 37.3815,37.6489614 37.4246471,36.4717828 C37.5240441,33.7565472 37.6608971,30.04912 39.5785588,26.8628336 C40.9964559,26.0031051 42.5606029,25.2199847 44.0957647,24.4515968 C47.6695588,22.6627055 51.0453529,20.9730975 52.7386765,18.4095409 C53.5856029,17.1274424 54.0054265,15.554284 53.9863676,13.733494 C53.9694265,12.1003813 53.5987059,10.5946073 53.2905882,9.6190697"/>
    <path fill="#9E66BF" d="M20.3411912 34.3728717C17.7731471 34.3728717 16.0826029 35.5289126 14.7303529 36.9359158 15.0875735 38.0829892 15.9851912 40.5491841 17.0621471 40.3854629 18.1117059 40.2258411 19.6664559 36.3183102 20.3786471 34.3735123 20.3663382 34.3733842 20.3535 34.3728717 20.3411912 34.3728717M36.5777206 29.0748635C34.1855735 31.3398017 33.0638824 34.1230624 32.3070882 36.4228458 33.0932647 37.9967729 34.4688088 40.3672716 35.6298088 40.3854629 37.9667647 40.4218454 35.6896324 33.3764526 38.6571176 27.4480281 37.8937059 27.9573829 37.1894559 28.4958182 36.5777206 29.0748635"/>
    <path fill="#D6B5E5" d="M45.4991029,11.4791887 C44.2675588,11.1643007 43.0843235,11.5866707 42.8560147,12.4226994 C42.6278382,13.2588562 43.4411471,14.1918621 44.6725588,14.50675 C45.9041029,14.8217661 47.0873382,14.399268 47.3156471,13.5632393 C47.5438235,12.7272106 46.7305147,11.7940766 45.4991029,11.4791887 Z M53.0645294,16.5161141 C52.8832059,17.0756871 52.6317353,17.6201434 52.2926471,18.1334696 C49.3589118,22.574952 40.6285147,24.5229526 36.2075294,28.7086045 C30.7835735,33.8439164 31.7433971,41.3271801 28.9825147,41.0329175 C27.0394412,40.8257679 25.5818382,34.2296477 21.0592059,33.8878573 C14.2319118,33.372097 12.7331471,40.2535123 9.92342647,41.0276651 C7.11370588,41.8018179 7.52108824,34.8236816 8.97233824,31.7341162 C10.2537794,29.0056855 12.5526176,25.1807839 16.0663235,26.0584475 C18.3913676,26.6391582 15.6912353,30.4140979 15.6912353,30.4140979 C15.6912353,30.4140979 20.6084118,30.7225804 23.6411471,26.3488669 C25.6552941,23.4440323 32.3281324,13.5072564 39.0165882,22.1026201 C39.0165882,22.1026201 36.3962647,14.8886381 38.0960735,11.3795211 C39.4909412,8.50005185 42.7010294,8.55744395 45.6224559,9.28983377 C48.0176471,9.89027299 49.9155882,9.44087235 51.0566029,8.98109501 C51.2794853,8.89129175 51.5121618,8.86720756 51.7333235,8.89808144 C51.3120441,8.91755376 50.6643088,9.13418332 50.2896176,10.1812048 C49.7301618,11.7443709 52.7728235,10.5428519 53.4237353,12.9930334 C53.4237353,12.9930334 53.6239853,16.7121183 50.4432794,16.2552875 L50.5674265,15.4487235 C50.5674265,15.4487235 49.5434118,16.0863139 50.2753235,17.3463779 L50.3925882,16.5847796 C51.0333088,16.8074302 51.9391324,16.9158091 53.0645294,16.5161141 Z M53.4238676,12.9930334 L53.4237353,12.9930334 L53.4237353,12.9929053 L53.4238676,12.9930334 Z"/>
    <path fill="#5C007B" d="M36.5777206 29.0748635C34.1650588 31.359146 33.0448235 34.1704621 32.2878971 36.481519 32.7114265 37.3183163 33.5936912 38.6580631 33.5936912 38.6580631 33.5475 34.0203203 37.5579265 28.6372487 38.2789853 27.7071893 37.6610294 28.1395516 37.0868824 28.5927955 36.5777206 29.0748635M14.6698676 36.9990727C14.9053235 37.667537 15.3792794 38.6580631 15.3792794 38.6580631 15.3792794 38.6580631 16.8143824 35.0228885 20.3016176 34.3735123 17.7178235 34.3858106 16.0251618 35.5710599 14.6698676 36.9990727"/>
    <path fill="#C393DB" d="M9.92342647,41.0276651 C12.7331471,40.2535123 14.2319118,33.372097 21.0592059,33.8878573 C25.5818382,34.2296477 27.0394412,40.8257679 28.9825147,41.0329175 C28.9825147,41.0329175 27.9352059,38.9623181 27.0914559,36.3487998 C26.2477059,33.7354095 23.3724706,31.1220192 20.7600882,31.1220192 C18.1475735,31.1220192 15.1873676,32.4832881 13.5350735,35.8946591 C11.0461765,41.0329175 9.92342647,41.0276651 9.92342647,41.0276651"/>
    <path fill="#9E66BF" d="M19.9301029,7.55666921 C18.0031765,7.80583804 12.7199118,8.30814702 9.68069118,8.45201159 C9.68069118,8.45201159 10.3722353,8.88616745 10.9688824,9.34722587 C15.0206029,9.0660302 20.2800441,7.7877749 19.9301029,7.55666921 Z M14.4431471,12.1649474 C12.6398382,12.9079701 7.57111765,14.8482843 2.34992647,17.9243984 C2.34992647,17.9243984 3.03961765,17.8658533 3.68563235,17.9243984 C9.47276471,14.7923014 14.6543824,12.3435291 14.4431471,12.1649474 Z M26.7712941,5.44430685 C24.8094265,5.31978649 19.3035441,4.9043343 14.9491324,4.66323624 C14.9491324,4.66323624 16.0626176,5.16477657 17.0916618,5.7374165 C22.3218529,6.03705963 27.1913824,5.78020436 26.7712941,5.44430685 Z M8.45682353,18.7635016 C6.40270588,20.2919506 3.43654412,23.3060607 0.0129705882,27.2066738 C0.0129705882,27.2066738 0.406191176,27.0616562 0.692338235,27.0487174 C5.45214706,21.8911148 8.61127941,18.8051365 8.45682353,18.7635016 Z M48.1840147,8.99070307 C48.1840147,8.99070307 41.3159559,4.13556199 37.1608676,1.37946012 C37.1608676,1.37946012 37.4994265,1.9756718 37.7744559,2.8921519 C41.6478971,5.49478115 48.1840147,8.99070307 48.1840147,8.99070307 Z M6.35294118,26.5893244 C5.02663235,28.1450602 3.25005882,31.6284276 1.55819118,35.5531249 C1.55819118,35.5531249 1.58161765,35.538905 1.62357353,35.5140522 C4.08189706,30.3237822 6.42030882,26.5807412 6.35294118,26.5893244 Z M38.4093529,5.15785878 C36.8961618,4.31965228 32.3817353,1.69229831 29.7353382,0.0231874333 C29.7353382,0.0231874333 30.2486029,0.939283209 30.6060882,1.74033857 C33.9184853,3.75892634 38.5145735,5.53141986 38.4093529,5.15785878 Z M23.71275,3.05523258 C22.4358088,2.24969346 21.0074559,1.51192314 21.0074559,1.51192314 C25.5288971,2.45966143 29.8842353,3.30107061 31.2585882,3.54152814 C31.4142353,3.93661126 28.0841029,3.93161507 23.71275,3.05523258 Z"/>
    <polyline fill="#5C007B" points="30.412 5.369 34.913 8.146 37.833 7.915 30.412 5.369"/>
    <path fill="#9E66BF" d="M37.8333529,7.91511362 L30.4123235,5.3687235 L33.8589265,6.98377307 C35.0936471,7.56243404 36.4416618,7.87975599 37.8131029,7.91460119 L37.8333529,7.91511362"/>
    <polyline fill="#5C007B" points="22.537 9.413 29.666 11.169 32.775 10.175 22.537 9.413"/>
    <path fill="#9E66BF" d="M32.7750882,10.17544 L22.5374559,9.41307305 L28.8303088,10.4221748 C29.7059559,10.5474638 30.5953676,10.5556627 31.4732647,10.4463871 L32.7750882,10.17544"/>
    <polyline fill="#5C007B" points="36.77 11.744 35.248 12.854 30.882 12.697 36.77 11.744"/>
    <path fill="#9E66BF" d="M36.7697647,11.7443709 L30.8823088,12.6974897 L33.2781618,12.6265182 C34.1033824,12.6020497 34.9184118,12.4414031 35.6879118,12.1516242 L36.7697647,11.7443709"/>
    <polyline fill="#5C007B" points="25.16 12.854 22.722 14.427 15.964 13.807 25.16 12.854"/>
    <path fill="#9E66BF" d="M25.1604265,12.8540369 L15.9644118,13.8071557 L21.0978529,13.7274729 C22.3002794,13.7087693 23.4894706,13.4831722 24.6101029,13.0611865 L25.1604265,12.8540369"/>
    <polyline fill="#5C007B" points="35.248 15.452 32.775 16.784 26.052 16.405 35.248 15.452"/>
    <path fill="#9E66BF" d="M35.2485,15.4520543 L26.0524853,16.4053012 L31.2722206,16.3242092 C32.4176029,16.3064023 33.5504118,16.0914382 34.6179706,15.6895654 L35.2485,15.4520543"/>
    <polyline fill="#5C007B" points="25.962 18.263 24.238 20.991 15.61 23.022 25.962 18.263"/>
    <path fill="#9E66BF" d="M15.6102353,23.022431 L25.9623529,18.2631142 L24.6310147,19.2823364 C23.8419265,19.8863627 22.9601912,20.3672777 22.0175735,20.7077871 L15.6102353,23.022431"/>
    <polyline fill="#5C007B" points="8.503 22.773 15.183 19.942 16.702 17.112 8.503 22.773"/>
    <path fill="#9E66BF" d="M8.50288235,22.7728778 L16.7021471,17.1118133 L16.6793824,17.1449931 C15.8316618,18.3859692 14.6901176,19.4131341 13.3495147,20.1410401 L8.50288235,22.7728778"/>
    <polyline fill="#5C007B" points="11.529 23.337 11.265 26.168 7.43 30.799 11.529 23.337"/>
    <path fill="#9E66BF" d="M7.43029412,30.7985481 L11.5291324,23.3365503 C11.3065147,24.634406 10.8033088,25.8721794 10.0523382,26.9689065 L7.43029412,30.7985481"/>
    <path fill="#FFF" d="M45.1982647,12.422187 C45.1925735,12.7315663 44.8898824,12.9774043 44.5222059,12.9709989 C44.1545294,12.9648498 43.8609706,12.7087632 43.8666618,12.3993839 C43.8723529,12.0898765 44.1750441,11.8440384 44.5427206,11.8503157 C44.9103971,11.8567211 45.2039559,12.1126796 45.1982647,12.422187"/>
  </g>
</svg>
