<svg xmlns="http://www.w3.org/2000/svg" width="52" height="41" viewBox="0 0 52 41">
  <g fill="none" fill-rule="evenodd">
    <path fill="#BFB3C5" fill-rule="nonzero" d="M22.765549,40.9776476 C11.3022255,40.9776476 2.00951961,40.3641295 2.00951961,39.6074819 C2.00951961,38.8508343 11.3022255,38.2374398 22.765549,38.2374398 C34.2288725,38.2374398 43.5217059,38.8508343 43.5217059,39.6074819 C43.5217059,40.3641295 34.2288725,40.9776476 22.765549,40.9776476"/>
    <path fill="#2B023F" fill-rule="nonzero" d="M51.3168627,9.27266867 C51.0901275,8.55393373 50.4169314,8.0709488 49.6415196,8.0709488 C49.4105784,8.0709488 49.1846078,8.11491265 48.9697255,8.20160542 C48.4196471,8.4235241 47.5616471,8.68323193 46.4891471,8.73151807 C44.3214608,7.2036506 39.0651275,3.51278614 35.9465294,1.44203916 C35.9465294,1.44203916 36.3834314,2.67278012 36.9867843,4.97211446 C36.9867843,4.97211446 32.0555784,2.27426506 28.7725686,0.201418675 C28.7725686,0.201418675 29.9992843,2.6281988 30.1008627,3.41399096 C30.1008627,3.41399096 26.196402,2.76107831 20.4872353,1.56293976 C20.4872353,1.56293976 24.733902,3.86326205 25.7797647,5.24824699 C25.7797647,5.24824699 20.6712745,4.91296084 14.6545686,4.5796506 C14.6545686,4.5796506 17.7042157,6.07602711 19.191951,7.28453916 C19.191951,7.28453916 13.7379412,8.06218072 9.58316667,8.25903012 C9.58316667,8.25903012 12.6646765,10.5954127 13.9083431,11.7268645 C13.9083431,11.7268645 8.72057843,13.713759 2.52518627,17.2030813 C2.52518627,17.2030813 5.78984314,17.3599187 8.14360784,18.0877922 C8.14360784,18.0877922 5.30463725,20.5187711 0.232088235,26.0927952 C0.232088235,26.0927952 3.48948039,25.9764639 6.11764706,25.6317922 C6.11764706,25.6317922 4.05956863,28.7218584 1.50048039,34.2727892 C1.50048039,34.2727892 3.25586275,33.1954277 4.95580392,32.8053102 C4.95580392,32.8053102 5.13818627,39.0361988 8.67393137,40.0344006 L8.67686275,40.0300783 C8.85006863,40.0829337 9.01537255,40.1015813 9.15888235,40.1015813 C9.33157843,40.1015813 9.51204902,40.0758946 9.69545098,40.0251386 C10.8175294,39.7157861 11.6667353,38.6487982 12.6500196,37.413488 C13.0126176,36.9580422 13.3864314,36.4888886 13.7886667,36.0356657 C13.9004412,36.3741627 14.0454804,36.7781114 14.219451,37.1858886 C14.8643529,38.6977018 15.5552647,39.4326145 16.3315686,39.4326145 C16.3907059,39.4326145 16.4506078,39.4280452 16.5093627,39.4191536 C17.5002941,39.2683675 18.4189608,37.4169458 19.1868529,35.6257892 C19.5783824,34.7129217 19.9227549,33.8012892 20.1570098,33.1554157 C20.1846667,33.1571446 20.2119412,33.158009 20.239598,33.1601084 C22.6247157,33.3405331 24.0953725,35.6265301 25.277098,37.4633795 C26.1677255,38.8478705 26.8712549,39.9414096 27.8532647,40.0461325 C27.9222157,40.0535422 27.9910392,40.057247 28.057951,40.057247 C29.5589412,40.057247 30.0864608,38.3684669 30.7544314,36.2305392 C30.7987843,36.0882741 30.8442843,35.9426747 30.8909314,35.7944819 C31.0265392,36.0524608 31.1741275,36.3221717 31.331402,36.593241 C32.4290098,38.4846747 33.4006961,39.4108795 34.3020294,39.4249578 L34.3275196,39.4252048 C35.0751471,39.4252048 35.5681275,38.9409849 35.7930784,37.986253 C35.9611863,37.2730753 35.997,36.2931506 36.038549,35.1583645 C36.1342647,32.5409096 36.266049,28.966994 38.1126863,25.8954518 C39.4780686,25.0666837 40.9842843,24.3117651 42.4625882,23.5710482 C45.9040196,21.8465783 49.1547843,20.2178163 50.7853922,17.7465783 C51.600951,16.5106506 52.0052255,14.9941446 51.9868725,13.2389247 C51.9705588,11.6646235 51.6135686,10.2130753 51.3168627,9.27266867"/>
    <path fill="#9E66BF" fill-rule="nonzero" d="M19.5878137,33.1350392 C17.1148824,33.1350392 15.486951,34.2494488 14.1847843,35.6057831 C14.5287745,36.7115482 15.3931471,39.0889307 16.4302157,38.9311054 C17.440902,38.7772319 18.9380686,35.0104187 19.6238824,33.1356566 C19.6120294,33.1355331 19.5996667,33.1350392 19.5878137,33.1350392"/>
    <path fill="#9E66BF" fill-rule="nonzero" d="M35.2229902,28.0278223 C32.9194412,30.2111958 31.8392941,32.8942259 31.1105294,35.1111898 C31.8675882,36.6284367 33.1921863,38.9135693 34.3101863,38.9311054 C36.5605882,38.9661777 34.3677941,32.174503 37.2253725,26.4595723 C36.4902353,26.9505843 35.8120686,27.4696295 35.2229902,28.0278223"/>
    <path fill="#D6B5E5" fill-rule="nonzero" d="M49.8625196,9.37232831 C49.6333627,9.57881024 49.5172549,9.81888253 49.6031569,9.90829217 C49.6890588,9.9978253 49.9444706,9.90285843 50.1735,9.69637651 C50.4026569,9.48989458 50.5186373,9.24994578 50.4328627,9.16041265 C50.3469608,9.07100301 50.091549,9.16584639 49.8625196,9.37232831 Z M43.813951,11.0658012 C42.6280196,10.762253 41.4886078,11.1694127 41.2687549,11.9753343 C41.0490294,12.7813795 41.8322157,13.6807861 43.0180196,13.9843343 C44.203951,14.288006 45.3433627,13.8807229 45.5632157,13.0748012 C45.7829412,12.2688795 44.9997549,11.3693494 43.813951,11.0658012 Z M51.0991765,15.9213373 C50.9245686,16.460759 50.6824118,16.9856084 50.3558824,17.4804488 C47.5308039,21.7619849 39.1237549,23.6398343 34.8665098,27.674753 C29.6434412,32.6251325 30.5677157,39.8389096 27.9090882,39.555244 C26.0379804,39.3555542 24.6343627,32.9969729 20.2792353,32.667491 C13.7048039,32.1703042 12.261549,38.8039066 9.55589216,39.5501807 C6.85023529,40.2964548 7.24252941,33.5696145 8.64002941,30.5913102 C9.8740098,27.9611355 12.0877059,24.2739759 15.4712745,25.1200331 C17.7102059,25.6798313 15.1100784,29.3188283 15.1100784,29.3188283 C15.1100784,29.3188283 19.8451373,29.6162018 22.765549,25.399994 C24.705098,22.5997681 31.1307941,13.0208343 37.5715294,21.3066627 C37.5715294,21.3066627 35.0482549,14.3524699 36.6851078,10.9697229 C38.0283137,8.1939488 41.1195098,8.2492741 43.9327353,8.95528916 C46.2392157,9.53410542 48.0668627,9.10088855 49.1656176,8.65766867 C49.3802451,8.5710994 49.6043039,8.54788253 49.8172745,8.57764458 C49.411598,8.59641566 48.7878529,8.80524398 48.4270392,9.81456024 C47.8883039,11.3214337 50.8182745,10.1631837 51.4450784,12.5251295 C51.4450784,12.5251295 51.6379118,16.1102831 48.5750098,15.6699036 L48.6945588,14.8923855 C48.6945588,14.8923855 47.7084706,15.5070151 48.4132745,16.7217018 L48.5261961,15.9875301 C49.1431863,16.2021627 50.0154608,16.3066386 51.0991765,15.9213373 Z M51.4452059,12.5251295 L51.4450784,12.5251295 L51.4450784,12.525006 L51.4452059,12.5251295 Z"/>
    <path fill="#5C007B" fill-rule="nonzero" d="M35.2229902,28.0278223 C32.8996863,30.2298434 31.8209412,32.9399187 31.092049,35.16775 C31.4998922,35.9744127 32.3494804,37.2659127 32.3494804,37.2659127 C32.305,32.7951837 36.1668922,27.6059669 36.8612451,26.7094006 C36.2661765,27.1261928 35.7132941,27.5631145 35.2229902,28.0278223"/>
    <path fill="#5C007B" fill-rule="nonzero" d="M14.1265392,35.6666657 C14.3532745,36.3110572 14.8096765,37.2659127 14.8096765,37.2659127 C14.8096765,37.2659127 16.1916275,33.7616476 19.5497059,33.1356566 C17.0616078,33.147512 15.4316373,34.2900783 14.1265392,35.6666657"/>
    <path fill="#C393DB" fill-rule="nonzero" d="M9.55589216,39.5501807 C12.261549,38.8039066 13.7048039,32.1703042 20.2792353,32.667491 C24.6343627,32.9969729 26.0379804,39.3555542 27.9090882,39.555244 C27.9090882,39.555244 26.9005686,37.5592108 26.0880686,35.0398102 C25.2755686,32.5205331 22.5068235,30.001256 19.9911961,30.001256 C17.4754412,30.001256 14.6248725,31.313503 13.0337745,34.6020241 C10.6370588,39.555244 9.55589216,39.5501807 9.55589216,39.5501807"/>
    <path fill="#9E66BF" fill-rule="nonzero" d="M19.191951,7.28453916 C17.3363922,7.52473494 12.2488039,8.00895482 9.32214706,8.14763855 C9.32214706,8.14763855 9.98807843,8.56615964 10.5626275,9.01061446 C14.4642843,8.73954518 19.5289314,7.50732229 19.191951,7.28453916 Z M13.9082157,11.7268645 C12.1716961,12.4431295 7.29070588,14.3135693 2.26289216,17.2789066 C2.26289216,17.2789066 2.92703922,17.2224699 3.54912745,17.2789066 C9.12192157,14.2596024 14.1116275,11.8990151 13.9082157,11.7268645 Z M25.7797647,5.24824699 C23.8905588,5.12821084 18.588598,4.72771988 14.3954608,4.49530422 C14.3954608,4.49530422 15.4677059,4.97878313 16.4586373,5.5308012 C21.4951176,5.81965361 26.1842941,5.57204819 25.7797647,5.24824699 Z M8.14360784,18.0877922 C6.16556863,19.5611988 3.30926471,22.4667651 0.0124901961,26.2269096 C0.0124901961,26.2269096 0.391147059,26.0871145 0.666696078,26.0746416 C5.25021569,21.1027741 8.29234314,18.1279277 8.14360784,18.0877922 Z M46.3994216,8.66693072 C46.3994216,8.66693072 39.7857353,3.98663253 35.7845392,1.32978313 C35.7845392,1.32978313 36.1105588,1.9045241 36.375402,2.788 C40.1053824,5.29690361 46.3994216,8.66693072 46.3994216,8.66693072 Z M6.11764706,25.6317922 C4.84046078,27.131503 3.12968627,30.4894277 1.50048039,34.2727892 C1.50048039,34.2727892 1.52303922,34.2590813 1.56344118,34.2351235 C3.93071569,29.2317651 6.18251961,25.6235181 6.11764706,25.6317922 Z M36.9867843,4.97211446 C35.5296373,4.16409337 31.1824118,1.63135542 28.6340294,0.0223524096 C28.6340294,0.0223524096 29.1282843,0.905457831 29.4725294,1.67766566 C32.6622451,3.62356024 37.0881078,5.33222289 36.9867843,4.97211446 Z M22.8345,2.94520783 C21.6048529,2.16867771 20.229402,1.4574759 20.229402,1.4574759 C24.5833824,2.37108434 28.7774118,3.18219277 30.1008627,3.41399096 C30.2507451,3.79484639 27.043951,3.79003012 22.8345,2.94520783 Z"/>
    <polyline fill="#5C007B" fill-rule="nonzero" points="29.286 5.175 33.62 7.853 36.432 7.63 29.286 5.175"/>
    <path fill="#9E66BF" fill-rule="nonzero" d="M36.4321176,7.6300753 L29.2859412,5.17538554 L32.6048922,6.7322741 C33.7938824,7.29009639 35.0919706,7.59599096 36.4126176,7.62958133 L36.4321176,7.6300753"/>
    <polyline fill="#5C007B" fill-rule="nonzero" points="21.703 9.074 28.568 10.767 31.561 9.809 21.703 9.074"/>
    <path fill="#9E66BF" fill-rule="nonzero" d="M31.5611961,9.80900301 L21.7027353,9.07409036 L27.7625196,10.0468524 C28.6057353,10.1676295 29.4622059,10.1755331 30.3075882,10.0701928 L31.5611961,9.80900301"/>
    <polyline fill="#5C007B" fill-rule="nonzero" points="35.408 11.321 33.943 12.391 29.739 12.24 35.408 11.321"/>
    <path fill="#9E66BF" fill-rule="nonzero" d="M35.4079216,11.3214337 L29.7385196,12.2402289 L32.0456373,12.1718133 C32.8402941,12.1482259 33.6251373,11.9933645 34.3661373,11.7140211 L35.4079216,11.3214337"/>
    <polyline fill="#5C007B" fill-rule="nonzero" points="24.229 12.391 21.881 13.907 15.373 13.31 24.229 12.391"/>
    <path fill="#9E66BF" fill-rule="nonzero" d="M24.2285588,12.3911386 L15.3731373,13.3099337 L20.316451,13.2331205 C21.4743431,13.2150904 22.6194902,12.9976175 23.6986176,12.5908283 L24.2285588,12.3911386"/>
    <polyline fill="#5C007B" fill-rule="nonzero" points="33.943 14.896 31.561 16.18 25.088 15.815 33.943 14.896"/>
    <path fill="#9E66BF" fill-rule="nonzero" d="M33.943,14.8955964 L25.0875784,15.8145151 L30.1139902,15.7363434 C31.216951,15.7191777 32.3078039,15.5119548 33.3358235,15.1245542 L33.943,14.8955964"/>
    <polyline fill="#5C007B" fill-rule="nonzero" points="25.001 17.605 23.341 20.235 15.032 22.193 25.001 17.605"/>
    <path fill="#9E66BF" fill-rule="nonzero" d="M15.0320784,22.1933494 L25.0007843,17.6054247 L23.7187549,18.5879428 C22.9588922,19.1702169 22.1098137,19.6338133 21.2021078,19.9620602 L15.0320784,22.1933494"/>
    <polyline fill="#5C007B" fill-rule="nonzero" points="8.188 21.953 14.62 19.224 16.084 16.496 8.188 21.953"/>
    <path fill="#9E66BF" fill-rule="nonzero" d="M8.18796078,21.9527831 L16.083549,16.4955843 L16.0616275,16.5275693 C15.2453039,17.7238554 14.1460392,18.7140301 12.8550882,19.4157229 L8.18796078,21.9527831"/>
    <polyline fill="#5C007B" fill-rule="nonzero" points="11.102 22.496 10.848 25.226 7.155 29.689 11.102 22.496"/>
    <path fill="#9E66BF" fill-rule="nonzero" d="M7.15509804,29.6894337 L11.1021275,22.4961566 C10.8877549,23.7472741 10.4031863,24.9404729 9.68002941,25.9977048 L7.15509804,29.6894337"/>
    <path fill="#FFF" fill-rule="nonzero" d="M43.5242549,11.9748404 C43.5187745,12.2730783 43.2272941,12.5100633 42.8732353,12.5038886 C42.5191765,12.4979608 42.2364902,12.2510964 42.2419706,11.9528584 C42.247451,11.654497 42.5389314,11.417512 42.8929902,11.4235633 C43.247049,11.429738 43.5297353,11.6764789 43.5242549,11.9748404"/>
  </g>
</svg>
