<svg xmlns="http://www.w3.org/2000/svg" width="20" height="16" viewBox="0 0 20 16">
  <g fill="none" fill-rule="evenodd">
    <path fill="#BFB3C5" fill-rule="nonzero" d="M8.74794001,15.9882673 C4.34301806,15.9882673 0.77218243,15.7488906 0.77218243,15.4536691 C0.77218243,15.1584476 4.34301806,14.9191191 8.74794001,14.9191191 C13.152862,14.9191191 16.7237466,15.1584476 16.7237466,15.4536691 C16.7237466,15.7488906 13.152862,15.9882673 8.74794001,15.9882673"/>
    <path fill="#2B023F" fill-rule="nonzero" d="M19.7191307,3.61792133 C19.6320049,3.33749219 19.3733211,3.14904574 19.0753597,3.14904574 C18.9866177,3.14904574 18.8997857,3.16619913 18.8172146,3.20002409 C18.6058402,3.2866102 18.2761433,3.38794052 17.864022,3.40678035 C17.0310621,2.81065161 15.0112519,1.37058536 13.8128926,0.562641069 C13.8128926,0.562641069 13.9807775,1.04283983 14.2126232,1.93997214 C14.2126232,1.93997214 12.3177472,0.887351026 11.0562106,0.0785876153 C11.0562106,0.0785876153 11.5275911,1.02544551 11.5666238,1.3320384 C11.5666238,1.3320384 10.0662871,1.07729117 7.87247016,0.609812912 C7.87247016,0.609812912 9.50430364,1.5073307 9.90618916,2.0477109 C9.90618916,2.0477109 7.94318947,1.91689215 5.63119682,1.78684434 C5.63119682,1.78684434 6.80306091,2.37068624 7.37474135,2.84221193 C7.37474135,2.84221193 5.27897153,3.14562469 3.68244873,3.22242951 C3.68244873,3.22242951 4.86655647,4.13401694 5.34445057,4.575476 C5.34445057,4.575476 3.35098867,5.35070356 0.970333639,6.71213401 C0.970333639,6.71213401 2.22481788,6.77332731 3.12928069,7.05732204 C3.12928069,7.05732204 2.03837159,8.00581818 0.0891827365,10.1806377 C0.0891827365,10.1806377 1.34087542,10.1352486 2.35078053,10.0007679 C2.35078053,10.0007679 1.55993878,11.2064205 0.5765779,13.3722296 C0.5765779,13.3722296 1.25110499,12.951875 1.90432813,12.7996627 C1.90432813,12.7996627 1.97441077,15.2307713 3.33306397,15.6202402 L3.33419039,15.6185537 C3.40074686,15.6391764 3.46426691,15.6464521 3.5194123,15.6464521 C3.58577288,15.6464521 3.65512091,15.6364299 3.72559535,15.6166264 C4.15676768,15.4959262 4.4830854,15.079619 4.8609244,14.5976375 C5.00025712,14.419936 5.1438996,14.2368861 5.29846342,14.0600519 C5.34141414,14.1921235 5.39714723,14.3497324 5.46399755,14.5088349 C5.711809,15.0986998 5.97730028,15.385441 6.27560453,15.385441 C6.29832874,15.385441 6.3213468,15.3836582 6.34392409,15.380189 C6.72470156,15.3213567 7.07771044,14.5989866 7.37278237,13.9001302 C7.52323232,13.5439563 7.65556168,13.1882643 7.74557698,12.9362635 C7.75620447,12.9369381 7.76668503,12.9372754 7.77731252,12.9380945 C8.69382308,13.0084909 9.25894092,13.9004193 9.71303336,14.6171037 C10.0552678,15.1572912 10.3256076,15.5839578 10.7029568,15.6248176 C10.7294521,15.6277086 10.7558984,15.6291542 10.78161,15.6291542 C11.3583838,15.6291542 11.5610897,14.970242 11.8177655,14.1360858 C11.8348087,14.0805782 11.8522926,14.0237696 11.8702173,13.9659492 C11.9223263,14.0666049 11.9790389,14.1718381 12.0394735,14.2776014 C12.4612427,15.0155829 12.834625,15.3769607 13.1809734,15.3824536 L13.1907683,15.38255 C13.4780533,15.38255 13.667487,15.1936217 13.7539272,14.8211135 C13.8185246,14.5428526 13.8322865,14.160515 13.8482522,13.7177549 C13.8850321,12.6965014 13.9356719,11.3020651 14.6452648,10.1036401 C15.1699296,9.78027931 15.7487114,9.48573235 16.3167677,9.19672652 C17.6391797,8.52388933 18.8883257,7.8883945 19.5149066,6.92419048 C19.8282951,6.441968 19.9836425,5.85027216 19.9765901,5.16543723 C19.9703214,4.55119142 19.8331436,3.9848402 19.7191307,3.61792133"/>
    <path fill="#9E66BF" fill-rule="nonzero" d="M7.52685644,12.9283132 C6.57660239,12.9283132 5.95104989,13.3631229 5.45067646,13.8923245 C5.58285889,14.3237613 5.91500459,15.2513458 6.31351087,15.189767 C6.7018794,15.1297301 7.27718396,13.6600309 7.54071625,12.9285541 C7.53616162,12.9285059 7.53141108,12.9283132 7.52685644,12.9283132"/>
    <path fill="#9E66BF" fill-rule="nonzero" d="M13.5348638,10.9356281 C12.649697,11.7875159 12.2346373,12.834355 11.9546006,13.6993488 C12.2455096,14.2913337 12.7545026,15.1829249 13.1841077,15.189767 C14.0488522,15.2034512 13.2062443,12.5535404 14.3043036,10.3237433 C14.0218182,10.5153217 13.7612244,10.7178378 13.5348638,10.9356281"/>
    <path fill="#D6B5E5" fill-rule="nonzero" d="M19.1602816,3.65680557 C19.0722253,3.73736872 19.0276094,3.83103783 19.0606183,3.86592283 C19.0936272,3.90085601 19.1917723,3.86380275 19.2797796,3.7832396 C19.3678359,3.70267645 19.4124028,3.60905552 19.3794429,3.57412234 C19.346434,3.53923734 19.248289,3.57624242 19.1602816,3.65680557 Z M16.8360453,4.31754865 C16.3803367,4.19911312 15.9425038,4.35797478 15.8580227,4.67242161 C15.7735904,4.98691662 16.0745393,5.33783851 16.530199,5.45627404 C16.9859076,5.57475776 17.4237404,5.41584792 17.5082216,5.10140109 C17.5926538,4.78695426 17.2917049,4.43598419 16.8360453,4.31754865 Z M19.6354821,6.21203538 C19.5683869,6.42250179 19.4753352,6.62728251 19.3498623,6.8203546 C18.2642914,8.49088349 15.0337802,9.22356484 13.3978818,10.7978709 C11.390854,12.7293627 11.7460178,15.5439654 10.7244077,15.4332874 C10.0054117,15.3553744 9.46605448,12.8744438 7.79254362,12.7458897 C5.26623814,12.5519021 4.71164983,15.1401378 3.67196817,15.4313119 C2.6322865,15.722486 2.7830303,13.0978716 3.32003673,11.9358253 C3.79420875,10.9096089 4.64484848,9.47098814 5.94502602,9.80109467 C6.80536272,10.0195114 5.80623202,11.4393405 5.80623202,11.4393405 C5.80623202,11.4393405 7.62573615,11.5553668 8.74794001,9.91032712 C9.49323538,8.81776172 11.9623875,5.08034481 14.4373186,8.31323019 C14.4373186,8.31323019 13.4677196,5.59990966 14.0967003,4.28006174 C14.6128436,3.1970367 15.8006734,3.218623 16.8816896,3.49408922 C17.7679829,3.71992622 18.4702785,3.5508978 18.8924885,3.3779665 C18.9749617,3.34418972 19.0610591,3.33513119 19.1428956,3.34674346 C18.9870095,3.35406738 18.7473278,3.43554602 18.6086807,3.8293514 C18.4016651,4.41728891 19.5275421,3.96537399 19.7683991,4.88693544 C19.7683991,4.88693544 19.8424977,6.28575645 18.6655403,6.11393337 L18.7114784,5.81056879 C18.7114784,5.81056879 18.332562,6.05037907 18.6033915,6.52431395 L18.646783,6.23786185 C18.883869,6.32160512 19.2190511,6.36236853 19.6354821,6.21203538 Z M19.7684991,4.88698726 L19.7683991,4.88698726 L19.7683991,4.88688726 L19.7684991,4.88698726 Z"/>
    <path fill="#5C007B" fill-rule="nonzero" d="M13.5348638,10.9356281 C12.6421059,11.7947916 12.2275849,12.8521829 11.9474992,13.7214169 C12.1042179,14.0361528 12.4306826,14.540058 12.4306826,14.540058 C12.4135904,12.7957117 13.8975696,10.7710326 14.1643832,10.4212189 C13.9357208,10.5838389 13.7232691,10.7543128 13.5348638,10.9356281"/>
    <path fill="#5C007B" fill-rule="nonzero" d="M5.42829507,13.9160791 C5.51542088,14.1675016 5.6907989,14.540058 5.6907989,14.540058 C5.6907989,14.540058 6.22183043,13.1727973 7.51221304,12.9285541 C6.55613101,12.9331797 5.92979492,13.3789753 5.42829507,13.9160791"/>
    <path fill="#C393DB" fill-rule="nonzero" d="M3.67196817,15.4313119 C4.71164983,15.1401378 5.26623814,12.5519021 7.79254362,12.7458897 C9.46605448,12.8744438 10.0054117,15.3553744 10.7244077,15.4332874 C10.7244077,15.4332874 10.3368717,14.6544943 10.0246587,13.6714986 C9.71244567,12.6885511 8.64852158,11.7056036 7.68186103,11.7056036 C6.71515152,11.7056036 5.61978574,12.2176036 5.0083869,13.5006874 C4.08741965,15.4332874 3.67196817,15.4313119 3.67196817,15.4313119"/>
    <path fill="#9E66BF" fill-rule="nonzero" d="M7.37474135,2.84221193 C6.66172023,2.93592923 4.70675237,3.12485752 3.58214876,3.17896781 C3.58214876,3.17896781 3.83804102,3.34226238 4.05881849,3.51567551 C5.55807775,3.40991229 7.50423018,2.92913533 7.37474135,2.84221193 Z M5.34440159,4.575476 C4.67712274,4.85494146 2.8015427,5.58473179 0.869543924,6.7417188 C0.869543924,6.7417188 1.12475054,6.71969885 1.36379553,6.7417188 C3.50520967,5.56367551 5.42256504,4.64264408 5.34440159,4.575476 Z M9.90618916,2.0477109 C9.18023875,2.00087634 7.14289562,1.8446166 5.53163147,1.75393488 C5.53163147,1.75393488 5.94365473,1.94257406 6.3244322,2.1579552 C8.25976125,2.27065688 10.0616345,2.17404856 9.90618916,2.0477109 Z M3.12928069,7.05732204 C2.36919498,7.63220177 1.27162534,8.76586787 0.00479951025,10.2329652 C0.00479951025,10.2329652 0.15030303,10.1784212 0.256186103,10.1735547 C2.01745944,8.2336789 3.18643404,7.07298174 3.12928069,7.05732204 Z M17.8295439,3.38158027 C17.8295439,3.38158027 15.2881543,1.55546621 13.7506459,0.518842085 C13.7506459,0.518842085 13.8759229,0.743089027 13.9776921,1.08779522 C15.4109826,2.06669528 17.8295439,3.38158027 17.8295439,3.38158027 Z M2.35078053,10.0007679 C1.86000612,10.5859108 1.20262014,11.8960738 0.5765779,13.3722296 C0.5765779,13.3722296 0.585246403,13.3668812 0.60077135,13.3575336 C1.51042547,11.405371 2.3757086,9.99753962 2.35078053,10.0007679 Z M14.2126232,1.93997214 C13.6526967,1.62470619 11.9822222,0.636506682 11.0029752,0.00872124976 C11.0029752,0.00872124976 11.1928987,0.353282891 11.3251791,0.654575569 C12.5508662,1.41380614 14.251558,2.08047581 14.2126232,1.93997214 Z M8.77443526,1.14913307 C8.30192837,0.846153962 7.77339455,0.568664032 7.77339455,0.568664032 C9.44646465,0.925127047 11.0580716,1.24159759 11.5666238,1.3320384 C11.6242179,1.48063693 10.3919682,1.47875776 8.77443526,1.14913307 Z"/>
    <polyline fill="#5C007B" fill-rule="nonzero" points="11.253 2.019 12.919 3.064 13.999 2.977 11.253 2.019"/>
    <path fill="#9E66BF" fill-rule="nonzero" d="M13.9994858,2.97702993 L11.2534803,2.01928251 L12.5288277,2.62673442 C12.9857117,2.8443802 13.4845179,2.96373123 13.9919927,2.97683719 L13.9994858,2.97702993"/>
    <polyline fill="#5C007B" fill-rule="nonzero" points="8.34 3.54 10.977 4.201 12.128 3.827 8.34 3.54"/>
    <polyline fill="#5C007B" fill-rule="nonzero" points="9.31 4.835 8.408 5.426 5.907 5.193 9.31 4.835"/>
    <polyline fill="#5C007B" fill-rule="nonzero" points="13.043 5.812 12.128 6.313 9.64 6.17 13.043 5.812"/>
    <polyline fill="#5C007B" fill-rule="nonzero" points="9.607 6.869 8.969 7.895 5.776 8.659 9.607 6.869"/>
    <path fill="#9E66BF" fill-rule="nonzero" d="M5.77625957,8.65918916 L9.60685644,6.86911651 L9.114221,7.25246603 C8.82223447,7.47965217 8.49596572,7.66053379 8.14716866,7.78860606 L5.77625957,8.65918916"/>
    <polyline fill="#5C007B" fill-rule="nonzero" points="3.146 8.565 5.618 7.501 6.18 6.436 3.146 8.565"/>
    <path fill="#9E66BF" fill-rule="nonzero" d="M3.14632384,8.56532731 L6.18029997,6.43608959 L6.17187634,6.44856917 C5.85819406,6.91532468 5.43578818,7.30166158 4.93972452,7.57544137 L3.14632384,8.56532731"/>
    <polyline fill="#5C007B" fill-rule="nonzero" points="4.266 8.777 4.169 9.842 2.749 11.584 4.266 8.777"/>
    <path fill="#9E66BF" fill-rule="nonzero" d="M2.74943373,11.5839398 L4.26612795,8.77733559 C4.18375268,9.26548466 3.99755127,9.73103557 3.71966942,10.1435362 L2.74943373,11.5839398"/>
  </g>
</svg>
