<svg xmlns="http://www.w3.org/2000/svg" xmlns:xlink="http://www.w3.org/1999/xlink" width="28" height="27" viewBox="0 0 28 27">
  <defs>
    <path id="approval-icon-b" d="M4.79691423,22.4767189 L6.01734659,22.2329899 L5.35653709,13.1532131 L1.21183275,12.4540278 L1.36596892,23.161903 L3.84898326,22.6660274 L3.37326737,18.3490345 C3.34414089,18.0847195 3.53479879,17.8468383 3.7991137,17.8177118 C4.06342861,17.7885853 4.30130985,17.9792432 4.33043633,18.2435581 L4.79691423,22.4767189 Z M5.94093698,12.3309831 C6.48078834,11.0994496 8.02719978,9.85696176 9.94768799,8.99502772 C11.2926943,8.39137565 11.7351485,4.92368555 11.4013944,1.92875865 C11.2584218,0.645799908 12.6733716,0.32032652 14.0730082,0.895891907 C15.5023773,1.48368401 16.5292263,2.77704246 16.5575633,4.42269113 C16.5918057,6.41128502 16.5944131,8.39619368 16.565385,10.3774152 C20.0419781,10.3774152 20.1265103,10.3774152 22.0939349,10.3774152 C23.8541296,10.3774152 25.2921648,12.3936344 25.2921648,14.3128661 C25.2921648,15.1275573 24.9417176,16.0001991 24.4094941,16.7118905 C24.8179352,17.4011049 24.940656,18.5572064 24.6660785,19.5464374 C24.4225398,20.423844 23.9075875,21.1124946 23.1427758,21.5277141 C23.4032226,23.1438016 22.1425052,25.4238362 20.2374818,25.4238362 L16.7001383,25.4238362 C15.608465,25.4238362 14.7920992,24.389592 14.7920992,23.3428605 C14.7920992,22.6700652 15.1701885,21.8987748 15.712921,21.4411494 C15.3254975,21.0607943 15.1066916,20.4866577 15.1234392,19.7591762 C15.1458718,18.7847464 15.5376975,17.9200467 16.1386836,17.4698435 C15.7802879,17.053 15.5946717,16.4822032 15.5946717,15.8168048 C15.5946717,14.5761033 16.455306,13.6705869 17.6939015,13.6705869 C18.3639456,13.6705869 19.5125232,13.7245734 21.1466279,13.83243 C21.4119654,13.8499432 21.6128667,14.079239 21.5953535,14.3445766 C21.5778404,14.6099141 21.3485445,14.8108154 21.083207,14.7933022 C19.4690438,14.6867619 18.3369442,14.6335499 17.6939015,14.6335499 C16.998392,14.6335499 16.5576347,15.0972928 16.5576347,15.8168048 C16.5576347,16.6604456 16.9369422,17.1588896 17.7391372,17.2345914 C18.8730297,17.341595 20.789501,17.341595 22.0531588,17.2341915 C23.079059,17.1469959 24.3292019,15.5809853 24.3292019,14.3128661 C24.3292019,12.8691313 23.2388438,11.3403782 22.0939349,11.3403782 L15.5862754,11.3403782 L15.5947437,10.8505736 C15.6316173,8.7178022 15.6316173,6.58070192 15.5947431,4.43927032 C15.5735418,3.20802567 14.8027544,2.23718734 13.7067714,1.78649184 C12.8651334,1.44038937 12.3296219,1.56357024 12.3584331,1.82210646 C12.7431403,5.27425956 12.2665076,9.00982016 10.3419843,9.8735652 C8.24971774,10.812595 6.68321264,12.2596956 6.69771269,13.2548658 C6.70273303,13.5994227 6.72832413,14.0260721 6.77935847,14.6638373 C6.79729872,14.8880329 6.90803483,16.1938401 6.9416108,16.6155101 C7.04572212,17.9230113 7.11515145,19.0662996 7.15500435,20.2878471 C7.23636505,22.7816673 8.57282161,23.729404 12.6167868,23.729404 C12.8827016,23.729404 13.0982682,23.9449706 13.0982682,24.2108855 C13.0982682,24.4768004 12.8827016,24.692367 12.6167868,24.692367 C9.56602457,24.692367 7.74935755,24.1607424 6.86171333,22.8197944 C6.75219317,22.9823701 6.58103435,23.1023956 6.37604216,23.143334 L1.3229649,24.1524693 C0.907868529,24.235367 0.504164579,23.9660667 0.421266894,23.5509704 C0.412118455,23.5051611 0.40717721,23.4586113 0.40650485,23.4119023 L0.245574558,12.2320381 C0.239482031,11.8087888 0.577654353,11.4607386 1.00090358,11.4546461 C1.04730379,11.4539781 1.09366879,11.4575256 1.13942729,11.4652448 L5.66883638,12.2293273 C5.76753734,12.2459776 5.85939208,12.2811319 5.94093698,12.3309831 Z M22.2130309,21.8675578 C21.9411059,21.9268712 21.6490639,21.9609062 21.3374213,21.967634 C19.3900236,22.0096744 18.5099365,22.0096744 17.7908136,21.9841877 C17.6648433,21.9795772 17.6648433,21.9795772 17.5498879,21.9754712 C17.393434,21.9701543 17.2692587,21.9677461 17.11491,21.9677461 C17.0418359,21.9677461 16.9701942,21.9647104 16.9000862,21.9587002 C16.8391868,21.9865377 16.7714742,22.0020513 16.7001383,22.0020513 C16.3054759,22.0020513 15.7550622,22.7819466 15.7550622,23.3428605 C15.7550622,23.9010799 16.1969271,24.4608733 16.7001383,24.4608733 L20.2374818,24.4608733 C21.3900333,24.4608733 22.2690412,22.9443717 22.2130309,21.8675578 Z M17.1557122,18.1027911 C17.1392642,18.1041698 17.1225872,18.1047189 17.1057243,18.1043972 C16.6084431,18.0949083 16.1085114,18.8098767 16.086147,19.781339 C16.0668525,20.6194551 16.4465841,21.0047832 17.11491,21.0047832 C17.2810311,21.0047832 17.4158864,21.0073984 17.582594,21.0130638 C17.7010617,21.0172945 17.7010617,21.0172945 17.8249209,21.021829 C18.5230992,21.0465734 19.3860271,21.0465734 21.3166377,21.0048953 C22.6664524,20.9757555 23.4472651,20.3370362 23.738196,19.2888882 C23.9124669,18.6610355 23.8689981,17.9358672 23.7048298,17.4658151 C23.2220316,17.8751193 22.6755579,18.1477261 22.1347111,18.1936949 C20.8152145,18.3058445 18.8413263,18.3058445 17.6486659,18.193295 C17.4736547,18.1767795 17.3092639,18.1462744 17.1557122,18.1027911 Z M9.88750459,2.42903595 C10.1177214,2.5621185 10.1964642,2.85663078 10.0633817,3.08684754 C9.93029911,3.31706431 9.63578682,3.39580715 9.40557006,3.26272461 L6.98125496,1.86128877 C6.75103819,1.72820623 6.67229535,1.43369395 6.80537789,1.20347718 C6.93846044,0.973260414 7.23297272,0.89451757 7.46318949,1.02760012 L9.88750459,2.42903595 Z M17.9966357,2.70093017 C17.7515458,2.80408849 17.4692348,2.68903016 17.3660765,2.44394021 C17.2629182,2.19885026 17.3779765,1.91653925 17.6230664,1.81338094 L19.5539561,1.00066983 C19.799046,0.897511512 20.081357,1.01256984 20.1845154,1.25765979 C20.2876737,1.50274974 20.1726153,1.78506074 19.9275254,1.88821906 L17.9966357,2.70093017 Z M18.20187,6.24990921 C17.941119,6.19775902 17.7720147,5.94410248 17.8241649,5.68335149 C17.8763151,5.4226005 18.1299716,5.25349614 18.3907226,5.30564634 L20.79813,5.78712782 C21.058881,5.83927802 21.2279853,6.09293455 21.1758351,6.35368555 C21.1236849,6.61443654 20.8700284,6.78354089 20.6092774,6.7313907 L18.20187,6.24990921 Z M9.29700394,4.91405866 C9.54402363,4.81561074 9.82408047,4.93605196 9.92252839,5.18307165 C10.0209763,5.43009135 9.9005351,5.71014819 9.6535154,5.80859611 L7.40047796,6.70652798 C7.15345826,6.80497591 6.87340142,6.68453469 6.7749535,6.43751499 C6.67650558,6.1904953 6.79694679,5.91043846 7.04396649,5.81199054 L9.29700394,4.91405866 Z"/>
    <filter id="approval-icon-a" width="116%" height="116.1%" x="-8%" y="-4%" filterUnits="objectBoundingBox">
      <feOffset dy="1" in="SourceAlpha" result="shadowOffsetOuter1"/>
      <feGaussianBlur in="shadowOffsetOuter1" result="shadowBlurOuter1" stdDeviation=".5"/>
      <feColorMatrix in="shadowBlurOuter1" values="0 0 0 0 0   0 0 0 0 0   0 0 0 0 0  0 0 0 0.1 0"/>
    </filter>
    <polygon id="approval-icon-d" points="1.212 12.454 1.366 23.162 6.017 22.233 5.357 13.153"/>
    <filter id="approval-icon-c" width="141.6%" height="118.7%" x="-20.8%" y="-9.3%" filterUnits="objectBoundingBox">
      <feOffset dy="1" in="SourceAlpha" result="shadowOffsetOuter1"/>
      <feGaussianBlur in="shadowOffsetOuter1" result="shadowBlurOuter1" stdDeviation=".5"/>
      <feColorMatrix in="shadowBlurOuter1" values="0 0 0 0 0   0 0 0 0 0   0 0 0 0 0  0 0 0 0.1 0"/>
    </filter>
  </defs>
  <g fill="none" fill-rule="evenodd" transform="rotate(-5 13.5 1.548)">
    <g fill-rule="nonzero">
      <use fill="#000" filter="url(#approval-icon-a)" xlink:href="#approval-icon-b"/>
      <use fill="#FFF" fill-rule="evenodd" xlink:href="#approval-icon-b"/>
    </g>
    <g opacity="0">
      <use fill="#000" filter="url(#approval-icon-c)" xlink:href="#approval-icon-d"/>
      <use fill="#FFF" xlink:href="#approval-icon-d"/>
    </g>
    <ellipse cx="3.568" cy="16.852" fill="#FFF" rx="1" ry="1"/>
  </g>
</svg>
