<svg xmlns="http://www.w3.org/2000/svg" width="60" height="52" viewBox="0 0 60 52">
  <g fill="none" fill-rule="evenodd" stroke-linecap="round" stroke-linejoin="round" transform="translate(1 1)">
    <g stroke="#222" opacity=".08">
      <path d="M0,11 L13.5,11"/>
      <path d="M12.5,0 L27,0"/>
      <path d="M41,20.5 L58,20.5"/>
      <path d="M5.5,36 L17,36"/>
      <path d="M49.5,30.5 L38.5,30.5"/>
      <path d="M0.5,50.5 L12,50.5"/>
      <path d="M24,46 L10.5,46"/>
      <path d="M42,44 L48.5,44"/>
    </g>
    <path fill="#FFF" fill-rule="nonzero" stroke="#333" stroke-width="2" d="M27,6 C17.0588745,6 9,14.0588745 9,24 C9,33.9411255 17.0588745,42 27,42 C36.9411255,42 45,33.9411255 45,24 C45,14.0588745 36.9411255,6 27,6 Z M27,32 C22.581722,32 19,28.418278 19,24 C19,19.581722 22.581722,16 27,16 C31.418278,16 35,19.581722 35,24 C35,26.1217319 34.1571453,28.1565632 32.6568542,29.6568542 C31.1565632,31.1571453 29.1217319,32 27,32 Z"/>
    <path fill="#9E66BF" fill-rule="nonzero" stroke="#333" stroke-width="2" d="M19.28,26.065 L11.78,33.565 C13.2133166,35.8522059 15.1404301,37.7895699 17.42,39.235 L24.92,31.735 C22.1624081,30.9877061 20.0126544,28.8265175 19.28,26.065 Z"/>
    <path fill="#9E66BF" fill-rule="nonzero" stroke="#333" stroke-width="2" d="M36.58,8.765 L29.08,16.265 C31.8375919,17.0122939 33.9873456,19.1734825 34.72,21.935 L42.22,14.435 C40.7866834,12.1477941 38.8595699,10.2104301 36.58,8.765 L36.58,8.765 Z"/>
    <path fill="#9E66BF" fill-rule="nonzero" stroke="#333" stroke-width="2" d="M19.28,21.935 C20.0199794,19.1754483 22.1754483,17.0199794 24.935,16.28 L17.435,8.78 C15.1477941,10.2133166 13.2104301,12.1404301 11.765,14.42 L19.28,21.935 Z"/>
    <path fill="#9E66BF" fill-rule="nonzero" stroke="#333" stroke-width="2" d="M34.72,26.065 C33.9800206,28.8245517 31.8245517,30.9800206 29.065,31.72 L36.565,39.22 C38.8522059,37.7866834 40.7895699,35.8595699 42.235,33.58 L34.72,26.065 Z"/>
  </g>
</svg>
