<?xml version="1.0" encoding="UTF-8"?>
<svg width="10px" height="14px" viewBox="0 0 10 14" version="1.1" xmlns="http://www.w3.org/2000/svg" xmlns:xlink="http://www.w3.org/1999/xlink">
    <!-- Generator: Sketch 45.1 (43504) - http://www.bohemiancoding.com/sketch -->
    <title>git-branch</title>
    <desc>Created with Sketch.</desc>
    <defs></defs>
    <g id="Page-1" stroke="none" stroke-width="1" fill="none" fill-rule="evenodd">
        <g id="git-branch" fill-rule="nonzero" fill="#000000">
            <path d="M10,4 C10,2.89 9.11,2 8,2 C7.09660216,1.99761305 6.3045861,2.60317938 6.07006224,3.47560813 C5.83553838,4.34803688 6.21717019,5.26909995 7,5.72 L7,6.02 C6.98,6.54 6.77,7 6.37,7.4 C5.97,7.8 5.51,8.01 4.99,8.03 C4.16,8.05 3.51,8.19 2.99,8.48 L2.99,3.72 C3.77282981,3.26909995 4.15446162,2.34803688 3.91993776,1.47560813 C3.6854139,0.603179379 2.89339784,-0.00238695453 1.99,0 C0.88,4.4408921e-16 0,0.89 0,2 C0.00428692251,2.71022212 0.384910928,3.36489541 1,3.72 L1,10.28 C0.41,10.63 -1.11022302e-16,11.27 -1.11022302e-16,12 C-1.11022302e-16,13.11 0.89,14 2,14 C3.11,14 4,13.11 4,12 C4,11.47 3.8,11 3.47,10.64 C3.56,10.58 3.95,10.23 4.06,10.17 C4.31,10.06 4.62,10 5,10 C6.05,9.95 6.95,9.55 7.75,8.75 C8.55,7.95 8.95,6.77 9,5.73 L8.98,5.73 C9.59,5.37 10,4.73 10,4 Z M2,0.8 C2.66,0.8 3.2,1.35 3.2,2 C3.2,2.65 2.65,3.2 2,3.2 C1.35,3.2 0.8,2.65 0.8,2 C0.8,1.35 1.35,0.8 2,0.8 Z M2,13.21 C1.34,13.21 0.8,12.66 0.8,12.01 C0.8,11.36 1.35,10.81 2,10.81 C2.65,10.81 3.2,11.36 3.2,12.01 C3.2,12.66 2.65,13.21 2,13.21 Z M8,5.21 C7.34,5.21 6.8,4.66 6.8,4.01 C6.8,3.36 7.35,2.81 8,2.81 C8.65,2.81 9.2,3.36 9.2,4.01 C9.2,4.66 8.65,5.21 8,5.21 L8,5.21 Z" id="Shape"></path>
        </g>
    </g>
</svg>