<svg xmlns="http://www.w3.org/2000/svg" width="26" height="25" viewBox="0 0 26 25">
  <g fill="none" fill-rule="evenodd">
    <rect width="26" height="25" fill="#EBF5FE" rx="12"/>
    <path fill="#1D8DDB" stroke="#EBF5FE" stroke-width=".875" d="M13.4207279,5 C14.400318,5 15.1796881,5.83564 15.1796881,6.85495782 C15.1796881,7.87323082 14.3757931,8.70991563 13.4207279,8.70991563 C12.4411378,8.70991563 11.6362376,7.87427563 11.6362376,6.82946442 C11.6617576,5.80915404 12.4401327,5.00002612 13.4207279,5.00002612 L13.4207279,5 Z M10.5810123,16.8847275 C10.6565923,16.2317205 10.7567123,15.5521753 10.8823473,14.8991683 C11.0580473,13.7502939 11.2592673,12.6003746 11.4604924,11.4515525 C11.4604924,11.3729879 11.4860124,11.2944233 11.4860124,11.2423865 C11.4860124,10.7720125 11.3348524,10.5893795 10.8833424,10.5373479 C10.6821223,10.5108201 10.4808923,10.4853111 10.3051973,10.4332743 C10.0794372,10.3547097 9.97833219,10.1720715 10.0038622,9.96290025 C10.0293923,9.75372904 10.1550223,9.62312764 10.4063123,9.59763425 C10.5319524,9.57110649 10.6831224,9.57110649 10.8087624,9.57110649 L12.4420826,9.57110649 L14.1755128,9.57110649 C14.5779629,9.57110649 14.829243,9.78027247 14.8537679,10.1975753 C14.8537679,10.5628413 14.8037079,10.9291521 14.7536479,11.2689247 C14.5278878,12.5749387 14.3011428,13.9075954 14.0498628,15.2136094 C13.9742827,15.6574452 13.8987027,16.0757876 13.8486427,16.5196234 C13.8231227,16.7287894 13.8486427,16.9634592 13.8987027,17.1460922 C13.9742827,17.4338332 14.1755128,17.5644346 14.4267929,17.5378964 C14.6525529,17.5113687 14.8792979,17.4338228 15.080523,17.3552582 C15.256223,17.2766936 15.4073881,17.17262 15.583083,17.0940554 C15.8343631,16.9899818 16.0601131,17.17262 15.9855331,17.4593214 C15.9354731,17.6164506 15.8598931,17.7725558 15.7342531,17.9031572 C15.080523,18.5827024 14.3266829,18.9745066 13.3971478,19 C12.9701728,19 12.5431977,19 12.1152176,18.9214354 C11.3603975,18.765325 10.4553873,17.8511047 10.5810273,16.8848633 L10.5810123,16.8847275 Z"/>
  </g>
</svg>
