<svg xmlns="http://www.w3.org/2000/svg" width="57" height="53" viewBox="0 0 57 53">
  <g fill="none" fill-rule="evenodd" stroke-linecap="round" stroke-linejoin="round" transform="translate(1 1)">
    <g stroke="#222" opacity=".08">
      <path d="M10.0917431,0 L38.853211,0"/>
      <path d="M0,15.1456311 L18.6697248,15.1456311"/>
      <path d="M55,5.55339806 L43.3944954,5.55339806"/>
      <path d="M50.9633028,19.6893204 L32.7981651,19.6893204"/>
      <path d="M7.56880734,38.8737864 L23.7155963,38.8737864"/>
      <path d="M0.504587156,46.4466019 L12.1100917,46.4466019"/>
      <path d="M18.1651376,51.4951456 L39.8623853,51.4951456"/>
      <path d="M36.3302752,45.9417476 L50.9633028,45.9417476"/>
    </g>
    <path fill="#9E66BF" fill-rule="nonzero" stroke="#333" stroke-width="2" d="M23.2101527,9.97030642 L25.1275839,9.97030642 C25.6849355,9.97030642 26.1367582,10.4223684 26.1367582,10.9800152 L26.1367582,16.85652 L22.2009784,16.85652 L22.2009784,10.9800152 C22.2009784,10.4223684 22.6528011,9.97030642 23.2101527,9.97030642 Z" transform="rotate(45 24.169 13.413)"/>
    <path fill="#9E66BF" fill-rule="nonzero" stroke="#333" stroke-width="2" d="M36.1011117,23.8772883 L40.0368915,23.8772883 L40.0368915,29.7537932 C40.0368915,30.3114399 39.5850688,30.7635019 39.0277172,30.7635019 L37.110286,30.7635019 C36.5529344,30.7635019 36.1011117,30.3114399 36.1011117,29.7537932 L36.1011117,23.8772883 Z" transform="rotate(-135 38.069 27.32)"/>
    <polygon fill="#9E66BF" fill-rule="nonzero" stroke="#333" stroke-width="2" points="23.115 28.368 11.989 25.581 10.596 26.974 18.594 32.891 24.508 40.893 25.9 39.5"/>
    <polygon fill="#FFF" fill-rule="nonzero" stroke="#333" stroke-width="2" points="34.246 17.231 14.769 11.667 12.68 13.752 27.984 23.496 37.723 38.803 39.807 36.718"/>
    <path fill="#FFF" fill-rule="nonzero" stroke="#333" stroke-width="2" d="M41.8807339,9.59223301 C40.8715596,8.58252427 37.7431193,6.84582524 31.8293578,13.4543689 C25.9155963,20.0629126 20.6880734,26.1009709 17.9229358,29.4330097 C15.4,32.4873786 16.5100917,34.2796117 16.8582569,34.6279612 C17.206422,34.9763107 18.9977064,36.0920388 22.0504587,33.5627184 C25.3807339,30.7961165 31.4307339,25.5557282 38.0357798,19.6337864 C44.6408257,13.7118447 42.9302752,10.6019417 41.8807339,9.59223301 Z"/>
  </g>
</svg>
