<svg xmlns="http://www.w3.org/2000/svg" width="17" height="5" viewBox="0 0 17 5">
  <path fill="#3F3A40" fill-rule="evenodd" d="M11.2325375,8.87518049 L17,8.87518049 L17,10.1248195 L11.2325375,10.1248195 C10.9171875,11.2008543 9.818095,12 8.5,12 C7.181905,12 6.08372625,11.2008543 5.7674625,10.1248195 L0,10.1248195 L0,8.87518049 L5.7674625,8.87518049 C6.0828125,7.79841435 7.181905,7 8.5,7 C9.818095,7 10.9162738,7.79841435 11.2325375,8.87518049 Z M8.5,10.750361 C9.282765,10.750361 9.91695,10.1907321 9.91695,9.49999062 C9.91695,8.80924914 9.282765,8.24962028 8.5,8.24962028 C7.717235,8.24962028 7.08305,8.80924914 7.08305,9.49999062 C7.08305,10.1907321 7.717235,10.750361 8.5,10.750361 Z" transform="translate(0 -7)"/>
</svg>
