<svg width="23" height="26" viewBox="0 0 23 26">
  <g fill="none" fill-rule="evenodd">
    <path fill="#1D8DDB" fill-opacity=".104" d="M13.8085593,24.4714932 L3.15372306,24.4714932 C2.41808653,24.4714932 1.82186854,23.882373 1.82186854,23.1554941 L1.82186854,7.36350472 C1.82186854,6.63662577 2.41808653,6.0475056 3.15372306,6.0475056 L13.8085593,6.0475056 C14.1612876,6.0475056 14.500511,6.1863014 14.7502337,6.4330407 C14.9999564,6.67978001 15.1404138,7.01494919 15.1404138,7.36350472 L15.1404138,23.1554941 C15.1404138,23.5040233 14.9999458,23.8392083 14.7502337,24.0859581 C14.5005216,24.3327079 14.1613143,24.4714932 13.8085593,24.4714932 Z" transform="rotate(-5 8.481 15.26)"/>
    <path fill="#1D8DDB" d="M16.1928267,7.7500075 C16.1928267,7.0869325 15.9259749,6.4511825 15.4515773,5.9824325 C14.9771798,5.5136825 14.3337701,5.2500075 13.6627063,5.2500075 L3.54222434,5.2500075 C2.14473835,5.2500075 1.01210461,6.3691575 1.01210461,7.7500075 L1.01210461,22.7500075 C1.01210461,23.4130825 1.27895642,24.0488325 1.75335401,24.5175825 C2.22775135,24.9863325 2.87116048,25.2500075 3.54222434,25.2500075 L13.6627063,25.2500075 C14.3337701,25.2500075 14.9771798,24.9863325 15.4515773,24.5175825 C15.9259749,24.0488325 16.1928267,23.4130825 16.1928267,22.7500075 L16.1928267,7.7500075 Z M13.6626506,24 L3.54216867,24 C2.8434253,24 2.27710843,23.440425 2.27710843,22.75 L2.27710843,7.75 C2.27710843,7.059575 2.8434253,6.5 3.54216867,6.5 L13.6626506,6.5 C13.9976892,6.5 14.3199,6.631835 14.5570988,6.8662 C14.7942976,7.100565 14.9277108,7.418925 14.9277108,7.75 L14.9277108,22.75 C14.9277108,23.08105 14.7942875,23.399425 14.5570988,23.6338 C14.3199101,23.868175 13.9977145,24 13.6626506,24 Z" transform="rotate(-5 8.602 15.25)"/>
    <path fill="#D4200F" fill-opacity=".101" d="M20.0618124,20.2228317 L8.75520989,20.2228317 C7.97457379,20.2228317 7.34188458,19.6198222 7.34188458,18.875806 L7.34188458,2.71149798 C7.34188458,1.96748182 7.97457379,1.36447231 8.75520989,1.36447231 L20.0618124,1.36447231 C20.4361175,1.36447231 20.7960915,1.50654041 21.06109,1.75909695 C21.3260885,2.01165348 21.4751377,2.35472476 21.4751377,2.71149798 L21.4751377,18.875806 C21.4751377,19.2325523 21.3260771,19.5756397 21.06109,19.8282071 C20.7961028,20.0807744 20.4361458,20.2228317 20.0618124,20.2228317 Z" transform="rotate(5 14.409 10.794)"/>
    <path fill="#D4200F" d="M7.43975904,3.06825 L7.43976663,3.0682575 C7.60776663,3.0682575 7.76887205,3.134675 7.88747145,3.25185 C8.00607084,3.369025 8.07228916,3.52821 8.07228916,3.69325 L8.07228916,6.19325 C8.07228916,6.53895 7.78863735,6.81825 7.43975904,6.81825 C7.09088072,6.81825 6.80722892,6.53895 6.80722892,6.19325 L6.80722892,3.69325 C6.80722892,3.348525 7.09088072,3.06825 7.43975904,3.06825 Z M7.43975904,8.06825 L7.43976663,8.0682575 C7.60776663,8.0682575 7.76887205,8.134675 7.88747145,8.25185 C8.00607084,8.369025 8.07228916,8.52821 8.07228916,8.69325 L8.07228916,11.19325 C8.07228916,11.53895 7.78863735,11.81825 7.43975904,11.81825 C7.09088072,11.81825 6.80722892,11.53895 6.80722892,11.19325 L6.80722892,8.69325 C6.80722892,8.348525 7.09088072,8.06825 7.43975904,8.06825 Z M18.5535663,2 L18.5535612,2.000025 C18.2036961,2.000025 17.9210311,1.71975 17.9210311,1.375025 C17.9210311,1.0303 18.2036961,0.750025 18.5535612,0.750025 L19.4578769,0.750025 C20.1862733,0.753925 20.8781094,1.068375 21.3554672,1.612325 C21.5333651,1.87305 21.4879013,2.22462 21.2487265,2.43165 C21.0095542,2.6396575 20.6517724,2.6396575 20.4125976,2.43165 C20.1724386,2.1572275 19.824547,2 19.4578819,2 L18.5535663,2 Z M10.9632048,0.75 L10.9632048,0.749995 C11.3120831,0.749995 11.5957349,1.03027 11.5957349,1.374995 C11.5957349,1.71972 11.3120831,1.999995 10.9632048,1.999995 L9.3374,1.999995 C9.13678675,2.0019475 8.93911349,2.0517525 8.76220241,2.14355 C8.45087108,2.302725 8.0683953,2.182625 7.90828675,1.875 C7.74719398,1.567375 7.86874096,1.19043 8.18007229,1.03125 C8.53783133,0.847655 8.9341494,0.7509775 9.3374,0.75 L10.9632048,0.75 Z M9.3373494,19.5 L9.33733928,19.500015 C9.68621759,19.500015 9.9698694,19.78029 9.9698694,20.125015 C9.9698694,20.46974 9.68621759,20.750015 9.33733928,20.750015 C8.17110554,20.7480651 7.15708386,19.95804 6.88332482,18.837915 C6.83193048,18.672865 6.85070904,18.494155 6.93768193,18.343765 C7.02365542,18.194355 7.16894253,18.085955 7.33893373,18.04494 C7.50792048,18.0049 7.68681771,18.0351725 7.83309157,18.1299 C7.97937554,18.22365 8.08018566,18.3740275 8.10983614,18.54395 C8.24722169,19.103525 8.75423253,19.4990235 9.3373494,19.5 Z M14.3975904,19.5 C14.7464687,19.5 15.0301205,19.780275 15.0301205,20.125 C15.0301205,20.469725 14.7464687,20.75 14.3975904,20.75 L11.8674699,20.75 C11.5185916,20.75 11.2349398,20.469725 11.2349398,20.125 C11.2349398,19.780275 11.5185916,19.5 11.8674699,19.5 L14.3975904,19.5 Z M16.0421687,0.75 C16.391047,0.75 16.6746988,1.030275 16.6746988,1.375 C16.6746988,1.719725 16.391047,2 16.0421687,2 L13.5120482,2 C13.1631699,2 12.8795181,1.719725 12.8795181,1.375 C12.8795181,1.030275 13.1631699,0.75 13.5120482,0.75 L16.0421687,0.75 Z M21.3554217,8.787 L21.3554293,8.7870075 C21.5234293,8.7870075 21.6845347,8.853425 21.8031341,8.9706 C21.9217335,9.087775 21.9879518,9.24696 21.9879518,9.412 L21.9879518,11.912 C21.9879518,12.2577 21.7043,12.537 21.3554217,12.537 C21.0065434,12.537 20.7228916,12.2577 20.7228916,11.912 L20.7228916,9.412 C20.7228916,9.067275 21.0065434,8.787 21.3554217,8.787 Z M21.3554217,3.787 L21.3554293,3.7870075 C21.5234293,3.7870075 21.6845347,3.853425 21.8031341,3.9706 C21.9217335,4.087775 21.9879518,4.24696 21.9879518,4.412 L21.9879518,6.912 C21.9879518,7.2577 21.7043,7.537 21.3554217,7.537 C21.0065434,7.537 20.7228916,7.2577 20.7228916,6.912 L20.7228916,4.412 C20.7228916,4.067275 21.0065434,3.787 21.3554217,3.787 Z M20.4886024,18.9745008 L20.4885923,18.9745105 C20.6912043,18.6932605 21.0865357,18.6278255 21.3711742,18.8280255 C21.6558128,19.0282255 21.7220311,19.4188505 21.5194241,19.7001005 C21.0450265,20.3592758 20.2761229,20.7499006 19.4577807,20.7499006 L16.9276602,20.7499006 C16.5787819,20.7499006 16.2951301,20.4696258 16.2951301,20.1249008 C16.2951301,19.7801758 16.5787819,19.4999008 16.9276602,19.4999008 L19.4577807,19.4999008 C19.8669518,19.4999008 20.2514036,19.3045758 20.4886024,18.9745008 Z M21.3554217,13.787 L21.3554293,13.7870075 C21.5234293,13.7870075 21.6845347,13.853425 21.8031341,13.9706 C21.9217335,14.087775 21.9879518,14.24696 21.9879518,14.412 L21.9879518,16.912 C21.9879518,17.2577 21.7043,17.537 21.3554217,17.537 C21.0065434,17.537 20.7228916,17.2577 20.7228916,16.912 L20.7228916,14.412 C20.7228916,14.067275 21.0065434,13.787 21.3554217,13.787 Z M7.43975904,13.06825 L7.43976663,13.0682575 C7.60776663,13.0682575 7.76887205,13.134675 7.88747145,13.25185 C8.00607084,13.369025 8.07228916,13.52821 8.07228916,13.69325 L8.07228916,16.19325 C8.07228916,16.53895 7.78863735,16.81825 7.43975904,16.81825 C7.09088072,16.81825 6.80722892,16.53895 6.80722892,16.19325 L6.80722892,13.69325 C6.80722892,13.348525 7.09088072,13.06825 7.43975904,13.06825 Z" transform="rotate(5 14.398 10.75)"/>
  </g>
</svg>
