<svg width="24" height="27" viewBox="0 0 24 27" version="1.1" xmlns="http://www.w3.org/2000/svg" xmlns:xlink="http://www.w3.org/1999/xlink">
<desc>Created using Figma</desc>
<g id="Canvas" transform="translate(-3849 -708)">
<g id="comparison-icon-lg">
<g id="Group">
<g id="Group">
<g id="Vector">
<use xlink:href="#path0_fill" transform="matrix(0.996277 -0.0862057 0.0881161 0.99611 3850 716.552)" fill="#F0EEF1"/>
<use xlink:href="#path1_stroke" transform="matrix(0.996277 -0.0862057 0.0881161 0.99611 3850 716.552)" fill="#E1DFE2"/>
</g>
</g>
<g id="Group">
<g id="Vector">
<use xlink:href="#path2_fill" transform="matrix(0.996277 0.0862057 -0.0881161 0.99611 3857.4 709)" fill="#E74E3E" fill-opacity="0.4"/>
<use xlink:href="#path3_stroke" transform="matrix(0.996277 0.0862057 -0.0881161 0.99611 3857.4 709)" fill="#E74E3E"/>
</g>
</g>
</g>
</g>
</g>
<defs>
<path id="path0_fill" d="M 11.2753 0L 2.08082 0C 0.931617 0 0 0.92154 0 2.05832L 0 15.4577C 0 16.5945 0.931617 17.516 2.08082 17.516L 11.2753 17.516C 12.4245 17.516 13.3561 16.5945 13.3561 15.4577L 13.3561 2.05832C 13.3561 0.92154 12.4245 0 11.2753 0Z"/>
<path id="path1_stroke" d="M 2.08082 0.646934L 11.2753 0.646934L 11.2753 -0.646934L 2.08082 -0.646934L 2.08082 0.646934ZM 11.2753 0.646934C 12.0739 0.646934 12.7092 1.28545 12.7092 2.05832L 14.0031 2.05832C 14.0031 0.557634 12.7752 -0.646934 11.2753 -0.646934L 11.2753 0.646934ZM 12.7092 2.05832L 12.7092 15.4577L 14.0031 15.4577L 14.0031 2.05832L 12.7092 2.05832ZM 12.7092 15.4577C 12.7092 16.2306 12.0739 16.8691 11.2753 16.8691L 11.2753 18.1629C 12.7752 18.1629 14.0031 16.9584 14.0031 15.4577L 12.7092 15.4577ZM 11.2753 16.8691L 2.08082 16.8691L 2.08082 18.1629L 11.2753 18.1629L 11.2753 16.8691ZM 2.08082 16.8691C 1.28226 16.8691 0.646934 16.2306 0.646934 15.4577L -0.646934 15.4577C -0.646934 16.9584 0.580977 18.1629 2.08082 18.1629L 2.08082 16.8691ZM 0.646934 15.4577L 0.646934 2.05832L -0.646934 2.05832L -0.646934 15.4577L 0.646934 15.4577ZM 0.646934 2.05832C 0.646934 1.28545 1.28226 0.646934 2.08082 0.646934L 2.08082 -0.646934C 0.580976 -0.646934 -0.646934 0.557634 -0.646934 2.05832L 0.646934 2.05832Z"/>
<path id="path2_fill" d="M 2.08114 1.82472e-08L 12.5735 1.82472e-08C 13.7228 1.82472e-08 14.6546 0.921681 14.6546 2.05863L 14.6546 16.7441C 14.6546 17.8811 13.7228 18.8027 12.5735 18.8027L 2.08114 18.8027C 0.93176 18.8027 1.61853e-07 17.8811 1.61853e-07 16.7441L 1.61853e-07 2.05863C 1.61853e-07 0.921681 0.93176 1.82472e-08 2.08114 1.82472e-08Z"/>
<path id="path3_stroke" d="M 2.03393 -0.646535C 1.67669 -0.640496 1.39199 -0.345999 1.39803 0.0112422C 1.40407 0.368483 1.69856 0.653188 2.0558 0.647148L 2.03393 -0.646535ZM 2.00555 0.648846C 2.36238 0.630737 2.63697 0.326787 2.61886 -0.0300454C 2.60075 -0.386878 2.2968 -0.661468 1.93997 -0.643359L 2.00555 0.648846ZM 0.299349 0.00980517C 0.0279122 0.24214 -0.00378605 0.650528 0.228549 0.921965C 0.460884 1.1934 0.869272 1.2251 1.14071 0.992765L 0.299349 0.00980517ZM 0.647152 2.03366C 0.653392 1.67642 0.368852 1.38176 0.0116149 1.37552C -0.345622 1.36928 -0.640279 1.65382 -0.646519 2.01106L 0.647152 2.03366ZM -0.646934 2.11304C -0.646934 2.47033 -0.357292 2.75997 1.61853e-07 2.75997C 0.357292 2.75997 0.646934 2.47033 0.646934 2.11304L -0.646934 2.11304ZM 0.646934 2.22184C 0.646934 1.86455 0.357292 1.57491 1.61853e-07 1.57491C -0.357292 1.57491 -0.646934 1.86455 -0.646934 2.22184L 0.646934 2.22184ZM -0.646934 4.2886C -0.646934 4.64589 -0.357292 4.93553 1.61853e-07 4.93553C 0.357292 4.93553 0.646934 4.64589 0.646934 4.2886L -0.646934 4.2886ZM 0.646934 6.89939C 0.646934 6.54209 0.357292 6.25245 1.61853e-07 6.25245C -0.357292 6.25245 -0.646934 6.54209 -0.646934 6.89939L 0.646934 6.89939ZM -0.646934 7.00819C -0.646934 7.36549 -0.357292 7.65513 1.61853e-07 7.65513C 0.357292 7.65513 0.646934 7.36549 0.646934 7.00819L -0.646934 7.00819ZM 0.646934 7.117C 0.646934 6.75971 0.357292 6.47007 1.61853e-07 6.47007C -0.357292 6.47007 -0.646934 6.75971 -0.646934 7.117L 0.646934 7.117ZM -0.646934 9.18375C -0.646934 9.54104 -0.357292 9.83069 1.61853e-07 9.83069C 0.357292 9.83069 0.646934 9.54104 0.646934 9.18375L -0.646934 9.18375ZM 0.646934 11.7945C 0.646934 11.4373 0.357292 11.1476 1.61853e-07 11.1476C -0.357292 11.1476 -0.646934 11.4373 -0.646934 11.7945L 0.646934 11.7945ZM -0.646934 11.9034C -0.646934 12.2606 -0.357292 12.5503 1.61853e-07 12.5503C 0.357292 12.5503 0.646934 12.2606 0.646934 11.9034L -0.646934 11.9034ZM 0.646934 12.0122C 0.646934 11.6549 0.357292 11.3652 1.61853e-07 11.3652C -0.357292 11.3652 -0.646934 11.6549 -0.646934 12.0122L 0.646934 12.0122ZM -0.646934 14.0789C -0.646934 14.4362 -0.357292 14.7258 1.61853e-07 14.7258C 0.357292 14.7258 0.646934 14.4362 0.646934 14.0789L -0.646934 14.0789ZM 0.646934 16.6897C 0.646934 16.3324 0.357292 16.0428 1.61853e-07 16.0428C -0.357292 16.0428 -0.646934 16.3324 -0.646934 16.6897L 0.646934 16.6897ZM -0.646519 16.7917C -0.640279 17.1489 -0.345622 17.4335 0.0116149 17.4272C 0.368852 17.421 0.653392 17.1263 0.647152 16.7691L -0.646519 16.7917ZM 0.648881 16.8186C 0.630172 16.4618 0.325759 16.1877 -0.0310422 16.2064C -0.387844 16.2252 -0.661921 16.5296 -0.643211 16.8864L 0.648881 16.8186ZM 0.0294772 18.5274C 0.266157 18.7951 0.675002 18.8202 0.942659 18.5835C 1.21032 18.3468 1.23543 17.938 0.998749 17.6703L 0.0294772 18.5274ZM 2.0558 18.1556C 1.69856 18.1495 1.40407 18.4343 1.39803 18.7915C 1.39199 19.1487 1.67669 19.4432 2.03393 19.4493L 2.0558 18.1556ZM 2.13945 19.4497C 2.49674 19.4497 2.78638 19.16 2.78638 18.8027C 2.78638 18.4454 2.49674 18.1558 2.13945 18.1558L 2.13945 19.4497ZM 2.25606 18.1558C 1.89877 18.1558 1.60912 18.4454 1.60912 18.8027C 1.60912 19.16 1.89877 19.4497 2.25606 19.4497L 2.25606 18.1558ZM 4.471 19.4497C 4.82829 19.4497 5.11794 19.16 5.11794 18.8027C 5.11794 18.4454 4.82829 18.1558 4.471 18.1558L 4.471 19.4497ZM 7.269 18.1558C 6.9117 18.1558 6.62206 18.4454 6.62206 18.8027C 6.62206 19.16 6.9117 19.4497 7.269 19.4497L 7.269 18.1558ZM 7.38561 19.4497C 7.7429 19.4497 8.03254 19.16 8.03254 18.8027C 8.03254 18.4454 7.7429 18.1558 7.38561 18.1558L 7.38561 19.4497ZM 7.50222 18.1558C 7.14492 18.1558 6.85528 18.4454 6.85528 18.8027C 6.85528 19.16 7.14492 19.4497 7.50222 19.4497L 7.50222 18.1558ZM 9.71716 19.4497C 10.0745 19.4497 10.3641 19.16 10.3641 18.8027C 10.3641 18.4454 10.0745 18.1558 9.71716 18.1558L 9.71716 19.4497ZM 12.5152 18.1558C 12.1579 18.1558 11.8682 18.4454 11.8682 18.8027C 11.8682 19.16 12.1579 19.4497 12.5152 19.4497L 12.5152 18.1558ZM 12.6207 19.4493C 12.9779 19.4432 13.2626 19.1487 13.2566 18.7915C 13.2505 18.4343 12.956 18.1495 12.5988 18.1556L 12.6207 19.4493ZM 12.6491 18.1539C 12.2922 18.172 12.0176 18.476 12.0357 18.8328C 12.0538 19.1896 12.3578 19.4642 12.7146 19.4461L 12.6491 18.1539ZM 14.3553 18.7929C 14.6267 18.5606 14.6584 18.1522 14.4261 17.8808C 14.1937 17.6093 13.7853 17.5776 13.5139 17.81L 14.3553 18.7929ZM 14.0074 16.7691C 14.0012 17.1263 14.2857 17.421 14.643 17.4272C 15.0002 17.4335 15.2949 17.1489 15.3011 16.7917L 14.0074 16.7691ZM 15.3015 16.6897C 15.3015 16.3324 15.0119 16.0428 14.6546 16.0428C 14.2973 16.0428 14.0077 16.3324 14.0077 16.6897L 15.3015 16.6897ZM 14.0077 16.5809C 14.0077 16.9382 14.2973 17.2278 14.6546 17.2278C 15.0119 17.2278 15.3015 16.9382 15.3015 16.5809L 14.0077 16.5809ZM 15.3015 14.5141C 15.3015 14.1568 15.0119 13.8672 14.6546 13.8672C 14.2973 13.8672 14.0077 14.1568 14.0077 14.5141L 15.3015 14.5141ZM 14.0077 11.9034C 14.0077 12.2606 14.2973 12.5503 14.6546 12.5503C 15.0119 12.5503 15.3015 12.2606 15.3015 11.9034L 14.0077 11.9034ZM 15.3015 11.7945C 15.3015 11.4373 15.0119 11.1476 14.6546 11.1476C 14.2973 11.1476 14.0077 11.4373 14.0077 11.7945L 15.3015 11.7945ZM 14.0077 11.6857C 14.0077 12.043 14.2973 12.3327 14.6546 12.3327C 15.0119 12.3327 15.3015 12.043 15.3015 11.6857L 14.0077 11.6857ZM 15.3015 9.61899C 15.3015 9.26169 15.0119 8.97205 14.6546 8.97205C 14.2973 8.97205 14.0077 9.26169 14.0077 9.61899L 15.3015 9.61899ZM 14.0077 7.00819C 14.0077 7.36549 14.2973 7.65513 14.6546 7.65513C 15.0119 7.65513 15.3015 7.36549 15.3015 7.00819L 14.0077 7.00819ZM 15.3015 6.89939C 15.3015 6.54209 15.0119 6.25245 14.6546 6.25245C 14.2973 6.25245 14.0077 6.54209 14.0077 6.89939L 15.3015 6.89939ZM 14.0077 6.79058C 14.0077 7.14787 14.2973 7.43751 14.6546 7.43751C 15.0119 7.43751 15.3015 7.14787 15.3015 6.79058L 14.0077 6.79058ZM 15.3015 4.72383C 15.3015 4.36654 15.0119 4.07689 14.6546 4.07689C 14.2973 4.07689 14.0077 4.36654 14.0077 4.72383L 15.3015 4.72383ZM 14.0077 2.11304C 14.0077 2.47033 14.2973 2.75997 14.6546 2.75997C 15.0119 2.75997 15.3015 2.47033 15.3015 2.11304L 14.0077 2.11304ZM 15.3011 2.01106C 15.2949 1.65382 15.0002 1.36928 14.643 1.37552C 14.2857 1.38176 14.0012 1.67642 14.0074 2.03366L 15.3011 2.01106ZM 14.0057 1.98412C 14.0244 2.34093 14.3288 2.615 14.6856 2.59629C 15.0424 2.57758 15.3165 2.27317 15.2978 1.91637L 14.0057 1.98412ZM 14.6251 0.275341C 14.3884 0.00768409 13.9796 -0.017428 13.7119 0.219252C 13.4443 0.455931 13.4192 0.864777 13.6559 1.13243L 14.6251 0.275341ZM 12.5988 0.647148C 12.956 0.653188 13.2505 0.368483 13.2566 0.0112422C 13.2626 -0.345999 12.9779 -0.640496 12.6207 -0.646535L 12.5988 0.647148ZM 12.5152 -0.646934C 12.1579 -0.646934 11.8682 -0.357292 11.8682 1.82472e-08C 11.8682 0.357292 12.1579 0.646934 12.5152 0.646934L 12.5152 -0.646934ZM 12.3985 0.646934C 12.7558 0.646934 13.0455 0.357292 13.0455 1.82472e-08C 13.0455 -0.357292 12.7558 -0.646934 12.3985 -0.646934L 12.3985 0.646934ZM 10.1836 -0.646934C 9.82631 -0.646934 9.53666 -0.357292 9.53666 1.82472e-08C 9.53666 0.357292 9.82631 0.646934 10.1836 0.646934L 10.1836 -0.646934ZM 7.38561 0.646934C 7.7429 0.646934 8.03254 0.357292 8.03254 1.82472e-08C 8.03254 -0.357292 7.7429 -0.646934 7.38561 -0.646934L 7.38561 0.646934ZM 7.269 -0.646934C 6.9117 -0.646934 6.62206 -0.357292 6.62206 1.82472e-08C 6.62206 0.357292 6.9117 0.646934 7.269 0.646934L 7.269 -0.646934ZM 7.15239 0.646934C 7.50968 0.646934 7.79932 0.357292 7.79932 1.82472e-08C 7.79932 -0.357292 7.50968 -0.646934 7.15239 -0.646934L 7.15239 0.646934ZM 4.93744 -0.646934C 4.58015 -0.646934 4.29051 -0.357292 4.29051 1.82472e-08C 4.29051 0.357292 4.58015 0.646934 4.93744 0.646934L 4.93744 -0.646934ZM 2.13945 0.646934C 2.49674 0.646934 2.78638 0.357292 2.78638 1.82472e-08C 2.78638 -0.357292 2.49674 -0.646934 2.13945 -0.646934L 2.13945 0.646934ZM 2.08114 -0.646934C 2.06538 -0.646934 2.04964 -0.646801 2.03393 -0.646535L 2.0558 0.647148C 2.06423 0.647006 2.07267 0.646934 2.08114 0.646934L 2.08114 -0.646934ZM 1.93997 -0.643359C 1.31484 -0.611634 0.744067 -0.370849 0.299349 0.00980517L 1.14071 0.992765C 1.37481 0.792388 1.67475 0.665634 2.00555 0.648846L 1.93997 -0.643359ZM -0.646519 2.01106C -0.646795 2.02689 -0.646934 2.04275 -0.646934 2.05863L 0.646934 2.05863C 0.646934 2.05028 0.647007 2.04196 0.647152 2.03366L -0.646519 2.01106ZM -0.646934 2.05863L -0.646934 2.11304L 0.646934 2.11304L 0.646934 2.05863L -0.646934 2.05863ZM -0.646934 2.22184L -0.646934 4.2886L 0.646934 4.2886L 0.646934 2.22184L -0.646934 2.22184ZM -0.646934 6.89939L -0.646934 7.00819L 0.646934 7.00819L 0.646934 6.89939L -0.646934 6.89939ZM -0.646934 7.117L -0.646934 9.18375L 0.646934 9.18375L 0.646934 7.117L -0.646934 7.117ZM -0.646934 11.7945L -0.646934 11.9034L 0.646934 11.9034L 0.646934 11.7945L -0.646934 11.7945ZM -0.646934 12.0122L -0.646934 14.0789L 0.646934 14.0789L 0.646934 12.0122L -0.646934 12.0122ZM -0.646934 16.6897L -0.646934 16.7441L 0.646934 16.7441L 0.646934 16.6897L -0.646934 16.6897ZM -0.646934 16.7441C -0.646934 16.76 -0.646795 16.7758 -0.646519 16.7917L 0.647152 16.7691C 0.647007 16.7608 0.646934 16.7525 0.646934 16.7441L -0.646934 16.7441ZM -0.643211 16.8864C -0.61027 17.5146 -0.361071 18.0857 0.0294772 18.5274L 0.998749 17.6703C 0.793909 17.4387 0.665888 17.1429 0.648881 16.8186L -0.643211 16.8864ZM 2.03393 19.4493C 2.04964 19.4495 2.06538 19.4497 2.08114 19.4497L 2.08114 18.1558C 2.07267 18.1558 2.06423 18.1557 2.0558 18.1556L 2.03393 19.4493ZM 2.08114 19.4497L 2.13945 19.4497L 2.13945 18.1558L 2.08114 18.1558L 2.08114 19.4497ZM 2.25606 19.4497L 4.471 19.4497L 4.471 18.1558L 2.25606 18.1558L 2.25606 19.4497ZM 7.269 19.4497L 7.38561 19.4497L 7.38561 18.1558L 7.269 18.1558L 7.269 19.4497ZM 7.50222 19.4497L 9.71716 19.4497L 9.71716 18.1558L 7.50222 18.1558L 7.50222 19.4497ZM 12.5152 19.4497L 12.5735 19.4497L 12.5735 18.1558L 12.5152 18.1558L 12.5152 19.4497ZM 12.5735 19.4497C 12.5892 19.4497 12.605 19.4495 12.6207 19.4493L 12.5988 18.1556C 12.5904 18.1557 12.5819 18.1558 12.5735 18.1558L 12.5735 19.4497ZM 12.7146 19.4461C 13.3398 19.4144 13.9105 19.1736 14.3553 18.7929L 13.5139 17.81C 13.2798 18.0103 12.9798 18.1371 12.6491 18.1539L 12.7146 19.4461ZM 15.3011 16.7917C 15.3014 16.7758 15.3015 16.76 15.3015 16.7441L 14.0077 16.7441C 14.0077 16.7525 14.0076 16.7608 14.0074 16.7691L 15.3011 16.7917ZM 15.3015 16.7441L 15.3015 16.6897L 14.0077 16.6897L 14.0077 16.7441L 15.3015 16.7441ZM 15.3015 16.5809L 15.3015 14.5141L 14.0077 14.5141L 14.0077 16.5809L 15.3015 16.5809ZM 15.3015 11.9034L 15.3015 11.7945L 14.0077 11.7945L 14.0077 11.9034L 15.3015 11.9034ZM 15.3015 11.6857L 15.3015 9.61899L 14.0077 9.61899L 14.0077 11.6857L 15.3015 11.6857ZM 15.3015 7.00819L 15.3015 6.89939L 14.0077 6.89939L 14.0077 7.00819L 15.3015 7.00819ZM 15.3015 6.79058L 15.3015 4.72383L 14.0077 4.72383L 14.0077 6.79058L 15.3015 6.79058ZM 15.3015 2.11304L 15.3015 2.05863L 14.0077 2.05863L 14.0077 2.11304L 15.3015 2.11304ZM 15.3015 2.05863C 15.3015 2.04275 15.3014 2.02689 15.3011 2.01106L 14.0074 2.03366C 14.0076 2.04196 14.0077 2.05028 14.0077 2.05863L 15.3015 2.05863ZM 15.2978 1.91637C 15.2649 1.28817 15.0157 0.717005 14.6251 0.275341L 13.6559 1.13243C 13.8607 1.36408 13.9887 1.6598 14.0057 1.98412L 15.2978 1.91637ZM 12.6207 -0.646535C 12.605 -0.646801 12.5892 -0.646934 12.5735 -0.646934L 12.5735 0.646934C 12.5819 0.646934 12.5904 0.647006 12.5988 0.647148L 12.6207 -0.646535ZM 12.5735 -0.646934L 12.5152 -0.646934L 12.5152 0.646934L 12.5735 0.646934L 12.5735 -0.646934ZM 12.3985 -0.646934L 10.1836 -0.646934L 10.1836 0.646934L 12.3985 0.646934L 12.3985 -0.646934ZM 7.38561 -0.646934L 7.269 -0.646934L 7.269 0.646934L 7.38561 0.646934L 7.38561 -0.646934ZM 7.15239 -0.646934L 4.93744 -0.646934L 4.93744 0.646934L 7.15239 0.646934L 7.15239 -0.646934ZM 2.13945 -0.646934L 2.08114 -0.646934L 2.08114 0.646934L 2.13945 0.646934L 2.13945 -0.646934Z"/>
</defs>
</svg>
