<svg width="24" height="27" viewBox="0 0 24 27" version="1.1" xmlns="http://www.w3.org/2000/svg" xmlns:xlink="http://www.w3.org/1999/xlink">
<desc>Created using Figma</desc>
<g id="Canvas" transform="translate(-5169 -708)">
<g id="comparison-icon-lg">
<g id="Group">
<g id="Group">
<g id="Vector">
<use xlink:href="#path0_fill" transform="matrix(0.996277 -0.0862057 0.0881161 0.99611 5170 716.552)" fill="#F0EEF1"/>
<use xlink:href="#path1_stroke" transform="matrix(0.996277 -0.0862057 0.0881161 0.99611 5170 716.552)" fill="#E1DFE2"/>
</g>
</g>
<g id="Group">
<g id="Vector">
<use xlink:href="#path2_fill" transform="matrix(0.996277 0.0862057 -0.0881161 0.99611 5177.4 709)" fill="#F0EEF1" fill-opacity="0.4"/>
<use xlink:href="#path3_stroke" transform="matrix(0.996277 0.0862057 -0.0881161 0.99611 5177.4 709)" fill="#E1DFE2"/>
</g>
</g>
</g>
</g>
</g>
<defs>
<path id="path0_fill" d="M 11.2753 0L 2.08082 0C 0.931617 0 0 0.92154 0 2.05832L 0 15.4577C 0 16.5945 0.931617 17.516 2.08082 17.516L 11.2753 17.516C 12.4245 17.516 13.3561 16.5945 13.3561 15.4577L 13.3561 2.05832C 13.3561 0.92154 12.4245 0 11.2753 0Z"/>
<path id="path1_stroke" d="M 2.08082 0.625L 11.2753 0.625L 11.2753 -0.625L 2.08082 -0.625L 2.08082 0.625ZM 11.2753 0.625C 12.0858 0.625 12.7311 1.27311 12.7311 2.05832L 13.9811 2.05832C 13.9811 0.569972 12.7633 -0.625 11.2753 -0.625L 11.2753 0.625ZM 12.7311 2.05832L 12.7311 15.4577L 13.9811 15.4577L 13.9811 2.05832L 12.7311 2.05832ZM 12.7311 15.4577C 12.7311 16.2429 12.0858 16.891 11.2753 16.891L 11.2753 18.141C 12.7633 18.141 13.9811 16.946 13.9811 15.4577L 12.7311 15.4577ZM 11.2753 16.891L 2.08082 16.891L 2.08082 18.141L 11.2753 18.141L 11.2753 16.891ZM 2.08082 16.891C 1.27037 16.891 0.625 16.2429 0.625 15.4577L -0.625 15.4577C -0.625 16.946 0.592866 18.141 2.08082 18.141L 2.08082 16.891ZM 0.625 15.4577L 0.625 2.05832L -0.625 2.05832L -0.625 15.4577L 0.625 15.4577ZM 0.625 2.05832C 0.625 1.27311 1.27037 0.625 2.08082 0.625L 2.08082 -0.625C 0.592864 -0.625 -0.625 0.569972 -0.625 2.05832L 0.625 2.05832Z"/>
<path id="path2_fill" d="M 2.08114 1.82472e-08L 12.5735 1.82472e-08C 13.7228 1.82472e-08 14.6546 0.921681 14.6546 2.05863L 14.6546 16.7441C 14.6546 17.8811 13.7228 18.8027 12.5735 18.8027L 2.08114 18.8027C 0.93176 18.8027 1.61853e-07 17.8811 1.61853e-07 16.7441L 1.61853e-07 2.05863C 1.61853e-07 0.921681 0.93176 1.82472e-08 2.08114 1.82472e-08Z"/>
<path id="path3_stroke" d="M 2.0343 -0.624604C 1.68918 -0.618769 1.41412 -0.334257 1.41996 0.0108714C 1.42579 0.356 1.71031 0.631052 2.05543 0.625217L 2.0343 -0.624604ZM 2.00444 0.62694C 2.34917 0.609445 2.61445 0.315801 2.59696 -0.0289337C 2.57946 -0.373668 2.28582 -0.638948 1.94108 -0.621453L 2.00444 0.62694ZM 0.313612 0.0264686C 0.0513781 0.250926 0.0207546 0.645468 0.245212 0.907702C 0.46967 1.16994 0.864211 1.20056 1.12645 0.976101L 0.313612 0.0264686ZM 0.625221 2.03327C 0.63125 1.68815 0.356357 1.40348 0.0112318 1.39745C -0.333893 1.39143 -0.61856 1.66632 -0.624588 2.01144L 0.625221 2.03327ZM -0.625 2.11304C -0.625 2.45821 -0.345178 2.73804 1.61853e-07 2.73804C 0.345178 2.73804 0.625 2.45821 0.625 2.11304L -0.625 2.11304ZM 0.625 2.22184C 0.625 1.87667 0.345178 1.59684 1.61853e-07 1.59684C -0.345178 1.59684 -0.625 1.87667 -0.625 2.22184L 0.625 2.22184ZM -0.625 4.2886C -0.625 4.63377 -0.345178 4.9136 1.61853e-07 4.9136C 0.345178 4.9136 0.625 4.63377 0.625 4.2886L -0.625 4.2886ZM 0.625 6.89939C 0.625 6.55421 0.345178 6.27439 1.61853e-07 6.27439C -0.345178 6.27439 -0.625 6.55421 -0.625 6.89939L 0.625 6.89939ZM -0.625 7.00819C -0.625 7.35337 -0.345178 7.63319 1.61853e-07 7.63319C 0.345178 7.63319 0.625 7.35337 0.625 7.00819L -0.625 7.00819ZM 0.625 7.117C 0.625 6.77182 0.345178 6.492 1.61853e-07 6.492C -0.345178 6.492 -0.625 6.77182 -0.625 7.117L 0.625 7.117ZM -0.625 9.18375C -0.625 9.52893 -0.345178 9.80875 1.61853e-07 9.80875C 0.345178 9.80875 0.625 9.52893 0.625 9.18375L -0.625 9.18375ZM 0.625 11.7945C 0.625 11.4494 0.345178 11.1695 1.61853e-07 11.1695C -0.345178 11.1695 -0.625 11.4494 -0.625 11.7945L 0.625 11.7945ZM -0.625 11.9034C -0.625 12.2485 -0.345178 12.5284 1.61853e-07 12.5284C 0.345178 12.5284 0.625 12.2485 0.625 11.9034L -0.625 11.9034ZM 0.625 12.0122C 0.625 11.667 0.345178 11.3872 1.61853e-07 11.3872C -0.345178 11.3872 -0.625 11.667 -0.625 12.0122L 0.625 12.0122ZM -0.625 14.0789C -0.625 14.4241 -0.345178 14.7039 1.61853e-07 14.7039C 0.345178 14.7039 0.625 14.4241 0.625 14.0789L -0.625 14.0789ZM 0.625 16.6897C 0.625 16.3445 0.345178 16.0647 1.61853e-07 16.0647C -0.345178 16.0647 -0.625 16.3445 -0.625 16.6897L 0.625 16.6897ZM -0.624588 16.7913C -0.61856 17.1364 -0.333894 17.4113 0.0112318 17.4053C 0.356357 17.3993 0.63125 17.1146 0.625221 16.7695L -0.624588 16.7913ZM 0.626978 16.8198C 0.608902 16.4751 0.314811 16.2103 -0.0298936 16.2283C -0.374598 16.2464 -0.639383 16.5405 -0.621307 16.8852L 0.626978 16.8198ZM 0.0459086 18.5129C 0.274564 18.7714 0.669547 18.7957 0.928129 18.5671C 1.18671 18.3384 1.21097 17.9434 0.982317 17.6848L 0.0459086 18.5129ZM 2.05543 18.1775C 1.71031 18.1717 1.42579 18.4467 1.41996 18.7919C 1.41412 19.137 1.68918 19.4215 2.0343 19.4273L 2.05543 18.1775ZM 2.13945 19.4277C 2.48463 19.4277 2.76445 19.1479 2.76445 18.8027C 2.76445 18.4576 2.48463 18.1777 2.13945 18.1777L 2.13945 19.4277ZM 2.25606 18.1777C 1.91088 18.1777 1.63106 18.4576 1.63106 18.8027C 1.63106 19.1479 1.91088 19.4277 2.25606 19.4277L 2.25606 18.1777ZM 4.471 19.4277C 4.81618 19.4277 5.096 19.1479 5.096 18.8027C 5.096 18.4576 4.81618 18.1777 4.471 18.1777L 4.471 19.4277ZM 7.269 18.1777C 6.92382 18.1777 6.644 18.4576 6.644 18.8027C 6.644 19.1479 6.92382 19.4277 7.269 19.4277L 7.269 18.1777ZM 7.38561 19.4277C 7.73078 19.4277 8.01061 19.1479 8.01061 18.8027C 8.01061 18.4576 7.73078 18.1777 7.38561 18.1777L 7.38561 19.4277ZM 7.50222 18.1777C 7.15704 18.1777 6.87722 18.4576 6.87722 18.8027C 6.87722 19.1479 7.15704 19.4277 7.50222 19.4277L 7.50222 18.1777ZM 9.71716 19.4277C 10.0623 19.4277 10.3422 19.1479 10.3422 18.8027C 10.3422 18.4576 10.0623 18.1777 9.71716 18.1777L 9.71716 19.4277ZM 12.5152 18.1777C 12.17 18.1777 11.8902 18.4576 11.8902 18.8027C 11.8902 19.1479 12.17 19.4277 12.5152 19.4277L 12.5152 18.1777ZM 12.6203 19.4273C 12.9654 19.4215 13.2405 19.137 13.2346 18.7919C 13.2288 18.4467 12.9443 18.1717 12.5992 18.1775L 12.6203 19.4273ZM 12.6502 18.1758C 12.3054 18.1933 12.0401 18.4869 12.0576 18.8317C 12.0751 19.1764 12.3688 19.4417 12.7135 19.4242L 12.6502 18.1758ZM 14.341 18.7763C 14.6032 18.5518 14.6338 18.1573 14.4094 17.895C 14.1849 17.6328 13.7904 17.6022 13.5282 17.8266L 14.341 18.7763ZM 14.0294 16.7695C 14.0234 17.1146 14.2982 17.3993 14.6434 17.4053C 14.9885 17.4113 15.2732 17.1364 15.2792 16.7913L 14.0294 16.7695ZM 15.2796 16.6897C 15.2796 16.3445 14.9998 16.0647 14.6546 16.0647C 14.3094 16.0647 14.0296 16.3445 14.0296 16.6897L 15.2796 16.6897ZM 14.0296 16.5809C 14.0296 16.9261 14.3094 17.2059 14.6546 17.2059C 14.9998 17.2059 15.2796 16.9261 15.2796 16.5809L 14.0296 16.5809ZM 15.2796 14.5141C 15.2796 14.169 14.9998 13.8891 14.6546 13.8891C 14.3094 13.8891 14.0296 14.169 14.0296 14.5141L 15.2796 14.5141ZM 14.0296 11.9034C 14.0296 12.2485 14.3094 12.5284 14.6546 12.5284C 14.9998 12.5284 15.2796 12.2485 15.2796 11.9034L 14.0296 11.9034ZM 15.2796 11.7945C 15.2796 11.4494 14.9998 11.1695 14.6546 11.1695C 14.3094 11.1695 14.0296 11.4494 14.0296 11.7945L 15.2796 11.7945ZM 14.0296 11.6857C 14.0296 12.0309 14.3094 12.3107 14.6546 12.3107C 14.9998 12.3107 15.2796 12.0309 15.2796 11.6857L 14.0296 11.6857ZM 15.2796 9.61898C 15.2796 9.27381 14.9998 8.99398 14.6546 8.99398C 14.3094 8.99398 14.0296 9.27381 14.0296 9.61898L 15.2796 9.61898ZM 14.0296 7.00819C 14.0296 7.35337 14.3094 7.63319 14.6546 7.63319C 14.9998 7.63319 15.2796 7.35337 15.2796 7.00819L 14.0296 7.00819ZM 15.2796 6.89939C 15.2796 6.55421 14.9998 6.27439 14.6546 6.27439C 14.3094 6.27439 14.0296 6.55421 14.0296 6.89939L 15.2796 6.89939ZM 14.0296 6.79058C 14.0296 7.13576 14.3094 7.41558 14.6546 7.41558C 14.9998 7.41558 15.2796 7.13576 15.2796 6.79058L 14.0296 6.79058ZM 15.2796 4.72383C 15.2796 4.37865 14.9998 4.09883 14.6546 4.09883C 14.3094 4.09883 14.0296 4.37865 14.0296 4.72383L 15.2796 4.72383ZM 14.0296 2.11304C 14.0296 2.45822 14.3094 2.73804 14.6546 2.73804C 14.9998 2.73804 15.2796 2.45822 15.2796 2.11304L 14.0296 2.11304ZM 15.2792 2.01144C 15.2732 1.66632 14.9885 1.39143 14.6434 1.39745C 14.2982 1.40348 14.0234 1.68815 14.0294 2.03327L 15.2792 2.01144ZM 14.0276 1.98298C 14.0457 2.32768 14.3398 2.59247 14.6845 2.57439C 15.0292 2.55631 15.294 2.26222 15.2759 1.91752L 14.0276 1.98298ZM 14.6087 0.289871C 14.38 0.0312886 13.9851 0.00702789 13.7265 0.235683C 13.4679 0.464338 13.4436 0.859322 13.6723 1.1179L 14.6087 0.289871ZM 12.5992 0.625217C 12.9443 0.631052 13.2288 0.356 13.2346 0.0108714C 13.2405 -0.334257 12.9654 -0.618769 12.6203 -0.624604L 12.5992 0.625217ZM 12.5152 -0.625C 12.17 -0.625 11.8902 -0.345178 11.8902 1.82472e-08C 11.8902 0.345178 12.17 0.625 12.5152 0.625L 12.5152 -0.625ZM 12.3985 0.625C 12.7437 0.625 13.0235 0.345178 13.0235 1.82472e-08C 13.0235 -0.345178 12.7437 -0.625 12.3985 -0.625L 12.3985 0.625ZM 10.1836 -0.625C 9.83842 -0.625 9.5586 -0.345178 9.5586 1.82472e-08C 9.5586 0.345178 9.83842 0.625 10.1836 0.625L 10.1836 -0.625ZM 7.38561 0.625C 7.73078 0.625 8.01061 0.345178 8.01061 1.82472e-08C 8.01061 -0.345178 7.73078 -0.625 7.38561 -0.625L 7.38561 0.625ZM 7.269 -0.625C 6.92382 -0.625 6.644 -0.345178 6.644 1.82472e-08C 6.644 0.345178 6.92382 0.625 7.269 0.625L 7.269 -0.625ZM 7.15239 0.625C 7.49756 0.625 7.77739 0.345178 7.77739 1.82472e-08C 7.77739 -0.345178 7.49756 -0.625 7.15239 -0.625L 7.15239 0.625ZM 4.93744 -0.625C 4.59226 -0.625 4.31244 -0.345178 4.31244 1.82472e-08C 4.31244 0.345178 4.59226 0.625 4.93744 0.625L 4.93744 -0.625ZM 2.13945 0.625C 2.48463 0.625 2.76445 0.345178 2.76445 1.82472e-08C 2.76445 -0.345178 2.48463 -0.625 2.13945 -0.625L 2.13945 0.625ZM 2.08114 -0.625C 2.06551 -0.625 2.04989 -0.624868 2.0343 -0.624604L 2.05543 0.625217C 2.06398 0.625073 2.07255 0.625 2.08114 0.625L 2.08114 -0.625ZM 1.94108 -0.621453C 1.32094 -0.589982 0.75476 -0.35113 0.313612 0.0264686L 1.12645 0.976101C 1.36412 0.772669 1.66865 0.643981 2.00444 0.62694L 1.94108 -0.621453ZM -0.624588 2.01144C -0.624862 2.02715 -0.625 2.04288 -0.625 2.05863L 0.625 2.05863C 0.625 2.05016 0.625074 2.0417 0.625221 2.03327L -0.624588 2.01144ZM -0.625 2.05863L -0.625 2.11304L 0.625 2.11304L 0.625 2.05863L -0.625 2.05863ZM -0.625 2.22184L -0.625 4.2886L 0.625 4.2886L 0.625 2.22184L -0.625 2.22184ZM -0.625 6.89939L -0.625 7.00819L 0.625 7.00819L 0.625 6.89939L -0.625 6.89939ZM -0.625 7.117L -0.625 9.18375L 0.625 9.18375L 0.625 7.117L -0.625 7.117ZM -0.625 11.7945L -0.625 11.9034L 0.625 11.9034L 0.625 11.7945L -0.625 11.7945ZM -0.625 12.0122L -0.625 14.0789L 0.625 14.0789L 0.625 12.0122L -0.625 12.0122ZM -0.625 16.6897L -0.625 16.7441L 0.625 16.7441L 0.625 16.6897L -0.625 16.6897ZM -0.625 16.7441C -0.625 16.7599 -0.624862 16.7756 -0.624588 16.7913L 0.625221 16.7695C 0.625074 16.761 0.625 16.7526 0.625 16.7441L -0.625 16.7441ZM -0.621307 16.8852C -0.588636 17.5083 -0.341491 18.0748 0.0459086 18.5129L 0.982317 17.6848C 0.774329 17.4496 0.644254 17.1492 0.626978 16.8198L -0.621307 16.8852ZM 2.0343 19.4273C 2.04989 19.4276 2.06551 19.4277 2.08114 19.4277L 2.08114 18.1777C 2.07255 18.1777 2.06398 18.1777 2.05543 18.1775L 2.0343 19.4273ZM 2.08114 19.4277L 2.13945 19.4277L 2.13945 18.1777L 2.08114 18.1777L 2.08114 19.4277ZM 2.25606 19.4277L 4.471 19.4277L 4.471 18.1777L 2.25606 18.1777L 2.25606 19.4277ZM 7.269 19.4277L 7.38561 19.4277L 7.38561 18.1777L 7.269 18.1777L 7.269 19.4277ZM 7.50222 19.4277L 9.71716 19.4277L 9.71716 18.1777L 7.50222 18.1777L 7.50222 19.4277ZM 12.5152 19.4277L 12.5735 19.4277L 12.5735 18.1777L 12.5152 18.1777L 12.5152 19.4277ZM 12.5735 19.4277C 12.5891 19.4277 12.6047 19.4276 12.6203 19.4273L 12.5992 18.1775C 12.5906 18.1777 12.5821 18.1777 12.5735 18.1777L 12.5735 19.4277ZM 12.7135 19.4242C 13.3337 19.3927 13.8998 19.1539 14.341 18.7763L 13.5282 17.8266C 13.2905 18.0301 12.986 18.1588 12.6502 18.1758L 12.7135 19.4242ZM 15.2792 16.7913C 15.2795 16.7756 15.2796 16.7599 15.2796 16.7441L 14.0296 16.7441C 14.0296 16.7526 14.0295 16.761 14.0294 16.7695L 15.2792 16.7913ZM 15.2796 16.7441L 15.2796 16.6897L 14.0296 16.6897L 14.0296 16.7441L 15.2796 16.7441ZM 15.2796 16.5809L 15.2796 14.5141L 14.0296 14.5141L 14.0296 16.5809L 15.2796 16.5809ZM 15.2796 11.9034L 15.2796 11.7945L 14.0296 11.7945L 14.0296 11.9034L 15.2796 11.9034ZM 15.2796 11.6857L 15.2796 9.61898L 14.0296 9.61898L 14.0296 11.6857L 15.2796 11.6857ZM 15.2796 7.00819L 15.2796 6.89939L 14.0296 6.89939L 14.0296 7.00819L 15.2796 7.00819ZM 15.2796 6.79058L 15.2796 4.72383L 14.0296 4.72383L 14.0296 6.79058L 15.2796 6.79058ZM 15.2796 2.11304L 15.2796 2.05863L 14.0296 2.05863L 14.0296 2.11304L 15.2796 2.11304ZM 15.2796 2.05863C 15.2796 2.04288 15.2795 2.02715 15.2792 2.01144L 14.0294 2.03327C 14.0295 2.0417 14.0296 2.05016 14.0296 2.05863L 15.2796 2.05863ZM 15.2759 1.91752C 15.2432 1.29447 14.9961 0.727975 14.6087 0.289871L 13.6723 1.1179C 13.8803 1.35311 14.0103 1.6535 14.0276 1.98298L 15.2759 1.91752ZM 12.6203 -0.624604C 12.6047 -0.624868 12.5891 -0.625 12.5735 -0.625L 12.5735 0.625C 12.5821 0.625 12.5906 0.625073 12.5992 0.625217L 12.6203 -0.624604ZM 12.5735 -0.625L 12.5152 -0.625L 12.5152 0.625L 12.5735 0.625L 12.5735 -0.625ZM 12.3985 -0.625L 10.1836 -0.625L 10.1836 0.625L 12.3985 0.625L 12.3985 -0.625ZM 7.38561 -0.625L 7.269 -0.625L 7.269 0.625L 7.38561 0.625L 7.38561 -0.625ZM 7.15239 -0.625L 4.93744 -0.625L 4.93744 0.625L 7.15239 0.625L 7.15239 -0.625ZM 2.13945 -0.625L 2.08114 -0.625L 2.08114 0.625L 2.13945 0.625L 2.13945 -0.625Z"/>
</defs>
</svg>
