<svg xmlns="http://www.w3.org/2000/svg" width="17" height="18" viewBox="0 0 17 18">
  <path fill="#1D8DDB" d="M669.291559,491.131378 C669.18426,491.096834 669.083673,491.034975 669.000323,490.945978 L666.469088,488.234894 C666.208528,487.955284 666.215455,487.512853 666.485501,487.241306 C666.760455,486.966201 667.202453,486.973629 667.468906,487.258136 L668.808824,488.693258 L668.808824,478.628571 C668.808824,478.239766 669.116046,477.921429 669.5,477.921429 C669.883953,477.921429 670.191176,478.239771 670.191176,478.628571 L670.191176,488.693258 L671.531357,487.257855 C671.797547,486.973629 672.239545,486.966201 672.51494,487.241748 C672.784545,487.512853 672.791472,487.955284 672.530749,488.235069 L669.99994,490.945697 C669.994068,490.951966 669.988112,490.958101 669.982074,490.964101 C669.96775,490.978373 669.95282,490.992016 669.937326,491.004986 C669.753009,491.158775 669.508962,491.201326 669.291595,491.131279 Z M676.503676,487.292857 C676.887631,487.292857 677.194853,487.611194 677.194853,488 L677.194853,491.542857 C677.194853,492.939687 676.095746,494.078571 674.738971,494.078571 L664.261029,494.078571 C662.904254,494.078571 661.805147,492.939687 661.805147,491.542857 L661.805147,488 C661.805147,487.6112 662.112371,487.292857 662.496324,487.292857 C662.880278,487.292857 663.1875,487.611194 663.1875,488 L663.1875,491.542857 C663.1875,492.162987 663.67129,492.664286 664.261029,492.664286 L674.738971,492.664286 C675.32871,492.664286 675.8125,492.162987 675.8125,491.542857 L675.8125,488 C675.8125,487.611198 676.119719,487.292857 676.503676,487.292857 Z" transform="translate(-661 -477)"/>
</svg>
