<svg xmlns="http://www.w3.org/2000/svg" xmlns:xlink="http://www.w3.org/1999/xlink" width="104" height="104" viewBox="0 0 104 104">
  <defs>
    <circle id="email-large-icon-b" cx="50" cy="50" r="50"/>
    <filter id="email-large-icon-a" width="106%" height="106%" x="-2%" y="-2%" filterUnits="objectBoundingBox">
      <feMorphology in="SourceAlpha" operator="dilate" radius="1" result="shadowSpreadOuter1"/>
      <feOffset dx="2" dy="2" in="shadowSpreadOuter1" result="shadowOffsetOuter1"/>
      <feComposite in="shadowOffsetOuter1" in2="SourceAlpha" operator="out" result="shadowOffsetOuter1"/>
      <feColorMatrix in="shadowOffsetOuter1" values="0 0 0 0 0.360784314   0 0 0 0 0   0 0 0 0 0.482352941  0 0 0 0.1 0"/>
    </filter>
  </defs>
  <g fill="none" fill-rule="evenodd" transform="translate(1 1)">
    <use fill="#000" filter="url(#email-large-icon-a)" xlink:href="#email-large-icon-b"/>
    <use fill="#FFF" stroke="#5C007B" stroke-width="2" xlink:href="#email-large-icon-b"/>
    <g fill="#5C007B" stroke="#5C007B" stroke-width=".5" transform="translate(23 25)">
      <path d="M56.0000024,21.188047 L56.0000024,48 C56.0000024,50.209139 54.2091414,52 52.0000024,52 L6,52 C3.790861,52 2,50.209139 2,48 L2,21.197599 C2,19.8493712 2.679185,18.5918542 3.80665011,17.8525704 L7.7726624,15.2520388 L7.7726624,10.2214388 C7.7726624,8.0122998 9.5635234,6.2214388 11.7726624,6.2214388 L21.5540624,6.2214388 L26.9615676,2.67624416 C28.3003898,1.79850381 30.0336003,1.80355798 31.3672807,2.68909155 L36.6872624,6.2214388 L46.2226624,6.2214388 C48.4318014,6.2214388 50.2226624,8.0122998 50.2226624,10.2214388 L50.2226624,15.2076388 L54.2119293,17.8552734 C55.3286901,18.5964559 56.0000024,19.8477089 56.0000024,21.188047 Z" opacity=".101"/>
      <path d="M54.0000024,19.188047 L54.0000024,46 C54.0000024,48.209139 52.2091414,50 50.0000024,50 L4,50 C1.790861,50 4.19476067e-15,48.209139 0,46 L2.66453526e-15,19.197599 C3.69689179e-15,17.8493712 0.679185001,16.5918542 1.80665011,15.8525704 L5.7726624,13.2520388 L5.7726624,8.2214388 C5.7726624,6.0122998 7.5635234,4.2214388 9.7726624,4.2214388 L19.5540624,4.2214388 L24.9615676,0.676244157 C26.3003898,-0.201496188 28.0336003,-0.196442016 29.3672807,0.689091547 L34.6872624,4.2214388 L44.2226624,4.2214388 C46.4318014,4.2214388 48.2226624,6.0122998 48.2226624,8.2214388 L48.2226624,13.2076388 L52.2119293,15.8552734 C53.3286901,16.5964559 54.0000024,17.8477089 54.0000024,19.188047 Z M48.2226624,20.6068388 L50.8046891,18.4201191 C51.2261405,18.0631917 51.2784476,17.432191 50.9215202,17.0107396 C50.8606575,16.9388744 50.7899484,16.8759669 50.7114884,16.8238814 L48.2226624,15.1716788 L48.2226624,20.6068388 Z M22.5396624,4.2214388 L31.7292624,4.2214388 L28.2626766,1.9204648 C27.5959544,1.47792259 26.7296237,1.47539559 26.0603311,1.91404077 L22.5396624,4.2214388 Z M7.4082624,21.8536388 L17.4090624,30.1948388 L26.5586413,37.825283 C26.9325776,38.1371334 27.4767702,38.1343271 27.8474705,37.8186368 L46.5889524,21.8582888 L46.5889524,8.8574888 C46.5889524,7.20063455 45.2458066,5.8574888 43.5889524,5.8574888 L10.4082624,5.8574888 C8.75140815,5.8574888 7.4082624,7.20063455 7.4082624,8.8574888 L7.4082624,21.8536388 Z M3.23190071,18.4219044 L5.7723624,20.5317188 L5.7723624,15.2113988 L3.3228034,16.8161199 C2.86082464,17.118765 2.73165919,17.7386151 3.03430431,18.2005939 C3.08879921,18.2837787 3.15539747,18.3583696 3.23190071,18.4219044 Z M52.3636824,19.2450188 L27.8996394,39.9587661 C27.5294622,40.2721958 26.9877344,40.2747814 26.6145822,39.9648996 L16.3683864,31.4560148 L1.6353876,19.2238148 L1.6353876,45.3634148 C1.6353876,47.020269 2.97853335,48.3634148 4.6353876,48.3634148 L49.3636824,48.3634148 C51.0205366,48.3634148 52.3636824,47.020269 52.3636824,45.3634148 L52.3636824,19.2450188 Z M19.0420824,21.6078188 C19.0420824,16.2804788 22.7382024,11.6772188 28.4800824,11.6772188 C32.9777424,11.6772188 36.0034824,14.8318988 36.0034824,19.1490188 C36.0034824,23.0278988 33.8308224,25.3038188 31.4003424,25.3038188 C30.3643824,25.3038188 29.4081624,24.6053588 29.4878424,23.0280188 L29.3847144,23.0280188 C28.4800344,24.5538188 27.2893944,25.3038188 25.7378544,25.3038188 C24.2378544,25.3038188 22.9464744,24.0874388 22.9464744,22.0436588 C22.9464744,18.8373788 25.4800944,15.9170588 29.0754744,15.9170588 C30.1864344,15.9170588 31.1684544,16.1490908 31.8411144,16.4608088 L30.9622344,21.1412888 C30.5731704,23.1053288 30.8825484,24.0124088 31.7380344,24.0381488 C33.0552144,24.0662768 34.5294144,22.3061288 34.5294144,19.3061288 C34.5294144,15.5584688 32.2794144,12.8681288 28.2714144,12.8681288 C24.0573744,12.8681288 20.5134144,16.2056288 20.5134144,21.4535288 C20.5134144,25.7707088 23.3305944,28.4357288 27.1578144,28.4357288 C28.6320144,28.4357288 30.0007944,28.1263508 31.0624944,27.5310488 L31.4773404,28.6443488 C30.0570204,29.3896688 28.6109604,29.6756288 26.8765404,29.6756288 C22.6376424,29.6748188 19.0420824,26.5716788 19.0420824,21.6078188 Z M30.0579624,17.4684188 C29.8001484,17.3910728 29.3595024,17.2879508 28.7642424,17.2879508 C26.4907824,17.2879508 24.6532824,19.4324708 24.6532824,21.9426308 C24.6532824,23.0793308 25.2204684,23.9066708 26.3595624,23.9066708 C27.8595624,23.9066708 29.2282824,21.9941708 29.5142424,20.3886908 L30.0579624,17.4684188 Z"/>
    </g>
  </g>
</svg>
