<svg xmlns="http://www.w3.org/2000/svg" xmlns:xlink="http://www.w3.org/1999/xlink" width="102" height="102" viewBox="0 0 102 102">
  <defs>
    <circle id="error-large-icon-b" cx="50" cy="50" r="50"/>
    <filter id="error-large-icon-a" width="104%" height="104%" x="-1%" y="-1%" filterUnits="objectBoundingBox">
      <feOffset dx="2" dy="2" in="SourceAlpha" result="shadowOffsetOuter1"/>
      <feComposite in="shadowOffsetOuter1" in2="SourceAlpha" operator="out" result="shadowOffsetOuter1"/>
      <feColorMatrix in="shadowOffsetOuter1" values="0 0 0 0 0.905882353   0 0 0 0 0.305882353   0 0 0 0 0.243137255  0 0 0 0.1 0"/>
    </filter>
    <path id="error-large-icon-c" d="M12.056533,18 L1.23093232,7.17439935 C-0.410310775,5.53315625 -0.410310775,2.87217542 1.23093232,1.23093232 C2.87217542,-0.410310775 5.53315625,-0.410310775 7.17439935,1.23093232 L18,12.056533 L28.8256007,1.23093232 C30.4668438,-0.410310775 33.1278246,-0.410310775 34.7690677,1.23093232 C36.4103108,2.87217542 36.4103108,5.53315625 34.7690677,7.17439935 L23.943467,18 L34.7690677,28.8256007 C36.4103108,30.4668438 36.4103108,33.1278246 34.7690677,34.7690677 C33.1278246,36.4103108 30.4668438,36.4103108 28.8256007,34.7690677 L18,23.943467 L7.17439935,34.7690677 C5.53315625,36.4103108 2.87217542,36.4103108 1.23093232,34.7690677 C-0.410310775,33.1278246 -0.410310775,30.4668438 1.23093232,28.8256007 L12.056533,18 Z"/>
  </defs>
  <g fill="none" fill-rule="evenodd">
    <use fill="#000" filter="url(#error-large-icon-a)" xlink:href="#error-large-icon-b"/>
    <use fill="#FFF" xlink:href="#error-large-icon-b"/>
    <circle cx="50" cy="50" r="49" stroke="#E74E3E" stroke-width="2"/>
    <g transform="translate(32 32)">
      <path fill="#E74E3E" fill-opacity=".1" d="M14.056533,20 L3.23093232,9.17439935 C1.58968923,7.53315625 1.58968923,4.87217542 3.23093232,3.23093232 C4.87217542,1.58968923 7.53315625,1.58968923 9.17439935,3.23093232 L20,14.056533 L30.8256007,3.23093232 C32.4668438,1.58968923 35.1278246,1.58968923 36.7690677,3.23093232 C38.4103108,4.87217542 38.4103108,7.53315625 36.7690677,9.17439935 L25.943467,20 L36.7690677,30.8256007 C38.4103108,32.4668438 38.4103108,35.1278246 36.7690677,36.7690677 C35.1278246,38.4103108 32.4668438,38.4103108 30.8256007,36.7690677 L20,25.943467 L9.17439935,36.7690677 C7.53315625,38.4103108 4.87217542,38.4103108 3.23093232,36.7690677 C1.58968923,35.1278246 1.58968923,32.4668438 3.23093232,30.8256007 L14.056533,20 Z"/>
      <use fill="#FFF" fill-opacity="0" xlink:href="#error-large-icon-c"/>
      <path stroke="#E74E3E" stroke-width="2" d="M1.93803911,6.46729257 L13.4707465,18 L1.93803911,29.5327074 C0.687320298,30.7834262 0.687320298,32.8112421 1.93803911,34.0619609 C3.18875791,35.3126797 5.21657376,35.3126797 6.46729257,34.0619609 L18,22.5292535 L29.5327074,34.0619609 C30.7834262,35.3126797 32.8112421,35.3126797 34.0619609,34.0619609 C35.3126797,32.8112421 35.3126797,30.7834262 34.0619609,29.5327074 L22.5292535,18 L34.0619609,6.46729257 C35.3126797,5.21657376 35.3126797,3.18875791 34.0619609,1.93803911 C32.8112421,0.687320298 30.7834262,0.687320298 29.5327074,1.93803911 L18,13.4707465 L6.46729257,1.93803911 C5.21657376,0.687320298 3.18875791,0.687320298 1.93803911,1.93803911 C0.687320298,3.18875791 0.687320298,5.21657376 1.93803911,6.46729257 Z"/>
    </g>
  </g>
</svg>
