<svg width="22" height="24" viewBox="0 0 22 24">
  <defs>
    <path id="flash-danger-icon-b" d="M19.8137401,6.46158674 C19.4427861,5.31527697 18.8176118,4.49621684 17.9146851,3.98053657 C16.9420888,3.39549362 15.9694925,2.83422681 14.9958771,2.27202393 C14.0232808,1.71075712 13.0506845,1.14855424 12.0770691,0.563511288 C11.4518948,0.212485515 10.8267205,0.0250845552 10.1318765,0.00224447825 C9.29769312,-0.0215223068 8.58024353,0.143019854 7.95506923,0.516895065 C7.39956461,0.844144692 6.84313354,1.14855424 6.31023451,1.47673994 C4.92054652,2.27202393 3.48476721,3.11486021 2.07145451,3.9577901 C0.72790416,4.77685024 0.0104545713,6.0401686 0.0104545713,7.58505642 C-0.0130682141,9.10616811 0.0104545713,10.6511495 0.0104545713,12.1483915 L0.0104545713,14.4181709 C0.0104545713,14.8624291 0.0801196305,15.2838473 0.195926963,15.6348731 C0.566881012,16.7117265 1.19205532,17.5307867 2.07237634,18.0454841 C3.02236705,18.6067509 3.99496336,19.1689537 4.96755966,19.7302205 C5.94015597,20.2914874 6.91275227,20.8536902 7.86274299,21.414957 C8.44177965,21.7659828 9.04434837,21.9533838 9.73919236,22 L10.0630823,22 C10.804064,22 11.4763024,21.8126037 12.0779446,21.4615733 C13.9769996,20.3381036 15.9456779,19.1680177 17.891936,18.0444544 C18.5171103,17.6934286 19.0264772,17.2016181 19.3974313,16.5471188 C19.814523,15.8212911 20,15.2134081 20,14.5579728 L20,7.56132708 C19.9755716,7.23407745 19.9294293,6.83641206 19.813622,6.46163354 L19.8137401,6.46158674 Z M18.8176118,14.6056187 C18.8176118,15.0270368 18.6782816,15.471295 18.3543824,16.0097218 C18.0992357,16.4777561 17.7518137,16.8287819 17.2885844,17.0865752 C15.3198597,18.2100449 13.3511351,19.3801308 11.4521264,20.5036939 C10.965365,20.7843273 10.4333925,20.9013359 9.78468612,20.8784958 C9.27531914,20.8318749 8.8346954,20.6910995 8.41853017,20.4342376 C7.44593387,19.872971 6.49594315,19.3107682 5.52334685,18.7495013 C4.55075054,18.1882345 3.60075983,17.6260317 2.62816352,17.0647648 C1.97945717,16.6899629 1.53975989,16.1286961 1.26200758,15.2858598 C1.16972303,15.0518427 1.12267746,14.7712092 1.12267746,14.4430236 L1.12267746,12.1732441 L1.12267746,7.60990905 C1.12267746,6.43982314 1.60943884,5.59698686 2.62817279,4.96528087 C4.01786078,4.12244459 5.4536401,3.30338445 6.84332809,2.48423071 C7.39883271,2.15698108 7.95526378,1.85257153 8.5107684,1.52438584 C8.92786009,1.26659251 9.36755737,1.14958392 9.92398844,1.14958392 L10.0633186,1.14958392 C10.5726855,1.1733507 11.0359149,1.31321341 11.4765386,1.57100206 C12.4491349,2.15604501 13.4217312,2.71731182 14.3953466,3.2795147 C15.3679429,3.84078151 16.3405392,4.40298439 17.3141546,4.98802734 C17.962861,5.36282926 18.4025583,5.94787222 18.6803106,6.81354858 C18.7499756,7.04756576 18.7961179,7.32819917 18.7961179,7.60883257 L18.7952146,14.6054783 L18.8176118,14.6056187 Z"/>
    <filter id="flash-danger-icon-a" height="118.2%" y="-4.5%" filterUnits="objectBoundingBox">
      <feOffset dy="1" in="SourceAlpha" result="shadowOffsetOuter1"/>
      <feGaussianBlur in="shadowOffsetOuter1" result="shadowBlurOuter1" stdDeviation=".5"/>
      <feColorMatrix in="shadowBlurOuter1" values="0 0 0 0 0   0 0 0 0 0   0 0 0 0 0  0 0 0 0.1 0"/>
    </filter>
    <path id="flash-danger-icon-d" d="M5.20950254,7.22107031 C4.93016582,6.94173358 4.93016582,6.48883927 5.20950254,6.20950254 C5.48883927,5.93016582 5.94173358,5.93016582 6.22107031,6.20950254 L10,9.98843223 L13.7789297,6.20950254 C14.0582664,5.93016582 14.5111607,5.93016582 14.7904975,6.20950254 C15.0698342,6.48883927 15.0698342,6.94173358 14.7904975,7.22107031 L11.0115678,11 L14.7904975,14.7789297 C15.0698342,15.0582664 15.0698342,15.5111607 14.7904975,15.7904975 C14.5111607,16.0698342 14.0582664,16.0698342 13.7789297,15.7904975 L10,12.0115678 L6.22107031,15.7904975 C5.94173358,16.0698342 5.48883927,16.0698342 5.20950254,15.7904975 C4.93016582,15.5111607 4.93016582,15.0582664 5.20950254,14.7789297 L8.98843223,11 L5.20950254,7.22107031 Z"/>
    <filter id="flash-danger-icon-c" width="140%" height="140%" x="-20%" filterUnits="objectBoundingBox">
      <feOffset dy="1" in="SourceAlpha" result="shadowOffsetOuter1"/>
      <feGaussianBlur in="shadowOffsetOuter1" result="shadowBlurOuter1" stdDeviation=".5"/>
      <feColorMatrix in="shadowBlurOuter1" values="0 0 0 0 0   0 0 0 0 0   0 0 0 0 0  0 0 0 0.1 0"/>
    </filter>
  </defs>
  <g fill="none" fill-rule="evenodd" transform="translate(1)">
    <use fill="#000" filter="url(#flash-danger-icon-a)" xlink:href="#flash-danger-icon-b"/>
    <use fill="#FFF" xlink:href="#flash-danger-icon-b"/>
    <g fill-rule="nonzero">
      <use fill="#000" filter="url(#flash-danger-icon-c)" xlink:href="#flash-danger-icon-d"/>
      <use fill="#FFF" fill-rule="evenodd" xlink:href="#flash-danger-icon-d"/>
    </g>
  </g>
</svg>
