<svg width="25" height="24" viewBox="0 0 25 24">
  <defs>
    <path id="flash-success-icon-b" d="M37.3940546,40.1565258 L37.391016,40.1562451 C37.678516,39.8490391 38.1636882,39.8312621 38.4741371,40.1157449 C38.7846013,40.4002276 38.8035636,40.8803081 38.5150669,41.1874989 L27.6899891,52.7160047 C27.5472358,52.8750394 27.3425971,52.9669033 27.1279713,52.9688782 L27.0820506,52.9688782 C26.8524595,52.955046 26.6418152,52.8404614 26.5070506,52.6557449 L22.8293506,47.6033311 C22.7005761,47.4413403 22.6436946,47.2339081 22.6726235,47.0294345 C22.7015523,46.824961 22.8143648,46.640252 22.9830723,46.5197426 C23.1527868,46.3982444 23.3644149,46.3508306 23.5700579,46.3883672 C23.7746812,46.4249327 23.9563761,46.5434571 24.0711768,46.7163189 L27.2017323,51.0151695 L37.3940546,40.1565258 Z M37.1168563,46.3364877 L37.1167213,46.3365603 C37.5388947,46.3057994 37.9067901,46.6186863 37.939942,47.0367623 C37.9974465,47.7643453 37.9810569,48.4957978 37.8932054,49.2194694 C37.5026263,52.3920928 35.7209673,55.2295847 33.0219264,56.9791667 C30.3231103,58.727757 26.9799477,59.2109596 23.8824742,58.2992075 C20.7841196,57.3883408 18.2447328,55.1749209 16.9385957,52.247717 C15.6324591,49.3205132 15.6919693,45.9770509 17.1018175,43.1038425 C18.511415,40.2316224 21.1281953,38.1215513 24.2561146,37.3342435 C27.3851788,36.5480954 30.7079548,37.1640773 33.3424034,39.020157 C33.6874165,39.2655476 33.7679347,39.7401901 33.5209043,40.0810623 C33.2747631,40.4230398 32.7945466,40.5004207 32.4494149,40.2560169 C29.7311005,38.344838 26.2025475,37.9872282 23.158211,39.3142416 C20.1137723,40.6410386 18.0028716,43.4572126 17.6012883,46.7278461 C17.1939113,50.0456655 18.606993,53.3311155 21.3063397,55.3464477 C24.0067009,57.3619043 27.5846975,57.8012271 30.691415,56.49879 C33.7991854,55.1965841 35.9640619,52.3503502 36.3714389,49.0325308 C36.4481221,48.4079957 36.4611524,47.7776322 36.4125377,47.1496612 C36.3803827,46.7317076 36.6955514,46.3683539 37.1168563,46.3364877 Z"/>
    <filter id="flash-success-icon-a" width="117.6%" height="118.4%" x="-8.8%" y="-4.6%" filterUnits="objectBoundingBox">
      <feOffset dy="1" in="SourceAlpha" result="shadowOffsetOuter1"/>
      <feGaussianBlur in="shadowOffsetOuter1" result="shadowBlurOuter1" stdDeviation=".5"/>
      <feColorMatrix in="shadowBlurOuter1" values="0 0 0 0 0   0 0 0 0 0   0 0 0 0 0  0 0 0 0.1 0"/>
    </filter>
  </defs>
  <g fill="none" fill-rule="evenodd" transform="translate(-15 -37)">
    <use fill="#000" filter="url(#flash-success-icon-a)" xlink:href="#flash-success-icon-b"/>
    <use fill="#FFF" xlink:href="#flash-success-icon-b"/>
  </g>
</svg>
