<svg width="22px" height="22px" viewBox="0 0 22 22">
    <g id="Page-1" stroke="none" stroke-width="1" fill="none" fill-rule="evenodd">
        <g id="Styleguide-Copy" transform="translate(-40.000000, -834.000000)" fill="#333333">
            <g id="Group" transform="translate(24.000000, 815.000000)">
                <path d="M37.9999554,29.7950366 L38,29.7950803 C38,31.1615406 37.7498132,32.4735611 37.2483256,33.7578152 C36.8588985,34.686571 36.3574109,35.5619801 35.7449767,36.3540898 L37.1928523,39.6879797 C37.3320925,39.9890383 37.2766136,40.3712099 37.053612,40.644502 C36.8871921,40.8633542 36.6087117,41 36.3019376,41 C36.2453727,41 36.1898938,40.9722445 36.1344149,40.9722445 L30.5648059,40.0157225 C29.4225348,40.3989818 28.2248461,40.5900731 26.9999777,40.5900731 C20.9288255,40.5900731 16,35.7530769 16,29.7950366 C16,23.8369963 20.9288255,19 26.9999777,19 C33.07113,19 37.9999554,23.8369963 37.9999554,29.7950366 Z M35.4381581,33.0201562 L35.4380133,33.0203366 C35.8557284,32.0082541 36.0504475,30.9150858 36.0504475,29.7952169 C36.0504475,24.9038356 31.9843545,20.9132248 26.9998329,20.9132248 C22.0153114,20.9132248 17.9491933,24.8759598 17.9481044,29.7673411 C17.9481044,34.6587225 22.0144759,38.6493332 26.998719,38.6493332 C28.0855168,38.6493332 29.1428514,38.4849207 30.1458265,38.1027491 C30.2567787,38.0760594 30.3688225,38.0483039 30.4797803,38.0483039 C30.5363452,38.0483039 30.5918241,38.0760594 30.647303,38.0760594 L34.7136745,38.7592896 L33.7389929,36.5185133 C33.5997416,36.1896883 33.6563177,35.8075166 33.9065156,35.5342246 C34.5472434,34.7687882 35.0759107,33.9222387 35.4381581,33.0201562 Z" id="Combined-Shape"></path>
            </g>
        </g>
    </g>
</svg>