<svg xmlns="http://www.w3.org/2000/svg" width="19" height="18" viewBox="0 0 19 18">
  <path fill="#333" fill-rule="evenodd" d="M9.4991252,0 C4.2538445,0 0,4.13137845 0,9.22804812 C0,13.305044 2.72178397,16.7634377 6.49682311,17.9836474 C6.97212929,18.0686202 7.14533902,17.783678 7.14533902,17.5389563 C7.14533902,17.3202929 7.13717425,16.7396453 7.13250867,15.9697916 C4.4900396,16.5272133 3.93250253,14.7325873 3.93250253,14.7325873 C3.50035299,13.6664617 2.87749777,13.3826525 2.87749777,13.3826525 C2.01494828,12.8105022 2.94281592,12.8218319 2.94281592,12.8218319 C3.89634427,12.8869777 4.39789435,13.772961 4.39789435,13.772961 C5.2452807,15.1829433 6.62162743,14.7756402 7.16283496,14.5394158 C7.24914822,13.9434731 7.49467448,13.5367365 7.76586144,13.3061769 C5.65643513,13.0733514 3.43853402,12.2814047 3.43853402,8.74540251 C3.43853402,7.73819137 3.80886461,6.91395502 4.41655668,6.26929457 C4.31857945,6.03590256 3.9925719,5.09723616 4.50986832,3.82717576 C4.50986832,3.82717576 5.30709967,3.57905513 7.12201111,4.77320648 C7.87958501,4.56813874 8.69256269,4.46617136 9.5002916,4.46220596 C10.3074373,4.46617136 11.1198318,4.56813874 11.8785721,4.77320648 C13.6923171,3.57905513 14.4883821,3.82717576 14.4883821,3.82717576 C15.0068449,5.09723616 14.6808373,6.03590256 14.5834433,6.26929457 C15.1923018,6.91395502 15.5597164,7.73819137 15.5597164,8.74540251 C15.5597164,12.2904685 13.3383161,13.070519 11.2224746,13.2988126 C11.5630621,13.5837548 11.8669081,14.1468414 11.8669081,15.0078993 C11.8669081,16.2411381 11.8552442,17.2364531 11.8552442,17.5389563 C11.8552442,17.7859439 12.0267043,18.0731521 12.5084257,17.9830809 C16.2805488,16.7600388 19,13.303911 19,9.22804812 C19,4.13137845 14.7461555,0 9.4991252,0"/>
</svg>
