<svg xmlns="http://www.w3.org/2000/svg" width="17" height="16" viewBox="0 0 17 16">
  <path fill="#333" fill-rule="evenodd" d="M8.49921729,2 C3.8060714,2 0,5.6723364 0,10.2027094 C0,13.8267058 2.4352804,16.9008335 5.81294699,17.9854643 C6.23822094,18.0609957 6.39319807,17.8077138 6.39319807,17.5901834 C6.39319807,17.3958159 6.38589275,16.8796847 6.38171828,16.1953703 C4.01740385,16.6908562 3.5185549,15.0956332 3.5185549,15.0956332 C3.13189478,14.1479659 2.57460327,13.8956911 2.57460327,13.8956911 C1.80284846,13.387113 2.63304583,13.3971839 2.63304583,13.3971839 C3.48620277,13.4550913 3.9349581,14.242632 3.9349581,14.242632 C4.69314589,15.4959496 5.92461402,15.1339024 6.40885233,14.9239251 C6.48607999,14.3941983 6.70576138,14.0326547 6.94840235,13.8277128 C5.0610209,13.6207568 3.07658307,12.9168042 3.07658307,9.77369112 C3.07658307,8.87839233 3.40793149,8.1457378 3.95165597,7.57270629 C3.86399214,7.36524672 3.57230118,6.53087658 4.03514534,5.40193401 C4.03514534,5.40193401 4.7484576,5.18138234 6.37232573,6.2428502 C7.05015501,6.06056777 7.77755609,5.96993009 8.5002609,5.9664053 C9.22244391,5.96993009 9.94932318,6.06056777 10.6281961,6.2428502 C12.2510206,5.18138234 12.9632892,5.40193401 12.9632892,5.40193401 C13.427177,6.53087658 13.135486,7.36524672 13.048344,7.57270629 C13.5931121,8.1457378 13.9218515,8.87839233 13.9218515,9.77369112 C13.9218515,12.9248609 11.9342828,13.6182391 10.0411615,13.8211668 C10.3458977,14.0744487 10.6177599,14.5749701 10.6177599,15.3403549 C10.6177599,16.4365672 10.6073237,17.3212916 10.6073237,17.5901834 C10.6073237,17.809728 10.7607354,18.0650241 11.1917493,17.9849608 C14.5668068,16.8978123 17,13.8256987 17,10.2027094 C17,5.6723364 13.1939286,2 8.49921729,2" transform="translate(0 -2)"/>
</svg>
