<svg xmlns="http://www.w3.org/2000/svg" width="58" height="53" viewBox="0 0 58 53">
  <g fill="none" fill-rule="evenodd" stroke-linecap="round" stroke-linejoin="round" transform="translate(1 1)">
    <g stroke="#222" opacity=".08">
      <path d="M36.5,20.5 L51.5,20.5"/>
      <path d="M56,7 L47.5,7"/>
      <path d="M14.5,0 L36.5,0"/>
      <path d="M10,3.5 L24,3.5"/>
      <path d="M1.5,16 L16,16"/>
      <path d="M4.5,42.5 L16,42.5"/>
      <path d="M0,51.5 L10.5,51.5"/>
      <path d="M9,48 L28,48"/>
      <path d="M51.5,41.5 L43,41.5"/>
    </g>
    <path stroke="#333" stroke-width="2" d="M18,18.1 C18,16.1 16.75,14.815 14.5,17.6 C12.5,20.08 8,26.5 8,29 L11.5,29"/>
    <path stroke="#333" stroke-width="2" d="M34,18.1 C34,16.1 35.25,14.815 37.5,17.6 C39.5,20.1 44,26.52 44,28.995 L40.5,28.995"/>
    <path fill="#0199DA" fill-rule="nonzero" stroke="#222" stroke-width="2" d="M18.5,25.5 C15,25.5 10,25.025 9.18,30.595 C8.285,36.5 11.115,38.5 15.93,38.5 C18.0816687,38.546737 20.1592688,37.7136027 21.6825022,36.1932006 C23.2057357,34.6727984 24.0427338,32.596752 24,30.445 C24,27.17 21.745,25.5 18.5,25.5 Z"/>
    <path fill="#F8931E" fill-rule="nonzero" stroke="#333" stroke-width="2" d="M24,30 C25.1455603,31.0007279 26.8544397,31.0007279 28,30"/>
    <path fill="#8D53AF" fill-rule="nonzero" stroke="#333" stroke-width="2" d="M23,27.31 C21.175,33.715 14.78,34.555 10.235,36.56 C11.425,37.94 13.4,38.5 15.93,38.5 C18.0816687,38.546737 20.1592688,37.7136027 21.6825022,36.1932006 C23.2057357,34.6727984 24.0427338,32.596752 24,30.445 C24.0413465,29.3155112 23.6877315,28.2069281 23,27.31 Z"/>
    <path fill="#9E66BF" fill-rule="nonzero" stroke="#333" stroke-width="2" d="M23,27.31 C22.04,26.115 20.445,25.51 18.5,25.51 C15,25.51 10,25.035 9.18,30.605 C8.765,33.405 9.18,35.32 10.26,36.565 C14.78,34.555 21.175,33.71 23,27.31 Z"/>
    <path fill="#8D53AF" fill-rule="nonzero" stroke="#333" stroke-width="2" d="M42.845,30.605 C42.7314204,29.6211668 42.3889365,28.6776238 41.845,27.85 C39.955,33.31 34.555,34.455 30.265,36.135 C31.7951007,37.6840986 33.8929814,38.5387907 36.07,38.5 C40.885,38.5 43.715,36.5 42.845,30.605 Z"/>
    <path fill="#9E66BF" fill-rule="nonzero" stroke="#333" stroke-width="2" d="M41.83,27.845 C40,25.215 36.28,25.5 33.5,25.5 C30.235,25.5 28,27.16 28,30.435 C27.9828631,32.5546967 28.7958191,34.596957 30.265,36.125 C34.555,34.455 39.955,33.31 41.83,27.845 Z"/>
  </g>
</svg>
