<svg xmlns="http://www.w3.org/2000/svg" width="18" height="18" viewBox="0 0 18 18">
  <path fill="#9F4DE0" fill-rule="evenodd" d="M4.37142857,0 L13.6285714,0 C16.03728,0 18,1.96272 18,4.37142857 L18,13.6285714 C18,16.03728 16.03728,18 13.6285714,18 L4.37142857,18 C1.96272,18 0,16.03728 0,13.6285714 L0,4.37142857 C0,1.96272 1.96272,0 4.37142857,0 Z M4.37142857,1.54285714 C2.79141429,1.54285714 1.54285714,2.79141429 1.54285714,4.37142857 L1.54285714,13.6285714 C1.54285714,15.2085857 2.79141429,16.4571429 4.37142857,16.4571429 L13.6285714,16.4571429 C15.2085857,16.4571429 16.4571429,15.2085857 16.4571429,13.6285714 L16.4571429,4.37142857 C16.4571429,2.79141429 15.2085857,1.54285714 13.6285714,1.54285714 L4.37142857,1.54285714 Z M14.1428571,3.08571429 C14.7113743,3.08571429 15.1714286,3.54576857 15.1714286,4.11428571 C15.1714286,4.68280286 14.7113743,5.14285714 14.1428571,5.14285714 C13.57434,5.14285714 13.1142857,4.68280286 13.1142857,4.11428571 C13.1142857,3.54576857 13.57434,3.08571429 14.1428571,3.08571429 Z M9,4.62857143 C11.4046971,4.62857143 13.3714286,6.59530286 13.3714286,9 C13.3714286,11.4046971 11.4046971,13.3714286 9,13.3714286 C6.59530286,13.3714286 4.62857143,11.4046971 4.62857143,9 C4.62857143,6.59530286 6.59530286,4.62857143 9,4.62857143 Z M9,6.17142857 C7.42901143,6.17142857 6.17142857,7.42901143 6.17142857,9 C6.17142857,10.5709886 7.42901143,11.8285714 9,11.8285714 C10.5709886,11.8285714 11.8285714,10.5709886 11.8285714,9 C11.8285714,7.42901143 10.5709886,6.17142857 9,6.17142857 Z"/>
</svg>
