<svg xmlns="http://www.w3.org/2000/svg" width="16" height="16" viewBox="0 0 16 16">
  <path fill="var(--blue-500)" fill-rule="evenodd" d="M589.000269,732.673395 L589.000029,732.673253 C588.995775,731.524081 589.453146,730.423237 590.268474,729.614977 L591.396303,728.487115 C591.684623,728.239953 592.115021,728.257 592.38348,728.525468 C592.65194,728.793906 592.668987,729.22432 592.421832,729.512674 L591.294003,730.640537 C590.257077,731.775563 590.29544,733.525575 591.38207,734.613656 C592.470228,735.70174 594.220188,735.74294 595.356526,734.705987 L595.356526,734.704565 L597.61073,732.450295 C598.730014,731.326578 598.730014,729.509838 597.61073,728.384812 C597.463006,728.251284 597.377782,728.062366 597.373521,727.863499 C597.367841,727.664647 597.445963,727.472886 597.586585,727.332259 C597.7272,727.191633 597.920367,727.11493 598.119227,727.12061 C598.318088,727.124872 598.507004,727.21152 598.640525,727.359249 C599.451597,728.170345 599.907551,729.271226 599.907551,730.417524 C599.907551,731.565278 599.451597,732.664704 598.640525,733.4758 L596.384903,735.731489 C595.576667,736.54684 594.475855,737.004232 593.326717,736.99997 C590.939135,736.99597 589.004531,735.061193 589.000269,732.673395 Z M601.578168,728.487184 L602.706059,727.35931 C603.764289,726.227266 603.734363,724.458781 602.637878,723.362191 C601.541394,722.265602 599.772961,722.235747 598.640878,723.294009 L596.385256,725.549698 C595.265972,726.673415 595.265972,728.490155 596.385256,729.615181 C596.667918,729.897837 596.667918,730.356659 596.385256,730.640751 C596.102608,730.922004 595.6438,730.922004 595.359715,730.640751 C594.548643,729.829655 594.091271,728.728774 594.091271,727.582476 C594.091271,726.434722 594.548643,725.333878 595.359715,724.5242 L597.615337,722.268511 C598.423573,721.45316 599.524385,720.995768 600.673523,721.00003 C603.061105,721.00403 604.995709,722.938807 604.999971,725.326605 C605.004225,726.475777 604.546854,727.576621 603.731526,728.384881 L602.603697,729.512744 C602.315377,729.759905 601.884979,729.742858 601.61652,729.474391 C601.34806,729.205952 601.331013,728.775538 601.578168,728.487184 Z" transform="translate(-589 -721)"/>
</svg>
