<svg xmlns="http://www.w3.org/2000/svg" width="18" height="18" viewBox="0 0 18 18">
  <path fill="#006087" fill-rule="evenodd" d="M16.668,0 C17.402,0 17.9995,0.581 17.9995,1.298 L17.9995,16.701 C17.9995,17.418 17.402,18 16.668,18 L1.3275,18 C0.595,18 0,17.418 0,16.701 L0,1.298 C0,0.581 0.595,0 1.3275,0 L16.668,0 Z M7.014,6.748 L7.014,15.338 L9.6805,15.338 L9.6805,11.0895 C9.6805,9.9685 9.8925,8.883 11.282,8.883 C12.652,8.883 12.669,10.1645 12.669,11.1605 L12.669,15.338 L15.3385,15.338 L15.3385,10.627 C15.3385,8.3135 14.839,6.535 12.1355,6.535 C10.837,6.535 9.966,7.247 9.61,7.9225 L9.573,7.9225 L9.573,6.748 L7.014,6.748 Z M4.004,2.478 C3.1465,2.478 2.455,3.1715 2.455,4.026 C2.455,4.881 3.1465,5.5745 4.004,5.5745 C4.858,5.5745 5.551,4.881 5.551,4.026 C5.551,3.1715 4.858,2.478 4.004,2.478 Z M2.667,15.338 L5.3395,15.338 L5.3395,6.748 L2.667,6.748 L2.667,15.338 Z"/>
</svg>
