<svg width="14" height="14" viewBox="0 0 14 14">
  <g fill="#1D8DDB" fill-rule="evenodd">
    <path d="M13.9605423,0.709054569 C13.9556181,0.330888749 13.6240929,0.0228714688 13.2203603,0.0213490464 L8.42642428,0 C7.31041614,0 7.31205474,1.55384676 8.42806707,1.55536918 L10.5107613,1.5568955 C10.8586977,1.5568955 10.9423836,1.74140529 10.692935,1.97318044 L7.24474636,5.17690367 C6.91814529,5.48034978 6.91814529,5.97137394 7.24638496,6.27632686 C7.57298603,6.57977297 8.1031172,6.57977297 8.42970146,6.27632686 L11.8778901,3.07260363 C12.1240741,2.84387333 12.3243018,2.91706671 12.3243018,3.24186187 L12.3259446,5.17842219 C12.3275832,6.21378653 14.0016374,6.21530895 13.9999988,5.17994461 L13.9605423,0.709054569 Z"/>
    <path d="M0.0394576903,13.2623895 C0.0443818734,13.6405993 0.375907126,13.9486525 0.779639728,13.9501751 L5.57357572,13.9700001 C6.68958386,13.9715266 6.68794526,12.4159724 5.57193293,12.4159724 L3.48923874,12.4144459 C3.14130234,12.4144459 3.05761644,12.2299146 3.30706497,11.9981125 L6.75525364,8.79401626 C7.08185471,8.49053482 7.08185471,7.99793479 6.75361504,7.69446506 C6.42701397,7.39098362 5.8968828,7.38945711 5.57029854,7.69294246 L2.12210987,10.8985613 C1.87592592,11.1273182 1.67569821,11.0525898 1.67569821,10.7292834 L1.67405542,8.79249756 C1.67241262,7.75701267 -0.00163739124,7.75549007 1.20213111e-06,8.79097106 L0.0394576903,13.2623895 Z"/>
  </g>
</svg>
