<svg width="16" height="16" viewBox="0 0 16 16">
  <g fill="#1D8DDB" fill-rule="evenodd">
    <path d="M6.96054231,10.1789288 C6.95561813,9.79905226 6.62409287,9.4896416 6.22036027,9.48811229 L1.42642428,9.46666667 C0.310416143,9.46666667 0.312054737,11.0275426 1.42806707,11.0290719 L3.51076126,11.0306051 C3.85869766,11.0306051 3.94238356,11.2159496 3.69293503,11.4487732 L0.244746363,14.6669892 C-0.0818547073,14.971808 -0.0818547073,15.4650534 0.246384956,15.7713859 C0.572986026,16.0762047 1.1031172,16.0762047 1.42970146,15.7713859 L4.87789013,12.5531699 C5.12407408,12.3234049 5.32430179,12.3969294 5.32430179,12.7231938 L5.32594458,14.6685146 C5.32758318,15.7085626 7.00163739,15.710092 6.9999988,14.6700439 L6.96054231,10.1789288 Z"/>
    <path d="M9.03945769,5.82252055 C9.04438187,6.20244132 9.37590713,6.51188801 9.77963973,6.51341749 L14.5735757,6.53333221 C15.6895839,6.53486561 15.6879453,4.97227454 14.5719329,4.97227454 L12.4892387,4.97074113 C12.1413023,4.97074113 12.0576164,4.78537509 12.307065,4.55252435 L15.7552536,1.33393365 C16.0818547,1.02907934 16.0818547,0.534250928 15.753615,0.229408387 C15.427014,-0.0754459197 14.8968828,-0.076979329 14.5702985,0.227878899 L11.1221099,3.44799908 C10.8759259,3.67779085 10.6756982,3.60272439 10.6756982,3.27795537 L10.6740554,1.33240808 C10.6724126,0.292238948 8.99836261,0.29070946 9.0000012,1.33087468 L9.03945769,5.82252055 Z"/>
  </g>
</svg>
