<svg width="23" height="21" viewBox="0 0 16 21">
  <g fill="#3F3A40" fill-rule="evenodd">
    <path fill-opacity=".097" d="M12.8085593,19.4714932 L2.15372306,19.4714932 C1.41808653,19.4714932 0.821868536,18.882373 0.821868536,18.1554941 L0.821868536,2.36350472 C0.821868536,1.63662577 1.41808653,1.0475056 2.15372306,1.0475056 L12.8085593,1.0475056 C13.1612876,1.0475056 13.500511,1.1863014 13.7502337,1.4330407 C13.9999564,1.67978001 14.1404138,2.01494919 14.1404138,2.36350472 L14.1404138,18.1554941 C14.1404138,18.5040233 13.9999458,18.8392083 13.7502337,19.0859581 C13.5005216,19.3327079 13.1613143,19.4714932 12.8085593,19.4714932 Z"/>
    <path d="M15.1928267,2.7500075 C15.1928267,2.0869325 14.9259749,1.4511825 14.4515773,0.9824325 C13.9771798,0.5136825 13.3337701,0.2500075 12.6627063,0.2500075 L2.54222434,0.2500075 C1.14473835,0.2500075 0.0121046145,1.3691575 0.0121046145,2.7500075 L0.0121046145,17.7500075 C0.0121046145,18.4130825 0.278956422,19.0488325 0.753354012,19.5175825 C1.22775135,19.9863325 1.87116048,20.2500075 2.54222434,20.2500075 L12.6627063,20.2500075 C13.3337701,20.2500075 13.9771798,19.9863325 14.4515773,19.5175825 C14.9259749,19.0488325 15.1928267,18.4130825 15.1928267,17.7500075 L15.1928267,2.7500075 Z M12.6626506,19 L2.54216867,19 C1.8434253,19 1.27710843,18.440425 1.27710843,17.75 L1.27710843,2.75 C1.27710843,2.059575 1.8434253,1.5 2.54216867,1.5 L12.6626506,1.5 C12.9976892,1.5 13.3199,1.631835 13.5570988,1.8662 C13.7942976,2.100565 13.9277108,2.418925 13.9277108,2.75 L13.9277108,17.75 C13.9277108,18.08105 13.7942875,18.399425 13.5570988,18.6338 C13.3199101,18.868175 12.9977145,19 12.6626506,19 Z"/>
  </g>
</svg>
