<svg xmlns="http://www.w3.org/2000/svg" width="20" height="18" viewBox="0 0 20 18">
  <defs>
    <linearGradient id="photos-icon-a" x1="0%" y1="100%" y2="0%">
      <stop offset="0%" stop-color="#AE2323"/>
      <stop offset="23.036%" stop-color="#FDC753"/>
      <stop offset="46.956%" stop-color="#6FF952"/>
      <stop offset="70.546%" stop-color="#52B9F4"/>
      <stop offset="100%" stop-color="#D251EC"/>
    </linearGradient>
  </defs>
  <path fill="url(#photos-icon-a)" fill-rule="evenodd" d="M7.0873913,0 L12.9126087,0 C13.6004348,0 14.2237391,0.398438571 14.5022609,1.01785714 L15.4737391,3.17408571 C15.5433739,3.32810571 15.6996217,3.42855 15.8711565,3.42855 L18.2607652,3.42855 C19.2220261,3.42855 19.9998957,4.19530714 19.9998957,5.14283571 L19.9998957,16.2856929 C19.9998957,17.2332214 19.2220261,17.9999786 18.2607652,17.9999786 L1.73902609,17.9999786 C0.777765217,17.9999786 -0.000104347826,17.2332214 -0.000104347826,16.2856929 L-0.000104347826,5.14283571 C-0.000104347826,4.19530714 0.777765217,3.42855 1.73902609,3.42855 L4.12863478,3.42855 C4.30016957,3.42855 4.45642174,3.32810143 4.52605217,3.17408571 L5.49753043,1.01785714 C5.77606087,0.398442857 6.39935652,0 7.08718261,0 L7.0873913,0 Z M6.00042609,4.125 C5.72019565,4.74441429 5.0986,5.14285714 4.41077391,5.14285714 L2.17403478,5.14285714 C1.93456522,5.14285714 1.73925217,5.33538 1.73925217,5.57142857 L1.73925217,15.8571429 C1.73925217,16.0931914 1.93456522,16.2857143 2.17403478,16.2857143 L17.8262087,16.2857143 C18.0656783,16.2857143 18.2609913,16.0931914 18.2609913,15.8571429 L18.2609913,5.57142857 C18.2609913,5.33538 18.0656783,5.14285714 17.8262087,5.14285714 L15.5894696,5.14285714 C14.9016435,5.14285714 14.2800348,4.74441857 13.9998174,4.125 L13.0283391,1.96877143 C12.9587043,1.81475143 12.8024565,1.71430714 12.6309217,1.71430714 L7.36918261,1.71430714 C7.19764783,1.71430714 7.04139565,1.81475571 6.97176522,1.96877143 L6.00042609,4.125 Z M10,15 C7.35904348,15 5.2173913,12.8889429 5.2173913,10.2857143 C5.2173913,7.68248571 7.35904348,5.57142857 10,5.57142857 C12.6409565,5.57142857 14.7826087,7.68248571 14.7826087,10.2857143 C14.7826087,12.8889429 12.6409565,15 10,15 Z M10,13.2857143 C11.6813913,13.2857143 13.0434783,11.9430857 13.0434783,10.2857143 C13.0434783,8.62834286 11.6813913,7.28571429 10,7.28571429 C8.3186087,7.28571429 6.95652174,8.62834286 6.95652174,10.2857143 C6.95652174,11.9430857 8.3186087,13.2857143 10,13.2857143 Z"/>
</svg>
