<svg xmlns="http://www.w3.org/2000/svg" width="17" height="15" viewBox="0 0 12 15">
  <path fill="#333" d="M11,12.28 L11,6 C10.97,5.22 10.66,4.53 10.06,3.94 C9.46,3.35 8.78,3.03 8,3 L7,3 L7,1 L4,4 L7,7 L7,5 L8,5 C8.27,5.02 8.48,5.11 8.69,5.31 C8.9,5.51 8.99,5.73 9,6 L9,12.28 C8.21717019,12.7309 7.83553838,13.6519631 8.07006224,14.5243919 C8.3045861,15.3968206 9.09660216,16.002387 10,16 C10.9033978,16.002387 11.6954139,15.3968206 11.9299378,14.5243919 C12.1644616,13.6519631 11.7828298,12.7309 11,12.28 Z M10,15.2 C9.34,15.2 8.8,14.65 8.8,14 C8.8,13.35 9.35,12.8 10,12.8 C10.65,12.8 11.2,13.35 11.2,14 C11.2,14.65 10.65,15.2 10,15.2 Z M4,4 C4,2.89 3.11,2 2,2 C1.09660216,1.99761305 0.304586097,2.60317938 0.0700622397,3.47560813 C-0.164461618,4.34803688 0.217170191,5.26909995 1,5.72 L1,12.28 C0.217170191,12.7309 -0.164461618,13.6519631 0.0700622397,14.5243919 C0.304586097,15.3968206 1.09660216,16.002387 2,16 C2.90339784,16.002387 3.6954139,15.3968206 3.92993776,14.5243919 C4.16446162,13.6519631 3.78282981,12.7309 3,12.28 L3,5.72 C3.59,5.38 4,4.74 4,4 Z M3.2,14 C3.2,14.66 2.65,15.2 2,15.2 C1.35,15.2 0.8,14.65 0.8,14 C0.8,13.35 1.35,12.8 2,12.8 C2.65,12.8 3.2,13.35 3.2,14 Z M2,5.2 C1.34,5.2 0.8,4.65 0.8,4 C0.8,3.35 1.35,2.8 2,2.8 C2.65,2.8 3.2,3.35 3.2,4 C3.2,4.65 2.65,5.2 2,5.2 Z" transform="translate(0 -1)"/>
</svg>
