<?xml version="1.0" encoding="UTF-8"?>
<svg width="12px" height="15px" viewBox="0 0 12 15" version="1.1" xmlns="http://www.w3.org/2000/svg" xmlns:xlink="http://www.w3.org/1999/xlink">
    <!-- Generator: Sketch 45.1 (43504) - http://www.bohemiancoding.com/sketch -->
    <title>pull-request</title>
    <desc>Created with Sketch.</desc>
    <defs></defs>
    <g id="Page-1" stroke="none" stroke-width="1" fill="none" fill-rule="evenodd">
        <g id="pull-request" fill-rule="nonzero" fill="#000000">
            <path d="M11,11.28 L11,5 C10.97,4.22 10.66,3.53 10.06,2.94 C9.46,2.35 8.78,2.03 8,2 L7,2 L7,0 L4,3 L7,6 L7,4 L8,4 C8.27,4.02 8.48,4.11 8.69,4.31 C8.9,4.51 8.99,4.73 9,5 L9,11.28 C8.21717019,11.7309 7.83553838,12.6519631 8.07006224,13.5243919 C8.3045861,14.3968206 9.09660216,15.002387 10,15 C10.9033978,15.002387 11.6954139,14.3968206 11.9299378,13.5243919 C12.1644616,12.6519631 11.7828298,11.7309 11,11.28 Z M10,14.2 C9.34,14.2 8.8,13.65 8.8,13 C8.8,12.35 9.35,11.8 10,11.8 C10.65,11.8 11.2,12.35 11.2,13 C11.2,13.65 10.65,14.2 10,14.2 Z M4,3 C4,1.89 3.11,1 2,1 C1.09660216,0.997613045 0.304586097,1.60317938 0.0700622397,2.47560813 C-0.164461618,3.34803688 0.217170191,4.26909995 1,4.72 L1,11.28 C0.217170191,11.7309 -0.164461618,12.6519631 0.0700622397,13.5243919 C0.304586097,14.3968206 1.09660216,15.002387 2,15 C2.90339784,15.002387 3.6954139,14.3968206 3.92993776,13.5243919 C4.16446162,12.6519631 3.78282981,11.7309 3,11.28 L3,4.72 C3.59,4.38 4,3.74 4,3 Z M3.2,13 C3.2,13.66 2.65,14.2 2,14.2 C1.35,14.2 0.8,13.65 0.8,13 C0.8,12.35 1.35,11.8 2,11.8 C2.65,11.8 3.2,12.35 3.2,13 Z M2,4.2 C1.34,4.2 0.8,3.65 0.8,3 C0.8,2.35 1.35,1.8 2,1.8 C2.65,1.8 3.2,2.35 3.2,3 C3.2,3.65 2.65,4.2 2,4.2 Z" id="Shape"></path>
        </g>
    </g>
</svg>