<svg xmlns="http://www.w3.org/2000/svg" width="16" height="16" viewBox="0 0 16 16">
  <path fill="#3F3A40" fill-rule="evenodd" d="M163.211962,14.1266011 L159,14.1266011 L159,9.79713994 L160.415548,9.79713994 L160.415548,11.6415079 L160.708609,11.3402717 C163.744286,8.21990945 168.683451,8.21990945 171.719093,11.3402717 C173.189917,12.8521274 174,14.8627696 174,17 L172.584452,17 C172.584452,15.2508278 171.922294,13.6068184 170.719645,12.3704375 C168.235536,9.81703029 164.194678,9.81844895 161.710746,12.3704375 L161.417681,12.6716737 L163.211994,12.6716737 L163.211962,14.1266011 Z M168.787751,21.329089 L168.788137,19.873938 L173,19.873938 L173,24.2027068 L171.584486,24.2027068 L171.584486,22.3580139 L171.291432,22.6593068 C169.773647,24.2197811 167.778868,25 165.785435,25 C163.792001,25 161.797294,24.2197811 160.280854,22.6607257 C158.810063,21.1483125 158,19.1374615 158,17 L159.415514,17 C159.415514,18.7496259 160.077657,20.3939614 161.280277,21.6303783 C163.764151,24.1842355 167.804914,24.1842355 170.288965,21.6303783 L170.582022,21.329089 L168.787751,21.329089 Z" transform="translate(-158 -9)"/>
</svg>
