<svg xmlns="http://www.w3.org/2000/svg" width="43" height="40" viewBox="0 0 43 40">
  <defs>
    <filter id="responsive-a" width="179.1%" height="185%" x="-39.5%" y="-37.5%" filterUnits="objectBoundingBox">
      <feOffset dy="2" in="SourceAlpha" result="shadowOffsetOuter1"/>
      <feGaussianBlur in="shadowOffsetOuter1" result="shadowBlurOuter1" stdDeviation="5"/>
      <feColorMatrix in="shadowBlurOuter1" result="shadowMatrixOuter1" values="0 0 0 0 0.11372549   0 0 0 0 0.552941176   0 0 0 0 0.858823529  0 0 0 0.2 0"/>
      <feMerge>
        <feMergeNode in="shadowMatrixOuter1"/>
        <feMergeNode in="SourceGraphic"/>
      </feMerge>
    </filter>
  </defs>
  <g fill="none" fill-rule="evenodd" filter="url(#responsive-a)">
    <path fill="#1D8DDB" stroke="#1D8DDB" stroke-width=".4" d="M40.798766,19.3463636 L40.798766,3.72136364 C40.798766,1.76290909 39.1959181,0.170227273 37.2249628,0.170227273 L5.77549468,0.170227273 C3.80453936,0.170227273 2.20169332,1.76290909 2.20169332,3.72136364 L2.20169332,14.375 C1.01878116,14.375 0.0574114043,15.3302727 0.0574114043,16.5056818 L0.0574114043,37.8125 C0.0574114043,38.9879091 1.01878116,39.9431818 2.20169332,39.9431818 L17.9264255,39.9431818 C19.1093372,39.9431818 20.0707074,38.9879091 20.0707074,37.8125 L26.060516,37.8125 C26.7341979,37.8125 27.3560053,37.5071 27.7652372,36.9744091 C28.1744371,36.4417273 28.3066713,35.7670455 28.1297674,35.1207273 L26.7252685,29.9998182 L30.7922451,29.9998182 L30.7922451,37.8125455 C30.7922451,38.9879545 31.7536153,39.9432273 32.936527,39.9432273 L40.7991228,39.9432273 C41.9820345,39.9432273 42.9434047,38.9879545 42.9434047,37.8125455 L42.9434047,21.4770909 C42.9434047,20.3016818 41.9820345,19.3464091 40.7991228,19.3464091 L40.798766,19.3463636 Z M41.5135266,21.4770455 L41.5135266,22.8975 L32.221867,22.8975 L32.221867,21.4770455 C32.221867,21.0864182 32.543507,20.7668182 32.9366277,20.7668182 L40.7992234,20.7668182 C41.192344,20.7668182 41.513984,21.0864182 41.513984,21.4770455 L41.5135266,21.4770455 Z M32.221867,24.3179545 L41.5135266,24.3179545 L41.5135266,34.9715909 L32.221867,34.9715909 L32.221867,24.3179545 Z M3.63144149,3.72159091 C3.63144149,2.54618182 4.5928117,1.59090909 5.7757234,1.59090909 L37.2251915,1.59090909 C38.4081032,1.59090909 39.3694734,2.54618182 39.3694734,3.72159091 L39.3694734,19.3465909 L32.9368564,19.3465909 C31.7539447,19.3465909 30.7925745,20.3018636 30.7925745,21.4772727 L30.7925745,22.8977273 L20.0709362,22.8977273 L20.0709362,16.5059091 C20.0709362,15.3305 19.109566,14.3752273 17.9266543,14.3752273 L3.63144149,14.3752273 L3.63144149,3.72159091 Z M18.6411862,34.9715909 L1.48693268,34.9715909 L1.48693268,19.3465909 L18.6411862,19.3465909 L18.6411862,34.9715909 Z M2.2014646,15.7952273 L17.9261968,15.7952273 C18.3193174,15.7952273 18.6409574,16.1148273 18.6409574,16.5054545 L18.6409574,17.9259091 L1.48670396,17.9259091 L1.48670396,16.5054545 C1.48670396,16.1148273 1.80834396,15.7952273 2.2014646,15.7952273 Z M17.9261968,38.5225 L2.2014646,38.5225 C1.80834396,38.5225 1.48670396,38.2029 1.48670396,37.8122727 L1.48670396,36.3918182 L18.6409574,36.3918182 L18.6409574,37.8122727 C18.6409574,38.2029 18.3193174,38.5225 17.9261968,38.5225 Z M26.6282074,36.1130455 C26.4924006,36.2906 26.2851223,36.3918091 26.059967,36.3918091 L20.0701585,36.3918091 L20.0701585,34.9713545 L26.606616,34.9713545 L26.7495681,35.4951273 C26.8103216,35.7099727 26.7656519,35.9354682 26.6280611,36.1130364 L26.6282074,36.1130455 Z M26.2172189,33.5509091 L20.0700487,33.5509091 L20.0700487,29.9997727 L25.2414895,29.9997727 L26.2172189,33.5509091 Z M20.0700487,28.5790909 L20.0700487,24.3177273 L30.791687,24.3177273 L30.791687,28.5790909 L20.0700487,28.5790909 Z M40.7978831,38.5222732 L32.9352873,38.5222732 C32.5421667,38.5222732 32.2205267,38.2026732 32.2205267,37.8120459 L32.2205267,36.3915909 L41.5121863,36.3915909 L41.5121863,37.8120459 C41.5121863,38.2026732 41.1905463,38.5222732 40.7974256,38.5222732 L40.7978831,38.5222732 Z"/>
    <path fill="#1D8DDB" fill-opacity=".237" d="M4.34595053 28.99525L6.19362394 27.1592955C6.47342477 26.8812693 6.92519225 26.8812693 7.20499309 27.1592955L7.20499309 27.1592955C7.48250362 27.4350459 7.48393047 27.8835525 7.20818004 28.161063 7.20712111 28.1621287 7.20605878 28.1631911 7.20499309 28.16425L5.35731968 30.0002045C5.07751885 30.2782307 4.62575136 30.2782307 4.34595053 30.0002045L4.34595053 30.0002045C4.06844 29.7244541 4.06701315 29.2759475 4.34276357 28.998437 4.34382251 28.9973713 4.34488484 28.9963089 4.34595053 28.99525zM7.20499309 31.1257045L14.7707516 23.6079318C15.0505524 23.3299056 15.5023199 23.3299056 15.7821207 23.6079318L15.7821207 23.6079318C16.0596313 23.8836822 16.0610581 24.3321889 15.7853077 24.6096994 15.7842488 24.6107651 15.7831864 24.6118274 15.7821207 24.6128864L8.21636223 32.1306591C7.9365614 32.4086853 7.48479392 32.4086853 7.20499309 32.1306591L7.20499309 32.1306591C6.92748255 31.8549087 6.9260557 31.406402 7.20180613 31.1288915 7.20286506 31.1278258 7.20392739 31.1267635 7.20499309 31.1257045zM8.63451436 24.7338864L11.911709 21.4774773C12.1915099 21.1994511 12.6432774 21.1994511 12.9230782 21.4774773L12.9230782 21.4774773C13.2005887 21.7532277 13.2020156 22.2017343 12.9262652 22.4792449 12.9252062 22.4803106 12.9241439 22.4813729 12.9230782 22.4824318L9.64588351 25.7388409C9.36608268 26.0168671 8.91431519 26.0168671 8.63451436 25.7388409L8.63451436 25.7388409C8.35700383 25.4630905 8.35557698 25.0145839 8.6313274 24.7370733 8.63238634 24.7360076 8.63344866 24.7349453 8.63451436 24.7338864zM34.3658973 28.99525L36.9283314 26.4490682C37.2081322 26.171042 37.6598997 26.171042 37.9397005 26.4490682L37.9397005 26.4490682C38.2172111 26.7248186 38.2186379 27.1733252 37.9428875 27.4508358 37.9418286 27.4519015 37.9407662 27.4529638 37.9397005 27.4540227L35.3772665 30.0002045C35.0974657 30.2782307 34.6456982 30.2782307 34.3658973 30.0002045L34.3658973 30.0002045C34.0883868 29.7244541 34.08696 29.2759475 34.3627104 28.998437 34.3637693 28.9973713 34.3648316 28.9963089 34.3658973 28.99525zM35.7954186 31.8361591L38.3578527 29.2899773C38.6376535 29.0119511 39.089421 29.0119511 39.3692218 29.2899773L39.3692218 29.2899773C39.6467323 29.5657277 39.6481592 30.0142343 39.3724088 30.2917449 39.3713498 30.2928106 39.3702875 30.2938729 39.3692218 30.2949318L36.8067878 32.8411136C36.5269869 33.1191398 36.0752194 33.1191398 35.7954186 32.8411136L35.7954186 32.8411136C35.5179081 32.5653632 35.5164812 32.1168566 35.7922317 31.8393461 35.7932906 31.8382804 35.7943529 31.837218 35.7954186 31.8361591zM19.3556952 11.9497955L22.6328899 8.69338636C22.9126907 8.41536017 23.3644582 8.41536017 23.644259 8.69338636L23.644259 8.69338636C23.9217696 8.96913679 23.9231964 9.41764341 23.647446 9.69515395 23.6463871 9.69621965 23.6453247 9.69728197 23.644259 9.69834091L20.3670644 12.95475C20.0872635 13.2327762 19.635496 13.2327762 19.3556952 12.95475L19.3556952 12.95475C19.0781847 12.6789996 19.0767578 12.2304929 19.3525083 11.9529824 19.3535672 11.9519167 19.3546295 11.9508544 19.3556952 11.9497955zM25.7887697 10.5293409L29.0659644 7.27293182C29.3457652 6.99490562 29.7975327 6.99490562 30.0773335 7.27293182L30.0773335 7.27293182C30.354844 7.54868224 30.3562709 7.99718887 30.0805205 8.2746994 30.0794615 8.2757651 30.0783992 8.27682743 30.0773335 8.27788636L26.8001388 11.5342955C26.520338 11.8123216 26.0685705 11.8123216 25.7887697 11.5342955L25.7887697 11.5342955C25.5112591 11.258545 25.5098323 10.8100384 25.7855827 10.5325279 25.7866417 10.5314622 25.787704 10.5303998 25.7887697 10.5293409zM21.5002059 14.7907045L23.3478793 12.95475C23.6276801 12.6767238 24.0794476 12.6767238 24.3592484 12.95475L24.3592484 12.95475C24.6367589 13.2305004 24.6381858 13.6790071 24.3624354 13.9565176 24.3613764 13.9575833 24.3603141 13.9586456 24.3592484 13.9597045L22.511575 15.7956591C22.2317742 16.0736853 21.7800067 16.0736853 21.5002059 15.7956591L21.5002059 15.7956591C21.2226953 15.5199087 21.2212685 15.071402 21.4970189 14.7938915 21.4980778 14.7928258 21.4991402 14.7917635 21.5002059 14.7907045zM25.0664612 6.27479545L26.9212707 4.43175C27.2010716 4.1537238 27.6528391 4.1537238 27.9326399 4.43175L27.9326399 4.43175C28.2101504 4.70750043 28.2115773 5.15600705 27.9358269 5.43351759 27.9347679 5.43458328 27.9337056 5.43564561 27.9326399 5.43670455L26.0778303 7.27975C25.7980295 7.5577762 25.346262 7.5577762 25.0664612 7.27975L25.0664612 7.27975C24.7889506 7.00399957 24.7875238 6.55549295 25.0632742 6.27798241 25.0643331 6.27691672 25.0653955 6.27585439 25.0664612 6.27479545z"/>
    <path fill="#E74E3E" d="M5.77050387,4.43181818 L5.7795706,4.43181818 C6.17181829,4.43181818 6.48979787,4.1138386 6.48979787,3.72159091 L6.48979787,3.72159091 C6.48979787,3.32934322 6.17181829,3.01136364 5.7795706,3.01136364 L5.77050387,3.01136364 C5.37825618,3.01136364 5.0602766,3.32934322 5.0602766,3.72159091 L5.0602766,3.72159091 C5.0602766,4.1138386 5.37825618,4.43181818 5.77050387,4.43181818 Z"/>
    <path fill="#FFD542" d="M8.62954642,4.43181818 L8.63861315,4.43181818 C9.03086084,4.43181818 9.34884043,4.1138386 9.34884043,3.72159091 L9.34884043,3.72159091 C9.34884043,3.32934322 9.03086084,3.01136364 8.63861315,3.01136364 L8.62954642,3.01136364 C8.23729873,3.01136364 7.91931915,3.32934322 7.91931915,3.72159091 L7.91931915,3.72159091 C7.91931915,4.1138386 8.23729873,4.43181818 8.62954642,4.43181818 Z"/>
    <path fill="#43CB54" d="M11.488589,4.43181818 L11.4976557,4.43181818 C11.8899034,4.43181818 12.207883,4.1138386 12.207883,3.72159091 L12.207883,3.72159091 C12.207883,3.32934322 11.8899034,3.01136364 11.4976557,3.01136364 L11.488589,3.01136364 C11.0963413,3.01136364 10.7783617,3.32934322 10.7783617,3.72159091 L10.7783617,3.72159091 C10.7783617,4.1138386 11.0963413,4.43181818 11.488589,4.43181818 Z"/>
  </g>
</svg>
