<svg xmlns="http://www.w3.org/2000/svg" width="16" height="16" viewBox="0 0 16 16">
  <g fill="#2B023F" fill-rule="evenodd">
    <path d="M15.506087,6.67557447 C15.9490261,6.35708936 16.0733391,5.76200851 15.7927652,5.29858723 L14.2275478,2.73535319 C13.9598783,2.26461277 13.3566261,2.08907234 12.8695304,2.34040851 L11.4782261,2.96008511 C11.2336696,2.79984511 10.9795826,2.65555745 10.7166783,2.52789787 L10.5842052,1.02124255 L10.5740157,0.949433191 C10.4768696,0.45940766 10.0407287,0.10368 9.53053739,0.0983693617 L6.49732,0.0983693617 C5.94772,0.0977055319 5.49119826,0.513262979 5.45384174,1.05050553 L5.31661391,2.53986723 C5.04962261,2.66486809 4.79216174,2.80781617 4.5462313,2.9687183 L3.15492696,2.34039489 L3.12163826,2.32709787 C2.62911652,2.13162553 2.06457739,2.3191183 1.79487304,2.76791489 L0.27856,5.29710638 C-0.00269217391,5.75988085 0.120951304,6.35562553 0.563203478,6.6754383 L1.82949913,7.55708936 C1.81387478,7.70469617 1.80572174,7.85230638 1.80504348,7.99991489 C1.80504348,8.15284085 1.81387478,8.29778723 1.82746261,8.43210213 L0.521758261,9.30577021 L0.495942609,9.32438809 C0.05436,9.64154553 -0.0713095652,10.2332902 0.205177391,10.6960647 L1.73030783,13.2645753 C1.86074261,13.4833328 2.06658609,13.6495455 2.31114261,13.7326604 C2.57472522,13.8184323 2.86209913,13.7918366 3.10462087,13.6595217 L4.48234261,13.0398451 L4.48166261,13.0398451 C4.72621913,13.2000851 4.98030609,13.3443728 5.24321043,13.4720323 L5.38111826,14.9786871 L5.39130957,15.0504965 C5.48777739,15.5405222 5.92459652,15.8962499 6.43478783,15.9015603 L9.46800522,15.9015603 C10.0176052,15.9022252 10.4734313,15.4866667 10.5114835,14.9494242 L10.6507496,13.460063 L10.6500696,13.460063 C10.9170609,13.3343983 11.1745217,13.1907864 11.4211304,13.0298843 L12.8124348,13.6582077 L12.8436852,13.6715047 C13.336207,13.8663132 13.9007461,13.6788187 14.1704504,13.2306877 L15.678607,10.6894111 L15.677927,10.6894111 C15.9591791,10.2273174 15.8375739,9.6322366 15.3966748,9.31242383 L14.2315965,8.44273872 L14.2309183,8.44273872 C14.2485809,8.29579745 14.2587722,8.1475217 14.2608104,7.99991319 C14.2608104,7.84299745 14.2506191,7.69538553 14.2363548,7.55708766 L15.4883896,6.68541106 L15.506087,6.67557447 Z M12.7492174,6.92624681 L12.80832,7.33649362 C12.8450052,7.55591489 12.8653843,7.77731064 12.8694609,8.00005106 C12.8647061,8.22279149 12.842967,8.44420426 12.8049235,8.66360851 L12.7478591,9.05988085 L14.3429722,10.2513702 L13.1255809,12.3112851 L11.2382765,11.4602213 L10.9026765,11.728834 L10.9026765,11.7294996 C10.5433026,12.0027762 10.147233,12.2255166 9.72537217,12.3917294 L9.34425913,12.5519694 L9.15608522,14.5512885 L6.73695478,14.5512885 L6.55149391,12.5512885 L6.17038087,12.3910485 L6.17038087,12.3917123 C5.74307652,12.2135166 5.34022435,11.9848017 4.96998087,11.7108613 L4.63777217,11.4675081 L2.77029391,12.3099251 L1.55290261,10.2673719 L3.31985913,9.08917617 L3.25871826,8.66895489 C3.22203304,8.44754213 3.20165391,8.22413787 3.19825565,8.00006979 C3.20301217,7.77666553 3.22474957,7.55458894 3.26279304,7.33450383 L3.32393391,6.92425702 L1.62624696,5.74274213 L2.84363826,3.69150809 L4.73094261,4.54257191 L5.06654261,4.27395915 L5.06586435,4.27395915 C5.42523826,4.00068255 5.82130783,3.77794213 6.2431687,3.61172936 L6.62428174,3.45148936 L6.81042087,1.45148936 L9.22746435,1.45215489 L9.41360348,3.45215489 L9.79471652,3.61239489 L9.79471652,3.61172936 C10.2213426,3.78992511 10.624873,4.01864 10.9944383,4.29258043 L11.326647,4.53593362 L13.1982991,3.6935166 L14.4469426,5.74798468 L12.7492174,6.92624681 Z"/>
    <path d="M8,5.10638298 C7.21603478,5.10638298 6.464,5.41157447 5.90956522,5.95412766 C5.35513043,6.49668085 5.0433913,7.23271489 5.0433913,8.00008511 C5.0433913,8.76745532 5.35521739,9.50340426 5.90956522,10.0460426 C6.46391304,10.5886809 7.21594783,10.8937872 8,10.8937872 C8.78405217,10.8937872 9.536,10.5885957 10.0904348,10.0460426 C10.6448696,9.50348936 10.9566087,8.76745532 10.9566087,8.00008511 C10.96544,7.23014468 10.6570087,6.48878298 10.1006261,5.94425532 C9.54424348,5.39972766 8.78676522,5.0978383 8.00010435,5.10648511 L8,5.10638298 Z M8,9.53191489 C7.36685217,9.53191489 6.7961913,9.15891064 6.55366957,8.58643404 C6.31182609,8.01395745 6.44565391,7.35504681 6.89333913,6.91688511 C7.34102435,6.4787234 8.01426087,6.34772766 8.59918261,6.58444255 C9.18410435,6.82180426 9.56521739,7.3803234 9.56521739,8 C9.57065217,8.40757447 9.4069287,8.80052766 9.11276522,9.08908936 C8.81793043,9.37698723 8.41643478,9.53722553 8,9.53191489 Z"/>
  </g>
</svg>
