<svg xmlns="http://www.w3.org/2000/svg" xmlns:xlink="http://www.w3.org/1999/xlink" width="104" height="104" viewBox="0 0 104 104">
  <defs>
    <circle id="thumbs-up-large-icon-b" cx="50" cy="50" r="50"/>
    <filter id="thumbs-up-large-icon-a" width="106%" height="106%" x="-2%" y="-2%" filterUnits="objectBoundingBox">
      <feMorphology in="SourceAlpha" operator="dilate" radius="1" result="shadowSpreadOuter1"/>
      <feOffset dx="2" dy="2" in="shadowSpreadOuter1" result="shadowOffsetOuter1"/>
      <feComposite in="shadowOffsetOuter1" in2="SourceAlpha" operator="out" result="shadowOffsetOuter1"/>
      <feColorMatrix in="shadowOffsetOuter1" values="0 0 0 0 0   0 0 0 0 0.82745098   0 0 0 0 0.250980392  0 0 0 0.1 0"/>
    </filter>
    <linearGradient id="thumbs-up-large-icon-c" x1="100%" x2="0%" y1="0%" y2="100%">
      <stop offset="0%" stop-color="#4FD960"/>
      <stop offset="100%" stop-color="#43CB54"/>
    </linearGradient>
  </defs>
  <g fill="none" fill-rule="evenodd" transform="translate(1 1)">
    <use fill="#000" filter="url(#thumbs-up-large-icon-a)" xlink:href="#thumbs-up-large-icon-b"/>
    <use fill="#FFF" stroke="#45CE56" stroke-width="2" xlink:href="#thumbs-up-large-icon-b"/>
    <g transform="translate(20 20)">
      <g opacity=".099" transform="translate(2 2)">
        <path fill="url(#thumbs-up-large-icon-c)" fill-rule="nonzero" d="M8.77421718,28.7239024 L9.05721412,48.3837646 L17.5972318,46.6782625 L16.383973,30.0076198 L8.77421718,28.7239024 Z M17.4569423,28.4979901 C18.4481197,26.2368712 21.2873604,23.9556399 24.8134132,22.3731126 C27.2828703,21.264796 28.0952246,14.8980511 27.4824459,9.39930847 C27.2199454,7.04377187 29.81782,6.44619655 32.3875795,7.50294553 C35.0119282,8.58214299 36.8972424,10.9567737 36.9492699,13.9782159 C37.0121396,17.629312 37.0169268,21.273642 36.9636306,24.9112023 C43.3467215,24.9112023 43.5019243,24.9112023 47.1141532,24.9112023 C50.345904,24.9112023 52.986164,28.613019 52.986164,32.1367649 C52.986164,33.6325534 52.3427362,35.2347403 51.3655638,36.5414192 C52.1154694,37.8068299 52.3407872,39.9294542 51.8366577,41.7457011 C51.3895159,43.3566364 50.4440537,44.6210119 49.039845,45.3833627 C49.5180302,48.3505301 47.2033291,52.536717 43.70567,52.536717 L37.2110401,52.536717 C35.2067073,52.536717 33.7078442,50.637825 33.7078442,48.7160061 C33.7078442,47.480741 34.4020233,46.0646373 35.3984904,45.2244284 C34.6871737,44.5260891 34.2854418,43.4719635 34.3161906,42.1362936 C34.3573774,40.3472219 35.0767768,38.759617 36.1801987,37.9330352 C35.5221773,37.1677026 35.1813826,36.1197089 35.1813826,34.8980249 C35.1813826,32.6200734 36.7615234,30.9575281 39.0356084,30.9575281 C40.2658219,30.9575281 42.3746322,31.0566483 45.3748795,31.254675 C45.8620442,31.2868296 46.2309029,31.7078211 46.1987483,32.1949859 C46.1665938,32.6821506 45.7456023,33.0510093 45.2584375,33.0188547 C42.2948033,32.8232446 40.2162469,32.7255464 39.0356084,32.7255464 C37.7586397,32.7255464 36.9494009,33.5769871 36.9494009,34.8980249 C36.9494009,36.4469654 37.6458167,37.3621179 39.1186619,37.501108 C41.2005101,37.6975687 44.7191878,37.6975687 47.0392875,37.5003737 C48.9228597,37.340281 51.2181457,34.4650559 51.2181457,32.1367649 C51.2181457,29.4860404 49.2162276,26.6792206 47.1141532,26.6792206 L35.1659668,26.6792206 L35.1815147,25.77993 C35.2492153,21.8641213 35.2492153,17.9403646 35.1815136,14.0086556 C35.1425877,11.748067 33.7274074,9.96558941 31.7151617,9.13810392 C30.1698983,8.50265321 29.186689,8.72881562 29.239587,9.20349302 C29.9459168,15.5417117 29.0708101,22.4002718 25.5373487,23.9861241 C21.6959076,25.7102007 18.8197745,28.3671048 18.8463969,30.1942561 C18.8556143,30.8268692 18.9026001,31.6102055 18.9963001,32.7811547 C19.0292387,33.1927819 19.2325523,35.5902688 19.2941984,36.3644629 C19.4853488,38.76506 19.6128224,40.864159 19.6859931,43.1069434 C19.8353729,47.6856446 22.2891325,49.4257073 29.7139292,49.4257073 C30.202154,49.4257073 30.5979384,49.8214916 30.5979384,50.3097164 C30.5979384,50.7979412 30.202154,51.1937255 29.7139292,51.1937255 C24.1126719,51.1937255 20.7772368,50.2176527 19.1475052,47.7556467 C18.9464241,48.0541388 18.6321733,48.2745079 18.2558037,48.3496715 L8.97825793,50.2024631 C8.21613311,50.3546648 7.47492499,49.8602245 7.32272327,49.0980997 C7.30592656,49.0139929 7.29685434,48.9285267 7.29561987,48.8427681 L7.0001488,28.3163251 C6.98896281,27.5392315 7.60985361,26.9002046 8.38694722,26.8890186 C8.47213889,26.8877923 8.55726591,26.8943055 8.64127938,26.9084781 L16.9573605,28.3113481 C17.1385773,28.3419183 17.3072243,28.4064623 17.4569423,28.4979901 Z M47.3328157,46.0073222 C46.8335562,46.1162227 46.2973615,46.1787117 45.7251798,46.191064 C42.1497206,46.268251 40.533864,46.268251 39.2135407,46.221457 C38.9822569,46.2129919 38.9822569,46.2129919 38.7711966,46.2054532 C38.4839442,46.1956913 38.255956,46.1912699 37.9725689,46.1912699 C37.8384035,46.1912699 37.7068679,46.1856962 37.5781483,46.1746613 C37.4663359,46.2257715 37.3420143,46.2542548 37.2110401,46.2542548 C36.4864325,46.2542548 35.4758625,47.6861573 35.4758625,48.7160061 C35.4758625,49.7409073 36.2871348,50.7686987 37.2110401,50.7686987 L43.70567,50.7686987 C45.8217765,50.7686987 47.4356516,47.984373 47.3328157,46.0073222 Z M38.0474825,39.0951391 C38.0172836,39.0976704 37.9866644,39.0986787 37.9557037,39.0980879 C37.042686,39.0806661 36.1248019,40.3933616 36.0837406,42.1769849 C36.0483155,43.715782 36.7455099,44.4232516 37.9725689,44.4232516 C38.2775704,44.4232516 38.5251674,44.4280533 38.8312456,44.438455 C39.0487546,44.4462226 39.0487546,44.4462226 39.2761624,44.454548 C40.5580311,44.4999792 42.1423829,44.4999792 45.6870207,44.4234575 C48.1653062,44.3699563 49.5988931,43.1972555 50.1330477,41.2728359 C50.4530124,40.1200864 50.373203,38.7886636 50.0717868,37.9256391 C49.1853601,38.6771294 48.182024,39.1776406 47.1890189,39.2620403 C44.7663982,39.467949 41.142302,39.467949 38.9525548,39.261306 C38.631231,39.2309832 38.3294064,39.1749753 38.0474825,39.0951391 Z" transform="rotate(-20 29.993 29.768)"/>
        <polygon fill="#48D058" points="16.714 55.426 25.918 49.374 27.927 50.323 31.113 50.859 36.603 49.374 44.65 47.63 51.218 45.224 53.214 41.953 53.214 38.709 52.468 37.941 53.214 35.198 53.811 31.874 51.218 29.096 52.052 25.096 48.377 20.237 44.029 20.237 34.6 23.699 28.917 10.568 24.85 8.782 22.044 9.374 21.387 10.568 23.523 15.701 24.51 21.617 23.523 25.096 21.387 27.373 19.642 29.918 18.525 33.408 8.989 35.198"/>
      </g>
      <path fill="url(#thumbs-up-large-icon-c)" fill-rule="nonzero" d="M15.3564948,47.1257536 L17.5972318,46.6782625 L16.383973,30.0076198 L8.77421718,28.7239024 L9.05721412,48.3837646 L13.6160756,47.4733276 L12.7426522,39.5472466 C12.6891754,39.0619594 13.0392269,38.6252049 13.5245141,38.5717281 C14.0098013,38.5182513 14.4465558,38.8683029 14.5000326,39.3535901 L15.3564948,47.1257536 Z M17.4569423,28.4979901 C18.4481197,26.2368712 21.2873604,23.9556399 24.8134132,22.3731126 C27.2828703,21.264796 28.0952246,14.8980511 27.4824459,9.39930847 C27.2199454,7.04377187 29.81782,6.44619655 32.3875795,7.50294553 C35.0119282,8.58214299 36.8972424,10.9567737 36.9492699,13.9782159 C37.0121396,17.629312 37.0169268,21.273642 36.9636306,24.9112023 C43.3467215,24.9112023 43.5019243,24.9112023 47.1141532,24.9112023 C50.345904,24.9112023 52.986164,28.613019 52.986164,32.1367649 C52.986164,33.6325534 52.3427362,35.2347403 51.3655638,36.5414192 C52.1154694,37.8068299 52.3407872,39.9294542 51.8366577,41.7457011 C51.3895159,43.3566364 50.4440537,44.6210119 49.039845,45.3833627 C49.5180302,48.3505301 47.2033291,52.536717 43.70567,52.536717 L37.2110401,52.536717 C35.2067073,52.536717 33.7078442,50.637825 33.7078442,48.7160061 C33.7078442,47.480741 34.4020233,46.0646373 35.3984904,45.2244284 C34.6871737,44.5260891 34.2854418,43.4719635 34.3161906,42.1362936 C34.3573774,40.3472219 35.0767768,38.759617 36.1801987,37.9330352 C35.5221773,37.1677026 35.1813826,36.1197089 35.1813826,34.8980249 C35.1813826,32.6200734 36.7615234,30.9575281 39.0356084,30.9575281 C40.2658219,30.9575281 42.3746322,31.0566483 45.3748795,31.254675 C45.8620442,31.2868296 46.2309029,31.7078211 46.1987483,32.1949859 C46.1665938,32.6821506 45.7456023,33.0510093 45.2584375,33.0188547 C42.2948033,32.8232446 40.2162469,32.7255464 39.0356084,32.7255464 C37.7586397,32.7255464 36.9494009,33.5769871 36.9494009,34.8980249 C36.9494009,36.4469654 37.6458167,37.3621179 39.1186619,37.501108 C41.2005101,37.6975687 44.7191878,37.6975687 47.0392875,37.5003737 C48.9228597,37.340281 51.2181457,34.4650559 51.2181457,32.1367649 C51.2181457,29.4860404 49.2162276,26.6792206 47.1141532,26.6792206 L35.1659668,26.6792206 L35.1815147,25.77993 C35.2492153,21.8641213 35.2492153,17.9403646 35.1815136,14.0086556 C35.1425877,11.748067 33.7274074,9.96558941 31.7151617,9.13810392 C30.1698983,8.50265321 29.186689,8.72881562 29.239587,9.20349302 C29.9459168,15.5417117 29.0708101,22.4002718 25.5373487,23.9861241 C21.6959076,25.7102007 18.8197745,28.3671048 18.8463969,30.1942561 C18.8556143,30.8268692 18.9026001,31.6102055 18.9963001,32.7811547 C19.0292387,33.1927819 19.2325523,35.5902688 19.2941984,36.3644629 C19.4853488,38.76506 19.6128224,40.864159 19.6859931,43.1069434 C19.8353729,47.6856446 22.2891325,49.4257073 29.7139292,49.4257073 C30.202154,49.4257073 30.5979384,49.8214916 30.5979384,50.3097164 C30.5979384,50.7979412 30.202154,51.1937255 29.7139292,51.1937255 C24.1126719,51.1937255 20.7772368,50.2176527 19.1475052,47.7556467 C18.9464241,48.0541388 18.6321733,48.2745079 18.2558037,48.3496715 L8.97825793,50.2024631 C8.21613311,50.3546648 7.47492499,49.8602245 7.32272327,49.0980997 C7.30592656,49.0139929 7.29685434,48.9285267 7.29561987,48.8427681 L7.0001488,28.3163251 C6.98896281,27.5392315 7.60985361,26.9002046 8.38694722,26.8890186 C8.47213889,26.8877923 8.55726591,26.8943055 8.64127938,26.9084781 L16.9573605,28.3113481 C17.1385773,28.3419183 17.3072243,28.4064623 17.4569423,28.4979901 Z M47.3328157,46.0073222 C46.8335562,46.1162227 46.2973615,46.1787117 45.7251798,46.191064 C42.1497206,46.268251 40.533864,46.268251 39.2135407,46.221457 C38.9822569,46.2129919 38.9822569,46.2129919 38.7711966,46.2054532 C38.4839442,46.1956913 38.255956,46.1912699 37.9725689,46.1912699 C37.8384035,46.1912699 37.7068679,46.1856962 37.5781483,46.1746613 C37.4663359,46.2257715 37.3420143,46.2542548 37.2110401,46.2542548 C36.4864325,46.2542548 35.4758625,47.6861573 35.4758625,48.7160061 C35.4758625,49.7409073 36.2871348,50.7686987 37.2110401,50.7686987 L43.70567,50.7686987 C45.8217765,50.7686987 47.4356516,47.984373 47.3328157,46.0073222 Z M38.0474825,39.0951391 C38.0172836,39.0976704 37.9866644,39.0986787 37.9557037,39.0980879 C37.042686,39.0806661 36.1248019,40.3933616 36.0837406,42.1769849 C36.0483155,43.715782 36.7455099,44.4232516 37.9725689,44.4232516 C38.2775704,44.4232516 38.5251674,44.4280533 38.8312456,44.438455 C39.0487546,44.4462226 39.0487546,44.4462226 39.2761624,44.454548 C40.5580311,44.4999792 42.1423829,44.4999792 45.6870207,44.4234575 C48.1653062,44.3699563 49.5988931,43.1972555 50.1330477,41.2728359 C50.4530124,40.1200864 50.373203,38.7886636 50.0717868,37.9256391 C49.1853601,38.6771294 48.182024,39.1776406 47.1890189,39.2620403 C44.7663982,39.467949 41.142302,39.467949 38.9525548,39.261306 C38.631231,39.2309832 38.3294064,39.1749753 38.0474825,39.0951391 Z M24.7029154,10.3178271 C25.1255977,10.5621692 25.2701711,11.1028993 25.025829,11.5255817 C24.7814869,11.948264 24.2407568,12.0928374 23.8180744,11.8484953 L19.3669859,9.2754325 C18.9443035,9.03109042 18.7997302,8.49036028 19.0440723,8.06767793 C19.2884143,7.64499558 19.8291445,7.50042222 20.2518268,7.7447643 L24.7029154,10.3178271 Z M39.5914341,10.81703 C39.1414443,11.0064307 38.6231159,10.7951814 38.4337153,10.3451916 C38.2443147,9.8952018 38.455564,9.37687344 38.9055538,9.18747281 L42.4507038,7.69531978 C42.9006936,7.50591916 43.419022,7.71716842 43.6084226,8.16715823 C43.7978232,8.61714803 43.586574,9.13547639 43.1365842,9.32487702 L39.5914341,10.81703 Z M39.9682481,17.3330229 C39.4895043,17.2372742 39.1790255,16.771556 39.2747743,16.2928122 C39.370523,15.8140684 39.8362413,15.5035896 40.314985,15.5993384 L44.7350307,16.4833475 C45.2137745,16.5790963 45.5242533,17.0448145 45.4285046,17.5235583 C45.3327558,18.002302 44.8670376,18.3127808 44.3882938,18.2170321 L39.9682481,17.3330229 Z M23.618745,14.880376 C24.0722778,14.6996237 24.5864675,14.9207561 24.7672197,15.3742889 C24.947972,15.8278218 24.7268396,16.3420115 24.2733068,16.5227637 L20.1366873,18.1713837 C19.6831544,18.3521359 19.1689647,18.1310036 18.9882125,17.6774707 C18.8074602,17.2239379 19.0285926,16.7097482 19.4821254,16.5289959 L23.618745,14.880376 Z M13.100072,37.6824 C12.606814,37.6824 12.2069493,37.2866156 12.2069493,36.7983909 C12.2069493,36.3101661 12.606814,35.9143817 13.100072,35.9143817 C13.59333,35.9143817 13.9931946,36.3101661 13.9931946,36.7983909 C13.9931946,37.2866156 13.59333,37.6824 13.100072,37.6824 Z" transform="rotate(-20 29.993 29.768)"/>
    </g>
  </g>
</svg>
