<svg xmlns="http://www.w3.org/2000/svg" width="18" height="14" viewBox="0 0 18 14">
  <path fill="#2BA3EF" fill-rule="evenodd" d="M16.1594756,3.4876126 C16.1677229,3.63929146 16.1713868,3.79185464 16.1713868,3.94441334 C16.1713868,8.61499442 12.4558757,14 5.66263597,14 C3.57721153,14 1.63562241,13.4151954 -1.13686838e-13,12.4121955 C0.287717546,12.4428823 0.582753523,12.4621715 0.881448716,12.4621715 C2.6122811,12.4621715 4.20382873,11.8966696 5.46930742,10.948009 C3.85118356,10.9208304 2.48868875,9.89765014 2.01768204,8.49387219 C2.24308502,8.53507898 2.47489632,8.55787637 2.71129103,8.55787637 C3.04939315,8.55787637 3.37557938,8.51403903 3.68436087,8.43337617 C1.99476503,8.1072278 0.721100016,6.68073552 0.721100016,4.96674516 L0.721100016,4.92290782 C1.21955084,5.18681619 1.78947366,5.34550237 2.39420593,5.36390728 C1.4037079,4.73001545 0.752250261,3.64722352 0.752250261,2.42159158 C0.752250261,1.77454698 0.934587092,1.16783605 1.2525307,0.646146802 C3.0731546,2.78454976 5.7953529,4.19088643 8.86487174,4.33812566 C8.80073226,4.08036723 8.77049682,3.80943357 8.77049682,3.53239488 C8.77049682,1.58248507 10.4234536,0 12.4620823,0 C13.5249437,0 14.4852062,0.428744484 15.1586426,1.1143496 C15.9988548,0.956534286 16.790512,0.662823441 17.5033788,0.257758437 C17.2266623,1.08279193 16.6411644,1.77542233 15.8797426,2.21204502 C16.6265041,2.12787625 17.336603,1.93760994 18,1.65529667 C17.5061232,2.36722978 16.8812418,2.98971955 16.1592035,3.48772932 L16.1594756,3.4876126 Z"/>
</svg>
