<svg xmlns="http://www.w3.org/2000/svg" width="58" height="54" viewBox="0 0 58 54">
  <g fill="none" fill-rule="evenodd" stroke-linecap="round" stroke-linejoin="round" transform="translate(1 1)">
    <g stroke="#222" opacity=".08">
      <path d="M0,30.2857143 L18.1621622,30.2857143"/>
      <path d="M51.963964,37.8571429 L29.7657658,37.8571429"/>
      <path d="M44.9009009,25.7428571 L56,25.7428571"/>
      <path d="M48.4324324,10.6 L29.7657658,10.6"/>
      <path d="M20.6846847,4.03809524 L36.3243243,4.03809524"/>
      <path d="M2.52252252,0 L27.2432432,0"/>
      <path d="M0.504504505,12.6190476 L9.08108108,12.6190476"/>
      <path d="M20.1801802,52.4952381 L4.54054054,52.4952381"/>
      <path d="M30.2702703,49.9714286 L45.4054054,49.9714286"/>
    </g>
    <path fill="#FFF" fill-rule="nonzero" stroke="#333" stroke-width="2" d="M24.2162162,19.6857143 C24.2162162,19.6857143 14.6306306,29.7809524 14.6306306,45.4285714 L22.1981982,45.4285714 C22.1981982,45.4285714 20.6846847,33.3142857 26.7387387,20.1904762 L24.2162162,19.6857143 Z"/>
    <path fill="#9E66BF" fill-rule="nonzero" stroke="#333" stroke-width="2" d="M27.6922523,19.2162857 C27.1171171,12.9673333 18.9643243,7.88438095 13.6216216,9.33304762 L14.6659459,11.3520952 L16.3207207,12.5130476 L16.6486486,14.7138095 L19.3225225,15.2942857 L19.2569369,17.1619048 L22.3445045,18.0351429 L23.3888288,20.0541905 L27.6922523,19.2162857 Z"/>
    <path fill="#9E66BF" fill-rule="nonzero" stroke="#333" stroke-width="2" d="M27.7477477,19.2364762 C23.7117117,14.4462857 14.1261261,14.9813333 10.5945946,19.2364762 L12.6126126,20.3015238 L14.6306306,20.3015238 L16.1441441,21.8965714 L18.6666667,20.8315238 L19.6756757,22.4265714 L22.7027027,21.3615238 L24.7207207,22.4265714 L27.7477477,19.2364762 Z"/>
    <path fill="#9E66BF" fill-rule="nonzero" stroke="#333" stroke-width="2" d="M27.7477477,19.2112381 C30.8353153,15.5264762 38.1657658,15.9353333 40.8648649,19.2112381 L39.3210811,20.0289524 L37.7772973,20.0289524 L36.621982,21.2555238 L34.6947748,20.4378095 L33.9228829,21.664381 L31.6072072,20.8466667 L30.0634234,21.664381 L27.7477477,19.2112381 Z"/>
    <path fill="#9E66BF" fill-rule="nonzero" stroke="#333" stroke-width="2" d="M27.6872072,19.1809524 C32.48,19.1809524 36.8792793,25.0917143 36.1174775,29.2761905 L34.5030631,28.6149524 L33.4940541,27.4287619 L31.8140541,27.3278095 L31.1985586,25.3087619 L29.7657658,25.5106667 L28.9181982,23.2190476 L27.3037838,22.5578095 L27.6872072,19.1809524 Z"/>
    <ellipse cx="22.45" cy="23.471" fill="#9E66BF" fill-rule="nonzero" stroke="#333" stroke-width="2" rx="2.27" ry="2.271"/>
    <ellipse cx="25.982" cy="22.462" fill="#9E66BF" fill-rule="nonzero" stroke="#333" stroke-width="2" rx="2.27" ry="2.271"/>
    <path stroke="#333" stroke-width="2" d="M10.5945946,45.4285714 L40.8648649,45.4285714"/>
  </g>
</svg>
