<svg xmlns="http://www.w3.org/2000/svg" width="18" height="7" viewBox="0 0 18 7">
  <g fill="none" fill-rule="evenodd" transform="translate(1 -5)">
    <rect width="16" height="16"/>
    <path fill="#1D8DDB" stroke="#1D8DDB" stroke-width=".3" d="M13.979764,6.14750179 C13.7962198,5.952501 13.4985396,5.952501 13.3138448,6.14750179 C13.1303006,6.34249938 13.1303006,6.66001165 13.3138448,6.85498684 L14.3927369,8.00122207 L1.60717273,7.99997088 L2.68606484,6.85373565 C2.86960902,6.65873486 2.86960902,6.34247378 2.68606484,6.14625059 C2.50252065,5.9512498 2.20484041,5.9512498 2.02014564,6.14625059 L0.137656632,8.14624227 C0.0494145836,8.23999228 0,8.36749255 0,8.5000008 C0,8.63250905 0.0494145836,8.75999972 0.137656632,8.85375933 L2.02014564,10.853751 C2.11191774,10.9512514 2.23310184,11 2.3531203,11 C2.47312973,11 2.59431383,10.9512514 2.68609496,10.853751 C2.86963914,10.6587502 2.86963914,10.3424891 2.68609496,10.146266 L1.60720285,9.00003072 L14.3939718,9.00003072 L13.3150797,10.146266 C13.1315355,10.3412667 13.1315355,10.6575278 13.3150797,10.853751 C13.4056741,10.9512514 13.5268582,11 13.6468797,11 C13.7669012,11 13.8880732,10.9512514 13.9798544,10.853751 L15.8623434,8.85375933 C15.9505854,8.76000932 16,8.63250905 16,8.5000008 C16,8.36749255 15.9505854,8.24000188 15.8623434,8.14624227 L13.979764,6.14750179 Z"/>
  </g>
</svg>
