<svg xmlns="http://www.w3.org/2000/svg" width="80" height="80" viewBox="0 0 80 80">
  <g fill="none">
    <circle cx="40" cy="40" r="40" fill="#20C4CB"/>
    <path fill="#FFF" d="M50.3265306,46.6636735 C48.7053061,48.44 46.4310204,49.3395918 45.364898,49.3395918 C44.1330612,49.3395918 43.4595918,48.5836735 43.3208163,47.4497959 C43.2748572,47.0144277 43.2902455,46.5747631 43.3665306,46.1436735 C43.7738776,43.6008163 44.7093878,42.0204082 44.6514286,41.5395918 C44.6342857,41.4016327 44.5567347,41.3330612 44.4546939,41.3330612 C43.6669388,41.3330612 40.9020408,44.1853061 40.482449,46.0759184 L40.1559184,47.5877551 C39.9420408,48.6530612 38.8971429,49.3395918 38.1795918,49.3395918 C37.8367347,49.3395918 37.5755102,49.1681633 37.5297959,48.7902041 C37.5158569,48.617155 37.5296357,48.4429902 37.5706122,48.2742857 L37.7240816,47.477551 C36.2334694,48.5918367 34.6253061,49.3444898 33.8726531,49.3444898 C32.8457143,49.3444898 32.2661224,48.795102 32.0628571,47.9697959 C31.3844898,48.8636735 30.4857143,49.3444898 29.5273469,49.3444898 C28.3044898,49.3444898 27.1273469,48.5363265 26.5608163,47.3379592 C25.755102,48.2432653 24.7991837,49.1281633 23.6579592,49.8604082 C21.9746939,50.9257143 20.0955102,51.7844898 17.8718367,51.7844898 C15.8179592,51.7844898 14.075102,50.684898 13.1110204,49.7918367 C11.6808163,48.4514286 10.9240816,46.4579592 10.7020408,44.6367347 C10,38.8979592 13.4938776,31.3714286 18.9069388,28.0734694 C20.1493878,27.3167347 21.5404082,26.9387755 22.8057143,26.9387755 C25.4065306,26.9387755 27.3477551,28.8 27.6195918,31.0228571 C27.8644898,33.0269388 27.0628571,34.7567347 24.842449,35.877551 C23.7077551,36.4514286 23.1461224,36.4244898 22.9689796,36.1510204 C22.8506122,35.9681633 22.917551,35.6595918 23.1461224,35.4685714 C25.2342857,33.7232653 25.2742857,32.2914286 25.0277551,30.2718367 C24.8685714,28.9738776 24.0138776,28.1412245 23.0563265,28.1412245 C18.9502041,28.1412245 13.0620408,37.3510204 13.8808163,44.0522449 C14.2,46.6644898 15.8016327,49.6881633 19.0865306,49.6881633 C20.1812245,49.6881633 21.3412245,49.3787755 22.3730612,48.8636735 C24.1746939,47.9428571 25.1926531,47.2146939 26.2163265,46.0228571 C25.9657143,42.9240816 28.6244898,39.035102 32.5787755,39.035102 C34.2889796,39.035102 35.7077551,39.722449 35.8759184,41.0971429 C36.0857143,42.8146939 34.6220408,43.1591837 34.0742857,43.1591837 C33.595102,43.1591837 32.8253061,43.0212245 32.7714286,42.5746939 C32.7126531,42.0930612 33.8073469,42.3689796 33.6726531,41.2685714 C33.5885714,40.5820408 32.875102,40.3412245 32.1902041,40.3412245 C29.7265306,40.3412245 28.3673469,43.7779592 28.6277551,45.9085714 C28.7453061,46.8710204 29.24,47.8326531 30.1297959,47.8326531 C30.8481633,47.8326531 31.884898,46.8016327 32.2816327,45.2897959 C32.5322449,44.2587755 33.5093878,43.5714286 34.2277551,43.5714286 C34.6040816,43.5714286 34.8644898,43.7428571 34.9110204,44.1208163 C34.9273469,44.2587755 34.9142857,44.4310204 34.8710204,44.6367347 C34.7893878,45.0832653 34.4465306,46.5697959 34.4620408,46.8783673 C34.4742857,47.1469388 34.6285714,47.515102 35.0938776,47.515102 C35.4636735,47.515102 36.8204082,46.7820408 38.077551,45.6538776 C38.4726531,43.6122449 38.96,41.0897959 38.997551,40.8906122 C39.1510204,40.0636735 39.4473469,39.2122449 41.1240816,39.2122449 C41.4669388,39.2122449 41.7273469,39.3836735 41.7771429,39.7959184 C41.7934694,39.9330612 41.7812245,40.1061224 41.7379592,40.3110204 L41.2693878,42.4326531 C42.7404082,40.4734694 45.0277551,39.0310204 46.3959184,39.0310204 C46.9787755,39.0310204 47.4269388,39.3395918 47.5028571,39.9583673 C47.5444898,40.3020408 47.444898,40.8865306 47.2171429,41.5395918 C46.7297959,42.8791837 46.1820408,44.8922449 45.8195918,46.6253061 C45.7420408,46.9926531 45.8702041,47.5493878 46.5436735,47.5493878 C47.0808163,47.5493878 48.8081633,46.8914286 50.202449,45.0497959 C50.1934694,44.7885714 50.1893878,44.5240816 50.1893878,44.2579592 C50.1893878,42.8146939 50.2914286,41.6465306 50.564898,40.7877551 C50.8383673,39.8938776 51.9689796,39.0359184 52.7208163,39.0359184 C53.0979592,39.0359184 53.3714286,39.2416327 53.3714286,39.6538776 C53.3714286,39.7918367 53.3371429,39.9640816 53.2685714,40.1346939 C52.755102,41.6465306 52.4816327,43.0563265 52.4816327,44.4653061 C52.4816327,45.2555102 52.6530612,46.5273469 52.8244898,47.1795918 C52.8579592,47.317551 52.8914286,47.4546939 53.0285714,47.4546939 C53.2685714,47.4546939 54.8767347,45.8742857 56.04,43.9493878 C55.0130612,43.2963265 54.4318367,42.0938776 54.4318367,40.6155102 C54.4318367,38.1420408 55.9036735,36.8702041 57.3404082,36.8702041 C58.4702041,36.8702041 59.4963265,37.6946939 59.4963265,39.3436735 C59.4963265,40.3755102 59.0857143,41.5436735 58.5044898,42.6783673 C58.5044898,42.6783673 58.7436735,42.7126531 58.8457143,42.7126531 C59.7355102,42.7126531 60.4195918,42.2995918 60.7967347,41.8530612 C60.9681633,41.6595918 61.1265306,41.5061224 61.2791837,41.4187755 C62.4253061,40.0342857 64.1036735,39.035102 66.0742857,39.035102 C67.7510204,39.035102 69.1991837,39.6881633 69.3665306,41.0628571 C69.5812245,42.8146939 68.084898,43.1591837 67.5706122,43.1591837 C67.0579592,43.1591837 66.2873469,43.0212245 66.2334694,42.5746939 C66.1787755,42.1281633 67.3028571,42.3689796 67.1722449,41.3036735 C67.0889796,40.6155102 66.3714286,40.3412245 65.6865306,40.3412245 C63.3934694,40.3412245 61.8171429,43.3991837 62.12,45.8742857 C62.2416327,46.8702041 62.7012245,47.8334694 63.5910204,47.8334694 C64.3093878,47.8334694 65.3820408,46.8016327 65.7787755,45.2897959 C66.0334694,44.2930612 67.004898,43.5714286 67.7240816,43.5714286 C68.0661224,43.5714286 68.3608163,43.7428571 68.4114286,44.1559184 C68.4367347,44.362449 68.3542857,44.8089796 67.9706122,46.4236735 C67.8146939,47.1110204 67.7828571,47.6955102 67.8416327,48.1763265 C67.9640816,49.1722449 68.4204082,49.8253061 68.842449,50.2040816 C68.9967347,50.3412245 69.0857143,50.5126531 69.0987755,50.6163265 C69.1314286,50.8906122 68.922449,51.1314286 68.5795918,51.1314286 C68.4767347,51.1314286 68.3404082,51.1314286 68.2285714,51.0628571 C66.4653061,50.3412245 65.7355102,49.1387755 65.5281633,48.004898 C64.8473469,48.8636735 63.9469388,49.3444898 63.0236735,49.3444898 C61.4489796,49.3444898 59.9118367,47.9697959 59.6938776,46.1828571 C59.6040816,45.4481633 59.6930612,44.6604082 59.9330612,43.884898 C59.2946939,44.28 58.6065306,44.4987755 57.9902041,44.4987755 C57.7844898,44.4987755 57.6146939,44.4987755 57.4089796,44.4653061 C55.8693878,46.6979592 54.2604082,48.244898 53.0285714,48.9322449 C52.5159184,49.2073469 52.037551,49.3444898 51.6946939,49.3444898 C51.4204082,49.3444898 51.1126531,49.2767347 50.9763265,49.035102 C50.6628571,48.5044898 50.4506122,47.6579592 50.3257143,46.6636735 L50.3265306,46.6636735 Z M55.9036735,39.3444898 C55.9036735,40.3077551 56.3820408,41.3036735 56.997551,41.9567347 C57.2383673,41.3036735 57.3746939,40.6506122 57.3746939,39.997551 C57.3746939,38.76 56.8955102,38.2097959 56.5191837,38.2097959 C56.0742857,38.2097959 55.9036735,38.8285714 55.9036735,39.3444898 Z"/>
  </g>
</svg>
