<svg xmlns="http://www.w3.org/2000/svg" width="80" height="80" viewBox="0 0 80 80">
  <g fill="#FF6000">
    <path d="M39.245283,0 C17.9445492,0 0,17.9434724 0,40.754717 C0,62.0554508 17.9445492,80 39.245283,80 C62.0554508,80 80,62.0554508 80,40.754717 C80,17.9434724 62.0554508,0 39.245283,0 Z M39.245283,75.4716981 C20.4412967,75.4716981 4.52830188,59.5587033 4.52830188,40.754717 C4.52830188,20.4412967 20.4412967,4.52830188 39.245283,4.52830188 C59.5587033,4.52830188 75.4716981,20.4412967 75.4716981,40.754717 C75.4716981,59.5587033 59.5587033,75.4716981 39.245283,75.4716981 Z"/>
    <path d="M33.3003903,16.0542929 C33.3003903,16.0542929 37.7412142,13.0418915 38.9064985,12.9526836 L40.2521373,14.6965908 L40.4983696,14.8075569 L41.4595402,14.2984186 L42.1161601,14.5714821 L44.7426396,18.1300103 C44.7426396,18.1300103 45.6681712,18.7533783 46.6412214,17.376094 C46.6412214,17.376094 47.1585255,16.8299671 47.1682452,15.9650849 L35.8329127,0.896551114 C35.8329127,0.896551114 34.5218329,0.350424196 34.1125254,1.83867443 L33.9084117,3.56843898 L36.2681394,6.77992634 L36.0208269,7.67091826 L35.6773975,7.76012625 L35.6082796,8.33562653 L36.4495738,9.43767148 C36.4495738,9.43767148 32.9180821,11.7995072 31.942872,12.8580361 L26.9642245,17.154162 L23.429493,20.5701749 L20.3127085,17.5566858 L15.3340611,13.2616478 C14.358851,12.2031189 10.8284393,9.8401953 10.8284393,9.8401953 L11.6664936,8.73923825 L11.5984557,8.16373796 L11.2561062,8.07452999 L11.0098737,7.18245016 L13.3685214,3.96987489 L13.1665676,2.24228616 C12.7561802,0.754035922 11.4429404,1.30016284 11.4429404,1.30016284 L0.109767872,16.3686966 C0.120567541,17.2357546 0.635711748,17.7797057 0.635711748,17.7797057 C1.60876192,19.15699 2.53321357,18.5357977 2.53321357,18.5357977 L5.16077302,14.9750937 L5.81631292,14.7020303 L6.78072336,15.2133444 L7.02371592,15.1002025 L8.37043462,13.3562953 C9.53787883,13.4455033 13.9765428,16.4579046 13.9765428,16.4579046 C15.3005821,17.2847102 15.7142095,18.4509413 15.7142095,18.4509413 C16.3675894,20.3286607 17.65383,21.3458493 17.65383,21.3458493 L20.1561133,23.7348825 L2.11418643,41.1663398 C2.11418643,41.1663398 -0.124584943,42.700282 0.857104962,44.1156428 C0.857104962,44.1156428 2.20706358,46.181569 5.12189422,44.057984 L11.9624045,37.8058098 L23.427333,26.8593378 L35.3145286,38.2094217 L42.1550389,44.4594198 C45.0687895,46.583005 46.4198281,44.5170786 46.4198281,44.5170786 C47.4004381,43.101718 45.1627467,41.5699515 45.1627467,41.5699515 L26.7017926,23.7294429 L29.6220231,20.9422376 C29.6220231,20.9422376 32.2571424,19.2984173 32.9116023,17.4196101 C32.9116023,17.4196101 31.9752709,16.8778348 33.3003903,16.0542929" transform="translate(16.889 15.111)"/>
  </g>
</svg>
