<svg xmlns="http://www.w3.org/2000/svg" width="88" height="88" viewBox="0 0 88 88">
  <g fill="none">
    <circle cx="44" cy="44" r="44" fill="#FFF"/>
    <path fill="#000" d="M48.6,17.0333333 C47.6466822,15.3071717 45.8040085,14.2634195 43.8333333,14.3333333 C41.8626581,14.2634195 40.0199845,15.3071717 39.0666667,17.0333333 L31.2666667,30.5666667 L33.3333333,31.7 C39.1512142,35.0526684 43.9806649,39.8821192 47.3333333,45.7 C50.3371606,50.8424534 52.0845506,56.6214033 52.4333333,62.5666667 L46.8666667,62.5666667 C46.4859582,57.5869263 45.0181709,52.751193 42.5666667,48.4 C39.7243309,43.3295301 35.5371366,39.1423357 30.4666667,36.3 L28.4,35.2 L21.0666667,47.9333333 L23.1333333,49.0333333 C28.051073,51.9365107 31.3859103,56.9142459 32.2,62.5666667 L19.6333333,62.5666667 C19.3063618,62.5514169 19.0075523,62.3771113 18.8333333,62.1 C18.660655,61.8009123 18.660655,61.432421 18.8333333,61.1333333 L22.3333333,55.1 C21.1624845,54.1139383 19.8169718,53.3563807 18.3666667,52.8666667 L14.8666667,58.9 C13.8329346,60.7308274 13.8329346,62.9691726 14.8666667,64.8 C15.7471912,66.5370055 17.5193932,67.6414212 19.4666667,67.6666667 L36.8333333,67.6666667 L36.8333333,65.2666667 C36.7904659,61.2518096 35.7479564,57.3108945 33.8,53.8 C32.172667,50.9920241 29.9686869,48.5608296 27.3333333,46.6666667 L30.1333333,41.8666667 C33.6031867,44.2292877 36.4876333,47.3531547 38.5666667,51 C41.0888352,55.2942385 42.4126345,60.1865403 42.4,65.1666667 L42.4,67.6666667 L57.0333333,67.6666667 L57.0333333,65.2666667 C57.0591145,57.7188351 55.0806143,50.2994595 51.3,43.7666667 C47.8975057,37.8748746 43.101854,32.9075408 37.3333333,29.3 L43.0333333,19.6 C43.2183279,19.334292 43.5109839,19.1635759 43.8333333,19.1333333 C44.1744452,19.092043 44.5013704,19.2827494 44.6333333,19.6 L69,61.6333333 C69.1616062,61.9256033 69.1609003,62.2805888 68.9981329,62.5722137 C68.8353656,62.8638386 68.5335958,63.0507886 68.2,63.0666667 L62.4666667,63.0666667 C62.5468243,64.6100711 62.5468243,66.1565956 62.4666667,67.7 L68.2,67.7 C70.1706752,67.7699138 72.0133489,66.7261616 72.9666667,65 C73.9215622,63.2672952 73.9215622,61.1660382 72.9666667,59.4333333 L48.6,17.0333333 Z"/>
  </g>
</svg>
